<?xml version="1.0" encoding="UTF-8" standalone="no"?>
<svg
   width="24"
   height="24"
   viewBox="0 0 24 24"
   version="1.1"
   xmlns="http://www.w3.org/2000/svg">
  <path
     d="M -4.9705627,12 12,-4.9705627 28.970563,12 12,28.970563 Z"
     id="path2"
     style="fill:none" />
  <path
     d="m 6.2724351,17.727565 c -1.2091526,-1.209153 -1.2091526,-3.17491 0,-4.384062 L 9.1008622,10.515076 7.7573593,9.1715729 4.9289322,12 c -1.9516147,1.951615 -1.9516147,5.119453 0,7.071068 1.9516147,1.951615 5.1194528,1.951615 7.0710678,0 l 2.828427,-2.828427 -1.343503,-1.343503 -2.828427,2.828427 c -1.2091525,1.209153 -3.1749093,1.209153 -4.3840619,0 z M 9.8786797,15.535534 15.535534,9.8786797 14.12132,8.4644661 8.4644661,14.12132 Z M 12,4.9289322 9.1715729,7.7573593 10.515076,9.1008622 13.343503,6.2724351 c 1.209152,-1.2091526 3.174909,-1.2091526 4.384062,0 1.209153,1.2091526 1.209153,3.1749094 0,4.3840619 l -2.828427,2.828427 1.343503,1.343503 L 19.071068,12 c 1.951615,-1.951615 1.951615,-5.1194531 0,-7.0710678 -1.951615,-1.9516147 -5.119453,-1.9516147 -7.071068,0 z"
     id="path4"
     style="fill:#828ea0;fill-opacity:1" />
</svg>
