<?xml version="1.0" encoding="UTF-8" standalone="no"?>
<!DOCTYPE svg PUBLIC "-//W3C//DTD SVG 1.1//EN"
 "http://www.w3.org/Graphics/SVG/1.1/DTD/svg11.dtd">
<!-- Generated by graphviz version 2.38.0 (20140413.2041)
 -->
<!-- Title: %3 Pages: 1 -->
<svg width="464pt" height="188pt"
 viewBox="0.00 0.00 463.50 188.00" xmlns="http://www.w3.org/2000/svg" xmlns:xlink="http://www.w3.org/1999/xlink">
<g id="graph0" class="graph" transform="scale(1 1) rotate(0) translate(4 184)">
<title>%3</title>
<polygon fill="none" stroke="none" points="-4,4 -4,-184 459.5,-184 459.5,4 -4,4"/>
<!-- 0 -->
<g id="node1" class="node"><title>0</title>
<text text-anchor="middle" x="243" y="-159.2" font-family="Segoe UI" font-size="11.00" fill="#222222">CompoundDefQueryVisitor</text>
</g>
<!-- 1 -->
<g id="node2" class="node"><title>1</title>
<text text-anchor="middle" x="243" y="-87.2" font-family="Segoe UI" font-size="11.00" fill="#222222">PageWriter</text>
</g>
<!-- 0&#45;&gt;1 -->
<g id="edge5" class="edge"><title>0&#45;&gt;1</title>
<path fill="none" stroke="#606ee0" d="M243,-143.697C243,-134.457 243,-122.984 243,-113.105"/>
<polygon fill="#606ee0" stroke="#606ee0" points="244.75,-113.104 243,-108.104 241.25,-113.104 244.75,-113.104"/>
</g>
<!-- 2 -->
<g id="node3" class="node"><title>2</title>
<text text-anchor="middle" x="52" y="-15.2" font-family="Segoe UI" font-size="11.00" fill="#222222">DirectoryPageWriter</text>
</g>
<!-- 1&#45;&gt;2 -->
<g id="edge1" class="edge"><title>1&#45;&gt;2</title>
<path fill="none" stroke="#606ee0" d="M213.991,-78.3685C184.628,-67.6072 138.616,-50.7442 103.122,-37.7358"/>
<polygon fill="#606ee0" stroke="#606ee0" points="103.704,-36.0854 98.4072,-36.0079 102.5,-39.3716 103.704,-36.0854"/>
</g>
<!-- 3 -->
<g id="node4" class="node"><title>3</title>
<text text-anchor="middle" x="181" y="-15.2" font-family="Segoe UI" font-size="11.00" fill="#222222">NamespacePageWriter</text>
</g>
<!-- 1&#45;&gt;3 -->
<g id="edge2" class="edge"><title>1&#45;&gt;3</title>
<path fill="none" stroke="#606ee0" d="M227.674,-71.6966C219.19,-62.1178 208.58,-50.1392 199.621,-40.024"/>
<polygon fill="#606ee0" stroke="#606ee0" points="200.775,-38.687 196.15,-36.1043 198.155,-41.0076 200.775,-38.687"/>
</g>
<!-- 4 -->
<g id="node5" class="node"><title>4</title>
<text text-anchor="middle" x="306" y="-15.2" font-family="Segoe UI" font-size="11.00" fill="#222222">GenericPageWriter</text>
</g>
<!-- 1&#45;&gt;4 -->
<g id="edge3" class="edge"><title>1&#45;&gt;4</title>
<path fill="none" stroke="#606ee0" d="M258.573,-71.6966C267.194,-62.1178 277.975,-50.1392 287.078,-40.024"/>
<polygon fill="#606ee0" stroke="#606ee0" points="288.562,-40.9915 290.606,-36.1043 285.96,-38.6501 288.562,-40.9915"/>
</g>
<!-- 5 -->
<g id="node6" class="node"><title>5</title>
<text text-anchor="middle" x="414" y="-15.2" font-family="Segoe UI" font-size="11.00" fill="#222222">ClassPageWriter</text>
</g>
<!-- 1&#45;&gt;5 -->
<g id="edge4" class="edge"><title>1&#45;&gt;5</title>
<path fill="none" stroke="#606ee0" d="M272.008,-77.1255C298.147,-66.425 337.038,-50.5049 367.512,-38.0301"/>
<polygon fill="#606ee0" stroke="#606ee0" points="368.363,-39.5727 372.328,-36.0589 367.037,-36.3336 368.363,-39.5727"/>
</g>
</g>
</svg>
