<?xml version="1.0" encoding="UTF-8" standalone="no"?>
<!DOCTYPE svg PUBLIC "-//W3C//DTD SVG 1.1//EN"
 "http://www.w3.org/Graphics/SVG/1.1/DTD/svg11.dtd">
<!-- Generated by graphviz version 2.38.0 (20140413.2041)
 -->
<!-- Title: %3 Pages: 1 -->
<svg width="454pt" height="116pt"
 viewBox="0.00 0.00 454.00 116.00" xmlns="http://www.w3.org/2000/svg" xmlns:xlink="http://www.w3.org/1999/xlink">
<g id="graph0" class="graph" transform="scale(1 1) rotate(0) translate(4 112)">
<title>%3</title>
<polygon fill="none" stroke="none" points="-4,4 -4,-112 450,-112 450,4 -4,4"/>
<!-- 0 -->
<g id="node1" class="node"><title>0</title>
<text text-anchor="middle" x="238.5" y="-87.2" font-family="Segoe UI" font-size="11.00" fill="#222222">MemberDefQueryVisitor</text>
</g>
<!-- 1 -->
<g id="node2" class="node"><title>1</title>
<text text-anchor="middle" x="46.5" y="-15.2" font-family="Segoe UI" font-size="11.00" fill="#222222">MemberDefWriter</text>
</g>
<!-- 0&#45;&gt;1 -->
<g id="edge1" class="edge"><title>0&#45;&gt;1</title>
<path fill="none" stroke="#606ee0" d="M191.532,-71.8761C163.301,-61.5836 127.337,-48.4719 98.2857,-37.8802"/>
<polygon fill="#606ee0" stroke="#606ee0" points="98.6129,-36.1369 93.3159,-36.0683 97.414,-39.4252 98.6129,-36.1369"/>
</g>
<!-- 2 -->
<g id="node3" class="node"><title>2</title>
<text text-anchor="middle" x="174.5" y="-15.2" font-family="Segoe UI" font-size="11.00" fill="#222222">MemberDefListingWriter</text>
</g>
<!-- 0&#45;&gt;2 -->
<g id="edge2" class="edge"><title>0&#45;&gt;2</title>
<path fill="none" stroke="#606ee0" d="M222.68,-71.6966C213.922,-62.1178 202.97,-50.1392 193.722,-40.024"/>
<polygon fill="#606ee0" stroke="#606ee0" points="194.804,-38.6136 190.138,-36.1043 192.221,-40.9754 194.804,-38.6136"/>
</g>
<!-- 3 -->
<g id="node4" class="node"><title>3</title>
<text text-anchor="middle" x="302.5" y="-15.2" font-family="Segoe UI" font-size="11.00" fill="#222222">FunctionDefWriter</text>
</g>
<!-- 0&#45;&gt;3 -->
<g id="edge3" class="edge"><title>0&#45;&gt;3</title>
<path fill="none" stroke="#606ee0" d="M254.32,-71.6966C263.078,-62.1178 274.03,-50.1392 283.278,-40.024"/>
<polygon fill="#606ee0" stroke="#606ee0" points="284.779,-40.9754 286.862,-36.1043 282.196,-38.6136 284.779,-40.9754"/>
</g>
<!-- 4 -->
<g id="node5" class="node"><title>4</title>
<text text-anchor="middle" x="406.5" y="-15.2" font-family="Segoe UI" font-size="11.00" fill="#222222">EnumDefWriter</text>
</g>
<!-- 0&#45;&gt;4 -->
<g id="edge4" class="edge"><title>0&#45;&gt;4</title>
<path fill="none" stroke="#606ee0" d="M279.597,-71.8761C304.654,-61.4356 336.674,-48.0943 362.28,-37.4249"/>
<polygon fill="#606ee0" stroke="#606ee0" points="363.041,-39.0036 366.984,-35.4651 361.695,-35.7729 363.041,-39.0036"/>
</g>
</g>
</svg>
