<?xml version="1.0" encoding="UTF-8" standalone="no"?>
<!DOCTYPE svg PUBLIC "-//W3C//DTD SVG 1.1//EN"
 "http://www.w3.org/Graphics/SVG/1.1/DTD/svg11.dtd">
<!-- Generated by graphviz version 2.38.0 (20140413.2041)
 -->
<!-- Title: %3 Pages: 1 -->
<svg width="225pt" height="3770pt"
 viewBox="0.00 0.00 225.00 3770.00" xmlns="http://www.w3.org/2000/svg" xmlns:xlink="http://www.w3.org/1999/xlink">
<g id="graph0" class="graph" transform="scale(1 1) rotate(0) translate(4 3766)">
<title>%3</title>
<polygon fill="none" stroke="none" points="-4,4 -4,-3766 221,-3766 221,4 -4,4"/>
<!-- 0 -->
<g id="node1" class="node"><title>0</title>
<text text-anchor="middle" x="27" y="-1878.2" font-family="Segoe UI" font-size="11.00" fill="#222222">Query</text>
</g>
<!-- 1 -->
<g id="node2" class="node"><title>1</title>
<text text-anchor="middle" x="153.5" y="-3741.2" font-family="Segoe UI" font-size="11.00" fill="#222222">ParamNameQuery</text>
</g>
<!-- 0&#45;&gt;1 -->
<g id="edge1" class="edge"><title>0&#45;&gt;1</title>
<path fill="none" stroke="#606ee0" d="M28.0593,-1899.21C28.7328,-2085.39 35.9626,-3637.74 90,-3717 93.7286,-3722.47 98.8167,-3726.84 104.491,-3730.32"/>
<polygon fill="#606ee0" stroke="#606ee0" points="104.357,-3731.26 106.957,-3731.77 105.24,-3729.75 104.357,-3731.26"/>
</g>
<!-- 2 -->
<g id="node3" class="node"><title>2</title>
<text text-anchor="middle" x="153.5" y="-3687.2" font-family="Segoe UI" font-size="11.00" fill="#222222">FileQuery</text>
</g>
<!-- 0&#45;&gt;2 -->
<g id="edge2" class="edge"><title>0&#45;&gt;2</title>
<path fill="none" stroke="#606ee0" d="M28.0787,-1899.25C28.9367,-2082.51 37.5653,-3586.17 90,-3663 97.746,-3674.35 111.345,-3680.96 123.884,-3684.79"/>
<polygon fill="#606ee0" stroke="#606ee0" points="123.731,-3685.66 126.376,-3685.52 124.223,-3683.98 123.731,-3685.66"/>
</g>
<!-- 3 -->
<g id="node4" class="node"><title>3</title>
<text text-anchor="middle" x="153.5" y="-3633.2" font-family="Segoe UI" font-size="11.00" fill="#222222">AnchorQuery</text>
</g>
<!-- 0&#45;&gt;3 -->
<g id="edge3" class="edge"><title>0&#45;&gt;3</title>
<path fill="none" stroke="#606ee0" d="M28.0992,-1899.25C29.1463,-2079.44 39.1648,-3534.6 90,-3609 96.4476,-3618.44 106.94,-3624.6 117.503,-3628.61"/>
<polygon fill="#606ee0" stroke="#606ee0" points="117.25,-3629.45 119.899,-3629.48 117.85,-3627.8 117.25,-3629.45"/>
</g>
<!-- 4 -->
<g id="node5" class="node"><title>4</title>
<text text-anchor="middle" x="153.5" y="-3579.2" font-family="Segoe UI" font-size="11.00" fill="#222222">Sect4Query</text>
</g>
<!-- 0&#45;&gt;4 -->
<g id="edge4" class="edge"><title>0&#45;&gt;4</title>
<path fill="none" stroke="#606ee0" d="M28.1209,-1899.23C29.3616,-2076.18 40.761,-3483.03 90,-3555 97.1977,-3565.52 109.423,-3571.97 121.162,-3575.91"/>
<polygon fill="#606ee0" stroke="#606ee0" points="121.167,-3576.83 123.815,-3576.76 121.702,-3575.16 121.167,-3576.83"/>
</g>
<!-- 5 -->
<g id="node6" class="node"><title>5</title>
<text text-anchor="middle" x="153.5" y="-3525.2" font-family="Segoe UI" font-size="11.00" fill="#222222">LanguageQuery</text>
</g>
<!-- 0&#45;&gt;5 -->
<g id="edge5" class="edge"><title>0&#45;&gt;5</title>
<path fill="none" stroke="#606ee0" d="M28.1437,-1899.18C29.5826,-2072.72 42.3539,-3431.45 90,-3501 94.9642,-3508.25 102.313,-3513.56 110.243,-3517.45"/>
<polygon fill="#606ee0" stroke="#606ee0" points="110.086,-3518.35 112.721,-3518.62 110.83,-3516.76 110.086,-3518.35"/>
</g>
<!-- 6 -->
<g id="node7" class="node"><title>6</title>
<text text-anchor="middle" x="153.5" y="-3471.2" font-family="Segoe UI" font-size="11.00" fill="#222222">DoxygenQuery</text>
</g>
<!-- 0&#45;&gt;6 -->
<g id="edge6" class="edge"><title>0&#45;&gt;6</title>
<path fill="none" stroke="#606ee0" d="M28.1678,-1899.11C29.8093,-2069.07 43.9436,-3379.87 90,-3447 95.4538,-3454.95 103.777,-3460.57 112.587,-3464.55"/>
<polygon fill="#606ee0" stroke="#606ee0" points="112.692,-3465.55 115.334,-3465.73 113.383,-3463.94 112.692,-3465.55"/>
</g>
<!-- 7 -->
<g id="node8" class="node"><title>7</title>
<text text-anchor="middle" x="153.5" y="-3417.2" font-family="Segoe UI" font-size="11.00" fill="#222222">ChildNodeQuery</text>
</g>
<!-- 0&#45;&gt;7 -->
<g id="edge7" class="edge"><title>0&#45;&gt;7</title>
<path fill="none" stroke="#606ee0" d="M28.1959,-1899.26C30.0579,-2066.55 45.5532,-3328.31 90,-3393 94.6101,-3399.71 101.264,-3404.76 108.527,-3408.57"/>
<polygon fill="#606ee0" stroke="#606ee0" points="108.173,-3409.37 110.8,-3409.71 108.958,-3407.8 108.173,-3409.37"/>
</g>
<!-- 8 -->
<g id="node9" class="node"><title>8</title>
<text text-anchor="middle" x="153.5" y="-3363.2" font-family="Segoe UI" font-size="11.00" fill="#222222">TemplateParamListQuery</text>
</g>
<!-- 0&#45;&gt;8 -->
<g id="edge8" class="edge"><title>0&#45;&gt;8</title>
<path fill="none" stroke="#606ee0" d="M28.2227,-1899.12C30.2973,-2062.47 47.1355,-3276.71 90,-3339 91.8323,-3341.66 93.9862,-3344.06 96.3721,-3346.23"/>
<polygon fill="#606ee0" stroke="#606ee0" points="95.9618,-3347.03 98.4289,-3348 97.1014,-3345.7 95.9618,-3347.03"/>
</g>
<!-- 9 -->
<g id="node10" class="node"><title>9</title>
<text text-anchor="middle" x="153.5" y="-3309.2" font-family="Segoe UI" font-size="11.00" fill="#222222">ListingQuery</text>
</g>
<!-- 0&#45;&gt;9 -->
<g id="edge9" class="edge"><title>0&#45;&gt;9</title>
<path fill="none" stroke="#606ee0" d="M28.2544,-1899.2C30.5614,-2059.43 48.7361,-3225.14 90,-3285 96.7361,-3294.77 107.803,-3301.03 118.766,-3305.03"/>
<polygon fill="#606ee0" stroke="#606ee0" points="118.602,-3305.9 121.25,-3305.9 119.18,-3304.25 118.602,-3305.9"/>
</g>
<!-- 10 -->
<g id="node11" class="node"><title>10</title>
<text text-anchor="middle" x="153.5" y="-3255.2" font-family="Segoe UI" font-size="11.00" fill="#222222">VariableListQuery</text>
</g>
<!-- 0&#45;&gt;10 -->
<g id="edge10" class="edge"><title>0&#45;&gt;10</title>
<path fill="none" stroke="#606ee0" d="M28.2881,-1899.23C30.8339,-2056.09 50.3318,-3173.57 90,-3231 94.0682,-3236.89 99.7095,-3241.5 105.952,-3245.12"/>
<polygon fill="#606ee0" stroke="#606ee0" points="105.666,-3245.96 108.277,-3246.4 106.513,-3244.43 105.666,-3245.96"/>
</g>
<!-- 11 -->
<g id="node12" class="node"><title>11</title>
<text text-anchor="middle" x="153.5" y="-3201.2" font-family="Segoe UI" font-size="11.00" fill="#222222">ParBlockQuery</text>
</g>
<!-- 0&#45;&gt;11 -->
<g id="edge11" class="edge"><title>0&#45;&gt;11</title>
<path fill="none" stroke="#606ee0" d="M28.3283,-1899.46C31.1367,-2053.6 51.9426,-3122.01 90,-3177 95.643,-3185.15 104.299,-3190.86 113.388,-3194.85"/>
<polygon fill="#606ee0" stroke="#606ee0" points="113.063,-3195.67 115.706,-3195.83 113.743,-3194.05 113.063,-3195.67"/>
</g>
<!-- 12 -->
<g id="node13" class="node"><title>12</title>
<text text-anchor="middle" x="153.5" y="-3147.2" font-family="Segoe UI" font-size="11.00" fill="#222222">HighlightQuery</text>
</g>
<!-- 0&#45;&gt;12 -->
<g id="edge12" class="edge"><title>0&#45;&gt;12</title>
<path fill="none" stroke="#606ee0" d="M28.3618,-1899.17C31.404,-2048.56 53.5084,-3070.39 90,-3123 95.3115,-3130.66 103.28,-3136.16 111.764,-3140.11"/>
<polygon fill="#606ee0" stroke="#606ee0" points="111.772,-3141.07 114.412,-3141.28 112.482,-3139.47 111.772,-3141.07"/>
</g>
<!-- 13 -->
<g id="node14" class="node"><title>13</title>
<text text-anchor="middle" x="153.5" y="-3093.2" font-family="Segoe UI" font-size="11.00" fill="#222222">LinkedTextQuery</text>
</g>
<!-- 0&#45;&gt;13 -->
<g id="edge13" class="edge"><title>0&#45;&gt;13</title>
<path fill="none" stroke="#606ee0" d="M27.8067,-1899.33C26.4526,-2041.78 20.3629,-2968.85 90,-3069 94.6475,-3075.68 101.318,-3080.73 108.587,-3084.53"/>
<polygon fill="#606ee0" stroke="#606ee0" points="108.234,-3085.33 110.861,-3085.66 109.018,-3083.76 108.234,-3085.33"/>
</g>
<!-- 14 -->
<g id="node15" class="node"><title>14</title>
<text text-anchor="middle" x="153.5" y="-3039.2" font-family="Segoe UI" font-size="11.00" fill="#222222">SpQuery</text>
</g>
<!-- 0&#45;&gt;14 -->
<g id="edge14" class="edge"><title>0&#45;&gt;14</title>
<path fill="none" stroke="#606ee0" d="M27.8549,-1899.37C26.9068,-2038.23 23.542,-2919.67 90,-3015 97.8582,-3026.27 111.468,-3032.87 123.984,-3036.72"/>
<polygon fill="#606ee0" stroke="#606ee0" points="123.826,-3037.59 126.471,-3037.46 124.321,-3035.91 123.826,-3037.59"/>
</g>
<!-- 15 -->
<g id="node16" class="node"><title>15</title>
<text text-anchor="middle" x="153.5" y="-2985.2" font-family="Segoe UI" font-size="11.00" fill="#222222">ParamQuery</text>
</g>
<!-- 0&#45;&gt;15 -->
<g id="edge15" class="edge"><title>0&#45;&gt;15</title>
<path fill="none" stroke="#606ee0" d="M27.9085,-1899.35C27.3832,-2034.31 26.7078,-2870.48 90,-2961 96.9264,-2970.91 108.293,-2977.21 119.446,-2981.2"/>
<polygon fill="#606ee0" stroke="#606ee0" points="119.323,-2982.08 121.971,-2982.07 119.891,-2980.43 119.323,-2982.08"/>
</g>
<!-- 16 -->
<g id="node17" class="node"><title>16</title>
<text text-anchor="middle" x="153.5" y="-2931.2" font-family="Segoe UI" font-size="11.00" fill="#222222">SimpleSectQuery</text>
</g>
<!-- 0&#45;&gt;16 -->
<g id="edge16" class="edge"><title>0&#45;&gt;16</title>
<path fill="none" stroke="#606ee0" d="M27.9675,-1899.26C27.8817,-2030.03 29.8604,-2821.26 90,-2907 94.413,-2913.29 100.616,-2918.13 107.414,-2921.84"/>
<polygon fill="#606ee0" stroke="#606ee0" points="107.323,-2922.78 109.944,-2923.16 108.132,-2921.23 107.323,-2922.78"/>
</g>
<!-- 17 -->
<g id="node18" class="node"><title>17</title>
<text text-anchor="middle" x="153.5" y="-2877.2" font-family="Segoe UI" font-size="11.00" fill="#222222">LinkQuery</text>
</g>
<!-- 0&#45;&gt;17 -->
<g id="edge17" class="edge"><title>0&#45;&gt;17</title>
<path fill="none" stroke="#606ee0" d="M28.0322,-1899.1C28.402,-2025.39 32.9997,-2772.03 90,-2853 97.8455,-2864.15 111.304,-2870.73 123.727,-2874.6"/>
<polygon fill="#606ee0" stroke="#606ee0" points="123.55,-2875.46 126.196,-2875.34 124.052,-2873.78 123.55,-2875.46"/>
</g>
<!-- 18 -->
<g id="node19" class="node"><title>18</title>
<text text-anchor="middle" x="153.5" y="-2823.2" font-family="Segoe UI" font-size="11.00" fill="#222222">ParaQuery</text>
</g>
<!-- 0&#45;&gt;18 -->
<g id="edge18" class="edge"><title>0&#45;&gt;18</title>
<path fill="none" stroke="#606ee0" d="M28.1055,-1899.26C28.9595,-2021.89 36.1833,-2722.85 90,-2799 97.8663,-2810.13 111.327,-2816.71 123.746,-2820.58"/>
<polygon fill="#606ee0" stroke="#606ee0" points="123.568,-2821.44 126.214,-2821.32 124.07,-2819.77 123.568,-2821.44"/>
</g>
<!-- 19 -->
<g id="node20" class="node"><title>19</title>
<text text-anchor="middle" x="153.5" y="-2769.2" font-family="Segoe UI" font-size="11.00" fill="#222222">ImageQuery</text>
</g>
<!-- 0&#45;&gt;19 -->
<g id="edge19" class="edge"><title>0&#45;&gt;19</title>
<path fill="none" stroke="#606ee0" d="M28.1879,-1899.32C29.5497,-2017.85 39.3469,-2673.65 90,-2745 96.9334,-2754.77 108.171,-2761.03 119.219,-2765.04"/>
<polygon fill="#606ee0" stroke="#606ee0" points="119.071,-2765.91 121.72,-2765.91 119.647,-2764.26 119.071,-2765.91"/>
</g>
<!-- 20 -->
<g id="node21" class="node"><title>20</title>
<text text-anchor="middle" x="153.5" y="-2715.2" font-family="Segoe UI" font-size="11.00" fill="#222222">Sect2Query</text>
</g>
<!-- 0&#45;&gt;20 -->
<g id="edge20" class="edge"><title>0&#45;&gt;20</title>
<path fill="none" stroke="#606ee0" d="M28.2799,-1899.27C30.172,-2013.27 42.4905,-2624.41 90,-2691 97.3396,-2701.29 109.45,-2707.69 121.066,-2711.66"/>
<polygon fill="#606ee0" stroke="#606ee0" points="121.042,-2712.57 123.69,-2712.52 121.587,-2710.91 121.042,-2712.57"/>
</g>
<!-- 21 -->
<g id="node22" class="node"><title>21</title>
<text text-anchor="middle" x="153.5" y="-2661.2" font-family="Segoe UI" font-size="11.00" fill="#222222">InternalS3Query</text>
</g>
<!-- 0&#45;&gt;21 -->
<g id="edge21" class="edge"><title>0&#45;&gt;21</title>
<path fill="none" stroke="#606ee0" d="M28.3819,-1899.1C30.8263,-2008.15 45.6139,-2575.14 90,-2637 95.1209,-2644.14 102.535,-2649.4 110.48,-2653.29"/>
<polygon fill="#606ee0" stroke="#606ee0" points="110.326,-2654.18 112.961,-2654.45 111.068,-2652.6 110.326,-2654.18"/>
</g>
<!-- 22 -->
<g id="node23" class="node"><title>22</title>
<text text-anchor="middle" x="153.5" y="-2607.2" font-family="Segoe UI" font-size="11.00" fill="#222222">ParamTypeQuery</text>
</g>
<!-- 0&#45;&gt;22 -->
<g id="edge22" class="edge"><title>0&#45;&gt;22</title>
<path fill="none" stroke="#606ee0" d="M28.504,-1899.15C31.5494,-2003.63 48.7617,-2525.91 90,-2583 94.4381,-2589.14 100.574,-2593.9 107.28,-2597.59"/>
<polygon fill="#606ee0" stroke="#606ee0" points="107.153,-2598.51 109.774,-2598.9 107.967,-2596.96 107.153,-2598.51"/>
</g>
<!-- 23 -->
<g id="node24" class="node"><title>23</title>
<text text-anchor="middle" x="153.5" y="-2553.2" font-family="Segoe UI" font-size="11.00" fill="#222222">EntryQuery</text>
</g>
<!-- 0&#45;&gt;23 -->
<g id="edge23" class="edge"><title>0&#45;&gt;23</title>
<path fill="none" stroke="#606ee0" d="M28.6408,-1899.03C32.3141,-1998.4 51.8824,-2476.63 90,-2529 97.6309,-2539.48 110.199,-2545.94 122.071,-2549.9"/>
<polygon fill="#606ee0" stroke="#606ee0" points="122.103,-2550.82 124.751,-2550.75 122.635,-2549.16 122.103,-2550.82"/>
</g>
<!-- 24 -->
<g id="node25" class="node"><title>24</title>
<text text-anchor="middle" x="153.5" y="-2499.2" font-family="Segoe UI" font-size="11.00" fill="#222222">TitleQuery</text>
</g>
<!-- 0&#45;&gt;24 -->
<g id="edge24" class="edge"><title>0&#45;&gt;24</title>
<path fill="none" stroke="#606ee0" d="M28.8072,-1899.05C33.1676,-1993.41 55.014,-2427.37 90,-2475 98.0685,-2485.99 111.549,-2492.55 123.929,-2496.45"/>
<polygon fill="#606ee0" stroke="#606ee0" points="123.742,-2497.31 126.389,-2497.2 124.25,-2495.64 123.742,-2497.31"/>
</g>
<!-- 25 -->
<g id="node26" class="node"><title>25</title>
<text text-anchor="middle" x="153.5" y="-2445.2" font-family="Segoe UI" font-size="11.00" fill="#222222">SectionDefQuery</text>
</g>
<!-- 0&#45;&gt;25 -->
<g id="edge25" class="edge"><title>0&#45;&gt;25</title>
<path fill="none" stroke="#606ee0" d="M27.7233,-1899.09C26.7796,-1983.22 26.7147,-2335.76 90,-2421 94.5183,-2427.09 100.695,-2431.82 107.415,-2435.49"/>
<polygon fill="#606ee0" stroke="#606ee0" points="107.292,-2436.41 109.913,-2436.8 108.103,-2434.86 107.292,-2436.41"/>
</g>
<!-- 26 -->
<g id="node27" class="node"><title>26</title>
<text text-anchor="middle" x="153.5" y="-2391.2" font-family="Segoe UI" font-size="11.00" fill="#222222">InternalS4Query</text>
</g>
<!-- 0&#45;&gt;26 -->
<g id="edge26" class="edge"><title>0&#45;&gt;26</title>
<path fill="none" stroke="#606ee0" d="M27.982,-1899.1C28.2446,-1977.98 32.9219,-2291.13 90,-2367 95.216,-2373.93 102.58,-2379.11 110.43,-2382.97"/>
<polygon fill="#606ee0" stroke="#606ee0" points="110.246,-2383.85 112.88,-2384.12 110.992,-2382.27 110.246,-2383.85"/>
</g>
<!-- 27 -->
<g id="node28" class="node"><title>27</title>
<text text-anchor="middle" x="153.5" y="-2337.2" font-family="Segoe UI" font-size="11.00" fill="#222222">EmptyQuery</text>
</g>
<!-- 0&#45;&gt;27 -->
<g id="edge27" class="edge"><title>0&#45;&gt;27</title>
<path fill="none" stroke="#606ee0" d="M28.3082,-1899.29C29.8889,-1972.86 39.1463,-2246.49 90,-2313 97.2085,-2322.43 108.377,-2328.61 119.29,-2332.65"/>
<polygon fill="#606ee0" stroke="#606ee0" points="119.111,-2333.52 121.76,-2333.53 119.698,-2331.87 119.111,-2333.52"/>
</g>
<!-- 28 -->
<g id="node29" class="node"><title>28</title>
<text text-anchor="middle" x="153.5" y="-2283.2" font-family="Segoe UI" font-size="11.00" fill="#222222">MemberIndexQuery</text>
</g>
<!-- 0&#45;&gt;28 -->
<g id="edge28" class="edge"><title>0&#45;&gt;28</title>
<path fill="none" stroke="#606ee0" d="M28.7236,-1899.27C31.7365,-1966.85 45.2949,-2201.73 90,-2259 93.0069,-2262.85 96.6728,-2266.16 100.706,-2269.01"/>
<polygon fill="#606ee0" stroke="#606ee0" points="100.421,-2269.87 102.983,-2270.54 101.398,-2268.42 100.421,-2269.87"/>
</g>
<!-- 29 -->
<g id="node30" class="node"><title>29</title>
<text text-anchor="middle" x="153.5" y="-2229.2" font-family="Segoe UI" font-size="11.00" fill="#222222">NodeQuery</text>
</g>
<!-- 0&#45;&gt;29 -->
<g id="edge29" class="edge"><title>0&#45;&gt;29</title>
<path fill="none" stroke="#606ee0" d="M29.2651,-1899.15C33.8484,-1960.18 51.388,-2156.86 90,-2205 97.7009,-2214.6 109.477,-2220.86 120.739,-2224.9"/>
<polygon fill="#606ee0" stroke="#606ee0" points="120.635,-2225.79 123.284,-2225.78 121.207,-2224.14 120.635,-2225.79"/>
</g>
<!-- 30 -->
<g id="node31" class="node"><title>30</title>
<text text-anchor="middle" x="153.5" y="-2175.2" font-family="Segoe UI" font-size="11.00" fill="#222222">GraphQuery</text>
</g>
<!-- 0&#45;&gt;30 -->
<g id="edge30" class="edge"><title>0&#45;&gt;30</title>
<path fill="none" stroke="#606ee0" d="M30.0187,-1899.1C36.3667,-1953.12 57.4546,-2111.92 90,-2151 97.6646,-2160.2 109.054,-2166.35 120.019,-2170.42"/>
<polygon fill="#606ee0" stroke="#606ee0" points="119.849,-2171.29 122.498,-2171.31 120.44,-2169.64 119.849,-2171.29"/>
</g>
<!-- 31 -->
<g id="node32" class="node"><title>31</title>
<text text-anchor="middle" x="153.5" y="-2121.2" font-family="Segoe UI" font-size="11.00" fill="#222222">RefQuery</text>
</g>
<!-- 0&#45;&gt;31 -->
<g id="edge31" class="edge"><title>0&#45;&gt;31</title>
<path fill="none" stroke="#606ee0" d="M28.2058,-1899.07C29.616,-1939.53 38.4749,-2038.4 90,-2097 98.7808,-2106.99 111.914,-2113.41 123.879,-2117.47"/>
<polygon fill="#606ee0" stroke="#606ee0" points="123.606,-2118.3 126.254,-2118.25 124.153,-2116.64 123.606,-2118.3"/>
</g>
<!-- 32 -->
<g id="node33" class="node"><title>32</title>
<text text-anchor="middle" x="153.5" y="-2067.2" font-family="Segoe UI" font-size="11.00" fill="#222222">InternalQuery</text>
</g>
<!-- 0&#45;&gt;32 -->
<g id="edge32" class="edge"><title>0&#45;&gt;32</title>
<path fill="none" stroke="#606ee0" d="M30.3028,-1899.26C35.3531,-1932.1 50.301,-2001.59 90,-2043 97.2388,-2050.55 106.942,-2056.11 116.541,-2060.15"/>
<polygon fill="#606ee0" stroke="#606ee0" points="116.332,-2061.01 118.977,-2061.14 116.993,-2059.39 116.332,-2061.01"/>
</g>
<!-- 33 -->
<g id="node34" class="node"><title>33</title>
<text text-anchor="middle" x="153.5" y="-2013.2" font-family="Segoe UI" font-size="11.00" fill="#222222">Sect1Query</text>
</g>
<!-- 0&#45;&gt;33 -->
<g id="edge33" class="edge"><title>0&#45;&gt;33</title>
<path fill="none" stroke="#606ee0" d="M34.2158,-1899.03C43.1657,-1922.59 61.7741,-1963.81 90,-1989 98.9358,-1996.98 110.59,-2002.87 121.411,-2007.08"/>
<polygon fill="#606ee0" stroke="#606ee0" points="121.203,-2007.93 123.851,-2008 121.824,-2006.3 121.203,-2007.93"/>
</g>
<!-- 34 -->
<g id="node35" class="node"><title>34</title>
<text text-anchor="middle" x="153.5" y="-1959.2" font-family="Segoe UI" font-size="11.00" fill="#222222">RefTextQuery</text>
</g>
<!-- 0&#45;&gt;34 -->
<g id="edge34" class="edge"><title>0&#45;&gt;34</title>
<path fill="none" stroke="#606ee0" d="M45.7953,-1899.16C57.5877,-1910.49 73.8162,-1924.8 90,-1935 98.0663,-1940.08 107.254,-1944.64 116.056,-1948.5"/>
<polygon fill="#606ee0" stroke="#606ee0" points="116.131,-1949.49 118.773,-1949.68 116.826,-1947.88 116.131,-1949.49"/>
</g>
<!-- 35 -->
<g id="node36" class="node"><title>35</title>
<text text-anchor="middle" x="153.5" y="-1905.2" font-family="Segoe UI" font-size="11.00" fill="#222222">MarkupQuery</text>
</g>
<!-- 0&#45;&gt;35 -->
<g id="edge35" class="edge"><title>0&#45;&gt;35</title>
<path fill="none" stroke="#606ee0" d="M54.0993,-1886.66C72.041,-1890.55 96.1142,-1895.77 115.959,-1900.08"/>
<polygon fill="#606ee0" stroke="#606ee0" points="116.226,-1901.03 118.855,-1900.7 116.597,-1899.32 116.226,-1901.03"/>
</g>
<!-- 36 -->
<g id="node37" class="node"><title>36</title>
<text text-anchor="middle" x="153.5" y="-1851.2" font-family="Segoe UI" font-size="11.00" fill="#222222">MemberDefQuery</text>
</g>
<!-- 0&#45;&gt;36 -->
<g id="edge36" class="edge"><title>0&#45;&gt;36</title>
<path fill="none" stroke="#606ee0" d="M54.0993,-1875.34C68.7789,-1872.16 87.563,-1868.08 104.777,-1864.35"/>
<polygon fill="#606ee0" stroke="#606ee0" points="105.047,-1865.19 107.305,-1863.8 104.676,-1863.48 105.047,-1865.19"/>
</g>
<!-- 37 -->
<g id="node38" class="node"><title>37</title>
<text text-anchor="middle" x="153.5" y="-1797.2" font-family="Segoe UI" font-size="11.00" fill="#222222">ParamListItemQuery</text>
</g>
<!-- 0&#45;&gt;37 -->
<g id="edge37" class="edge"><title>0&#45;&gt;37</title>
<path fill="none" stroke="#606ee0" d="M45.7953,-1862.84C57.5877,-1851.51 73.8162,-1837.2 90,-1827 94.3832,-1824.24 99.0975,-1821.63 103.901,-1819.21"/>
<polygon fill="#606ee0" stroke="#606ee0" points="104.416,-1819.93 106.265,-1818.03 103.637,-1818.36 104.416,-1819.93"/>
</g>
<!-- 38 -->
<g id="node39" class="node"><title>38</title>
<text text-anchor="middle" x="153.5" y="-1743.2" font-family="Segoe UI" font-size="11.00" fill="#222222">DescriptionQuery</text>
</g>
<!-- 0&#45;&gt;38 -->
<g id="edge38" class="edge"><title>0&#45;&gt;38</title>
<path fill="none" stroke="#606ee0" d="M34.2158,-1862.97C43.1657,-1839.41 61.7741,-1798.19 90,-1773 94.9477,-1768.58 100.729,-1764.81 106.741,-1761.6"/>
<polygon fill="#606ee0" stroke="#606ee0" points="107.15,-1762.37 108.965,-1760.44 106.343,-1760.82 107.15,-1762.37"/>
</g>
<!-- 39 -->
<g id="node40" class="node"><title>39</title>
<text text-anchor="middle" x="153.5" y="-1689.2" font-family="Segoe UI" font-size="11.00" fill="#222222">InternalS1Query</text>
</g>
<!-- 0&#45;&gt;39 -->
<g id="edge39" class="edge"><title>0&#45;&gt;39</title>
<path fill="none" stroke="#606ee0" d="M30.3028,-1862.74C35.3531,-1829.9 50.301,-1760.41 90,-1719 95.7077,-1713.05 102.948,-1708.33 110.46,-1704.62"/>
<polygon fill="#606ee0" stroke="#606ee0" points="110.921,-1705.37 112.799,-1703.5 110.166,-1703.79 110.921,-1705.37"/>
</g>
<!-- 40 -->
<g id="node41" class="node"><title>40</title>
<text text-anchor="middle" x="153.5" y="-1635.2" font-family="Segoe UI" font-size="11.00" fill="#222222">ListQuery</text>
</g>
<!-- 0&#45;&gt;40 -->
<g id="edge40" class="edge"><title>0&#45;&gt;40</title>
<path fill="none" stroke="#606ee0" d="M28.2058,-1862.93C29.616,-1822.47 38.4749,-1723.6 90,-1665 98.7808,-1655.01 111.914,-1648.59 123.879,-1644.53"/>
<polygon fill="#606ee0" stroke="#606ee0" points="124.153,-1645.36 126.254,-1643.75 123.606,-1643.7 124.153,-1645.36"/>
</g>
<!-- 41 -->
<g id="node42" class="node"><title>41</title>
<text text-anchor="middle" x="153.5" y="-1581.2" font-family="Segoe UI" font-size="11.00" fill="#222222">HeadingQuery</text>
</g>
<!-- 0&#45;&gt;41 -->
<g id="edge41" class="edge"><title>0&#45;&gt;41</title>
<path fill="none" stroke="#606ee0" d="M30.0187,-1862.9C36.3667,-1808.88 57.4546,-1650.08 90,-1611 96.0319,-1603.76 104.371,-1598.41 112.995,-1594.47"/>
<polygon fill="#606ee0" stroke="#606ee0" points="113.739,-1595.1 115.678,-1593.3 113.037,-1593.5 113.739,-1595.1"/>
</g>
<!-- 42 -->
<g id="node43" class="node"><title>42</title>
<text text-anchor="middle" x="153.5" y="-1527.2" font-family="Segoe UI" font-size="11.00" fill="#222222">ReferenceQuery</text>
</g>
<!-- 0&#45;&gt;42 -->
<g id="edge42" class="edge"><title>0&#45;&gt;42</title>
<path fill="none" stroke="#606ee0" d="M29.2651,-1862.85C33.8484,-1801.82 51.388,-1605.14 90,-1557 95.362,-1550.32 102.7,-1545.25 110.464,-1541.43"/>
<polygon fill="#606ee0" stroke="#606ee0" points="111.001,-1542.14 112.886,-1540.28 110.252,-1540.56 111.001,-1542.14"/>
</g>
<!-- 43 -->
<g id="node44" class="node"><title>43</title>
<text text-anchor="middle" x="153.5" y="-1473.2" font-family="Segoe UI" font-size="11.00" fill="#222222">ParamListQuery</text>
</g>
<!-- 0&#45;&gt;43 -->
<g id="edge43" class="edge"><title>0&#45;&gt;43</title>
<path fill="none" stroke="#606ee0" d="M28.7236,-1862.73C31.7365,-1795.15 45.2949,-1560.27 90,-1503 95.4048,-1496.08 102.938,-1490.9 110.909,-1487.03"/>
<polygon fill="#606ee0" stroke="#606ee0" points="111.498,-1487.72 113.395,-1485.88 110.759,-1486.14 111.498,-1487.72"/>
</g>
<!-- 44 -->
<g id="node45" class="node"><title>44</title>
<text text-anchor="middle" x="153.5" y="-1419.2" font-family="Segoe UI" font-size="11.00" fill="#222222">XRefSectQuery</text>
</g>
<!-- 0&#45;&gt;44 -->
<g id="edge44" class="edge"><title>0&#45;&gt;44</title>
<path fill="none" stroke="#606ee0" d="M28.3082,-1862.71C29.8889,-1789.14 39.1463,-1515.51 90,-1449 95.7255,-1441.51 103.949,-1436.07 112.559,-1432.12"/>
<polygon fill="#606ee0" stroke="#606ee0" points="113.303,-1432.75 115.241,-1430.95 112.6,-1431.15 113.303,-1432.75"/>
</g>
<!-- 45 -->
<g id="node46" class="node"><title>45</title>
<text text-anchor="middle" x="153.5" y="-1365.2" font-family="Segoe UI" font-size="11.00" fill="#222222">BlockQuoteQuery</text>
</g>
<!-- 0&#45;&gt;45 -->
<g id="edge45" class="edge"><title>0&#45;&gt;45</title>
<path fill="none" stroke="#606ee0" d="M27.982,-1862.9C28.2446,-1784.02 32.9219,-1470.87 90,-1395 94.2401,-1389.36 99.8992,-1384.89 106.086,-1381.34"/>
<polygon fill="#606ee0" stroke="#606ee0" points="106.619,-1382.04 108.387,-1380.07 105.775,-1380.51 106.619,-1382.04"/>
</g>
<!-- 46 -->
<g id="node47" class="node"><title>46</title>
<text text-anchor="middle" x="153.5" y="-1311.2" font-family="Segoe UI" font-size="11.00" fill="#222222">CodeLineQuery</text>
</g>
<!-- 0&#45;&gt;46 -->
<g id="edge46" class="edge"><title>0&#45;&gt;46</title>
<path fill="none" stroke="#606ee0" d="M27.7233,-1862.91C26.7796,-1778.78 26.7147,-1426.24 90,-1341 95.4916,-1333.6 103.432,-1328.21 111.822,-1324.28"/>
<polygon fill="#606ee0" stroke="#606ee0" points="112.514,-1324.93 114.438,-1323.11 111.798,-1323.33 112.514,-1324.93"/>
</g>
<!-- 47 -->
<g id="node48" class="node"><title>47</title>
<text text-anchor="middle" x="153.5" y="-1257.2" font-family="Segoe UI" font-size="11.00" fill="#222222">CaptionQuery</text>
</g>
<!-- 0&#45;&gt;47 -->
<g id="edge47" class="edge"><title>0&#45;&gt;47</title>
<path fill="none" stroke="#606ee0" d="M28.8072,-1862.95C33.1676,-1768.59 55.014,-1334.63 90,-1287 96.2569,-1278.48 105.769,-1272.62 115.498,-1268.6"/>
<polygon fill="#606ee0" stroke="#606ee0" points="115.973,-1269.35 117.974,-1267.61 115.328,-1267.72 115.973,-1269.35"/>
</g>
<!-- 48 -->
<g id="node49" class="node"><title>48</title>
<text text-anchor="middle" x="153.5" y="-1203.2" font-family="Segoe UI" font-size="11.00" fill="#222222">TocItemQuery</text>
</g>
<!-- 0&#45;&gt;48 -->
<g id="edge48" class="edge"><title>0&#45;&gt;48</title>
<path fill="none" stroke="#606ee0" d="M28.6408,-1862.97C32.3141,-1763.6 51.8824,-1285.37 90,-1233 96.0919,-1224.63 105.33,-1218.83 114.849,-1214.81"/>
<polygon fill="#606ee0" stroke="#606ee0" points="115.285,-1215.58 117.274,-1213.83 114.628,-1213.96 115.285,-1215.58"/>
</g>
<!-- 49 -->
<g id="node50" class="node"><title>49</title>
<text text-anchor="middle" x="153.5" y="-1149.2" font-family="Segoe UI" font-size="11.00" fill="#222222">CopyQuery</text>
</g>
<!-- 0&#45;&gt;49 -->
<g id="edge49" class="edge"><title>0&#45;&gt;49</title>
<path fill="none" stroke="#606ee0" d="M28.504,-1862.85C31.5494,-1758.37 48.7617,-1236.09 90,-1179 97.5926,-1168.49 110.155,-1162.03 122.034,-1158.08"/>
<polygon fill="#606ee0" stroke="#606ee0" points="122.599,-1158.81 124.715,-1157.22 122.067,-1157.15 122.599,-1158.81"/>
</g>
<!-- 50 -->
<g id="node51" class="node"><title>50</title>
<text text-anchor="middle" x="153.5" y="-1095.2" font-family="Segoe UI" font-size="11.00" fill="#222222">LocationQuery</text>
</g>
<!-- 0&#45;&gt;50 -->
<g id="edge50" class="edge"><title>0&#45;&gt;50</title>
<path fill="none" stroke="#606ee0" d="M28.3819,-1862.9C30.8263,-1753.85 45.6139,-1186.86 90,-1125 95.7809,-1116.94 104.485,-1111.27 113.575,-1107.28"/>
<polygon fill="#606ee0" stroke="#606ee0" points="113.93,-1108.08 115.893,-1106.3 113.249,-1106.47 113.93,-1108.08"/>
</g>
<!-- 51 -->
<g id="node52" class="node"><title>51</title>
<text text-anchor="middle" x="153.5" y="-1041.2" font-family="Segoe UI" font-size="11.00" fill="#222222">ListOfAllMembersQuery</text>
</g>
<!-- 0&#45;&gt;51 -->
<g id="edge51" class="edge"><title>0&#45;&gt;51</title>
<path fill="none" stroke="#606ee0" d="M28.2799,-1862.73C30.172,-1748.73 42.4905,-1137.59 90,-1071 91.8771,-1068.37 94.0663,-1065.99 96.4794,-1063.84"/>
<polygon fill="#606ee0" stroke="#606ee0" points="97.2089,-1064.37 98.5572,-1062.09 96.0814,-1063.04 97.2089,-1064.37"/>
</g>
<!-- 52 -->
<g id="node53" class="node"><title>52</title>
<text text-anchor="middle" x="153.5" y="-987.2" font-family="Segoe UI" font-size="11.00" fill="#222222">CompoundRefQuery</text>
</g>
<!-- 0&#45;&gt;52 -->
<g id="edge52" class="edge"><title>0&#45;&gt;52</title>
<path fill="none" stroke="#606ee0" d="M28.1879,-1862.68C29.5497,-1744.15 39.3469,-1088.35 90,-1017 92.5978,-1013.34 95.7999,-1010.17 99.3698,-1007.43"/>
<polygon fill="#606ee0" stroke="#606ee0" points="99.8899,-1008.13 101.389,-1005.95 98.8557,-1006.72 99.8899,-1008.13"/>
</g>
<!-- 53 -->
<g id="node54" class="node"><title>53</title>
<text text-anchor="middle" x="153.5" y="-933.2" font-family="Segoe UI" font-size="11.00" fill="#222222">TableQuery</text>
</g>
<!-- 0&#45;&gt;53 -->
<g id="edge53" class="edge"><title>0&#45;&gt;53</title>
<path fill="none" stroke="#606ee0" d="M28.1055,-1862.74C28.9595,-1740.11 36.1833,-1039.15 90,-963 97.23,-952.77 109.186,-946.382 120.715,-942.41"/>
<polygon fill="#606ee0" stroke="#606ee0" points="121.222,-943.164 123.322,-941.549 120.673,-941.502 121.222,-943.164"/>
</g>
<!-- 54 -->
<g id="node55" class="node"><title>54</title>
<text text-anchor="middle" x="153.5" y="-879.2" font-family="Segoe UI" font-size="11.00" fill="#222222">VarListEntryQuery</text>
</g>
<!-- 0&#45;&gt;54 -->
<g id="edge54" class="edge"><title>0&#45;&gt;54</title>
<path fill="none" stroke="#606ee0" d="M28.0322,-1862.9C28.402,-1736.61 32.9997,-989.975 90,-909 94.1205,-903.146 99.7893,-898.551 106.043,-894.947"/>
<polygon fill="#606ee0" stroke="#606ee0" points="106.605,-895.636 108.372,-893.663 105.76,-894.104 106.605,-895.636"/>
</g>
<!-- 55 -->
<g id="node56" class="node"><title>55</title>
<text text-anchor="middle" x="153.5" y="-825.2" font-family="Segoe UI" font-size="11.00" fill="#222222">IndexEntryQuery</text>
</g>
<!-- 0&#45;&gt;55 -->
<g id="edge55" class="edge"><title>0&#45;&gt;55</title>
<path fill="none" stroke="#606ee0" d="M27.9675,-1862.74C27.8817,-1731.97 29.8604,-940.739 90,-855 94.7364,-848.247 101.535,-843.17 108.919,-839.356"/>
<polygon fill="#606ee0" stroke="#606ee0" points="109.375,-840.106 111.227,-838.213 108.599,-838.538 109.375,-840.106"/>
</g>
<!-- 56 -->
<g id="node57" class="node"><title>56</title>
<text text-anchor="middle" x="153.5" y="-771.2" font-family="Segoe UI" font-size="11.00" fill="#222222">FormulaQuery</text>
</g>
<!-- 0&#45;&gt;56 -->
<g id="edge56" class="edge"><title>0&#45;&gt;56</title>
<path fill="none" stroke="#606ee0" d="M27.9085,-1862.65C27.3832,-1727.69 26.7078,-891.523 90,-801 95.9941,-792.427 105.313,-786.555 114.942,-782.54"/>
<polygon fill="#606ee0" stroke="#606ee0" points="115.399,-783.3 117.395,-781.559 114.749,-781.675 115.399,-783.3"/>
</g>
<!-- 57 -->
<g id="node58" class="node"><title>57</title>
<text text-anchor="middle" x="153.5" y="-717.2" font-family="Segoe UI" font-size="11.00" fill="#222222">ParamNameListQuery</text>
</g>
<!-- 0&#45;&gt;57 -->
<g id="edge57" class="edge"><title>0&#45;&gt;57</title>
<path fill="none" stroke="#606ee0" d="M27.8549,-1862.63C26.9068,-1723.77 23.542,-842.327 90,-747 91.8484,-744.349 94.0149,-741.956 96.4106,-739.796"/>
<polygon fill="#606ee0" stroke="#606ee0" points="97.14,-740.324 98.4749,-738.037 96.0047,-738.992 97.14,-740.324"/>
</g>
<!-- 58 -->
<g id="node59" class="node"><title>58</title>
<text text-anchor="middle" x="153.5" y="-663.2" font-family="Segoe UI" font-size="11.00" fill="#222222">MemberRefQuery</text>
</g>
<!-- 0&#45;&gt;58 -->
<g id="edge58" class="edge"><title>0&#45;&gt;58</title>
<path fill="none" stroke="#606ee0" d="M27.8067,-1862.67C26.4526,-1720.22 20.3629,-793.152 90,-693 94.0866,-687.123 99.7376,-682.515 105.984,-678.905"/>
<polygon fill="#606ee0" stroke="#606ee0" points="106.545,-679.595 108.31,-677.62 105.699,-678.063 106.545,-679.595"/>
</g>
<!-- 59 -->
<g id="node60" class="node"><title>59</title>
<text text-anchor="middle" x="153.5" y="-609.2" font-family="Segoe UI" font-size="11.00" fill="#222222">TocListQuery</text>
</g>
<!-- 0&#45;&gt;59 -->
<g id="edge59" class="edge"><title>0&#45;&gt;59</title>
<path fill="none" stroke="#606ee0" d="M28.3618,-1862.83C31.404,-1713.44 53.5084,-691.609 90,-639 96.5762,-629.519 107.225,-623.343 117.884,-619.33"/>
<polygon fill="#606ee0" stroke="#606ee0" points="118.247,-620.129 120.301,-618.456 117.652,-618.483 118.247,-620.129"/>
</g>
<!-- 60 -->
<g id="node61" class="node"><title>60</title>
<text text-anchor="middle" x="153.5" y="-555.2" font-family="Segoe UI" font-size="11.00" fill="#222222">Sect3Query</text>
</g>
<!-- 0&#45;&gt;60 -->
<g id="edge60" class="edge"><title>0&#45;&gt;60</title>
<path fill="none" stroke="#606ee0" d="M28.3283,-1862.54C31.1367,-1708.4 51.9426,-639.988 90,-585 97.2543,-574.518 109.488,-568.076 121.219,-564.131"/>
<polygon fill="#606ee0" stroke="#606ee0" points="121.758,-564.876 123.869,-563.277 121.221,-563.211 121.758,-564.876"/>
</g>
<!-- 61 -->
<g id="node62" class="node"><title>61</title>
<text text-anchor="middle" x="153.5" y="-501.2" font-family="Segoe UI" font-size="11.00" fill="#222222">InternalS2Query</text>
</g>
<!-- 0&#45;&gt;61 -->
<g id="edge61" class="edge"><title>0&#45;&gt;61</title>
<path fill="none" stroke="#606ee0" d="M28.2881,-1862.77C30.8339,-1705.91 50.3318,-588.432 90,-531 94.9919,-523.773 102.352,-518.466 110.285,-514.574"/>
<polygon fill="#606ee0" stroke="#606ee0" points="110.872,-515.266 112.764,-513.411 110.129,-513.681 110.872,-515.266"/>
</g>
<!-- 62 -->
<g id="node63" class="node"><title>62</title>
<text text-anchor="middle" x="153.5" y="-447.2" font-family="Segoe UI" font-size="11.00" fill="#222222">CompoundIndexQuery</text>
</g>
<!-- 0&#45;&gt;62 -->
<g id="edge62" class="edge"><title>0&#45;&gt;62</title>
<path fill="none" stroke="#606ee0" d="M28.2544,-1862.8C30.5614,-1702.57 48.7361,-536.855 90,-477 91.8344,-474.339 93.99,-471.938 96.3773,-469.773"/>
<polygon fill="#606ee0" stroke="#606ee0" points="97.1066,-470.3 98.4351,-468.009 95.9676,-468.972 97.1066,-470.3"/>
</g>
<!-- 63 -->
<g id="node64" class="node"><title>63</title>
<text text-anchor="middle" x="153.5" y="-393.2" font-family="Segoe UI" font-size="11.00" fill="#222222">UrlLinkQuery</text>
</g>
<!-- 0&#45;&gt;63 -->
<g id="edge63" class="edge"><title>0&#45;&gt;63</title>
<path fill="none" stroke="#606ee0" d="M28.2227,-1862.88C30.2973,-1699.53 47.1355,-485.286 90,-423 96.5412,-413.495 107.182,-407.313 117.844,-403.302"/>
<polygon fill="#606ee0" stroke="#606ee0" points="118.208,-404.101 120.262,-402.428 117.613,-402.455 118.208,-404.101"/>
</g>
<!-- 64 -->
<g id="node65" class="node"><title>64</title>
<text text-anchor="middle" x="153.5" y="-339.2" font-family="Segoe UI" font-size="11.00" fill="#222222">ReimplementQuery</text>
</g>
<!-- 0&#45;&gt;64 -->
<g id="edge64" class="edge"><title>0&#45;&gt;64</title>
<path fill="none" stroke="#606ee0" d="M28.1959,-1862.74C30.0579,-1695.45 45.5532,-433.69 90,-369 93.0497,-364.561 96.9936,-360.847 101.417,-357.741"/>
<polygon fill="#606ee0" stroke="#606ee0" points="102.323,-358.189 103.921,-356.077 101.354,-356.732 102.323,-358.189"/>
</g>
<!-- 65 -->
<g id="node66" class="node"><title>65</title>
<text text-anchor="middle" x="153.5" y="-285.2" font-family="Segoe UI" font-size="11.00" fill="#222222">DoxygenIndexQuery</text>
</g>
<!-- 0&#45;&gt;65 -->
<g id="edge65" class="edge"><title>0&#45;&gt;65</title>
<path fill="none" stroke="#606ee0" d="M28.1678,-1862.89C29.8093,-1692.93 43.9436,-382.134 90,-315 92.6517,-311.135 95.9816,-307.819 99.7159,-304.976"/>
<polygon fill="#606ee0" stroke="#606ee0" points="100.319,-305.619 101.83,-303.444 99.2925,-304.202 100.319,-305.619"/>
</g>
<!-- 66 -->
<g id="node67" class="node"><title>66</title>
<text text-anchor="middle" x="153.5" y="-231.2" font-family="Segoe UI" font-size="11.00" fill="#222222">ListItemQuery</text>
</g>
<!-- 0&#45;&gt;66 -->
<g id="edge66" class="edge"><title>0&#45;&gt;66</title>
<path fill="none" stroke="#606ee0" d="M28.1437,-1862.82C29.5826,-1689.28 42.3539,-330.55 90,-261 96.0351,-252.19 105.594,-246.236 115.439,-242.219"/>
<polygon fill="#606ee0" stroke="#606ee0" points="115.936,-242.964 117.946,-241.239 115.299,-241.334 115.936,-242.964"/>
</g>
<!-- 67 -->
<g id="node68" class="node"><title>67</title>
<text text-anchor="middle" x="153.5" y="-177.2" font-family="Segoe UI" font-size="11.00" fill="#222222">RowQuery</text>
</g>
<!-- 0&#45;&gt;67 -->
<g id="edge67" class="edge"><title>0&#45;&gt;67</title>
<path fill="none" stroke="#606ee0" d="M28.1209,-1862.77C29.3616,-1685.82 40.761,-278.97 90,-207 97.7587,-195.659 111.359,-189.051 123.896,-185.215"/>
<polygon fill="#606ee0" stroke="#606ee0" points="124.234,-186.028 126.387,-184.484 123.741,-184.348 124.234,-186.028"/>
</g>
<!-- 68 -->
<g id="node69" class="node"><title>68</title>
<text text-anchor="middle" x="153.5" y="-123.2" font-family="Segoe UI" font-size="11.00" fill="#222222">CompoundDefQuery</text>
</g>
<!-- 0&#45;&gt;68 -->
<g id="edge68" class="edge"><title>0&#45;&gt;68</title>
<path fill="none" stroke="#606ee0" d="M28.0992,-1862.75C29.1463,-1682.56 39.1648,-227.395 90,-153 92.384,-149.511 95.321,-146.47 98.6101,-143.82"/>
<polygon fill="#606ee0" stroke="#606ee0" points="99.4809,-144.257 100.941,-142.047 98.4214,-142.864 99.4809,-144.257"/>
</g>
<!-- 69 -->
<g id="node70" class="node"><title>69</title>
<text text-anchor="middle" x="153.5" y="-69.2" font-family="Segoe UI" font-size="11.00" fill="#222222">IncQuery</text>
</g>
<!-- 0&#45;&gt;69 -->
<g id="edge69" class="edge"><title>0&#45;&gt;69</title>
<path fill="none" stroke="#606ee0" d="M28.0787,-1862.75C28.9367,-1679.49 37.5653,-175.826 90,-99 97.746,-87.6508 111.345,-81.0413 123.884,-77.2073"/>
<polygon fill="#606ee0" stroke="#606ee0" points="124.223,-78.0199 126.376,-76.4769 123.731,-76.3406 124.223,-78.0199"/>
</g>
<!-- 70 -->
<g id="node71" class="node"><title>70</title>
<text text-anchor="middle" x="153.5" y="-15.2" font-family="Segoe UI" font-size="11.00" fill="#222222">EnumValueQuery</text>
</g>
<!-- 0&#45;&gt;70 -->
<g id="edge70" class="edge"><title>0&#45;&gt;70</title>
<path fill="none" stroke="#606ee0" d="M28.0593,-1862.79C28.7328,-1676.61 35.9626,-124.261 90,-45 94.3289,-38.6505 100.49,-33.7846 107.274,-30.0583"/>
<polygon fill="#606ee0" stroke="#606ee0" points="107.99,-30.6711 109.799,-28.7364 107.178,-29.1207 107.99,-30.6711"/>
</g>
</g>
</svg>
