<?xml version="1.0" encoding="UTF-8" standalone="no"?>
<!DOCTYPE svg PUBLIC "-//W3C//DTD SVG 1.1//EN"
 "http://www.w3.org/Graphics/SVG/1.1/DTD/svg11.dtd">
<!-- Generated by graphviz version 2.38.0 (20140413.2041)
 -->
<!-- Title: %3 Pages: 1 -->
<svg width="463pt" height="188pt"
 viewBox="0.00 0.00 463.00 188.00" xmlns="http://www.w3.org/2000/svg" xmlns:xlink="http://www.w3.org/1999/xlink">
<g id="graph0" class="graph" transform="scale(1 1) rotate(0) translate(4 184)">
<title>%3</title>
<polygon fill="none" stroke="none" points="-4,4 -4,-184 459,-184 459,4 -4,4"/>
<!-- 0 -->
<g id="node1" class="node"><title>0</title>
<text text-anchor="middle" x="291.5" y="-159.2" font-family="Segoe UI" font-size="11.00" fill="#222222">CompoundDefQueryVisitor</text>
</g>
<!-- 1 -->
<g id="node2" class="node"><title>1</title>
<text text-anchor="middle" x="246.5" y="-87.2" font-family="Segoe UI" font-size="11.00" fill="#222222">PageWriter</text>
</g>
<!-- 0&#45;&gt;1 -->
<g id="edge5" class="edge"><title>0&#45;&gt;1</title>
<path fill="none" stroke="#606ee0" d="M280.376,-143.697C274.328,-134.287 266.79,-122.562 260.362,-112.563"/>
<polygon fill="#606ee0" stroke="#606ee0" points="261.672,-111.364 257.496,-108.104 258.727,-113.257 261.672,-111.364"/>
</g>
<!-- 6 -->
<g id="node7" class="node"><title>6</title>
<text text-anchor="middle" x="336.5" y="-87.2" font-family="Segoe UI" font-size="11.00" fill="#222222">TableOfContents</text>
</g>
<!-- 0&#45;&gt;6 -->
<g id="edge6" class="edge"><title>0&#45;&gt;6</title>
<path fill="none" stroke="#606ee0" d="M302.624,-143.697C308.672,-134.287 316.21,-122.562 322.638,-112.563"/>
<polygon fill="#606ee0" stroke="#606ee0" points="324.273,-113.257 325.504,-108.104 321.328,-111.364 324.273,-113.257"/>
</g>
<!-- 2 -->
<g id="node3" class="node"><title>2</title>
<text text-anchor="middle" x="58.5" y="-15.2" font-family="Segoe UI" font-size="11.00" fill="#222222">NamespacePageWriter</text>
</g>
<!-- 1&#45;&gt;2 -->
<g id="edge1" class="edge"><title>1&#45;&gt;2</title>
<path fill="none" stroke="#606ee0" d="M217.125,-78.0625C188.383,-67.3608 144.018,-50.8418 109.507,-37.992"/>
<polygon fill="#606ee0" stroke="#606ee0" points="109.786,-36.2287 104.49,-36.1239 108.565,-39.5087 109.786,-36.2287"/>
</g>
<!-- 3 -->
<g id="node4" class="node"><title>3</title>
<text text-anchor="middle" x="187.5" y="-15.2" font-family="Segoe UI" font-size="11.00" fill="#222222">DirectoryPageWriter</text>
</g>
<!-- 1&#45;&gt;3 -->
<g id="edge2" class="edge"><title>1&#45;&gt;3</title>
<path fill="none" stroke="#606ee0" d="M231.916,-71.6966C223.842,-62.1178 213.746,-50.1392 205.22,-40.024"/>
<polygon fill="#606ee0" stroke="#606ee0" points="206.477,-38.7997 201.917,-36.1043 203.801,-41.0553 206.477,-38.7997"/>
</g>
<!-- 4 -->
<g id="node5" class="node"><title>4</title>
<text text-anchor="middle" x="305.5" y="-15.2" font-family="Segoe UI" font-size="11.00" fill="#222222">GenericPageWriter</text>
</g>
<!-- 1&#45;&gt;4 -->
<g id="edge3" class="edge"><title>1&#45;&gt;4</title>
<path fill="none" stroke="#606ee0" d="M261.084,-71.6966C269.158,-62.1178 279.254,-50.1392 287.78,-40.024"/>
<polygon fill="#606ee0" stroke="#606ee0" points="289.199,-41.0553 291.083,-36.1043 286.523,-38.7997 289.199,-41.0553"/>
</g>
<!-- 5 -->
<g id="node6" class="node"><title>5</title>
<text text-anchor="middle" x="413.5" y="-15.2" font-family="Segoe UI" font-size="11.00" fill="#222222">ClassPageWriter</text>
</g>
<!-- 1&#45;&gt;5 -->
<g id="edge4" class="edge"><title>1&#45;&gt;5</title>
<path fill="none" stroke="#606ee0" d="M275.506,-75.9133C278.537,-74.5786 281.578,-73.2537 284.5,-72 311.723,-60.3216 342.389,-47.7007 366.989,-37.7054"/>
<polygon fill="#606ee0" stroke="#606ee0" points="367.851,-39.2444 371.825,-35.7424 366.534,-36.0013 367.851,-39.2444"/>
</g>
</g>
</svg>
