<?xml version="1.0" encoding="UTF-8" standalone="no"?>
<!DOCTYPE svg PUBLIC "-//W3C//DTD SVG 1.1//EN"
 "http://www.w3.org/Graphics/SVG/1.1/DTD/svg11.dtd">
<!-- Generated by graphviz version 2.38.0 (20140413.2041)
 -->
<!-- Title: %3 Pages: 1 -->
<svg width="454pt" height="116pt"
 viewBox="0.00 0.00 454.00 116.00" xmlns="http://www.w3.org/2000/svg" xmlns:xlink="http://www.w3.org/1999/xlink">
<g id="graph0" class="graph" transform="scale(1 1) rotate(0) translate(4 112)">
<title>%3</title>
<polygon fill="none" stroke="none" points="-4,4 -4,-112 450,-112 450,4 -4,4"/>
<!-- 0 -->
<g id="node1" class="node"><title>0</title>
<text text-anchor="middle" x="238.5" y="-87.2" font-family="Segoe UI" font-size="11.00" fill="#222222">MemberDefQueryVisitor</text>
</g>
<!-- 1 -->
<g id="node2" class="node"><title>1</title>
<text text-anchor="middle" x="46.5" y="-15.2" font-family="Segoe UI" font-size="11.00" fill="#222222">MemberDefWriter</text>
</g>
<!-- 0&#45;&gt;1 -->
<g id="edge1" class="edge"><title>0&#45;&gt;1</title>
<path fill="none" stroke="#606ee0" d="M191.532,-71.8761C162.484,-61.2859 125.25,-47.711 95.7824,-36.9675"/>
<polygon fill="#606ee0" stroke="#606ee0" points="95.9645,-36.1026 93.3159,-36.0683 95.365,-37.7468 95.9645,-36.1026"/>
</g>
<!-- 2 -->
<g id="node3" class="node"><title>2</title>
<text text-anchor="middle" x="174.5" y="-15.2" font-family="Segoe UI" font-size="11.00" fill="#222222">MemberDefListingWriter</text>
</g>
<!-- 0&#45;&gt;2 -->
<g id="edge2" class="edge"><title>0&#45;&gt;2</title>
<path fill="none" stroke="#606ee0" d="M222.68,-71.6966C213.379,-61.5244 201.605,-48.6459 192.024,-38.1667"/>
<polygon fill="#606ee0" stroke="#606ee0" points="192.471,-37.359 190.138,-36.1043 191.179,-38.5399 192.471,-37.359"/>
</g>
<!-- 3 -->
<g id="node4" class="node"><title>3</title>
<text text-anchor="middle" x="302.5" y="-15.2" font-family="Segoe UI" font-size="11.00" fill="#222222">FunctionDefWriter</text>
</g>
<!-- 0&#45;&gt;3 -->
<g id="edge3" class="edge"><title>0&#45;&gt;3</title>
<path fill="none" stroke="#606ee0" d="M254.32,-71.6966C263.621,-61.5244 275.395,-48.6459 284.976,-38.1667"/>
<polygon fill="#606ee0" stroke="#606ee0" points="285.821,-38.5399 286.862,-36.1043 284.529,-37.359 285.821,-38.5399"/>
</g>
<!-- 4 -->
<g id="node5" class="node"><title>4</title>
<text text-anchor="middle" x="406.5" y="-15.2" font-family="Segoe UI" font-size="11.00" fill="#222222">EnumDefWriter</text>
</g>
<!-- 0&#45;&gt;4 -->
<g id="edge4" class="edge"><title>0&#45;&gt;4</title>
<path fill="none" stroke="#606ee0" d="M279.597,-71.8761C305.382,-61.1324 338.54,-47.3168 364.495,-36.5021"/>
<polygon fill="#606ee0" stroke="#606ee0" points="365.013,-37.2344 366.984,-35.4651 364.339,-35.619 365.013,-37.2344"/>
</g>
</g>
</svg>
