<?xml version="1.0" encoding="UTF-8" standalone="no"?>
<!DOCTYPE svg PUBLIC "-//W3C//DTD SVG 1.1//EN"
 "http://www.w3.org/Graphics/SVG/1.1/DTD/svg11.dtd">
<!-- Generated by graphviz version 2.38.0 (20140413.2041)
 -->
<!-- Title: %3 Pages: 1 -->
<svg width="225pt" height="3770pt"
 viewBox="0.00 0.00 225.00 3770.00" xmlns="http://www.w3.org/2000/svg" xmlns:xlink="http://www.w3.org/1999/xlink">
<g id="graph0" class="graph" transform="scale(1 1) rotate(0) translate(4 3766)">
<title>%3</title>
<polygon fill="none" stroke="none" points="-4,4 -4,-3766 221,-3766 221,4 -4,4"/>
<!-- 0 -->
<g id="node1" class="node"><title>0</title>
<text text-anchor="middle" x="27" y="-1878.2" font-family="Segoe UI" font-size="11.00" fill="#222222">Query</text>
</g>
<!-- 1 -->
<g id="node2" class="node"><title>1</title>
<text text-anchor="middle" x="153.5" y="-3741.2" font-family="Segoe UI" font-size="11.00" fill="#222222">AnchorQuery</text>
</g>
<!-- 0&#45;&gt;1 -->
<g id="edge1" class="edge"><title>0&#45;&gt;1</title>
<path fill="none" stroke="#606ee0" d="M28.0593,-1899.21C28.7328,-2085.39 35.9626,-3637.74 90,-3717 96.4377,-3726.44 106.928,-3732.6 117.491,-3736.62"/>
<polygon fill="#606ee0" stroke="#606ee0" points="117.239,-3737.46 119.887,-3737.49 117.839,-3735.81 117.239,-3737.46"/>
</g>
<!-- 2 -->
<g id="node3" class="node"><title>2</title>
<text text-anchor="middle" x="153.5" y="-3687.2" font-family="Segoe UI" font-size="11.00" fill="#222222">SimpleSectQuery</text>
</g>
<!-- 0&#45;&gt;2 -->
<g id="edge2" class="edge"><title>0&#45;&gt;2</title>
<path fill="none" stroke="#606ee0" d="M28.0787,-1899.25C28.9367,-2082.51 37.5653,-3586.17 90,-3663 94.3321,-3669.35 100.495,-3674.21 107.279,-3677.94"/>
<polygon fill="#606ee0" stroke="#606ee0" points="107.184,-3678.88 109.805,-3679.26 107.996,-3677.33 107.184,-3678.88"/>
</g>
<!-- 3 -->
<g id="node4" class="node"><title>3</title>
<text text-anchor="middle" x="153.5" y="-3633.2" font-family="Segoe UI" font-size="11.00" fill="#222222">LanguageQuery</text>
</g>
<!-- 0&#45;&gt;3 -->
<g id="edge3" class="edge"><title>0&#45;&gt;3</title>
<path fill="none" stroke="#606ee0" d="M28.0992,-1899.25C29.1463,-2079.44 39.1648,-3534.6 90,-3609 94.9556,-3616.25 102.301,-3621.57 110.23,-3625.46"/>
<polygon fill="#606ee0" stroke="#606ee0" points="110.073,-3626.36 112.708,-3626.63 110.817,-3624.77 110.073,-3626.36"/>
</g>
<!-- 4 -->
<g id="node5" class="node"><title>4</title>
<text text-anchor="middle" x="153.5" y="-3579.2" font-family="Segoe UI" font-size="11.00" fill="#222222">ParamTypeQuery</text>
</g>
<!-- 0&#45;&gt;4 -->
<g id="edge4" class="edge"><title>0&#45;&gt;4</title>
<path fill="none" stroke="#606ee0" d="M28.1209,-1899.23C29.3616,-2076.18 40.761,-3483.03 90,-3555 94.3393,-3561.34 100.506,-3566.2 107.291,-3569.93"/>
<polygon fill="#606ee0" stroke="#606ee0" points="107.196,-3570.87 109.817,-3571.25 108.008,-3569.32 107.196,-3570.87"/>
</g>
<!-- 5 -->
<g id="node6" class="node"><title>5</title>
<text text-anchor="middle" x="153.5" y="-3525.2" font-family="Segoe UI" font-size="11.00" fill="#222222">FileQuery</text>
</g>
<!-- 0&#45;&gt;5 -->
<g id="edge5" class="edge"><title>0&#45;&gt;5</title>
<path fill="none" stroke="#606ee0" d="M28.1437,-1899.18C29.5826,-2072.72 42.3539,-3431.45 90,-3501 97.7657,-3512.34 111.367,-3518.94 123.902,-3522.78"/>
<polygon fill="#606ee0" stroke="#606ee0" points="123.747,-3523.65 126.393,-3523.51 124.24,-3521.97 123.747,-3523.65"/>
</g>
<!-- 6 -->
<g id="node7" class="node"><title>6</title>
<text text-anchor="middle" x="153.5" y="-3471.2" font-family="Segoe UI" font-size="11.00" fill="#222222">ChildNodeQuery</text>
</g>
<!-- 0&#45;&gt;6 -->
<g id="edge6" class="edge"><title>0&#45;&gt;6</title>
<path fill="none" stroke="#606ee0" d="M28.1678,-1899.11C29.8093,-2069.07 43.9436,-3379.87 90,-3447 94.6054,-3453.71 101.257,-3458.77 108.52,-3462.57"/>
<polygon fill="#606ee0" stroke="#606ee0" points="108.165,-3463.37 110.792,-3463.71 108.95,-3461.81 108.165,-3463.37"/>
</g>
<!-- 7 -->
<g id="node8" class="node"><title>7</title>
<text text-anchor="middle" x="153.5" y="-3417.2" font-family="Segoe UI" font-size="11.00" fill="#222222">DoxygenQuery</text>
</g>
<!-- 0&#45;&gt;7 -->
<g id="edge7" class="edge"><title>0&#45;&gt;7</title>
<path fill="none" stroke="#606ee0" d="M28.1959,-1899.26C30.0579,-2066.55 45.5532,-3328.31 90,-3393 95.4594,-3400.95 103.784,-3406.57 112.595,-3410.54"/>
<polygon fill="#606ee0" stroke="#606ee0" points="112.699,-3411.54 115.342,-3411.72 113.391,-3409.93 112.699,-3411.54"/>
</g>
<!-- 8 -->
<g id="node9" class="node"><title>8</title>
<text text-anchor="middle" x="153.5" y="-3363.2" font-family="Segoe UI" font-size="11.00" fill="#222222">FormulaQuery</text>
</g>
<!-- 0&#45;&gt;8 -->
<g id="edge8" class="edge"><title>0&#45;&gt;8</title>
<path fill="none" stroke="#606ee0" d="M28.2227,-1899.12C30.2973,-2062.47 47.1355,-3276.71 90,-3339 95.9303,-3347.62 105.23,-3353.5 114.86,-3357.52"/>
<polygon fill="#606ee0" stroke="#606ee0" points="114.668,-3358.38 117.314,-3358.5 115.317,-3356.76 114.668,-3358.38"/>
</g>
<!-- 9 -->
<g id="node10" class="node"><title>9</title>
<text text-anchor="middle" x="153.5" y="-3309.2" font-family="Segoe UI" font-size="11.00" fill="#222222">ParamQuery</text>
</g>
<!-- 0&#45;&gt;9 -->
<g id="edge9" class="edge"><title>0&#45;&gt;9</title>
<path fill="none" stroke="#606ee0" d="M28.2544,-1899.2C30.5614,-2059.43 48.7361,-3225.14 90,-3285 96.8608,-3294.95 108.214,-3301.26 119.375,-3305.25"/>
<polygon fill="#606ee0" stroke="#606ee0" points="119.254,-3306.13 121.903,-3306.12 119.821,-3304.48 119.254,-3306.13"/>
</g>
<!-- 10 -->
<g id="node11" class="node"><title>10</title>
<text text-anchor="middle" x="153.5" y="-3255.2" font-family="Segoe UI" font-size="11.00" fill="#222222">SpQuery</text>
</g>
<!-- 0&#45;&gt;10 -->
<g id="edge10" class="edge"><title>0&#45;&gt;10</title>
<path fill="none" stroke="#606ee0" d="M28.2881,-1899.23C30.8339,-2056.09 50.3318,-3173.57 90,-3231 97.809,-3242.31 111.414,-3248.91 123.94,-3252.75"/>
<polygon fill="#606ee0" stroke="#606ee0" points="123.784,-3253.62 126.429,-3253.49 124.278,-3251.94 123.784,-3253.62"/>
</g>
<!-- 11 -->
<g id="node12" class="node"><title>11</title>
<text text-anchor="middle" x="153.5" y="-3201.2" font-family="Segoe UI" font-size="11.00" fill="#222222">ListingQuery</text>
</g>
<!-- 0&#45;&gt;11 -->
<g id="edge11" class="edge"><title>0&#45;&gt;11</title>
<path fill="none" stroke="#606ee0" d="M28.3283,-1899.46C31.1367,-2053.6 51.9426,-3122.01 90,-3177 96.754,-3186.76 107.824,-3193.02 118.786,-3197.02"/>
<polygon fill="#606ee0" stroke="#606ee0" points="118.621,-3197.89 121.27,-3197.89 119.199,-3196.23 118.621,-3197.89"/>
</g>
<!-- 12 -->
<g id="node13" class="node"><title>12</title>
<text text-anchor="middle" x="153.5" y="-3147.2" font-family="Segoe UI" font-size="11.00" fill="#222222">VariableListQuery</text>
</g>
<!-- 0&#45;&gt;12 -->
<g id="edge12" class="edge"><title>0&#45;&gt;12</title>
<path fill="none" stroke="#606ee0" d="M28.3618,-1899.17C31.404,-2048.56 53.5084,-3070.39 90,-3123 94.0799,-3128.88 99.7274,-3133.49 105.972,-3137.1"/>
<polygon fill="#606ee0" stroke="#606ee0" points="105.687,-3137.94 108.298,-3138.39 106.534,-3136.41 105.687,-3137.94"/>
</g>
<!-- 13 -->
<g id="node14" class="node"><title>13</title>
<text text-anchor="middle" x="153.5" y="-3093.2" font-family="Segoe UI" font-size="11.00" fill="#222222">RefQuery</text>
</g>
<!-- 0&#45;&gt;13 -->
<g id="edge13" class="edge"><title>0&#45;&gt;13</title>
<path fill="none" stroke="#606ee0" d="M27.8067,-1899.33C26.4526,-2041.78 20.3629,-2968.85 90,-3069 97.8442,-3080.28 111.452,-3086.88 123.972,-3090.73"/>
<polygon fill="#606ee0" stroke="#606ee0" points="123.814,-3091.6 126.459,-3091.47 124.309,-3089.92 123.814,-3091.6"/>
</g>
<!-- 14 -->
<g id="node15" class="node"><title>14</title>
<text text-anchor="middle" x="153.5" y="-3039.2" font-family="Segoe UI" font-size="11.00" fill="#222222">HighlightQuery</text>
</g>
<!-- 0&#45;&gt;14 -->
<g id="edge14" class="edge"><title>0&#45;&gt;14</title>
<path fill="none" stroke="#606ee0" d="M27.8549,-1899.37C26.9068,-2038.23 23.542,-2919.67 90,-3015 95.3296,-3022.64 103.305,-3028.14 111.79,-3032.09"/>
<polygon fill="#606ee0" stroke="#606ee0" points="111.798,-3033.05 114.438,-3033.26 112.508,-3031.45 111.798,-3033.05"/>
</g>
<!-- 15 -->
<g id="node16" class="node"><title>15</title>
<text text-anchor="middle" x="153.5" y="-2985.2" font-family="Segoe UI" font-size="11.00" fill="#222222">TableQuery</text>
</g>
<!-- 0&#45;&gt;15 -->
<g id="edge15" class="edge"><title>0&#45;&gt;15</title>
<path fill="none" stroke="#606ee0" d="M27.9085,-1899.35C27.3832,-2034.31 26.7078,-2870.48 90,-2961 97.1783,-2971.27 109.125,-2977.66 120.662,-2981.63"/>
<polygon fill="#606ee0" stroke="#606ee0" points="120.622,-2982.54 123.27,-2982.49 121.17,-2980.87 120.622,-2982.54"/>
</g>
<!-- 16 -->
<g id="node17" class="node"><title>16</title>
<text text-anchor="middle" x="153.5" y="-2931.2" font-family="Segoe UI" font-size="11.00" fill="#222222">LinkQuery</text>
</g>
<!-- 0&#45;&gt;16 -->
<g id="edge16" class="edge"><title>0&#45;&gt;16</title>
<path fill="none" stroke="#606ee0" d="M27.9675,-1899.26C27.8817,-2030.03 29.8604,-2821.26 90,-2907 97.8905,-2918.25 111.503,-2924.85 124.013,-2928.7"/>
<polygon fill="#606ee0" stroke="#606ee0" points="123.853,-2929.57 126.499,-2929.44 124.349,-2927.89 123.853,-2929.57"/>
</g>
<!-- 17 -->
<g id="node18" class="node"><title>17</title>
<text text-anchor="middle" x="153.5" y="-2877.2" font-family="Segoe UI" font-size="11.00" fill="#222222">InternalS3Query</text>
</g>
<!-- 0&#45;&gt;17 -->
<g id="edge17" class="edge"><title>0&#45;&gt;17</title>
<path fill="none" stroke="#606ee0" d="M28.0322,-1899.1C28.402,-2025.39 32.9997,-2772.03 90,-2853 95.056,-2860.18 102.443,-2865.47 110.382,-2869.36"/>
<polygon fill="#606ee0" stroke="#606ee0" points="110.227,-2870.25 112.862,-2870.52 110.969,-2868.67 110.227,-2870.25"/>
</g>
<!-- 18 -->
<g id="node19" class="node"><title>18</title>
<text text-anchor="middle" x="153.5" y="-2823.2" font-family="Segoe UI" font-size="11.00" fill="#222222">Sect4Query</text>
</g>
<!-- 0&#45;&gt;18 -->
<g id="edge18" class="edge"><title>0&#45;&gt;18</title>
<path fill="none" stroke="#606ee0" d="M28.1055,-1899.26C28.9595,-2021.89 36.1833,-2722.85 90,-2799 97.3568,-2809.41 109.607,-2815.84 121.322,-2819.8"/>
<polygon fill="#606ee0" stroke="#606ee0" points="121.32,-2820.72 123.968,-2820.65 121.859,-2819.05 121.32,-2820.72"/>
</g>
<!-- 19 -->
<g id="node20" class="node"><title>19</title>
<text text-anchor="middle" x="153.5" y="-2769.2" font-family="Segoe UI" font-size="11.00" fill="#222222">ReferenceQuery</text>
</g>
<!-- 0&#45;&gt;19 -->
<g id="edge19" class="edge"><title>0&#45;&gt;19</title>
<path fill="none" stroke="#606ee0" d="M28.1879,-1899.32C29.5497,-2017.85 39.3469,-2673.65 90,-2745 95.0845,-2752.16 102.484,-2757.44 110.425,-2761.33"/>
<polygon fill="#606ee0" stroke="#606ee0" points="110.27,-2762.22 112.905,-2762.49 111.012,-2760.64 110.27,-2762.22"/>
</g>
<!-- 20 -->
<g id="node21" class="node"><title>20</title>
<text text-anchor="middle" x="153.5" y="-2715.2" font-family="Segoe UI" font-size="11.00" fill="#222222">ImageQuery</text>
</g>
<!-- 0&#45;&gt;20 -->
<g id="edge20" class="edge"><title>0&#45;&gt;20</title>
<path fill="none" stroke="#606ee0" d="M28.2799,-1899.27C30.172,-2013.27 42.4905,-2624.41 90,-2691 96.9566,-2700.75 108.199,-2707.01 119.244,-2711.02"/>
<polygon fill="#606ee0" stroke="#606ee0" points="119.096,-2711.89 121.745,-2711.89 119.672,-2710.24 119.096,-2711.89"/>
</g>
<!-- 21 -->
<g id="node22" class="node"><title>21</title>
<text text-anchor="middle" x="153.5" y="-2661.2" font-family="Segoe UI" font-size="11.00" fill="#222222">EntryQuery</text>
</g>
<!-- 0&#45;&gt;21 -->
<g id="edge21" class="edge"><title>0&#45;&gt;21</title>
<path fill="none" stroke="#606ee0" d="M28.3819,-1899.1C30.8263,-2008.15 45.6139,-2575.14 90,-2637 97.5597,-2647.54 110.118,-2654 122.002,-2657.95"/>
<polygon fill="#606ee0" stroke="#606ee0" points="122.036,-2658.88 124.684,-2658.8 122.567,-2657.21 122.036,-2658.88"/>
</g>
<!-- 22 -->
<g id="node23" class="node"><title>22</title>
<text text-anchor="middle" x="153.5" y="-2607.2" font-family="Segoe UI" font-size="11.00" fill="#222222">SectionDefQuery</text>
</g>
<!-- 0&#45;&gt;22 -->
<g id="edge22" class="edge"><title>0&#45;&gt;22</title>
<path fill="none" stroke="#606ee0" d="M28.504,-1899.15C31.5494,-2003.63 48.7617,-2525.91 90,-2583 94.4381,-2589.14 100.574,-2593.9 107.28,-2597.59"/>
<polygon fill="#606ee0" stroke="#606ee0" points="107.153,-2598.51 109.774,-2598.9 107.967,-2596.96 107.153,-2598.51"/>
</g>
<!-- 23 -->
<g id="node24" class="node"><title>23</title>
<text text-anchor="middle" x="153.5" y="-2553.2" font-family="Segoe UI" font-size="11.00" fill="#222222">BlockQuoteQuery</text>
</g>
<!-- 0&#45;&gt;23 -->
<g id="edge23" class="edge"><title>0&#45;&gt;23</title>
<path fill="none" stroke="#606ee0" d="M28.6408,-1899.03C32.3141,-1998.4 51.8824,-2476.63 90,-2529 94.1508,-2534.7 99.7623,-2539.21 105.928,-2542.78"/>
<polygon fill="#606ee0" stroke="#606ee0" points="105.612,-2543.6 108.223,-2544.05 106.46,-2542.07 105.612,-2543.6"/>
</g>
<!-- 24 -->
<g id="node25" class="node"><title>24</title>
<text text-anchor="middle" x="153.5" y="-2499.2" font-family="Segoe UI" font-size="11.00" fill="#222222">LinkedTextQuery</text>
</g>
<!-- 0&#45;&gt;24 -->
<g id="edge24" class="edge"><title>0&#45;&gt;24</title>
<path fill="none" stroke="#606ee0" d="M28.8072,-1899.05C33.1676,-1993.41 55.014,-2427.37 90,-2475 94.7558,-2481.47 101.392,-2486.41 108.575,-2490.18"/>
<polygon fill="#606ee0" stroke="#606ee0" points="108.194,-2490.97 110.82,-2491.31 108.981,-2489.4 108.194,-2490.97"/>
</g>
<!-- 25 -->
<g id="node26" class="node"><title>25</title>
<text text-anchor="middle" x="153.5" y="-2445.2" font-family="Segoe UI" font-size="11.00" fill="#222222">VarListEntryQuery</text>
</g>
<!-- 0&#45;&gt;25 -->
<g id="edge25" class="edge"><title>0&#45;&gt;25</title>
<path fill="none" stroke="#606ee0" d="M27.7233,-1899.09C26.7796,-1983.22 26.7147,-2335.76 90,-2421 94.2045,-2426.66 99.8448,-2431.15 106.023,-2434.71"/>
<polygon fill="#606ee0" stroke="#606ee0" points="105.71,-2435.54 108.322,-2435.98 106.556,-2434 105.71,-2435.54"/>
</g>
<!-- 26 -->
<g id="node27" class="node"><title>26</title>
<text text-anchor="middle" x="153.5" y="-2391.2" font-family="Segoe UI" font-size="11.00" fill="#222222">TitleQuery</text>
</g>
<!-- 0&#45;&gt;26 -->
<g id="edge26" class="edge"><title>0&#45;&gt;26</title>
<path fill="none" stroke="#606ee0" d="M27.982,-1899.1C28.2446,-1977.98 32.9219,-2291.13 90,-2367 98.1937,-2377.89 111.687,-2384.45 124.043,-2388.37"/>
<polygon fill="#606ee0" stroke="#606ee0" points="123.85,-2389.22 126.497,-2389.12 124.361,-2387.55 123.85,-2389.22"/>
</g>
<!-- 27 -->
<g id="node28" class="node"><title>27</title>
<text text-anchor="middle" x="153.5" y="-2337.2" font-family="Segoe UI" font-size="11.00" fill="#222222">ParBlockQuery</text>
</g>
<!-- 0&#45;&gt;27 -->
<g id="edge27" class="edge"><title>0&#45;&gt;27</title>
<path fill="none" stroke="#606ee0" d="M28.3082,-1899.29C29.8889,-1972.86 39.1463,-2246.49 90,-2313 95.8557,-2320.66 104.324,-2326.18 113.147,-2330.14"/>
<polygon fill="#606ee0" stroke="#606ee0" points="113.251,-2331.14 115.893,-2331.32 113.943,-2329.53 113.251,-2331.14"/>
</g>
<!-- 28 -->
<g id="node29" class="node"><title>28</title>
<text text-anchor="middle" x="153.5" y="-2283.2" font-family="Segoe UI" font-size="11.00" fill="#222222">EmptyQuery</text>
</g>
<!-- 0&#45;&gt;28 -->
<g id="edge28" class="edge"><title>0&#45;&gt;28</title>
<path fill="none" stroke="#606ee0" d="M28.7236,-1899.27C31.7365,-1966.85 45.2949,-2201.73 90,-2259 97.3026,-2268.36 108.491,-2274.53 119.394,-2278.57"/>
<polygon fill="#606ee0" stroke="#606ee0" points="119.213,-2279.43 121.861,-2279.45 119.802,-2277.79 119.213,-2279.43"/>
</g>
<!-- 29 -->
<g id="node30" class="node"><title>29</title>
<text text-anchor="middle" x="153.5" y="-2229.2" font-family="Segoe UI" font-size="11.00" fill="#222222">MemberIndexQuery</text>
</g>
<!-- 0&#45;&gt;29 -->
<g id="edge29" class="edge"><title>0&#45;&gt;29</title>
<path fill="none" stroke="#606ee0" d="M29.2651,-1899.15C33.8484,-1960.18 51.388,-2156.86 90,-2205 92.9953,-2208.73 96.6072,-2211.96 100.565,-2214.75"/>
<polygon fill="#606ee0" stroke="#606ee0" points="100.236,-2215.59 102.798,-2216.26 101.214,-2214.13 100.236,-2215.59"/>
</g>
<!-- 30 -->
<g id="node31" class="node"><title>30</title>
<text text-anchor="middle" x="153.5" y="-2175.2" font-family="Segoe UI" font-size="11.00" fill="#222222">Sect3Query</text>
</g>
<!-- 0&#45;&gt;30 -->
<g id="edge30" class="edge"><title>0&#45;&gt;30</title>
<path fill="none" stroke="#606ee0" d="M30.0187,-1899.1C36.3667,-1953.12 57.4546,-2111.92 90,-2151 97.9458,-2160.54 109.895,-2166.8 121.225,-2170.86"/>
<polygon fill="#606ee0" stroke="#606ee0" points="121.134,-2171.76 123.782,-2171.75 121.706,-2170.1 121.134,-2171.76"/>
</g>
<!-- 31 -->
<g id="node32" class="node"><title>31</title>
<text text-anchor="middle" x="153.5" y="-2121.2" font-family="Segoe UI" font-size="11.00" fill="#222222">InternalS4Query</text>
</g>
<!-- 0&#45;&gt;31 -->
<g id="edge31" class="edge"><title>0&#45;&gt;31</title>
<path fill="none" stroke="#606ee0" d="M28.2058,-1899.07C29.616,-1939.53 38.4749,-2038.4 90,-2097 95.5172,-2103.27 102.753,-2108.14 110.337,-2111.9"/>
<polygon fill="#606ee0" stroke="#606ee0" points="110.068,-2112.74 112.701,-2113.03 110.824,-2111.17 110.068,-2112.74"/>
</g>
<!-- 32 -->
<g id="node33" class="node"><title>32</title>
<text text-anchor="middle" x="153.5" y="-2067.2" font-family="Segoe UI" font-size="11.00" fill="#222222">NodeQuery</text>
</g>
<!-- 0&#45;&gt;32 -->
<g id="edge32" class="edge"><title>0&#45;&gt;32</title>
<path fill="none" stroke="#606ee0" d="M30.3028,-1899.26C35.3531,-1932.1 50.301,-2001.59 90,-2043 98.3648,-2051.73 110.02,-2057.79 121.003,-2061.92"/>
<polygon fill="#606ee0" stroke="#606ee0" points="120.833,-2062.79 123.481,-2062.83 121.433,-2061.15 120.833,-2062.79"/>
</g>
<!-- 33 -->
<g id="node34" class="node"><title>33</title>
<text text-anchor="middle" x="153.5" y="-2013.2" font-family="Segoe UI" font-size="11.00" fill="#222222">ParaQuery</text>
</g>
<!-- 0&#45;&gt;33 -->
<g id="edge33" class="edge"><title>0&#45;&gt;33</title>
<path fill="none" stroke="#606ee0" d="M34.2158,-1899.03C43.1657,-1922.59 61.7741,-1963.81 90,-1989 99.5916,-1997.56 112.316,-2003.72 123.779,-2007.98"/>
<polygon fill="#606ee0" stroke="#606ee0" points="123.708,-2008.88 126.356,-2008.91 124.303,-2007.24 123.708,-2008.88"/>
</g>
<!-- 34 -->
<g id="node35" class="node"><title>34</title>
<text text-anchor="middle" x="153.5" y="-1959.2" font-family="Segoe UI" font-size="11.00" fill="#222222">InternalS2Query</text>
</g>
<!-- 0&#45;&gt;34 -->
<g id="edge34" class="edge"><title>0&#45;&gt;34</title>
<path fill="none" stroke="#606ee0" d="M45.7953,-1899.16C57.5877,-1910.49 73.8162,-1924.8 90,-1935 96.324,-1938.98 103.337,-1942.65 110.313,-1945.9"/>
<polygon fill="#606ee0" stroke="#606ee0" points="110.243,-1946.84 112.88,-1947.09 110.975,-1945.25 110.243,-1946.84"/>
</g>
<!-- 35 -->
<g id="node36" class="node"><title>35</title>
<text text-anchor="middle" x="153.5" y="-1905.2" font-family="Segoe UI" font-size="11.00" fill="#222222">Sect1Query</text>
</g>
<!-- 0&#45;&gt;35 -->
<g id="edge35" class="edge"><title>0&#45;&gt;35</title>
<path fill="none" stroke="#606ee0" d="M54.0993,-1886.66C73.6955,-1890.91 100.606,-1896.75 121.332,-1901.24"/>
<polygon fill="#606ee0" stroke="#606ee0" points="121.2,-1902.11 123.829,-1901.78 121.571,-1900.4 121.2,-1902.11"/>
</g>
<!-- 36 -->
<g id="node37" class="node"><title>36</title>
<text text-anchor="middle" x="153.5" y="-1851.2" font-family="Segoe UI" font-size="11.00" fill="#222222">HeadingQuery</text>
</g>
<!-- 0&#45;&gt;36 -->
<g id="edge36" class="edge"><title>0&#45;&gt;36</title>
<path fill="none" stroke="#606ee0" d="M54.0993,-1875.34C71.0896,-1871.66 93.5782,-1866.78 112.767,-1862.62"/>
<polygon fill="#606ee0" stroke="#606ee0" points="113.316,-1863.39 115.574,-1862.01 112.945,-1861.68 113.316,-1863.39"/>
</g>
<!-- 37 -->
<g id="node38" class="node"><title>37</title>
<text text-anchor="middle" x="153.5" y="-1797.2" font-family="Segoe UI" font-size="11.00" fill="#222222">RefTextQuery</text>
</g>
<!-- 0&#45;&gt;37 -->
<g id="edge37" class="edge"><title>0&#45;&gt;37</title>
<path fill="none" stroke="#606ee0" d="M45.7953,-1862.84C57.5877,-1851.51 73.8162,-1837.2 90,-1827 98.0663,-1821.92 107.254,-1817.36 116.056,-1813.5"/>
<polygon fill="#606ee0" stroke="#606ee0" points="116.826,-1814.12 118.773,-1812.32 116.131,-1812.51 116.826,-1814.12"/>
</g>
<!-- 38 -->
<g id="node39" class="node"><title>38</title>
<text text-anchor="middle" x="153.5" y="-1743.2" font-family="Segoe UI" font-size="11.00" fill="#222222">MarkupQuery</text>
</g>
<!-- 0&#45;&gt;38 -->
<g id="edge38" class="edge"><title>0&#45;&gt;38</title>
<path fill="none" stroke="#606ee0" d="M34.2158,-1862.97C43.1657,-1839.41 61.7741,-1798.19 90,-1773 97.56,-1766.25 107.066,-1761 116.367,-1756.99"/>
<polygon fill="#606ee0" stroke="#606ee0" points="116.761,-1757.77 118.726,-1756 116.082,-1756.16 116.761,-1757.77"/>
</g>
<!-- 39 -->
<g id="node40" class="node"><title>39</title>
<text text-anchor="middle" x="153.5" y="-1689.2" font-family="Segoe UI" font-size="11.00" fill="#222222">MemberDefQuery</text>
</g>
<!-- 0&#45;&gt;39 -->
<g id="edge39" class="edge"><title>0&#45;&gt;39</title>
<path fill="none" stroke="#606ee0" d="M30.3028,-1862.74C35.3531,-1829.9 50.301,-1760.41 90,-1719 94.2942,-1714.52 99.4557,-1710.74 104.948,-1707.57"/>
<polygon fill="#606ee0" stroke="#606ee0" points="105.564,-1708.23 107.321,-1706.24 104.711,-1706.7 105.564,-1708.23"/>
</g>
<!-- 40 -->
<g id="node41" class="node"><title>40</title>
<text text-anchor="middle" x="153.5" y="-1635.2" font-family="Segoe UI" font-size="11.00" fill="#222222">InternalQuery</text>
</g>
<!-- 0&#45;&gt;40 -->
<g id="edge40" class="edge"><title>0&#45;&gt;40</title>
<path fill="none" stroke="#606ee0" d="M28.2058,-1862.93C29.616,-1822.47 38.4749,-1723.6 90,-1665 96.9795,-1657.06 106.709,-1651.38 116.415,-1647.34"/>
<polygon fill="#606ee0" stroke="#606ee0" points="116.888,-1648.09 118.881,-1646.34 116.235,-1646.47 116.888,-1648.09"/>
</g>
<!-- 41 -->
<g id="node42" class="node"><title>41</title>
<text text-anchor="middle" x="153.5" y="-1581.2" font-family="Segoe UI" font-size="11.00" fill="#222222">ParamListItemQuery</text>
</g>
<!-- 0&#45;&gt;41 -->
<g id="edge41" class="edge"><title>0&#45;&gt;41</title>
<path fill="none" stroke="#606ee0" d="M30.0187,-1862.9C36.3667,-1808.88 57.4546,-1650.08 90,-1611 92.9356,-1607.47 96.4177,-1604.4 100.213,-1601.71"/>
<polygon fill="#606ee0" stroke="#606ee0" points="100.774,-1602.39 102.352,-1600.26 99.7921,-1600.94 100.774,-1602.39"/>
</g>
<!-- 42 -->
<g id="node43" class="node"><title>42</title>
<text text-anchor="middle" x="153.5" y="-1527.2" font-family="Segoe UI" font-size="11.00" fill="#222222">XRefSectQuery</text>
</g>
<!-- 0&#45;&gt;42 -->
<g id="edge42" class="edge"><title>0&#45;&gt;42</title>
<path fill="none" stroke="#606ee0" d="M29.2651,-1862.85C33.8484,-1801.82 51.388,-1605.14 90,-1557 95.8982,-1549.65 104.187,-1544.25 112.804,-1540.32"/>
<polygon fill="#606ee0" stroke="#606ee0" points="113.549,-1540.94 115.487,-1539.14 112.846,-1539.34 113.549,-1540.94"/>
</g>
<!-- 43 -->
<g id="node44" class="node"><title>43</title>
<text text-anchor="middle" x="153.5" y="-1473.2" font-family="Segoe UI" font-size="11.00" fill="#222222">ListOfAllMembersQuery</text>
</g>
<!-- 0&#45;&gt;43 -->
<g id="edge43" class="edge"><title>0&#45;&gt;43</title>
<path fill="none" stroke="#606ee0" d="M28.7236,-1862.73C31.7365,-1795.15 45.2949,-1560.27 90,-1503 92.0455,-1500.38 94.396,-1498.01 96.9597,-1495.86"/>
<polygon fill="#606ee0" stroke="#606ee0" points="97.7475,-1496.36 99.1613,-1494.12 96.6593,-1494.99 97.7475,-1496.36"/>
</g>
<!-- 44 -->
<g id="node45" class="node"><title>44</title>
<text text-anchor="middle" x="153.5" y="-1419.2" font-family="Segoe UI" font-size="11.00" fill="#222222">TemplateParamListQuery</text>
</g>
<!-- 0&#45;&gt;44 -->
<g id="edge44" class="edge"><title>0&#45;&gt;44</title>
<path fill="none" stroke="#606ee0" d="M28.3082,-1862.71C29.8889,-1789.14 39.1463,-1515.51 90,-1449 92.0192,-1446.36 94.3491,-1443.97 96.897,-1441.82"/>
<polygon fill="#606ee0" stroke="#606ee0" points="97.6847,-1442.31 99.0866,-1440.06 96.5892,-1440.94 97.6847,-1442.31"/>
</g>
<!-- 45 -->
<g id="node46" class="node"><title>45</title>
<text text-anchor="middle" x="153.5" y="-1365.2" font-family="Segoe UI" font-size="11.00" fill="#222222">DescriptionQuery</text>
</g>
<!-- 0&#45;&gt;45 -->
<g id="edge45" class="edge"><title>0&#45;&gt;45</title>
<path fill="none" stroke="#606ee0" d="M27.982,-1862.9C28.2446,-1784.02 32.9219,-1470.87 90,-1395 94.3033,-1389.28 100.068,-1384.75 106.363,-1381.18"/>
<polygon fill="#606ee0" stroke="#606ee0" points="106.927,-1381.87 108.704,-1379.9 106.09,-1380.33 106.927,-1381.87"/>
</g>
<!-- 46 -->
<g id="node47" class="node"><title>46</title>
<text text-anchor="middle" x="153.5" y="-1311.2" font-family="Segoe UI" font-size="11.00" fill="#222222">Sect2Query</text>
</g>
<!-- 0&#45;&gt;46 -->
<g id="edge46" class="edge"><title>0&#45;&gt;46</title>
<path fill="none" stroke="#606ee0" d="M27.7233,-1862.91C26.7796,-1778.78 26.7147,-1426.24 90,-1341 97.5333,-1330.85 109.675,-1324.47 121.263,-1320.48"/>
<polygon fill="#606ee0" stroke="#606ee0" points="121.781,-1321.23 123.88,-1319.62 121.232,-1319.57 121.781,-1321.23"/>
</g>
<!-- 47 -->
<g id="node48" class="node"><title>47</title>
<text text-anchor="middle" x="153.5" y="-1257.2" font-family="Segoe UI" font-size="11.00" fill="#222222">InternalS1Query</text>
</g>
<!-- 0&#45;&gt;47 -->
<g id="edge47" class="edge"><title>0&#45;&gt;47</title>
<path fill="none" stroke="#606ee0" d="M28.8072,-1862.95C33.1676,-1768.59 55.014,-1334.63 90,-1287 95.1363,-1280.01 102.466,-1274.8 110.309,-1270.94"/>
<polygon fill="#606ee0" stroke="#606ee0" points="110.87,-1271.64 112.757,-1269.78 110.123,-1270.06 110.87,-1271.64"/>
</g>
<!-- 48 -->
<g id="node49" class="node"><title>48</title>
<text text-anchor="middle" x="153.5" y="-1203.2" font-family="Segoe UI" font-size="11.00" fill="#222222">ListQuery</text>
</g>
<!-- 0&#45;&gt;48 -->
<g id="edge48" class="edge"><title>0&#45;&gt;48</title>
<path fill="none" stroke="#606ee0" d="M28.6408,-1862.97C32.3141,-1763.6 51.8824,-1285.37 90,-1233 98.0211,-1221.98 111.497,-1215.41 123.886,-1211.52"/>
<polygon fill="#606ee0" stroke="#606ee0" points="124.208,-1212.33 126.348,-1210.77 123.702,-1210.66 124.208,-1212.33"/>
</g>
<!-- 49 -->
<g id="node50" class="node"><title>49</title>
<text text-anchor="middle" x="153.5" y="-1149.2" font-family="Segoe UI" font-size="11.00" fill="#222222">ParamListQuery</text>
</g>
<!-- 0&#45;&gt;49 -->
<g id="edge49" class="edge"><title>0&#45;&gt;49</title>
<path fill="none" stroke="#606ee0" d="M28.504,-1862.85C31.5494,-1758.37 48.7617,-1236.09 90,-1179 95.2059,-1171.79 102.748,-1166.49 110.805,-1162.59"/>
<polygon fill="#606ee0" stroke="#606ee0" points="111.419,-1163.27 113.32,-1161.43 110.683,-1161.69 111.419,-1163.27"/>
</g>
<!-- 50 -->
<g id="node51" class="node"><title>50</title>
<text text-anchor="middle" x="153.5" y="-1095.2" font-family="Segoe UI" font-size="11.00" fill="#222222">CodeLineQuery</text>
</g>
<!-- 0&#45;&gt;50 -->
<g id="edge50" class="edge"><title>0&#45;&gt;50</title>
<path fill="none" stroke="#606ee0" d="M28.3819,-1862.9C30.8263,-1753.85 45.6139,-1186.86 90,-1125 95.3707,-1117.52 103.264,-1112.09 111.646,-1108.15"/>
<polygon fill="#606ee0" stroke="#606ee0" points="112.338,-1108.8 114.261,-1106.98 111.622,-1107.21 112.338,-1108.8"/>
</g>
<!-- 51 -->
<g id="node52" class="node"><title>51</title>
<text text-anchor="middle" x="153.5" y="-1041.2" font-family="Segoe UI" font-size="11.00" fill="#222222">CaptionQuery</text>
</g>
<!-- 0&#45;&gt;51 -->
<g id="edge51" class="edge"><title>0&#45;&gt;51</title>
<path fill="none" stroke="#606ee0" d="M28.2799,-1862.73C30.172,-1748.73 42.4905,-1137.59 90,-1071 96.1387,-1062.4 105.615,-1056.51 115.348,-1052.49"/>
<polygon fill="#606ee0" stroke="#606ee0" points="115.824,-1053.24 117.826,-1051.51 115.179,-1051.61 115.824,-1053.24"/>
</g>
<!-- 52 -->
<g id="node53" class="node"><title>52</title>
<text text-anchor="middle" x="153.5" y="-987.2" font-family="Segoe UI" font-size="11.00" fill="#222222">TocItemQuery</text>
</g>
<!-- 0&#45;&gt;52 -->
<g id="edge52" class="edge"><title>0&#45;&gt;52</title>
<path fill="none" stroke="#606ee0" d="M28.1879,-1862.68C29.5497,-1744.15 39.3469,-1088.35 90,-1017 96.0552,-1008.47 105.393,-1002.61 115.021,-998.596"/>
<polygon fill="#606ee0" stroke="#606ee0" points="115.477,-999.355 117.473,-997.614 114.827,-997.731 115.477,-999.355"/>
</g>
<!-- 53 -->
<g id="node54" class="node"><title>53</title>
<text text-anchor="middle" x="153.5" y="-933.2" font-family="Segoe UI" font-size="11.00" fill="#222222">CopyQuery</text>
</g>
<!-- 0&#45;&gt;53 -->
<g id="edge53" class="edge"><title>0&#45;&gt;53</title>
<path fill="none" stroke="#606ee0" d="M28.1055,-1862.74C28.9595,-1740.11 36.1833,-1039.15 90,-963 97.6105,-952.231 110.457,-945.721 122.532,-941.802"/>
<polygon fill="#606ee0" stroke="#606ee0" points="122.808,-942.632 124.934,-941.052 122.287,-940.962 122.808,-942.632"/>
</g>
<!-- 54 -->
<g id="node55" class="node"><title>54</title>
<text text-anchor="middle" x="153.5" y="-879.2" font-family="Segoe UI" font-size="11.00" fill="#222222">LocationQuery</text>
</g>
<!-- 0&#45;&gt;54 -->
<g id="edge54" class="edge"><title>0&#45;&gt;54</title>
<path fill="none" stroke="#606ee0" d="M28.0322,-1862.9C28.402,-1736.61 32.9997,-989.975 90,-909 95.7077,-900.892 104.386,-895.198 113.476,-891.207"/>
<polygon fill="#606ee0" stroke="#606ee0" points="113.831,-892.007 115.794,-890.229 113.15,-890.395 113.831,-892.007"/>
</g>
<!-- 55 -->
<g id="node56" class="node"><title>55</title>
<text text-anchor="middle" x="153.5" y="-825.2" font-family="Segoe UI" font-size="11.00" fill="#222222">GraphQuery</text>
</g>
<!-- 0&#45;&gt;55 -->
<g id="edge55" class="edge"><title>0&#45;&gt;55</title>
<path fill="none" stroke="#606ee0" d="M27.9675,-1862.74C27.8817,-1731.97 29.8604,-940.739 90,-855 97.0044,-845.014 108.518,-838.692 119.767,-834.702"/>
<polygon fill="#606ee0" stroke="#606ee0" points="120.227,-835.469 122.312,-833.836 119.664,-833.812 120.227,-835.469"/>
</g>
<!-- 56 -->
<g id="node57" class="node"><title>56</title>
<text text-anchor="middle" x="153.5" y="-771.2" font-family="Segoe UI" font-size="11.00" fill="#222222">ParamNameQuery</text>
</g>
<!-- 0&#45;&gt;56 -->
<g id="edge56" class="edge"><title>0&#45;&gt;56</title>
<path fill="none" stroke="#606ee0" d="M27.9085,-1862.65C27.3832,-1727.69 26.7078,-891.523 90,-801 93.7336,-795.66 98.7573,-791.368 104.342,-787.92"/>
<polygon fill="#606ee0" stroke="#606ee0" points="105.057,-788.515 106.768,-786.493 104.17,-787.006 105.057,-788.515"/>
</g>
<!-- 57 -->
<g id="node58" class="node"><title>57</title>
<text text-anchor="middle" x="153.5" y="-717.2" font-family="Segoe UI" font-size="11.00" fill="#222222">CompoundRefQuery</text>
</g>
<!-- 0&#45;&gt;57 -->
<g id="edge57" class="edge"><title>0&#45;&gt;57</title>
<path fill="none" stroke="#606ee0" d="M27.8549,-1862.63C26.9068,-1723.77 23.542,-842.327 90,-747 92.5666,-743.318 95.7467,-740.135 99.3019,-737.383"/>
<polygon fill="#606ee0" stroke="#606ee0" points="99.8221,-738.087 101.314,-735.898 98.7829,-736.679 99.8221,-738.087"/>
</g>
<!-- 58 -->
<g id="node59" class="node"><title>58</title>
<text text-anchor="middle" x="153.5" y="-663.2" font-family="Segoe UI" font-size="11.00" fill="#222222">IndexEntryQuery</text>
</g>
<!-- 0&#45;&gt;58 -->
<g id="edge58" class="edge"><title>0&#45;&gt;58</title>
<path fill="none" stroke="#606ee0" d="M27.8067,-1862.67C26.4526,-1720.22 20.3629,-793.152 90,-693 94.7087,-686.228 101.494,-681.142 108.874,-677.325"/>
<polygon fill="#606ee0" stroke="#606ee0" points="109.331,-678.076 111.182,-676.181 108.554,-676.508 109.331,-678.076"/>
</g>
<!-- 59 -->
<g id="node60" class="node"><title>59</title>
<text text-anchor="middle" x="153.5" y="-609.2" font-family="Segoe UI" font-size="11.00" fill="#222222">ParamNameListQuery</text>
</g>
<!-- 0&#45;&gt;59 -->
<g id="edge59" class="edge"><title>0&#45;&gt;59</title>
<path fill="none" stroke="#606ee0" d="M28.3618,-1862.83C31.404,-1713.44 53.5084,-691.609 90,-639 91.8421,-636.344 94.0037,-633.948 96.3956,-631.786"/>
<polygon fill="#606ee0" stroke="#606ee0" points="97.1249,-632.313 98.4569,-630.024 95.9879,-630.983 97.1249,-632.313"/>
</g>
<!-- 60 -->
<g id="node61" class="node"><title>60</title>
<text text-anchor="middle" x="153.5" y="-555.2" font-family="Segoe UI" font-size="11.00" fill="#222222">MemberRefQuery</text>
</g>
<!-- 0&#45;&gt;60 -->
<g id="edge60" class="edge"><title>0&#45;&gt;60</title>
<path fill="none" stroke="#606ee0" d="M28.3283,-1862.54C31.1367,-1708.4 51.9426,-639.988 90,-585 94.0738,-579.114 99.7181,-574.502 105.962,-570.89"/>
<polygon fill="#606ee0" stroke="#606ee0" points="106.523,-571.58 108.287,-569.604 105.676,-570.048 106.523,-571.58"/>
</g>
<!-- 61 -->
<g id="node62" class="node"><title>61</title>
<text text-anchor="middle" x="153.5" y="-501.2" font-family="Segoe UI" font-size="11.00" fill="#222222">TocListQuery</text>
</g>
<!-- 0&#45;&gt;61 -->
<g id="edge61" class="edge"><title>0&#45;&gt;61</title>
<path fill="none" stroke="#606ee0" d="M28.2881,-1862.77C30.8339,-1705.91 50.3318,-588.432 90,-531 96.5573,-521.506 107.201,-515.327 117.862,-511.315"/>
<polygon fill="#606ee0" stroke="#606ee0" points="118.226,-512.114 120.28,-510.441 117.631,-510.468 118.226,-512.114"/>
</g>
<!-- 62 -->
<g id="node63" class="node"><title>62</title>
<text text-anchor="middle" x="153.5" y="-447.2" font-family="Segoe UI" font-size="11.00" fill="#222222">CompoundIndexQuery</text>
</g>
<!-- 0&#45;&gt;62 -->
<g id="edge62" class="edge"><title>0&#45;&gt;62</title>
<path fill="none" stroke="#606ee0" d="M28.2544,-1862.8C30.5614,-1702.57 48.7361,-536.855 90,-477 91.8344,-474.339 93.99,-471.938 96.3773,-469.773"/>
<polygon fill="#606ee0" stroke="#606ee0" points="97.1066,-470.3 98.4351,-468.009 95.9676,-468.972 97.1066,-470.3"/>
</g>
<!-- 63 -->
<g id="node64" class="node"><title>63</title>
<text text-anchor="middle" x="153.5" y="-393.2" font-family="Segoe UI" font-size="11.00" fill="#222222">UrlLinkQuery</text>
</g>
<!-- 0&#45;&gt;63 -->
<g id="edge63" class="edge"><title>0&#45;&gt;63</title>
<path fill="none" stroke="#606ee0" d="M28.2227,-1862.88C30.2973,-1699.53 47.1355,-485.286 90,-423 96.5412,-413.495 107.182,-407.313 117.844,-403.302"/>
<polygon fill="#606ee0" stroke="#606ee0" points="118.208,-404.101 120.262,-402.428 117.613,-402.455 118.208,-404.101"/>
</g>
<!-- 64 -->
<g id="node65" class="node"><title>64</title>
<text text-anchor="middle" x="153.5" y="-339.2" font-family="Segoe UI" font-size="11.00" fill="#222222">ReimplementQuery</text>
</g>
<!-- 0&#45;&gt;64 -->
<g id="edge64" class="edge"><title>0&#45;&gt;64</title>
<path fill="none" stroke="#606ee0" d="M28.1959,-1862.74C30.0579,-1695.45 45.5532,-433.69 90,-369 93.0497,-364.561 96.9936,-360.847 101.417,-357.741"/>
<polygon fill="#606ee0" stroke="#606ee0" points="102.323,-358.189 103.921,-356.077 101.354,-356.732 102.323,-358.189"/>
</g>
<!-- 65 -->
<g id="node66" class="node"><title>65</title>
<text text-anchor="middle" x="153.5" y="-285.2" font-family="Segoe UI" font-size="11.00" fill="#222222">DoxygenIndexQuery</text>
</g>
<!-- 0&#45;&gt;65 -->
<g id="edge65" class="edge"><title>0&#45;&gt;65</title>
<path fill="none" stroke="#606ee0" d="M28.1678,-1862.89C29.8093,-1692.93 43.9436,-382.134 90,-315 92.6517,-311.135 95.9816,-307.819 99.7159,-304.976"/>
<polygon fill="#606ee0" stroke="#606ee0" points="100.319,-305.619 101.83,-303.444 99.2925,-304.202 100.319,-305.619"/>
</g>
<!-- 66 -->
<g id="node67" class="node"><title>66</title>
<text text-anchor="middle" x="153.5" y="-231.2" font-family="Segoe UI" font-size="11.00" fill="#222222">ListItemQuery</text>
</g>
<!-- 0&#45;&gt;66 -->
<g id="edge66" class="edge"><title>0&#45;&gt;66</title>
<path fill="none" stroke="#606ee0" d="M28.1437,-1862.82C29.5826,-1689.28 42.3539,-330.55 90,-261 96.0351,-252.19 105.594,-246.236 115.439,-242.219"/>
<polygon fill="#606ee0" stroke="#606ee0" points="115.936,-242.964 117.946,-241.239 115.299,-241.334 115.936,-242.964"/>
</g>
<!-- 67 -->
<g id="node68" class="node"><title>67</title>
<text text-anchor="middle" x="153.5" y="-177.2" font-family="Segoe UI" font-size="11.00" fill="#222222">RowQuery</text>
</g>
<!-- 0&#45;&gt;67 -->
<g id="edge67" class="edge"><title>0&#45;&gt;67</title>
<path fill="none" stroke="#606ee0" d="M28.1209,-1862.77C29.3616,-1685.82 40.761,-278.97 90,-207 97.7587,-195.659 111.359,-189.051 123.896,-185.215"/>
<polygon fill="#606ee0" stroke="#606ee0" points="124.234,-186.028 126.387,-184.484 123.741,-184.348 124.234,-186.028"/>
</g>
<!-- 68 -->
<g id="node69" class="node"><title>68</title>
<text text-anchor="middle" x="153.5" y="-123.2" font-family="Segoe UI" font-size="11.00" fill="#222222">CompoundDefQuery</text>
</g>
<!-- 0&#45;&gt;68 -->
<g id="edge68" class="edge"><title>0&#45;&gt;68</title>
<path fill="none" stroke="#606ee0" d="M28.0992,-1862.75C29.1463,-1682.56 39.1648,-227.395 90,-153 92.384,-149.511 95.321,-146.47 98.6101,-143.82"/>
<polygon fill="#606ee0" stroke="#606ee0" points="99.4809,-144.257 100.941,-142.047 98.4214,-142.864 99.4809,-144.257"/>
</g>
<!-- 69 -->
<g id="node70" class="node"><title>69</title>
<text text-anchor="middle" x="153.5" y="-69.2" font-family="Segoe UI" font-size="11.00" fill="#222222">IncQuery</text>
</g>
<!-- 0&#45;&gt;69 -->
<g id="edge69" class="edge"><title>0&#45;&gt;69</title>
<path fill="none" stroke="#606ee0" d="M28.0787,-1862.75C28.9367,-1679.49 37.5653,-175.826 90,-99 97.746,-87.6508 111.345,-81.0413 123.884,-77.2073"/>
<polygon fill="#606ee0" stroke="#606ee0" points="124.223,-78.0199 126.376,-76.4769 123.731,-76.3406 124.223,-78.0199"/>
</g>
<!-- 70 -->
<g id="node71" class="node"><title>70</title>
<text text-anchor="middle" x="153.5" y="-15.2" font-family="Segoe UI" font-size="11.00" fill="#222222">EnumValueQuery</text>
</g>
<!-- 0&#45;&gt;70 -->
<g id="edge70" class="edge"><title>0&#45;&gt;70</title>
<path fill="none" stroke="#606ee0" d="M28.0593,-1862.79C28.7328,-1676.61 35.9626,-124.261 90,-45 94.3289,-38.6505 100.49,-33.7846 107.274,-30.0583"/>
<polygon fill="#606ee0" stroke="#606ee0" points="107.99,-30.6711 109.799,-28.7364 107.178,-29.1207 107.99,-30.6711"/>
</g>
</g>
</svg>
