<?xml version="1.0" encoding="UTF-8" standalone="no"?>
<!DOCTYPE svg PUBLIC "-//W3C//DTD SVG 1.1//EN"
 "http://www.w3.org/Graphics/SVG/1.1/DTD/svg11.dtd">
<!-- Generated by graphviz version 2.38.0 (20140413.2041)
 -->
<!-- Title: %3 Pages: 1 -->
<svg width="429pt" height="206pt"
 viewBox="0.00 0.00 429.00 206.00" xmlns="http://www.w3.org/2000/svg" xmlns:xlink="http://www.w3.org/1999/xlink">
<g id="graph0" class="graph" transform="scale(1 1) rotate(0) translate(4 202)">
<title>%3</title>
<polygon fill="none" stroke="none" points="-4,4 -4,-202 425,-202 425,4 -4,4"/>
<!-- SiteBuilder -->
<g id="node1" class="node"><title>SiteBuilder</title>
<text text-anchor="middle" x="35.5" y="-96.2" font-family="Segoe UI" font-size="11.00" fill="#010509">SiteBuilder</text>
</g>
<!-- Config -->
<g id="node2" class="node"><title>Config</title>
<text text-anchor="middle" x="35.5" y="-42.2" font-family="Segoe UI" font-size="11.00" fill="#010509">Config</text>
</g>
<!-- SiteBuilder&#45;&gt;Config -->
<g id="edge1" class="edge"><title>SiteBuilder&#45;&gt;Config</title>
<path fill="none" stroke="#ff1040" d="M35.5,-80.7902C35.5,-76.6536 35.5,-72.5169 35.5,-68.3803"/>
<polygon fill="#ff1040" stroke="#ff1040" points="37.2501,-68.1406 35.5,-63.1406 33.7501,-68.1407 37.2501,-68.1406"/>
</g>
<!-- buildFromXml -->
<g id="node3" class="node"><title>buildFromXml</title>
<text text-anchor="middle" x="150.5" y="-96.2" font-family="Segoe UI" font-size="11.00" fill="#010509">buildFromXml</text>
</g>
<!-- SiteBuilder&#45;&gt;buildFromXml -->
<g id="edge2" class="edge"><title>SiteBuilder&#45;&gt;buildFromXml</title>
<path fill="none" stroke="#ff1040" d="M71.0177,-99C80.723,-99 91.4535,-99 101.783,-99"/>
<polygon fill="#ff1040" stroke="#ff1040" points="101.815,-100.75 106.815,-99 101.815,-97.2501 101.815,-100.75"/>
</g>
<!-- Build -->
<g id="node4" class="node"><title>Build</title>
<text text-anchor="middle" x="274.5" y="-177.2" font-family="Segoe UI" font-size="11.00" fill="#010509">Build</text>
</g>
<!-- buildFromXml&#45;&gt;Build -->
<g id="edge3" class="edge"><title>buildFromXml&#45;&gt;Build</title>
<path fill="none" stroke="#ff1040" d="M177.103,-117.062C192.346,-127.703 212.14,-141.323 230,-153 234.129,-155.699 238.512,-158.497 242.845,-161.224"/>
<polygon fill="#ff1040" stroke="#ff1040" points="241.984,-162.75 247.151,-163.921 243.842,-159.784 241.984,-162.75"/>
</g>
<!-- WriteIndex -->
<g id="node5" class="node"><title>WriteIndex</title>
<text text-anchor="middle" x="274.5" y="-123.2" font-family="Segoe UI" font-size="11.00" fill="#010509">WriteIndex</text>
</g>
<!-- buildFromXml&#45;&gt;WriteIndex -->
<g id="edge4" class="edge"><title>buildFromXml&#45;&gt;WriteIndex</title>
<path fill="none" stroke="#ff1040" d="M194.17,-108.443C207.03,-111.289 221.088,-114.401 233.751,-117.203"/>
<polygon fill="#ff1040" stroke="#ff1040" points="233.453,-118.929 238.713,-118.301 234.209,-115.512 233.453,-118.929"/>
</g>
<!-- Dispatch -->
<g id="node6" class="node"><title>Dispatch</title>
<text text-anchor="middle" x="274.5" y="-69.2" font-family="Segoe UI" font-size="11.00" fill="#010509">Dispatch</text>
</g>
<!-- buildFromXml&#45;&gt;Dispatch -->
<g id="edge5" class="edge"><title>buildFromXml&#45;&gt;Dispatch</title>
<path fill="none" stroke="#ff1040" d="M194.17,-89.5567C208.98,-86.2791 225.379,-82.6498 239.404,-79.5457"/>
<polygon fill="#ff1040" stroke="#ff1040" points="239.953,-81.2167 244.457,-78.4275 239.197,-77.7993 239.953,-81.2167"/>
</g>
<!-- ConvertGraphs -->
<g id="node7" class="node"><title>ConvertGraphs</title>
<text text-anchor="middle" x="274.5" y="-15.2" font-family="Segoe UI" font-size="11.00" fill="#010509">ConvertGraphs</text>
</g>
<!-- buildFromXml&#45;&gt;ConvertGraphs -->
<g id="edge6" class="edge"><title>buildFromXml&#45;&gt;ConvertGraphs</title>
<path fill="none" stroke="#ff1040" d="M177.103,-80.9376C192.346,-70.2973 212.14,-56.6767 230,-45 233.069,-42.9936 236.278,-40.9328 239.503,-38.8872"/>
<polygon fill="#ff1040" stroke="#ff1040" points="240.604,-40.262 243.898,-36.1137 238.736,-37.302 240.604,-40.262"/>
</g>
<!-- BuildItem -->
<g id="node8" class="node"><title>BuildItem</title>
<text text-anchor="middle" x="388" y="-96.2" font-family="Segoe UI" font-size="11.00" fill="#010509">BuildItem</text>
</g>
<!-- Dispatch&#45;&gt;BuildItem -->
<g id="edge7" class="edge"><title>Dispatch&#45;&gt;BuildItem</title>
<path fill="none" stroke="#ff1040" d="M304.504,-79.0234C318.533,-82.4207 335.524,-86.535 350.431,-90.1447"/>
<polygon fill="#ff1040" stroke="#ff1040" points="350.128,-91.8718 355.399,-91.3478 350.952,-88.4701 350.128,-91.8718"/>
</g>
<!-- WriteItem -->
<g id="node9" class="node"><title>WriteItem</title>
<text text-anchor="middle" x="388" y="-42.2" font-family="Segoe UI" font-size="11.00" fill="#010509">WriteItem</text>
</g>
<!-- Dispatch&#45;&gt;WriteItem -->
<g id="edge8" class="edge"><title>Dispatch&#45;&gt;WriteItem</title>
<path fill="none" stroke="#ff1040" d="M304.504,-64.9766C318.302,-61.6355 334.963,-57.6009 349.69,-54.0347"/>
<polygon fill="#ff1040" stroke="#ff1040" points="350.156,-55.7226 354.603,-52.8449 349.332,-52.3209 350.156,-55.7226"/>
</g>
</g>
</svg>
