<?xml version="1.0" encoding="UTF-8" standalone="no"?>
<!DOCTYPE svg PUBLIC "-//W3C//DTD SVG 1.1//EN"
 "http://www.w3.org/Graphics/SVG/1.1/DTD/svg11.dtd">
<!-- Generated by graphviz version 2.38.0 (20140413.2041)
 -->
<!-- Title: %3 Pages: 1 -->
<svg width="209pt" height="3770pt"
 viewBox="0.00 0.00 209.00 3770.00" xmlns="http://www.w3.org/2000/svg" xmlns:xlink="http://www.w3.org/1999/xlink">
<g id="graph0" class="graph" transform="scale(1 1) rotate(0) translate(4 3766)">
<title>%3</title>
<polygon fill="none" stroke="none" points="-4,4 -4,-3766 205,-3766 205,4 -4,4"/>
<!-- 0 -->
<g id="node1" class="node"><title>0</title>
<text text-anchor="middle" x="27" y="-1878.5" font-family="Segoe UI" font-size="10.00" fill="#222222">Query</text>
</g>
<!-- 1 -->
<g id="node2" class="node"><title>1</title>
<text text-anchor="middle" x="145.5" y="-3741.5" font-family="Segoe UI" font-size="10.00" fill="#222222">AnchorQuery</text>
</g>
<!-- 0&#45;&gt;1 -->
<g id="edge1" class="edge"><title>0&#45;&gt;1</title>
<path fill="none" stroke="#606ee0" d="M28.0819,-1899.2C28.9834,-2085.23 38.0489,-3636.36 90,-3717 94.8303,-3724.5 102.407,-3729.99 110.391,-3733.98"/>
<polygon fill="#606ee0" stroke="#606ee0" points="110.119,-3735.78 115.394,-3736.27 111.579,-3732.6 110.119,-3735.78"/>
</g>
<!-- 2 -->
<g id="node3" class="node"><title>2</title>
<text text-anchor="middle" x="145.5" y="-3687.5" font-family="Segoe UI" font-size="10.00" fill="#222222">SimpleSectQuery</text>
</g>
<!-- 0&#45;&gt;2 -->
<g id="edge2" class="edge"><title>0&#45;&gt;2</title>
<path fill="none" stroke="#606ee0" d="M28.1013,-1899.23C29.1835,-2082.35 39.5876,-3584.83 90,-3663 93.3086,-3668.13 97.9023,-3672.32 103.032,-3675.73"/>
<polygon fill="#606ee0" stroke="#606ee0" points="102.269,-3677.32 107.45,-3678.42 104.088,-3674.33 102.269,-3677.32"/>
</g>
<!-- 3 -->
<g id="node4" class="node"><title>3</title>
<text text-anchor="middle" x="145.5" y="-3633.5" font-family="Segoe UI" font-size="10.00" fill="#222222">LanguageQuery</text>
</g>
<!-- 0&#45;&gt;3 -->
<g id="edge3" class="edge"><title>0&#45;&gt;3</title>
<path fill="none" stroke="#606ee0" d="M28.1218,-1899.24C29.3892,-2079.28 41.1231,-3533.3 90,-3609 93.6971,-3614.73 98.9946,-3619.28 104.85,-3622.89"/>
<polygon fill="#606ee0" stroke="#606ee0" points="104.206,-3624.54 109.42,-3625.47 105.927,-3621.49 104.206,-3624.54"/>
</g>
<!-- 4 -->
<g id="node5" class="node"><title>4</title>
<text text-anchor="middle" x="145.5" y="-3579.5" font-family="Segoe UI" font-size="10.00" fill="#222222">ParamTypeQuery</text>
</g>
<!-- 0&#45;&gt;4 -->
<g id="edge4" class="edge"><title>0&#45;&gt;4</title>
<path fill="none" stroke="#606ee0" d="M28.1434,-1899.22C29.6003,-2076.02 42.6555,-3481.77 90,-3555 93.0725,-3559.75 97.2472,-3563.7 101.928,-3566.97"/>
<polygon fill="#606ee0" stroke="#606ee0" points="101.194,-3568.57 106.352,-3569.78 103.073,-3565.62 101.194,-3568.57"/>
</g>
<!-- 5 -->
<g id="node6" class="node"><title>5</title>
<text text-anchor="middle" x="145.5" y="-3525.5" font-family="Segoe UI" font-size="10.00" fill="#222222">FileQuery</text>
</g>
<!-- 0&#45;&gt;5 -->
<g id="edge5" class="edge"><title>0&#45;&gt;5</title>
<path fill="none" stroke="#606ee0" d="M28.1662,-1899.17C29.8168,-2072.56 44.1847,-3430.23 90,-3501 95.473,-3509.45 104.433,-3515.36 113.521,-3519.43"/>
<polygon fill="#606ee0" stroke="#606ee0" points="112.979,-3521.1 118.268,-3521.41 114.321,-3517.87 112.979,-3521.1"/>
</g>
<!-- 6 -->
<g id="node7" class="node"><title>6</title>
<text text-anchor="middle" x="145.5" y="-3471.5" font-family="Segoe UI" font-size="10.00" fill="#222222">ChildNodeQuery</text>
</g>
<!-- 0&#45;&gt;6 -->
<g id="edge6" class="edge"><title>0&#45;&gt;6</title>
<path fill="none" stroke="#606ee0" d="M28.1901,-1899.09C30.0389,-2068.92 45.7108,-3378.69 90,-3447 93.3658,-3452.19 98.0459,-3456.42 103.262,-3459.86"/>
<polygon fill="#606ee0" stroke="#606ee0" points="102.567,-3461.48 107.753,-3462.56 104.372,-3458.48 102.567,-3461.48"/>
</g>
<!-- 7 -->
<g id="node8" class="node"><title>7</title>
<text text-anchor="middle" x="145.5" y="-3417.5" font-family="Segoe UI" font-size="10.00" fill="#222222">DoxygenQuery</text>
</g>
<!-- 0&#45;&gt;7 -->
<g id="edge7" class="edge"><title>0&#45;&gt;7</title>
<path fill="none" stroke="#606ee0" d="M28.2184,-1899.25C30.284,-2066.4 47.2561,-3327.17 90,-3393 94.1583,-3399.4 100.316,-3404.34 107.012,-3408.14"/>
<polygon fill="#606ee0" stroke="#606ee0" points="106.472,-3409.83 111.715,-3410.58 108.087,-3406.72 106.472,-3409.83"/>
</g>
<!-- 8 -->
<g id="node9" class="node"><title>8</title>
<text text-anchor="middle" x="145.5" y="-3363.5" font-family="Segoe UI" font-size="10.00" fill="#222222">FormulaQuery</text>
</g>
<!-- 0&#45;&gt;8 -->
<g id="edge8" class="edge"><title>0&#45;&gt;8</title>
<path fill="none" stroke="#606ee0" d="M28.245,-1899.1C30.5183,-2062.33 48.7751,-3275.62 90,-3339 94.5293,-3345.96 101.422,-3351.2 108.797,-3355.11"/>
<polygon fill="#606ee0" stroke="#606ee0" points="108.174,-3356.75 113.435,-3357.37 109.711,-3353.61 108.174,-3356.75"/>
</g>
<!-- 9 -->
<g id="node10" class="node"><title>9</title>
<text text-anchor="middle" x="145.5" y="-3309.5" font-family="Segoe UI" font-size="10.00" fill="#222222">ParamQuery</text>
</g>
<!-- 0&#45;&gt;9 -->
<g id="edge9" class="edge"><title>0&#45;&gt;9</title>
<path fill="none" stroke="#606ee0" d="M28.2768,-1899.18C30.7783,-2059.28 50.3118,-3224.09 90,-3285 95.2042,-3292.99 103.516,-3298.7 112.096,-3302.75"/>
<polygon fill="#606ee0" stroke="#606ee0" points="111.59,-3304.43 116.872,-3304.83 112.988,-3301.23 111.59,-3304.43"/>
</g>
<!-- 10 -->
<g id="node11" class="node"><title>10</title>
<text text-anchor="middle" x="145.5" y="-3255.5" font-family="Segoe UI" font-size="10.00" fill="#222222">SpQuery</text>
</g>
<!-- 0&#45;&gt;10 -->
<g id="edge10" class="edge"><title>0&#45;&gt;10</title>
<path fill="none" stroke="#606ee0" d="M28.3105,-1899.22C31.0465,-2055.95 51.8437,-3172.55 90,-3231 95.5053,-3239.43 104.473,-3245.33 113.559,-3249.41"/>
<polygon fill="#606ee0" stroke="#606ee0" points="113.015,-3251.08 118.304,-3251.38 114.358,-3247.85 113.015,-3251.08"/>
</g>
<!-- 11 -->
<g id="node12" class="node"><title>11</title>
<text text-anchor="middle" x="145.5" y="-3201.5" font-family="Segoe UI" font-size="10.00" fill="#222222">ListingQuery</text>
</g>
<!-- 0&#45;&gt;11 -->
<g id="edge11" class="edge"><title>0&#45;&gt;11</title>
<path fill="none" stroke="#606ee0" d="M28.351,-1899.45C31.3459,-2053.46 53.3902,-3121.04 90,-3177 95.2189,-3184.98 103.535,-3190.69 112.115,-3194.73"/>
<polygon fill="#606ee0" stroke="#606ee0" points="111.607,-3196.42 116.89,-3196.82 113.006,-3193.21 111.607,-3196.42"/>
</g>
<!-- 12 -->
<g id="node13" class="node"><title>12</title>
<text text-anchor="middle" x="145.5" y="-3147.5" font-family="Segoe UI" font-size="10.00" fill="#222222">VariableListQuery</text>
</g>
<!-- 0&#45;&gt;12 -->
<g id="edge12" class="edge"><title>0&#45;&gt;12</title>
<path fill="none" stroke="#606ee0" d="M27.8105,-1899.2C26.4365,-2044.69 19.9348,-3016.14 90,-3123 93.0143,-3127.6 97.0567,-3131.44 101.584,-3134.65"/>
<polygon fill="#606ee0" stroke="#606ee0" points="100.715,-3136.17 105.863,-3137.42 102.617,-3133.23 100.715,-3136.17"/>
</g>
<!-- 13 -->
<g id="node14" class="node"><title>13</title>
<text text-anchor="middle" x="145.5" y="-3093.5" font-family="Segoe UI" font-size="10.00" fill="#222222">RefQuery</text>
</g>
<!-- 0&#45;&gt;13 -->
<g id="edge13" class="edge"><title>0&#45;&gt;13</title>
<path fill="none" stroke="#606ee0" d="M27.8538,-1899.3C26.8594,-2041.51 22.9996,-2967.07 90,-3069 95.5316,-3077.42 104.506,-3083.31 113.59,-3087.39"/>
<polygon fill="#606ee0" stroke="#606ee0" points="113.045,-3089.06 118.333,-3089.36 114.389,-3085.83 113.045,-3089.06"/>
</g>
<!-- 14 -->
<g id="node15" class="node"><title>14</title>
<text text-anchor="middle" x="145.5" y="-3039.5" font-family="Segoe UI" font-size="10.00" fill="#222222">HighlightQuery</text>
</g>
<!-- 0&#45;&gt;14 -->
<g id="edge14" class="edge"><title>0&#45;&gt;14</title>
<path fill="none" stroke="#606ee0" d="M27.9021,-1899.34C27.3038,-2037.96 26.0517,-2917.97 90,-3015 94.1547,-3021.3 100.24,-3026.19 106.853,-3029.97"/>
<polygon fill="#606ee0" stroke="#606ee0" points="106.258,-3031.63 111.499,-3032.4 107.884,-3028.53 106.258,-3031.63"/>
</g>
<!-- 15 -->
<g id="node16" class="node"><title>15</title>
<text text-anchor="middle" x="145.5" y="-2985.5" font-family="Segoe UI" font-size="10.00" fill="#222222">TableQuery</text>
</g>
<!-- 0&#45;&gt;15 -->
<g id="edge15" class="edge"><title>0&#45;&gt;15</title>
<path fill="none" stroke="#606ee0" d="M27.9555,-1899.32C27.7695,-2034.05 29.0911,-2868.86 90,-2961 95.5025,-2969.32 104.369,-2975.18 113.366,-2979.26"/>
<polygon fill="#606ee0" stroke="#606ee0" points="113.069,-2981.03 118.358,-2981.35 114.42,-2977.8 113.069,-2981.03"/>
</g>
<!-- 16 -->
<g id="node17" class="node"><title>16</title>
<text text-anchor="middle" x="145.5" y="-2931.5" font-family="Segoe UI" font-size="10.00" fill="#222222">LinkQuery</text>
</g>
<!-- 0&#45;&gt;16 -->
<g id="edge16" class="edge"><title>0&#45;&gt;16</title>
<path fill="none" stroke="#606ee0" d="M28.0142,-1899.23C28.2564,-2029.77 32.1178,-2819.72 90,-2907 95.515,-2915.32 104.385,-2921.17 113.381,-2925.25"/>
<polygon fill="#606ee0" stroke="#606ee0" points="113.084,-2927.02 118.372,-2927.34 114.434,-2923.79 113.084,-2927.02"/>
</g>
<!-- 17 -->
<g id="node18" class="node"><title>17</title>
<text text-anchor="middle" x="145.5" y="-2877.5" font-family="Segoe UI" font-size="10.00" fill="#222222">InternalS3Query</text>
</g>
<!-- 0&#45;&gt;17 -->
<g id="edge17" class="edge"><title>0&#45;&gt;17</title>
<path fill="none" stroke="#606ee0" d="M28.0784,-1899.07C28.7643,-2025.14 35.1318,-2770.57 90,-2853 93.7298,-2858.6 98.9817,-2863.09 104.766,-2866.67"/>
<polygon fill="#606ee0" stroke="#606ee0" points="104.066,-2868.28 109.277,-2869.23 105.795,-2865.24 104.066,-2868.28"/>
</g>
<!-- 18 -->
<g id="node19" class="node"><title>18</title>
<text text-anchor="middle" x="145.5" y="-2823.5" font-family="Segoe UI" font-size="10.00" fill="#222222">Sect4Query</text>
</g>
<!-- 0&#45;&gt;18 -->
<g id="edge18" class="edge"><title>0&#45;&gt;18</title>
<path fill="none" stroke="#606ee0" d="M28.1519,-1899.23C29.312,-2021.65 38.1883,-2721.47 90,-2799 95.5444,-2807.3 104.422,-2813.15 113.416,-2817.23"/>
<polygon fill="#606ee0" stroke="#606ee0" points="113.117,-2819 118.405,-2819.32 114.469,-2815.77 113.117,-2819"/>
</g>
<!-- 19 -->
<g id="node20" class="node"><title>19</title>
<text text-anchor="middle" x="145.5" y="-2769.5" font-family="Segoe UI" font-size="10.00" fill="#222222">ReferenceQuery</text>
</g>
<!-- 0&#45;&gt;19 -->
<g id="edge19" class="edge"><title>0&#45;&gt;19</title>
<path fill="none" stroke="#606ee0" d="M28.2344,-1899.29C29.8909,-2017.61 41.2258,-2672.35 90,-2745 93.752,-2750.59 99.0151,-2755.07 104.804,-2758.64"/>
<polygon fill="#606ee0" stroke="#606ee0" points="104.105,-2760.26 109.317,-2761.21 105.833,-2757.22 104.105,-2760.26"/>
</g>
<!-- 20 -->
<g id="node21" class="node"><title>20</title>
<text text-anchor="middle" x="145.5" y="-2715.5" font-family="Segoe UI" font-size="10.00" fill="#222222">ImageQuery</text>
</g>
<!-- 0&#45;&gt;20 -->
<g id="edge20" class="edge"><title>0&#45;&gt;20</title>
<path fill="none" stroke="#606ee0" d="M28.3261,-1899.23C30.5008,-2013.04 44.244,-2623.19 90,-2691 95.3822,-2698.98 103.838,-2704.69 112.498,-2708.75"/>
<polygon fill="#606ee0" stroke="#606ee0" points="112.028,-2710.46 117.311,-2710.84 113.42,-2707.25 112.028,-2710.46"/>
</g>
<!-- 21 -->
<g id="node22" class="node"><title>21</title>
<text text-anchor="middle" x="145.5" y="-2661.5" font-family="Segoe UI" font-size="10.00" fill="#222222">EntryQuery</text>
</g>
<!-- 0&#45;&gt;21 -->
<g id="edge21" class="edge"><title>0&#45;&gt;21</title>
<path fill="none" stroke="#606ee0" d="M28.4275,-1899.07C31.1413,-2007.93 47.2428,-2574.01 90,-2637 95.604,-2645.26 104.497,-2651.1 113.487,-2655.18"/>
<polygon fill="#606ee0" stroke="#606ee0" points="113.184,-2656.95 118.472,-2657.27 114.538,-2653.72 113.184,-2656.95"/>
</g>
<!-- 22 -->
<g id="node23" class="node"><title>22</title>
<text text-anchor="middle" x="145.5" y="-2607.5" font-family="Segoe UI" font-size="10.00" fill="#222222">SectionDefQuery</text>
</g>
<!-- 0&#45;&gt;22 -->
<g id="edge22" class="edge"><title>0&#45;&gt;22</title>
<path fill="none" stroke="#606ee0" d="M28.5496,-1899.11C31.8519,-2003.42 50.2652,-2524.85 90,-2583 93.4907,-2588.11 98.2386,-2592.29 103.485,-2595.71"/>
<polygon fill="#606ee0" stroke="#606ee0" points="102.803,-2597.34 107.993,-2598.4 104.598,-2594.33 102.803,-2597.34"/>
</g>
<!-- 23 -->
<g id="node24" class="node"><title>23</title>
<text text-anchor="middle" x="145.5" y="-2553.5" font-family="Segoe UI" font-size="10.00" fill="#222222">BlockQuoteQuery</text>
</g>
<!-- 0&#45;&gt;23 -->
<g id="edge23" class="edge"><title>0&#45;&gt;23</title>
<path fill="none" stroke="#606ee0" d="M28.6989,-1899.33C32.6474,-1999.24 53.3017,-2475.71 90,-2529 93.164,-2533.59 97.343,-2537.44 101.983,-2540.66"/>
<polygon fill="#606ee0" stroke="#606ee0" points="101.199,-2542.23 106.359,-2543.43 103.075,-2539.28 101.199,-2542.23"/>
</g>
<!-- 24 -->
<g id="node25" class="node"><title>24</title>
<text text-anchor="middle" x="145.5" y="-2499.5" font-family="Segoe UI" font-size="10.00" fill="#222222">LinkedTextQuery</text>
</g>
<!-- 0&#45;&gt;24 -->
<g id="edge24" class="edge"><title>0&#45;&gt;24</title>
<path fill="none" stroke="#606ee0" d="M27.6103,-1899C26.02,-1987.79 22.9811,-2378.58 90,-2475 93.4842,-2480.01 98.1741,-2484.14 103.348,-2487.52"/>
<polygon fill="#606ee0" stroke="#606ee0" points="102.604,-2489.12 107.791,-2490.19 104.407,-2486.12 102.604,-2489.12"/>
</g>
<!-- 25 -->
<g id="node26" class="node"><title>25</title>
<text text-anchor="middle" x="145.5" y="-2445.5" font-family="Segoe UI" font-size="10.00" fill="#222222">VarListEntryQuery</text>
</g>
<!-- 0&#45;&gt;25 -->
<g id="edge25" class="edge"><title>0&#45;&gt;25</title>
<path fill="none" stroke="#606ee0" d="M27.822,-1899.02C27.3234,-1982.83 28.96,-2334.14 90,-2421 92.9598,-2425.21 96.7686,-2428.8 100.996,-2431.85"/>
<polygon fill="#606ee0" stroke="#606ee0" points="100.209,-2433.42 105.347,-2434.72 102.137,-2430.5 100.209,-2433.42"/>
</g>
<!-- 26 -->
<g id="node27" class="node"><title>26</title>
<text text-anchor="middle" x="145.5" y="-2391.5" font-family="Segoe UI" font-size="10.00" fill="#222222">TitleQuery</text>
</g>
<!-- 0&#45;&gt;26 -->
<g id="edge26" class="edge"><title>0&#45;&gt;26</title>
<path fill="none" stroke="#606ee0" d="M28.0802,-1899.03C28.7561,-1977.61 34.921,-2289.66 90,-2367 95.7369,-2375.06 104.571,-2380.83 113.467,-2384.92"/>
<polygon fill="#606ee0" stroke="#606ee0" points="113.111,-2386.67 118.397,-2387.01 114.483,-2383.45 113.111,-2386.67"/>
</g>
<!-- 27 -->
<g id="node28" class="node"><title>27</title>
<text text-anchor="middle" x="145.5" y="-2337.5" font-family="Segoe UI" font-size="10.00" fill="#222222">ParBlockQuery</text>
</g>
<!-- 0&#45;&gt;27 -->
<g id="edge27" class="edge"><title>0&#45;&gt;27</title>
<path fill="none" stroke="#606ee0" d="M28.4064,-1899.21C30.3681,-1972.51 40.8989,-2245.19 90,-2313 94.478,-2319.18 100.775,-2324.03 107.505,-2327.8"/>
<polygon fill="#606ee0" stroke="#606ee0" points="106.973,-2329.49 112.218,-2330.24 108.582,-2326.39 106.973,-2329.49"/>
</g>
<!-- 28 -->
<g id="node29" class="node"><title>28</title>
<text text-anchor="middle" x="145.5" y="-2283.5" font-family="Segoe UI" font-size="10.00" fill="#222222">EmptyQuery</text>
</g>
<!-- 0&#45;&gt;28 -->
<g id="edge28" class="edge"><title>0&#45;&gt;28</title>
<path fill="none" stroke="#606ee0" d="M28.8207,-1899.2C32.1787,-1966.52 46.8043,-2200.58 90,-2259 95.6678,-2266.67 104.116,-2272.28 112.679,-2276.34"/>
<polygon fill="#606ee0" stroke="#606ee0" points="112.15,-2278.02 117.431,-2278.44 113.564,-2274.82 112.15,-2278.02"/>
</g>
<!-- 29 -->
<g id="node30" class="node"><title>29</title>
<text text-anchor="middle" x="145.5" y="-2229.5" font-family="Segoe UI" font-size="10.00" fill="#222222">MemberIndexQuery</text>
</g>
<!-- 0&#45;&gt;29 -->
<g id="edge29" class="edge"><title>0&#45;&gt;29</title>
<path fill="none" stroke="#606ee0" d="M29.3604,-1899.07C34.2499,-1959.86 52.657,-2155.87 90,-2205 91.7972,-2207.36 93.8572,-2209.53 96.1008,-2211.53"/>
<polygon fill="#606ee0" stroke="#606ee0" points="95.327,-2213.15 100.32,-2214.92 97.5204,-2210.42 95.327,-2213.15"/>
</g>
<!-- 30 -->
<g id="node31" class="node"><title>30</title>
<text text-anchor="middle" x="145.5" y="-2175.5" font-family="Segoe UI" font-size="10.00" fill="#222222">Sect3Query</text>
</g>
<!-- 0&#45;&gt;30 -->
<g id="edge30" class="edge"><title>0&#45;&gt;30</title>
<path fill="none" stroke="#606ee0" d="M30.1122,-1899.02C36.725,-1952.83 58.4854,-2111.08 90,-2151 96.0174,-2158.62 104.745,-2164.25 113.459,-2168.34"/>
<polygon fill="#606ee0" stroke="#606ee0" points="113,-2170.05 118.282,-2170.45 114.405,-2166.84 113,-2170.05"/>
</g>
<!-- 31 -->
<g id="node32" class="node"><title>31</title>
<text text-anchor="middle" x="145.5" y="-2121.5" font-family="Segoe UI" font-size="10.00" fill="#222222">InternalS4Query</text>
</g>
<!-- 0&#45;&gt;31 -->
<g id="edge31" class="edge"><title>0&#45;&gt;31</title>
<path fill="none" stroke="#606ee0" d="M28.4419,-1899.19C30.3414,-1939.44 40.1462,-2037.23 90,-2097 94.15,-2101.98 99.4416,-2106.12 105.089,-2109.54"/>
<polygon fill="#606ee0" stroke="#606ee0" points="104.251,-2111.08 109.464,-2112.02 105.976,-2108.03 104.251,-2111.08"/>
</g>
<!-- 32 -->
<g id="node33" class="node"><title>32</title>
<text text-anchor="middle" x="145.5" y="-2067.5" font-family="Segoe UI" font-size="10.00" fill="#222222">NodeQuery</text>
</g>
<!-- 0&#45;&gt;32 -->
<g id="edge32" class="edge"><title>0&#45;&gt;32</title>
<path fill="none" stroke="#606ee0" d="M30.5176,-1899.05C35.9129,-1931.58 51.395,-2000.56 90,-2043 96.4151,-2050.05 105.084,-2055.49 113.618,-2059.57"/>
<polygon fill="#606ee0" stroke="#606ee0" points="113.054,-2061.24 118.331,-2061.7 114.496,-2058.05 113.054,-2061.24"/>
</g>
<!-- 33 -->
<g id="node34" class="node"><title>33</title>
<text text-anchor="middle" x="145.5" y="-2013.5" font-family="Segoe UI" font-size="10.00" fill="#222222">ParaQuery</text>
</g>
<!-- 0&#45;&gt;33 -->
<g id="edge33" class="edge"><title>0&#45;&gt;33</title>
<path fill="none" stroke="#606ee0" d="M34.5743,-1899.21C43.8035,-1922.59 62.5985,-1963.23 90,-1989 96.8141,-1995.41 105.439,-2000.62 113.805,-2004.69"/>
<polygon fill="#606ee0" stroke="#606ee0" points="113.142,-2006.31 118.414,-2006.83 114.618,-2003.13 113.142,-2006.31"/>
</g>
<!-- 34 -->
<g id="node35" class="node"><title>34</title>
<text text-anchor="middle" x="145.5" y="-1959.5" font-family="Segoe UI" font-size="10.00" fill="#222222">InternalS2Query</text>
</g>
<!-- 0&#45;&gt;34 -->
<g id="edge34" class="edge"><title>0&#45;&gt;34</title>
<path fill="none" stroke="#606ee0" d="M46.2467,-1899.12C58.0888,-1910.3 74.2065,-1924.47 90,-1935 94.6406,-1938.1 99.6868,-1941.06 104.774,-1943.82"/>
<polygon fill="#606ee0" stroke="#606ee0" points="104.208,-1945.5 109.446,-1946.3 105.847,-1942.41 104.208,-1945.5"/>
</g>
<!-- 35 -->
<g id="node36" class="node"><title>35</title>
<text text-anchor="middle" x="145.5" y="-1905.5" font-family="Segoe UI" font-size="10.00" fill="#222222">Sect1Query</text>
</g>
<!-- 0&#45;&gt;35 -->
<g id="edge35" class="edge"><title>0&#45;&gt;35</title>
<path fill="none" stroke="#606ee0" d="M54.1449,-1887.06C71.6826,-1891.12 94.8669,-1896.5 113.36,-1900.78"/>
<polygon fill="#606ee0" stroke="#606ee0" points="113.176,-1902.54 118.442,-1901.96 113.967,-1899.13 113.176,-1902.54"/>
</g>
<!-- 36 -->
<g id="node37" class="node"><title>36</title>
<text text-anchor="middle" x="145.5" y="-1851.5" font-family="Segoe UI" font-size="10.00" fill="#222222">HeadingQuery</text>
</g>
<!-- 0&#45;&gt;36 -->
<g id="edge36" class="edge"><title>0&#45;&gt;36</title>
<path fill="none" stroke="#606ee0" d="M54.1449,-1874.94C69.7088,-1871.33 89.7199,-1866.7 106.952,-1862.7"/>
<polygon fill="#606ee0" stroke="#606ee0" points="107.727,-1864.32 112.203,-1861.49 106.937,-1860.91 107.727,-1864.32"/>
</g>
<!-- 37 -->
<g id="node38" class="node"><title>37</title>
<text text-anchor="middle" x="145.5" y="-1797.5" font-family="Segoe UI" font-size="10.00" fill="#222222">RefTextQuery</text>
</g>
<!-- 0&#45;&gt;37 -->
<g id="edge37" class="edge"><title>0&#45;&gt;37</title>
<path fill="none" stroke="#606ee0" d="M46.2467,-1862.88C58.0888,-1851.7 74.2065,-1837.53 90,-1827 96.2808,-1822.81 103.305,-1818.86 110.166,-1815.33"/>
<polygon fill="#606ee0" stroke="#606ee0" points="111.199,-1816.77 114.88,-1812.96 109.626,-1813.64 111.199,-1816.77"/>
</g>
<!-- 38 -->
<g id="node39" class="node"><title>38</title>
<text text-anchor="middle" x="145.5" y="-1743.5" font-family="Segoe UI" font-size="10.00" fill="#222222">MarkupQuery</text>
</g>
<!-- 0&#45;&gt;38 -->
<g id="edge38" class="edge"><title>0&#45;&gt;38</title>
<path fill="none" stroke="#606ee0" d="M34.5743,-1862.79C43.8035,-1839.41 62.5985,-1798.77 90,-1773 95.5618,-1767.77 102.33,-1763.34 109.179,-1759.67"/>
<polygon fill="#606ee0" stroke="#606ee0" points="110.259,-1761.09 113.92,-1757.26 108.671,-1757.97 110.259,-1761.09"/>
</g>
<!-- 39 -->
<g id="node40" class="node"><title>39</title>
<text text-anchor="middle" x="145.5" y="-1689.5" font-family="Segoe UI" font-size="10.00" fill="#222222">MemberDefQuery</text>
</g>
<!-- 0&#45;&gt;39 -->
<g id="edge39" class="edge"><title>0&#45;&gt;39</title>
<path fill="none" stroke="#606ee0" d="M30.5176,-1862.95C35.9129,-1830.42 51.395,-1761.44 90,-1719 93.0133,-1715.69 96.5237,-1712.73 100.284,-1710.11"/>
<polygon fill="#606ee0" stroke="#606ee0" points="101.559,-1711.36 104.798,-1707.17 99.6519,-1708.43 101.559,-1711.36"/>
</g>
<!-- 40 -->
<g id="node41" class="node"><title>40</title>
<text text-anchor="middle" x="145.5" y="-1635.5" font-family="Segoe UI" font-size="10.00" fill="#222222">InternalQuery</text>
</g>
<!-- 0&#45;&gt;40 -->
<g id="edge40" class="edge"><title>0&#45;&gt;40</title>
<path fill="none" stroke="#606ee0" d="M28.4419,-1862.81C30.3414,-1822.56 40.1462,-1724.77 90,-1665 95.3769,-1658.55 102.67,-1653.51 110.171,-1649.61"/>
<polygon fill="#606ee0" stroke="#606ee0" points="111.123,-1651.1 114.853,-1647.33 109.591,-1647.95 111.123,-1651.1"/>
</g>
<!-- 41 -->
<g id="node42" class="node"><title>41</title>
<text text-anchor="middle" x="145.5" y="-1581.5" font-family="Segoe UI" font-size="10.00" fill="#222222">ParamListItemQuery</text>
</g>
<!-- 0&#45;&gt;41 -->
<g id="edge41" class="edge"><title>0&#45;&gt;41</title>
<path fill="none" stroke="#606ee0" d="M30.1122,-1862.98C36.725,-1809.17 58.4854,-1650.92 90,-1611 91.8402,-1608.67 93.9338,-1606.52 96.203,-1604.55"/>
<polygon fill="#606ee0" stroke="#606ee0" points="97.622,-1605.66 100.46,-1601.19 95.4522,-1602.92 97.622,-1605.66"/>
</g>
<!-- 42 -->
<g id="node43" class="node"><title>42</title>
<text text-anchor="middle" x="145.5" y="-1527.5" font-family="Segoe UI" font-size="10.00" fill="#222222">XRefSectQuery</text>
</g>
<!-- 0&#45;&gt;42 -->
<g id="edge42" class="edge"><title>0&#45;&gt;42</title>
<path fill="none" stroke="#606ee0" d="M29.3604,-1862.93C34.2499,-1802.14 52.657,-1606.13 90,-1557 94.5169,-1551.06 100.695,-1546.34 107.272,-1542.62"/>
<polygon fill="#606ee0" stroke="#606ee0" points="108.261,-1544.08 111.873,-1540.2 106.633,-1540.98 108.261,-1544.08"/>
</g>
<!-- 43 -->
<g id="node44" class="node"><title>43</title>
<text text-anchor="middle" x="145.5" y="-1473.5" font-family="Segoe UI" font-size="10.00" fill="#222222">ListOfAllMembersQuery</text>
</g>
<!-- 0&#45;&gt;43 -->
<g id="edge43" class="edge"><title>0&#45;&gt;43</title>
<path fill="none" stroke="#606ee0" d="M28.8207,-1862.8C32.1787,-1795.48 46.8043,-1561.42 90,-1503 91.3419,-1501.19 92.8397,-1499.49 94.458,-1497.89"/>
<polygon fill="#606ee0" stroke="#606ee0" points="95.8514,-1499 98.4359,-1494.37 93.5318,-1496.38 95.8514,-1499"/>
</g>
<!-- 44 -->
<g id="node45" class="node"><title>44</title>
<text text-anchor="middle" x="145.5" y="-1419.5" font-family="Segoe UI" font-size="10.00" fill="#222222">TemplateParamListQuery</text>
</g>
<!-- 0&#45;&gt;44 -->
<g id="edge44" class="edge"><title>0&#45;&gt;44</title>
<path fill="none" stroke="#606ee0" d="M28.4064,-1862.79C30.3681,-1789.49 40.8989,-1516.81 90,-1449 91.3237,-1447.17 92.8063,-1445.46 94.412,-1443.86"/>
<polygon fill="#606ee0" stroke="#606ee0" points="95.8068,-1444.96 98.3653,-1440.32 93.4726,-1442.35 95.8068,-1444.96"/>
</g>
<!-- 45 -->
<g id="node46" class="node"><title>45</title>
<text text-anchor="middle" x="145.5" y="-1365.5" font-family="Segoe UI" font-size="10.00" fill="#222222">DescriptionQuery</text>
</g>
<!-- 0&#45;&gt;45 -->
<g id="edge45" class="edge"><title>0&#45;&gt;45</title>
<path fill="none" stroke="#606ee0" d="M28.0802,-1862.97C28.7561,-1784.39 34.921,-1472.34 90,-1395 93.1891,-1390.52 97.3351,-1386.75 101.917,-1383.58"/>
<polygon fill="#606ee0" stroke="#606ee0" points="102.952,-1384.99 106.232,-1380.83 101.074,-1382.04 102.952,-1384.99"/>
</g>
<!-- 46 -->
<g id="node47" class="node"><title>46</title>
<text text-anchor="middle" x="145.5" y="-1311.5" font-family="Segoe UI" font-size="10.00" fill="#222222">Sect2Query</text>
</g>
<!-- 0&#45;&gt;46 -->
<g id="edge46" class="edge"><title>0&#45;&gt;46</title>
<path fill="none" stroke="#606ee0" d="M27.822,-1862.98C27.3234,-1779.17 28.96,-1427.86 90,-1341 95.6861,-1332.91 104.506,-1327.12 113.406,-1323.04"/>
<polygon fill="#606ee0" stroke="#606ee0" points="114.422,-1324.51 118.339,-1320.94 113.053,-1321.29 114.422,-1324.51"/>
</g>
<!-- 47 -->
<g id="node48" class="node"><title>47</title>
<text text-anchor="middle" x="145.5" y="-1257.5" font-family="Segoe UI" font-size="10.00" fill="#222222">InternalS1Query</text>
</g>
<!-- 0&#45;&gt;47 -->
<g id="edge47" class="edge"><title>0&#45;&gt;47</title>
<path fill="none" stroke="#606ee0" d="M27.6103,-1863C26.02,-1774.21 22.9811,-1383.42 90,-1287 93.842,-1281.47 99.1502,-1277.02 104.956,-1273.46"/>
<polygon fill="#606ee0" stroke="#606ee0" points="105.986,-1274.89 109.477,-1270.9 104.263,-1271.84 105.986,-1274.89"/>
</g>
<!-- 48 -->
<g id="node49" class="node"><title>48</title>
<text text-anchor="middle" x="145.5" y="-1203.5" font-family="Segoe UI" font-size="10.00" fill="#222222">ListQuery</text>
</g>
<!-- 0&#45;&gt;48 -->
<g id="edge48" class="edge"><title>0&#45;&gt;48</title>
<path fill="none" stroke="#606ee0" d="M28.6989,-1862.67C32.6474,-1762.76 53.3017,-1286.29 90,-1233 95.6093,-1224.86 104.409,-1219.06 113.313,-1214.98"/>
<polygon fill="#606ee0" stroke="#606ee0" points="114.331,-1216.45 118.252,-1212.88 112.965,-1213.22 114.331,-1216.45"/>
</g>
<!-- 49 -->
<g id="node50" class="node"><title>49</title>
<text text-anchor="middle" x="145.5" y="-1149.5" font-family="Segoe UI" font-size="10.00" fill="#222222">ParamListQuery</text>
</g>
<!-- 0&#45;&gt;49 -->
<g id="edge49" class="edge"><title>0&#45;&gt;49</title>
<path fill="none" stroke="#606ee0" d="M28.5496,-1862.89C31.8519,-1758.58 50.2652,-1237.15 90,-1179 93.8928,-1173.3 99.3492,-1168.76 105.317,-1165.14"/>
<polygon fill="#606ee0" stroke="#606ee0" points="106.445,-1166.52 109.963,-1162.56 104.743,-1163.46 106.445,-1166.52"/>
</g>
<!-- 50 -->
<g id="node51" class="node"><title>50</title>
<text text-anchor="middle" x="145.5" y="-1095.5" font-family="Segoe UI" font-size="10.00" fill="#222222">CodeLineQuery</text>
</g>
<!-- 0&#45;&gt;50 -->
<g id="edge50" class="edge"><title>0&#45;&gt;50</title>
<path fill="none" stroke="#606ee0" d="M28.4275,-1862.93C31.1413,-1754.07 47.2428,-1187.99 90,-1125 94.0955,-1118.97 99.9477,-1114.22 106.311,-1110.51"/>
<polygon fill="#606ee0" stroke="#606ee0" points="107.209,-1112.02 110.782,-1108.11 105.55,-1108.94 107.209,-1112.02"/>
</g>
<!-- 51 -->
<g id="node52" class="node"><title>51</title>
<text text-anchor="middle" x="145.5" y="-1041.5" font-family="Segoe UI" font-size="10.00" fill="#222222">CaptionQuery</text>
</g>
<!-- 0&#45;&gt;51 -->
<g id="edge51" class="edge"><title>0&#45;&gt;51</title>
<path fill="none" stroke="#606ee0" d="M28.3261,-1862.77C30.5008,-1748.96 44.244,-1138.81 90,-1071 94.6956,-1064.04 101.731,-1058.8 109.199,-1054.88"/>
<polygon fill="#606ee0" stroke="#606ee0" points="110.153,-1056.37 113.889,-1052.61 108.626,-1053.22 110.153,-1056.37"/>
</g>
<!-- 52 -->
<g id="node53" class="node"><title>52</title>
<text text-anchor="middle" x="145.5" y="-987.5" font-family="Segoe UI" font-size="10.00" fill="#222222">TocItemQuery</text>
</g>
<!-- 0&#45;&gt;52 -->
<g id="edge52" class="edge"><title>0&#45;&gt;52</title>
<path fill="none" stroke="#606ee0" d="M28.2344,-1862.71C29.8909,-1744.39 41.2258,-1089.65 90,-1017 94.679,-1010.03 101.708,-1004.79 109.176,-1000.87"/>
<polygon fill="#606ee0" stroke="#606ee0" points="110.129,-1002.35 113.865,-998.594 108.603,-999.2 110.129,-1002.35"/>
</g>
<!-- 53 -->
<g id="node54" class="node"><title>53</title>
<text text-anchor="middle" x="145.5" y="-933.5" font-family="Segoe UI" font-size="10.00" fill="#222222">CopyQuery</text>
</g>
<!-- 0&#45;&gt;53 -->
<g id="edge53" class="edge"><title>0&#45;&gt;53</title>
<path fill="none" stroke="#606ee0" d="M28.1519,-1862.77C29.312,-1740.35 38.1883,-1040.53 90,-963 95.5444,-954.704 104.422,-948.853 113.416,-944.773"/>
<polygon fill="#606ee0" stroke="#606ee0" points="114.469,-946.23 118.405,-942.685 113.117,-943.002 114.469,-946.23"/>
</g>
<!-- 54 -->
<g id="node55" class="node"><title>54</title>
<text text-anchor="middle" x="145.5" y="-879.5" font-family="Segoe UI" font-size="10.00" fill="#222222">LocationQuery</text>
</g>
<!-- 0&#45;&gt;54 -->
<g id="edge54" class="edge"><title>0&#45;&gt;54</title>
<path fill="none" stroke="#606ee0" d="M28.0784,-1862.93C28.7643,-1736.86 35.1318,-991.434 90,-909 94.3259,-902.501 100.699,-897.503 107.576,-893.683"/>
<polygon fill="#606ee0" stroke="#606ee0" points="108.741,-895.053 112.399,-891.222 107.15,-891.936 108.741,-895.053"/>
</g>
<!-- 55 -->
<g id="node56" class="node"><title>55</title>
<text text-anchor="middle" x="145.5" y="-825.5" font-family="Segoe UI" font-size="10.00" fill="#222222">GraphQuery</text>
</g>
<!-- 0&#45;&gt;55 -->
<g id="edge55" class="edge"><title>0&#45;&gt;55</title>
<path fill="none" stroke="#606ee0" d="M28.0142,-1862.77C28.2564,-1732.23 32.1178,-942.279 90,-855 95.3181,-846.981 103.756,-841.25 112.418,-837.194"/>
<polygon fill="#606ee0" stroke="#606ee0" points="113.342,-838.701 117.235,-835.109 111.951,-835.489 113.342,-838.701"/>
</g>
<!-- 56 -->
<g id="node57" class="node"><title>56</title>
<text text-anchor="middle" x="145.5" y="-771.5" font-family="Segoe UI" font-size="10.00" fill="#222222">ParamNameQuery</text>
</g>
<!-- 0&#45;&gt;56 -->
<g id="edge56" class="edge"><title>0&#45;&gt;56</title>
<path fill="none" stroke="#606ee0" d="M27.9555,-1862.68C27.7695,-1727.95 29.0911,-893.143 90,-801 92.5529,-797.138 95.83,-793.807 99.5082,-790.938"/>
<polygon fill="#606ee0" stroke="#606ee0" points="100.912,-792.089 103.991,-787.778 98.896,-789.229 100.912,-792.089"/>
</g>
<!-- 57 -->
<g id="node58" class="node"><title>57</title>
<text text-anchor="middle" x="145.5" y="-717.5" font-family="Segoe UI" font-size="10.00" fill="#222222">CompoundRefQuery</text>
</g>
<!-- 0&#45;&gt;57 -->
<g id="edge57" class="edge"><title>0&#45;&gt;57</title>
<path fill="none" stroke="#606ee0" d="M27.9021,-1862.66C27.3038,-1724.04 26.0517,-844.029 90,-747 91.5616,-744.631 93.396,-742.461 95.4287,-740.476"/>
<polygon fill="#606ee0" stroke="#606ee0" points="96.6776,-741.708 99.2856,-737.097 94.3714,-739.075 96.6776,-741.708"/>
</g>
<!-- 58 -->
<g id="node59" class="node"><title>58</title>
<text text-anchor="middle" x="145.5" y="-663.5" font-family="Segoe UI" font-size="10.00" fill="#222222">IndexEntryQuery</text>
</g>
<!-- 0&#45;&gt;58 -->
<g id="edge58" class="edge"><title>0&#45;&gt;58</title>
<path fill="none" stroke="#606ee0" d="M27.8538,-1862.7C26.8594,-1720.49 22.9996,-794.934 90,-693 93.489,-687.692 98.3476,-683.388 103.74,-679.908"/>
<polygon fill="#606ee0" stroke="#606ee0" points="104.957,-681.222 108.376,-677.176 103.18,-678.207 104.957,-681.222"/>
</g>
<!-- 59 -->
<g id="node60" class="node"><title>59</title>
<text text-anchor="middle" x="145.5" y="-609.5" font-family="Segoe UI" font-size="10.00" fill="#222222">ParamNameListQuery</text>
</g>
<!-- 0&#45;&gt;59 -->
<g id="edge59" class="edge"><title>0&#45;&gt;59</title>
<path fill="none" stroke="#606ee0" d="M27.8105,-1862.8C26.4365,-1717.31 19.9348,-745.86 90,-639 91.2376,-637.113 92.6484,-635.352 94.195,-633.71"/>
<polygon fill="#606ee0" stroke="#606ee0" points="95.5951,-634.795 98.0324,-630.092 93.194,-632.249 95.5951,-634.795"/>
</g>
<!-- 60 -->
<g id="node61" class="node"><title>60</title>
<text text-anchor="middle" x="145.5" y="-555.5" font-family="Segoe UI" font-size="10.00" fill="#222222">MemberRefQuery</text>
</g>
<!-- 0&#45;&gt;60 -->
<g id="edge60" class="edge"><title>0&#45;&gt;60</title>
<path fill="none" stroke="#606ee0" d="M28.351,-1862.55C31.3459,-1708.54 53.3902,-640.962 90,-585 92.7747,-580.759 96.4249,-577.158 100.525,-574.108"/>
<polygon fill="#606ee0" stroke="#606ee0" points="101.602,-575.492 104.759,-571.238 99.6381,-572.595 101.602,-575.492"/>
</g>
<!-- 61 -->
<g id="node62" class="node"><title>61</title>
<text text-anchor="middle" x="145.5" y="-501.5" font-family="Segoe UI" font-size="10.00" fill="#222222">TocListQuery</text>
</g>
<!-- 0&#45;&gt;61 -->
<g id="edge61" class="edge"><title>0&#45;&gt;61</title>
<path fill="none" stroke="#606ee0" d="M28.3105,-1862.78C31.0465,-1706.05 51.8437,-589.448 90,-531 95.0164,-523.316 102.908,-517.737 111.144,-513.72"/>
<polygon fill="#606ee0" stroke="#606ee0" points="111.902,-515.298 115.739,-511.646 110.462,-512.108 111.902,-515.298"/>
</g>
<!-- 62 -->
<g id="node63" class="node"><title>62</title>
<text text-anchor="middle" x="145.5" y="-447.5" font-family="Segoe UI" font-size="10.00" fill="#222222">CompoundIndexQuery</text>
</g>
<!-- 0&#45;&gt;62 -->
<g id="edge62" class="edge"><title>0&#45;&gt;62</title>
<path fill="none" stroke="#606ee0" d="M28.2768,-1862.82C30.7783,-1702.72 50.3118,-537.912 90,-477 91.2322,-475.109 92.6385,-473.345 94.1813,-471.701"/>
<polygon fill="#606ee0" stroke="#606ee0" points="95.5817,-472.786 98.0114,-468.078 93.1764,-470.243 95.5817,-472.786"/>
</g>
<!-- 63 -->
<g id="node64" class="node"><title>63</title>
<text text-anchor="middle" x="145.5" y="-393.5" font-family="Segoe UI" font-size="10.00" fill="#222222">UrlLinkQuery</text>
</g>
<!-- 0&#45;&gt;63 -->
<g id="edge63" class="edge"><title>0&#45;&gt;63</title>
<path fill="none" stroke="#606ee0" d="M28.245,-1862.9C30.5183,-1699.67 48.7751,-486.383 90,-423 95.1005,-415.158 103.198,-409.51 111.607,-405.477"/>
<polygon fill="#606ee0" stroke="#606ee0" points="112.432,-407.025 116.294,-403.399 111.014,-403.826 112.432,-407.025"/>
</g>
<!-- 64 -->
<g id="node65" class="node"><title>64</title>
<text text-anchor="middle" x="145.5" y="-339.5" font-family="Segoe UI" font-size="10.00" fill="#222222">ReimplementQuery</text>
</g>
<!-- 0&#45;&gt;64 -->
<g id="edge64" class="edge"><title>0&#45;&gt;64</title>
<path fill="none" stroke="#606ee0" d="M28.2184,-1862.75C30.284,-1695.6 47.2561,-434.828 90,-369 92.1744,-365.651 94.8955,-362.703 97.9543,-360.109"/>
<polygon fill="#606ee0" stroke="#606ee0" points="99.3974,-361.21 102.315,-356.789 97.277,-358.425 99.3974,-361.21"/>
</g>
<!-- 65 -->
<g id="node66" class="node"><title>65</title>
<text text-anchor="middle" x="145.5" y="-285.5" font-family="Segoe UI" font-size="10.00" fill="#222222">DoxygenIndexQuery</text>
</g>
<!-- 0&#45;&gt;65 -->
<g id="edge65" class="edge"><title>0&#45;&gt;65</title>
<path fill="none" stroke="#606ee0" d="M28.1901,-1862.91C30.0389,-1693.08 45.7108,-383.313 90,-315 91.8094,-312.209 93.9987,-309.696 96.447,-307.435"/>
<polygon fill="#606ee0" stroke="#606ee0" points="97.7562,-308.623 100.49,-304.086 95.5234,-305.928 97.7562,-308.623"/>
</g>
<!-- 66 -->
<g id="node67" class="node"><title>66</title>
<text text-anchor="middle" x="145.5" y="-231.5" font-family="Segoe UI" font-size="10.00" fill="#222222">ListItemQuery</text>
</g>
<!-- 0&#45;&gt;66 -->
<g id="edge66" class="edge"><title>0&#45;&gt;66</title>
<path fill="none" stroke="#606ee0" d="M28.1662,-1862.83C29.8168,-1689.44 44.1847,-331.769 90,-261 94.6571,-253.806 101.839,-248.46 109.476,-244.513"/>
<polygon fill="#606ee0" stroke="#606ee0" points="110.508,-245.96 114.272,-242.232 109.005,-242.8 110.508,-245.96"/>
</g>
<!-- 67 -->
<g id="node68" class="node"><title>67</title>
<text text-anchor="middle" x="145.5" y="-177.5" font-family="Segoe UI" font-size="10.00" fill="#222222">RowQuery</text>
</g>
<!-- 0&#45;&gt;67 -->
<g id="edge67" class="edge"><title>0&#45;&gt;67</title>
<path fill="none" stroke="#606ee0" d="M28.1434,-1862.78C29.6003,-1685.98 42.6555,-280.23 90,-207 95.4678,-198.543 104.426,-192.639 113.515,-188.561"/>
<polygon fill="#606ee0" stroke="#606ee0" points="114.315,-190.124 118.262,-186.591 112.973,-186.891 114.315,-190.124"/>
</g>
<!-- 68 -->
<g id="node69" class="node"><title>68</title>
<text text-anchor="middle" x="145.5" y="-123.5" font-family="Segoe UI" font-size="10.00" fill="#222222">CompoundDefQuery</text>
</g>
<!-- 0&#45;&gt;68 -->
<g id="edge68" class="edge"><title>0&#45;&gt;68</title>
<path fill="none" stroke="#606ee0" d="M28.1218,-1862.76C29.3892,-1682.72 41.1231,-228.696 90,-153 91.5036,-150.671 93.2718,-148.537 95.2346,-146.58"/>
<polygon fill="#606ee0" stroke="#606ee0" points="96.4011,-147.885 98.9627,-143.248 94.0686,-145.275 96.4011,-147.885"/>
</g>
<!-- 69 -->
<g id="node70" class="node"><title>69</title>
<text text-anchor="middle" x="145.5" y="-69.5" font-family="Segoe UI" font-size="10.00" fill="#222222">IncQuery</text>
</g>
<!-- 0&#45;&gt;69 -->
<g id="edge69" class="edge"><title>0&#45;&gt;69</title>
<path fill="none" stroke="#606ee0" d="M28.1013,-1862.77C29.1835,-1679.65 39.5876,-177.167 90,-99 95.4583,-90.5365 104.414,-84.6318 113.504,-80.5539"/>
<polygon fill="#606ee0" stroke="#606ee0" points="114.304,-82.1166 118.252,-78.584 112.963,-78.8838 114.304,-82.1166"/>
</g>
<!-- 70 -->
<g id="node71" class="node"><title>70</title>
<text text-anchor="middle" x="145.5" y="-15.5" font-family="Segoe UI" font-size="10.00" fill="#222222">EnumValueQuery</text>
</g>
<!-- 0&#45;&gt;70 -->
<g id="edge70" class="edge"><title>0&#45;&gt;70</title>
<path fill="none" stroke="#606ee0" d="M28.0819,-1862.8C28.9834,-1676.77 38.0489,-125.644 90,-45 93.2166,-40.0068 97.651,-35.9043 102.613,-32.5422"/>
<polygon fill="#606ee0" stroke="#606ee0" points="103.563,-34.012 106.889,-29.8889 101.718,-31.0379 103.563,-34.012"/>
</g>
</g>
</svg>
