<?xml version="1.0" encoding="UTF-8" standalone="no"?>
<!DOCTYPE svg PUBLIC "-//W3C//DTD SVG 1.1//EN"
 "http://www.w3.org/Graphics/SVG/1.1/DTD/svg11.dtd">
<!-- Generated by graphviz version 2.38.0 (20140413.2041)
 -->
<!-- Title: %3 Pages: 1 -->
<svg width="509pt" height="316pt"
 viewBox="0.00 0.00 509.00 316.00" xmlns="http://www.w3.org/2000/svg" xmlns:xlink="http://www.w3.org/1999/xlink">
<g id="graph0" class="graph" transform="scale(1 1) rotate(0) translate(4 312)">
<title>%3</title>
<polygon fill="none" stroke="none" points="-4,4 -4,-312 505,-312 505,4 -4,4"/>
<g id="clust2" class="cluster"><title>cluster_b</title>
<polygon fill="none" stroke="none" points="144.5,-8 144.5,-60 233.5,-60 233.5,-8 144.5,-8"/>
</g>
<g id="clust1" class="cluster"><title>cluster_a</title>
<polygon fill="none" stroke="none" points="8,-68 8,-300 493,-300 493,-68 8,-68"/>
</g>
<!-- Application -->
<g id="node1" class="node"><title>Application</title>
<polygon fill="#f2f2f5" stroke="none" points="24,-80 24,-288 93,-288 93,-80 24,-80"/>
<text text-anchor="start" x="28.5" y="-276.2" font-family="Segoe UI" font-weight="bold" font-size="11.00" fill="#000001">Application</text>
<polygon fill="#ffffff" stroke="none" points="28.5,-84 28.5,-264 89.5,-264 89.5,-84 28.5,-84"/>
<text text-anchor="start" x="44.5" y="-251.2" font-family="Segoe UI" font-size="11.00" fill="#010509">Setup</text>
<text text-anchor="start" x="32.5" y="-231.2" font-family="Segoe UI" font-size="11.00" fill="#010509">&#45;c</text>
<text text-anchor="start" x="32.5" y="-211.2" font-family="Segoe UI" font-size="11.00" fill="#010509">&#45;g</text>
<text text-anchor="start" x="32.5" y="-191.2" font-family="Segoe UI" font-size="11.00" fill="#010509">&#45;e</text>
<text text-anchor="start" x="32.5" y="-171.2" font-family="Segoe UI" font-size="11.00" fill="#010509">&#45;s</text>
<text text-anchor="start" x="32.5" y="-151.2" font-family="Segoe UI" font-size="11.00" fill="#010509">&#45;n</text>
<text text-anchor="start" x="36" y="-131.2" font-family="Segoe UI" font-size="11.00" fill="#010509">Generate</text>
<text text-anchor="start" x="32.5" y="-111.2" font-family="Segoe UI" font-size="11.00" fill="#010509">&#45;i</text>
<text text-anchor="start" x="32.5" y="-91.2" font-family="Segoe UI" font-size="11.00" fill="#010509">&#45;o</text>
</g>
<!-- Database -->
<g id="node2" class="node"><title>Database</title>
<polygon fill="#f2f2f5" stroke="none" points="145,-120 145,-268 233,-268 233,-120 145,-120"/>
<text text-anchor="start" x="149" y="-256.2" font-family="Segoe UI" font-weight="bold" font-size="11.00" fill="#000001">Swap Database</text>
<polygon fill="#ffffff" stroke="none" points="149,-124 149,-244 229,-244 229,-124 149,-124"/>
<text text-anchor="start" x="153" y="-231.2" font-family="Segoe UI" font-size="11.00" fill="#010509">Complex.txt</text>
<text text-anchor="start" x="153" y="-211.2" font-family="Segoe UI" font-size="11.00" fill="#010509">Groups.txt</text>
<text text-anchor="start" x="153" y="-191.2" font-family="Segoe UI" font-size="11.00" fill="#010509">Elements.xt</text>
<text text-anchor="start" x="153" y="-171.2" font-family="Segoe UI" font-size="11.00" fill="#010509">Simple.txt</text>
<text text-anchor="start" x="153" y="-151.2" font-family="Segoe UI" font-size="11.00" fill="#010509">Enums.txt</text>
<text text-anchor="start" x="153" y="-131.2" font-family="Segoe UI" font-size="11.00" fill="#010509">input.xsd</text>
</g>
<!-- Application&#45;&gt;Database -->
<g id="edge6" class="edge"><title>Application:C&#45;&gt;Database:C</title>
<path fill="none" stroke="#69bfff" d="M90.5,-234C114.259,-234 121.451,-234 142.88,-234"/>
<polygon fill="#69bfff" stroke="#69bfff" points="143,-235.75 148,-234 143,-232.25 143,-235.75"/>
</g>
<!-- Application&#45;&gt;Database -->
<g id="edge7" class="edge"><title>Application:S&#45;&gt;Database:S</title>
<path fill="none" stroke="#69bfff" d="M90.5,-174C114.259,-174 121.451,-174 142.88,-174"/>
<polygon fill="#69bfff" stroke="#69bfff" points="143,-175.75 148,-174 143,-172.25 143,-175.75"/>
</g>
<!-- Application&#45;&gt;Database -->
<g id="edge8" class="edge"><title>Application:E&#45;&gt;Database:E</title>
<path fill="none" stroke="#69bfff" d="M90.5,-194C114.259,-194 121.451,-194 142.88,-194"/>
<polygon fill="#69bfff" stroke="#69bfff" points="143,-195.75 148,-194 143,-192.25 143,-195.75"/>
</g>
<!-- Application&#45;&gt;Database -->
<g id="edge9" class="edge"><title>Application:N&#45;&gt;Database:N</title>
<path fill="none" stroke="#69bfff" d="M90.5,-154C114.259,-154 121.451,-154 142.88,-154"/>
<polygon fill="#69bfff" stroke="#69bfff" points="143,-155.75 148,-154 143,-152.25 143,-155.75"/>
</g>
<!-- Application&#45;&gt;Database -->
<g id="edge10" class="edge"><title>Application:G&#45;&gt;Database:G</title>
<path fill="none" stroke="#69bfff" d="M90.5,-214C114.259,-214 121.451,-214 142.88,-214"/>
<polygon fill="#69bfff" stroke="#69bfff" points="143,-215.75 148,-214 143,-212.25 143,-215.75"/>
</g>
<!-- Input -->
<g id="node6" class="node"><title>Input</title>
<polygon fill="#f2f2f5" stroke="none" points="160.5,-24 160.5,-44 217.5,-44 217.5,-24 160.5,-24"/>
<text text-anchor="start" x="165" y="-32.2" font-family="Segoe UI" font-weight="bold" font-size="11.00" fill="#000001">input.xsd</text>
</g>
<!-- Application&#45;&gt;Input -->
<g id="edge11" class="edge"><title>Application:I&#45;&gt;Input</title>
<path fill="none" stroke="#69bfff" d="M90.5,-114C120.847,-114 113.34,-83.0037 137,-64 140.964,-60.8158 145.302,-57.7413 149.722,-54.8533"/>
<polygon fill="#69bfff" stroke="#69bfff" points="150.878,-56.1914 154.157,-52.0301 148.999,-53.2388 150.878,-56.1914"/>
</g>
<!-- Index -->
<g id="node3" class="node"><title>Index</title>
<polygon fill="#f2f2f5" stroke="none" points="285,-120 285,-268 387,-268 387,-120 285,-120"/>
<text text-anchor="start" x="321" y="-256.2" font-family="Segoe UI" font-weight="bold" font-size="11.00" fill="#000001">Index</text>
<polygon fill="#ffffff" stroke="none" points="289,-124 289,-244 383,-244 383,-124 289,-124"/>
<text text-anchor="start" x="293" y="-231.2" font-family="Segoe UI" font-size="11.00" fill="#010509">xsd:complexType</text>
<text text-anchor="start" x="293" y="-211.2" font-family="Segoe UI" font-size="11.00" fill="#010509">xsd:group</text>
<text text-anchor="start" x="293" y="-191.2" font-family="Segoe UI" font-size="11.00" fill="#010509">xsd:element</text>
<text text-anchor="start" x="293" y="-171.2" font-family="Segoe UI" font-size="11.00" fill="#010509">xsd:simpleType</text>
<text text-anchor="start" x="293" y="-151.2" font-family="Segoe UI" font-size="11.00" fill="#010509">xsd:enumeration</text>
<text text-anchor="start" x="293" y="-131.2" font-family="Segoe UI" font-size="11.00" fill="#010509">input.xsd</text>
</g>
<!-- Database&#45;&gt;Index -->
<g id="edge12" class="edge"><title>Database:C&#45;&gt;Index:C</title>
<path fill="none" stroke="#69bfff" d="M230,-234C253.965,-234 261.22,-234 282.836,-234"/>
<polygon fill="#69bfff" stroke="#69bfff" points="283,-235.75 288,-234 283,-232.25 283,-235.75"/>
</g>
<!-- Database&#45;&gt;Index -->
<g id="edge13" class="edge"><title>Database:S&#45;&gt;Index:S</title>
<path fill="none" stroke="#69bfff" d="M230,-174C253.965,-174 261.22,-174 282.836,-174"/>
<polygon fill="#69bfff" stroke="#69bfff" points="283,-175.75 288,-174 283,-172.25 283,-175.75"/>
</g>
<!-- Database&#45;&gt;Index -->
<g id="edge14" class="edge"><title>Database:E&#45;&gt;Index:E</title>
<path fill="none" stroke="#69bfff" d="M230,-194C253.965,-194 261.22,-194 282.836,-194"/>
<polygon fill="#69bfff" stroke="#69bfff" points="283,-195.75 288,-194 283,-192.25 283,-195.75"/>
</g>
<!-- Database&#45;&gt;Index -->
<g id="edge15" class="edge"><title>Database:N&#45;&gt;Index:N</title>
<path fill="none" stroke="#69bfff" d="M230,-154C253.965,-154 261.22,-154 282.836,-154"/>
<polygon fill="#69bfff" stroke="#69bfff" points="283,-155.75 288,-154 283,-152.25 283,-155.75"/>
</g>
<!-- Database&#45;&gt;Index -->
<g id="edge16" class="edge"><title>Database:G&#45;&gt;Index:G</title>
<path fill="none" stroke="#69bfff" d="M230,-214C253.965,-214 261.22,-214 282.836,-214"/>
<polygon fill="#69bfff" stroke="#69bfff" points="283,-215.75 288,-214 283,-212.25 283,-215.75"/>
</g>
<!-- Class -->
<g id="node4" class="node"><title>Class</title>
<text text-anchor="middle" x="458" y="-211.2" font-family="Segoe UI" font-size="11.00" fill="#010509">Class</text>
</g>
<!-- Index&#45;&gt;Class -->
<g id="edge1" class="edge"><title>Index:C&#45;&gt;Class</title>
<path fill="none" stroke="#69bfff" d="M384,-234C398.037,-234 413.07,-230.518 425.823,-226.459"/>
<polygon fill="#69bfff" stroke="#69bfff" points="426.578,-228.053 430.774,-224.819 425.477,-224.73 426.578,-228.053"/>
</g>
<!-- Index&#45;&gt;Class -->
<g id="edge2" class="edge"><title>Index:G&#45;&gt;Class</title>
<path fill="none" stroke="#69bfff" d="M384,-214C397.762,-214 412.983,-214 425.949,-214"/>
<polygon fill="#69bfff" stroke="#69bfff" points="425.985,-215.75 430.985,-214 425.985,-212.25 425.985,-215.75"/>
</g>
<!-- Index&#45;&gt;Class -->
<g id="edge3" class="edge"><title>Index:E&#45;&gt;Class</title>
<path fill="none" stroke="#69bfff" d="M384,-194C398.037,-194 413.07,-197.482 425.823,-201.541"/>
<polygon fill="#69bfff" stroke="#69bfff" points="425.477,-203.27 430.774,-203.181 426.578,-199.947 425.477,-203.27"/>
</g>
<!-- Enum -->
<g id="node5" class="node"><title>Enum</title>
<text text-anchor="middle" x="458" y="-154.2" font-family="Segoe UI" font-size="11.00" fill="#010509">Enum</text>
</g>
<!-- Index&#45;&gt;Enum -->
<g id="edge4" class="edge"><title>Index:S&#45;&gt;Enum</title>
<path fill="none" stroke="#69bfff" d="M384,-174C398.015,-174 413.159,-170.991 426,-167.505"/>
<polygon fill="#69bfff" stroke="#69bfff" points="426.648,-169.14 430.985,-166.097 425.697,-165.772 426.648,-169.14"/>
</g>
<!-- Index&#45;&gt;Enum -->
<g id="edge5" class="edge"><title>Index:N&#45;&gt;Enum</title>
<path fill="none" stroke="#69bfff" d="M384,-154C397.773,-154 412.996,-154.54 425.961,-155.161"/>
<polygon fill="#69bfff" stroke="#69bfff" points="425.915,-156.911 430.996,-155.412 426.089,-153.415 425.915,-156.911"/>
</g>
<!-- Input&#45;&gt;Database -->
<g id="edge17" class="edge"><title>Input&#45;&gt;Database:I</title>
<path fill="none" stroke="#69bfff" d="M189,-117.759C189,-94.453 189,-68.691 189,-52.1995"/>
<polygon fill="#69bfff" stroke="#69bfff" points="187.25,-118 189,-123 190.75,-118 187.25,-118"/>
</g>
<!-- Input&#45;&gt;Index -->
<g id="edge18" class="edge"><title>Input&#45;&gt;Index:I</title>
<path fill="none" stroke="#69bfff" d="M225.488,-52.0491C230.983,-55.621 236.364,-59.6326 241,-64 266.89,-88.3919 252.213,-129.548 282.705,-133.665"/>
<polygon fill="#69bfff" stroke="#69bfff" points="282.9,-135.431 288,-134 283.12,-131.938 282.9,-135.431"/>
</g>
</g>
</svg>
