<?xml version="1.0" encoding="UTF-8" standalone="no"?>
<!DOCTYPE svg PUBLIC "-//W3C//DTD SVG 1.1//EN"
 "http://www.w3.org/Graphics/SVG/1.1/DTD/svg11.dtd">
<!-- Generated by graphviz version 2.38.0 (20140413.2041)
 -->
<!-- Title: %3 Pages: 1 -->
<svg width="470pt" height="330pt"
 viewBox="0.72 0.72 468.99 329.72" xmlns="http://www.w3.org/2000/svg" xmlns:xlink="http://www.w3.org/1999/xlink">
<g id="graph0" class="graph" transform="scale(1 1) rotate(0) translate(4.72 325.72)">
<title>%3</title>
<polygon fill="#f8f8fa" stroke="none" points="-4,4 -4,-325 464.27,-325 464.27,4 -4,4"/>
<text text-anchor="middle" x="230.135" y="-309" font-family="Segoe UI" font-size="10.00">Functional Structure</text>
<g id="clust2" class="cluster"><title>cluster_b</title>
<polygon fill="#f8f8fa" stroke="none" points="137,-8 137,-44 201,-44 201,-8 137,-8"/>
</g>
<g id="clust1" class="cluster"><title>cluster_a</title>
<polygon fill="none" stroke="none" points="8,-44 8,-294 452.27,-294 452.27,-44 8,-44"/>
</g>
<!-- Application -->
<g id="node1" class="node"><title>Application</title>
<polygon fill="none" stroke="none" points="16,-48 16,-290 78,-290 78,-48 16,-48"/>
<text text-anchor="start" x="20" y="-279" font-family="Segoe UI" font-weight="bold" font-size="10.00" fill="#000001">Application</text>
<polygon fill="none" stroke="none" points="20,-52 20,-267 74,-267 74,-52 20,-52"/>
<text text-anchor="start" x="34.5" y="-252" font-family="Segoe UI" font-size="10.00" fill="#222222">Setup</text>
<polygon fill="none" stroke="#b4bcfb" stroke-opacity="0.250980" points="23,-221 23,-242 71,-242 71,-221 23,-221"/>
<text text-anchor="start" x="28" y="-229" font-family="Segoe UI" font-size="10.00" fill="#222222">&#45;c</text>
<polygon fill="none" stroke="#b4bcfb" stroke-opacity="0.250980" points="23,-197 23,-218 71,-218 71,-197 23,-197"/>
<text text-anchor="start" x="28" y="-205" font-family="Segoe UI" font-size="10.00" fill="#222222">&#45;g</text>
<polygon fill="none" stroke="#b4bcfb" stroke-opacity="0.250980" points="23,-173 23,-194 71,-194 71,-173 23,-173"/>
<text text-anchor="start" x="28" y="-181" font-family="Segoe UI" font-size="10.00" fill="#222222">&#45;e</text>
<polygon fill="none" stroke="#b4bcfb" stroke-opacity="0.250980" points="23,-149 23,-170 71,-170 71,-149 23,-149"/>
<text text-anchor="start" x="28" y="-157" font-family="Segoe UI" font-size="10.00" fill="#222222">&#45;s</text>
<polygon fill="none" stroke="#b4bcfb" stroke-opacity="0.250980" points="23,-125 23,-146 71,-146 71,-125 23,-125"/>
<text text-anchor="start" x="28" y="-133" font-family="Segoe UI" font-size="10.00" fill="#222222">&#45;n</text>
<text text-anchor="start" x="27" y="-110" font-family="Segoe UI" font-size="10.00" fill="#222222">Generate</text>
<polygon fill="none" stroke="#b4bcfb" stroke-opacity="0.250980" points="23,-79 23,-100 71,-100 71,-79 23,-79"/>
<text text-anchor="start" x="28" y="-87" font-family="Segoe UI" font-size="10.00" fill="#222222">&#45;i</text>
<polygon fill="none" stroke="#b4bcfb" stroke-opacity="0.250980" points="23,-55 23,-76 71,-76 71,-55 23,-55"/>
<text text-anchor="start" x="28" y="-63" font-family="Segoe UI" font-size="10.00" fill="#222222">&#45;o</text>
</g>
<!-- Database -->
<g id="node2" class="node"><title>Database</title>
<polygon fill="none" stroke="none" points="130,-94 130,-268 208,-268 208,-94 130,-94"/>
<text text-anchor="start" x="134" y="-257" font-family="Segoe UI" font-weight="bold" font-size="10.00" fill="#000001">Swap Database</text>
<polygon fill="none" stroke="none" points="134,-98 134,-245 204,-245 204,-98 134,-98"/>
<polygon fill="none" stroke="#b4bcfb" stroke-opacity="0.250980" points="137,-221 137,-242 201,-242 201,-221 137,-221"/>
<text text-anchor="start" x="142" y="-229" font-family="Segoe UI" font-size="10.00" fill="#222222">Complex.txt</text>
<polygon fill="none" stroke="#b4bcfb" stroke-opacity="0.250980" points="137,-197 137,-218 201,-218 201,-197 137,-197"/>
<text text-anchor="start" x="142" y="-205" font-family="Segoe UI" font-size="10.00" fill="#222222">Groups.txt</text>
<polygon fill="none" stroke="#b4bcfb" stroke-opacity="0.250980" points="137,-173 137,-194 201,-194 201,-173 137,-173"/>
<text text-anchor="start" x="142" y="-181" font-family="Segoe UI" font-size="10.00" fill="#222222">Elements.xt</text>
<polygon fill="none" stroke="#b4bcfb" stroke-opacity="0.250980" points="137,-149 137,-170 201,-170 201,-149 137,-149"/>
<text text-anchor="start" x="142" y="-157" font-family="Segoe UI" font-size="10.00" fill="#222222">Simple.txt</text>
<polygon fill="none" stroke="#b4bcfb" stroke-opacity="0.250980" points="137,-125 137,-146 201,-146 201,-125 137,-125"/>
<text text-anchor="start" x="142" y="-133" font-family="Segoe UI" font-size="10.00" fill="#222222">Enums.txt</text>
<polygon fill="none" stroke="#b4bcfb" stroke-opacity="0.250980" points="137,-101 137,-122 201,-122 201,-101 137,-101"/>
<text text-anchor="start" x="142" y="-109" font-family="Segoe UI" font-size="10.00" fill="#222222">input.xsd</text>
</g>
<!-- Application&#45;&gt;Database -->
<g id="edge6" class="edge"><title>Application:C&#45;&gt;Database:C</title>
<path fill="none" stroke="#606ee0" d="M72,-232C98.6667,-232 106.583,-232 130.906,-232"/>
<polygon fill="#606ee0" stroke="#606ee0" points="131,-233.75 136,-232 131,-230.25 131,-233.75"/>
</g>
<!-- Application&#45;&gt;Database -->
<g id="edge7" class="edge"><title>Application:S&#45;&gt;Database:S</title>
<path fill="none" stroke="#606ee0" d="M72,-159C98.6667,-159 106.583,-159 130.906,-159"/>
<polygon fill="#606ee0" stroke="#606ee0" points="131,-160.75 136,-159 131,-157.25 131,-160.75"/>
</g>
<!-- Application&#45;&gt;Database -->
<g id="edge8" class="edge"><title>Application:E&#45;&gt;Database:E</title>
<path fill="none" stroke="#606ee0" d="M72,-184C98.6667,-184 106.583,-184 130.906,-184"/>
<polygon fill="#606ee0" stroke="#606ee0" points="131,-185.75 136,-184 131,-182.25 131,-185.75"/>
</g>
<!-- Application&#45;&gt;Database -->
<g id="edge9" class="edge"><title>Application:N&#45;&gt;Database:N</title>
<path fill="none" stroke="#606ee0" d="M72,-135C98.6667,-135 106.583,-135 130.906,-135"/>
<polygon fill="#606ee0" stroke="#606ee0" points="131,-136.75 136,-135 131,-133.25 131,-136.75"/>
</g>
<!-- Application&#45;&gt;Database -->
<g id="edge10" class="edge"><title>Application:G&#45;&gt;Database:G</title>
<path fill="none" stroke="#606ee0" d="M72,-208C98.6667,-208 106.583,-208 130.906,-208"/>
<polygon fill="#606ee0" stroke="#606ee0" points="131,-209.75 136,-208 131,-206.25 131,-209.75"/>
</g>
<!-- Input -->
<g id="node6" class="node"><title>Input</title>
<polygon fill="none" stroke="none" points="145,-18.5 145,-33.5 193,-33.5 193,-18.5 145,-18.5"/>
<polygon fill="none" stroke="#b4bcfb" stroke-opacity="0.250980" points="146,-19 146,-32 192,-32 192,-19 146,-19"/>
<text text-anchor="start" x="147" y="-24" font-family="Segoe UI" font-weight="bold" font-size="10.00" fill="#000001">input.xsd</text>
<polygon fill="none" stroke="#b4bcfb" stroke-opacity="0.250980" points="145,-18.5 145,-33.5 193,-33.5 193,-18.5 145,-18.5"/>
</g>
<!-- Application&#45;&gt;Input -->
<g id="edge11" class="edge"><title>Application:I&#45;&gt;Input</title>
<path fill="none" stroke="#606ee0" d="M72,-89C100.738,-89 97.7507,-63.4223 122,-48 125.184,-45.975 128.583,-44.0145 132.037,-42.153"/>
<polygon fill="#606ee0" stroke="#606ee0" points="133.147,-43.5475 136.766,-39.6793 131.525,-40.4461 133.147,-43.5475"/>
</g>
<!-- Index -->
<g id="node3" class="node"><title>Index</title>
<polygon fill="none" stroke="none" points="260,-94 260,-268 360,-268 360,-94 260,-94"/>
<text text-anchor="start" x="297" y="-257" font-family="Segoe UI" font-weight="bold" font-size="10.00" fill="#000001">Index</text>
<polygon fill="none" stroke="none" points="264,-98 264,-245 356,-245 356,-98 264,-98"/>
<polygon fill="none" stroke="#b4bcfb" stroke-opacity="0.250980" points="267,-221 267,-242 353,-242 353,-221 267,-221"/>
<text text-anchor="start" x="272" y="-229" font-family="Segoe UI" font-size="10.00" fill="#222222">xsd:complexType</text>
<polygon fill="none" stroke="#b4bcfb" stroke-opacity="0.250980" points="267,-197 267,-218 353,-218 353,-197 267,-197"/>
<text text-anchor="start" x="272" y="-205" font-family="Segoe UI" font-size="10.00" fill="#222222">xsd:group</text>
<polygon fill="none" stroke="#b4bcfb" stroke-opacity="0.250980" points="267,-173 267,-194 353,-194 353,-173 267,-173"/>
<text text-anchor="start" x="272" y="-181" font-family="Segoe UI" font-size="10.00" fill="#222222">xsd:element</text>
<polygon fill="none" stroke="#b4bcfb" stroke-opacity="0.250980" points="267,-149 267,-170 353,-170 353,-149 267,-149"/>
<text text-anchor="start" x="272" y="-157" font-family="Segoe UI" font-size="10.00" fill="#222222">xsd:simpleType</text>
<polygon fill="none" stroke="#b4bcfb" stroke-opacity="0.250980" points="267,-125 267,-146 353,-146 353,-125 267,-125"/>
<text text-anchor="start" x="272" y="-133" font-family="Segoe UI" font-size="10.00" fill="#222222">xsd:enumeration</text>
<polygon fill="none" stroke="#b4bcfb" stroke-opacity="0.250980" points="267,-101 267,-122 353,-122 353,-101 267,-101"/>
<text text-anchor="start" x="272" y="-109" font-family="Segoe UI" font-size="10.00" fill="#222222">input.xsd</text>
</g>
<!-- Database&#45;&gt;Index -->
<g id="edge12" class="edge"><title>Database:C&#45;&gt;Index:C</title>
<path fill="none" stroke="#606ee0" d="M202,-232C228.667,-232 236.583,-232 260.906,-232"/>
<polygon fill="#606ee0" stroke="#606ee0" points="261,-233.75 266,-232 261,-230.25 261,-233.75"/>
</g>
<!-- Database&#45;&gt;Index -->
<g id="edge13" class="edge"><title>Database:S&#45;&gt;Index:S</title>
<path fill="none" stroke="#606ee0" d="M202,-159C228.667,-159 236.583,-159 260.906,-159"/>
<polygon fill="#606ee0" stroke="#606ee0" points="261,-160.75 266,-159 261,-157.25 261,-160.75"/>
</g>
<!-- Database&#45;&gt;Index -->
<g id="edge14" class="edge"><title>Database:E&#45;&gt;Index:E</title>
<path fill="none" stroke="#606ee0" d="M202,-184C228.667,-184 236.583,-184 260.906,-184"/>
<polygon fill="#606ee0" stroke="#606ee0" points="261,-185.75 266,-184 261,-182.25 261,-185.75"/>
</g>
<!-- Database&#45;&gt;Index -->
<g id="edge15" class="edge"><title>Database:N&#45;&gt;Index:N</title>
<path fill="none" stroke="#606ee0" d="M202,-135C228.667,-135 236.583,-135 260.906,-135"/>
<polygon fill="#606ee0" stroke="#606ee0" points="261,-136.75 266,-135 261,-133.25 261,-136.75"/>
</g>
<!-- Database&#45;&gt;Index -->
<g id="edge16" class="edge"><title>Database:G&#45;&gt;Index:G</title>
<path fill="none" stroke="#606ee0" d="M202,-208C228.667,-208 236.583,-208 260.906,-208"/>
<polygon fill="#606ee0" stroke="#606ee0" points="261,-209.75 266,-208 261,-206.25 261,-209.75"/>
</g>
<!-- Class -->
<g id="node4" class="node"><title>Class</title>
<ellipse fill="#ff1040" fill-opacity="0.125490" stroke="#b4bcfb" stroke-opacity="0.250980" cx="428.135" cy="-208" rx="22.9158" ry="22.9158"/>
<text text-anchor="middle" x="428.135" y="-205.5" font-family="Segoe UI" font-size="10.00" fill="#222222">Class</text>
</g>
<!-- Index&#45;&gt;Class -->
<g id="edge1" class="edge"><title>Index:C&#45;&gt;Class</title>
<path fill="none" stroke="#606ee0" d="M354,-232C370.781,-232 388.697,-226.225 402.597,-220.341"/>
<polygon fill="#606ee0" stroke="#606ee0" points="403.65,-221.789 407.526,-218.178 402.244,-218.584 403.65,-221.789"/>
</g>
<!-- Index&#45;&gt;Class -->
<g id="edge2" class="edge"><title>Index:G&#45;&gt;Class</title>
<path fill="none" stroke="#606ee0" d="M354,-208C369.132,-208 386.026,-208 399.761,-208"/>
<polygon fill="#606ee0" stroke="#606ee0" points="400.052,-209.75 405.052,-208 400.052,-206.25 400.052,-209.75"/>
</g>
<!-- Index&#45;&gt;Class -->
<g id="edge3" class="edge"><title>Index:E&#45;&gt;Class</title>
<path fill="none" stroke="#606ee0" d="M354,-184C370.781,-184 388.697,-189.775 402.597,-195.659"/>
<polygon fill="#606ee0" stroke="#606ee0" points="402.244,-197.416 407.526,-197.822 403.65,-194.211 402.244,-197.416"/>
</g>
<!-- Enum -->
<g id="node5" class="node"><title>Enum</title>
<ellipse fill="#ff1040" fill-opacity="0.125490" stroke="#b4bcfb" stroke-opacity="0.250980" cx="428.135" cy="-139" rx="24.2711" ry="24.2711"/>
<text text-anchor="middle" x="428.135" y="-136.5" font-family="Segoe UI" font-size="10.00" fill="#222222">Enum</text>
</g>
<!-- Index&#45;&gt;Enum -->
<g id="edge4" class="edge"><title>Index:S&#45;&gt;Enum</title>
<path fill="none" stroke="#606ee0" d="M354,-159C369.827,-159 386.92,-154.588 400.598,-149.909"/>
<polygon fill="#606ee0" stroke="#606ee0" points="401.346,-151.5 405.474,-148.181 400.177,-148.202 401.346,-151.5"/>
</g>
<!-- Index&#45;&gt;Enum -->
<g id="edge5" class="edge"><title>Index:N&#45;&gt;Enum</title>
<path fill="none" stroke="#606ee0" d="M354,-135C368.706,-135 385.05,-135.816 398.552,-136.711"/>
<polygon fill="#606ee0" stroke="#606ee0" points="398.659,-138.473 403.768,-137.07 398.9,-134.981 398.659,-138.473"/>
</g>
<!-- Input&#45;&gt;Database -->
<g id="edge17" class="edge"><title>Input&#45;&gt;Database:I</title>
<path fill="none" stroke="#606ee0" d="M169,-94.5515C169,-76.8085 169,-57.5168 169,-44.1098"/>
<polygon fill="#606ee0" stroke="#606ee0" points="167.25,-95 169,-100 170.75,-95 167.25,-95"/>
</g>
<!-- Input&#45;&gt;Index -->
<g id="edge18" class="edge"><title>Input&#45;&gt;Index:I</title>
<path fill="none" stroke="#606ee0" d="M201.337,-38.6028C206.48,-41.3275 211.57,-44.4684 216,-48 242.532,-69.1512 231.537,-106.912 260.925,-110.693"/>
<polygon fill="#606ee0" stroke="#606ee0" points="260.903,-112.445 266,-111 261.115,-108.951 260.903,-112.445"/>
</g>
</g>
</svg>
