<?xml version="1.0" encoding="UTF-8" standalone="no"?>
<!DOCTYPE svg PUBLIC "-//W3C//DTD SVG 1.1//EN"
 "http://www.w3.org/Graphics/SVG/1.1/DTD/svg11.dtd">
<!-- Generated by graphviz version 2.38.0 (20140413.2041)
 -->
<!-- Title: %3 Pages: 1 -->
<svg width="293pt" height="206pt"
 viewBox="0.00 0.00 293.00 206.00" xmlns="http://www.w3.org/2000/svg" xmlns:xlink="http://www.w3.org/1999/xlink">
<g id="graph0" class="graph" transform="scale(1 1) rotate(0) translate(4 202)">
<title>%3</title>
<polygon fill="none" stroke="none" points="-4,4 -4,-202 289,-202 289,4 -4,4"/>
<!-- Dz5mZGn -->
<g id="node1" class="node"><title>Dz5mZGn</title>
<text text-anchor="middle" x="61.5" y="-96.2" font-family="Segoe UI" font-size="11.00" fill="#010509">MemberDefQueryVisitor</text>
</g>
<!-- DoKmZGn -->
<g id="node2" class="node"><title>DoKmZGn</title>
<text text-anchor="middle" x="222" y="-177.2" font-family="Segoe UI" font-size="11.00" fill="#010509">MemberDefListingWriter</text>
</g>
<!-- Dz5mZGn&#45;&gt;DoKmZGn -->
<g id="edge1" class="edge"><title>Dz5mZGn&#45;&gt;DoKmZGn</title>
<path fill="none" stroke="#69bfff" d="M92.939,-117.058C111.729,-127.947 136.47,-141.825 159,-153 163.575,-155.269 168.386,-157.547 173.219,-159.765"/>
<polygon fill="#69bfff" stroke="#69bfff" points="172.777,-161.486 178.053,-161.96 174.224,-158.299 172.777,-161.486"/>
</g>
<!-- Dx3mZGn -->
<g id="node3" class="node"><title>Dx3mZGn</title>
<text text-anchor="middle" x="222" y="-123.2" font-family="Segoe UI" font-size="11.00" fill="#010509">FunctionDefWriter</text>
</g>
<!-- Dz5mZGn&#45;&gt;Dx3mZGn -->
<g id="edge2" class="edge"><title>Dz5mZGn&#45;&gt;Dx3mZGn</title>
<path fill="none" stroke="#69bfff" d="M123.327,-109.362C138.857,-112.007 155.386,-114.823 170.345,-117.371"/>
<polygon fill="#69bfff" stroke="#69bfff" points="170.132,-119.11 175.355,-118.224 170.72,-115.66 170.132,-119.11"/>
</g>
<!-- DZ5mZGn -->
<g id="node4" class="node"><title>DZ5mZGn</title>
<text text-anchor="middle" x="222" y="-69.2" font-family="Segoe UI" font-size="11.00" fill="#010509">MemberDefWriter</text>
</g>
<!-- Dz5mZGn&#45;&gt;DZ5mZGn -->
<g id="edge3" class="edge"><title>Dz5mZGn&#45;&gt;DZ5mZGn</title>
<path fill="none" stroke="#69bfff" d="M123.327,-88.6383C138.857,-85.9928 155.386,-83.1771 170.345,-80.6289"/>
<polygon fill="#69bfff" stroke="#69bfff" points="170.72,-82.3404 175.355,-79.7756 170.132,-78.8901 170.72,-82.3404"/>
</g>
<!-- qYImZGn -->
<g id="node5" class="node"><title>qYImZGn</title>
<text text-anchor="middle" x="222" y="-15.2" font-family="Segoe UI" font-size="11.00" fill="#010509">EnumDefWriter</text>
</g>
<!-- Dz5mZGn&#45;&gt;qYImZGn -->
<g id="edge4" class="edge"><title>Dz5mZGn&#45;&gt;qYImZGn</title>
<path fill="none" stroke="#69bfff" d="M92.939,-80.9421C111.729,-70.0534 136.47,-56.1751 159,-45 164.951,-42.0485 171.299,-39.0827 177.58,-36.2533"/>
<polygon fill="#69bfff" stroke="#69bfff" points="178.509,-37.755 182.361,-34.1186 177.082,-34.559 178.509,-37.755"/>
</g>
</g>
</svg>
