<?xml version="1.0" encoding="UTF-8" standalone="no"?>
<!DOCTYPE svg PUBLIC "-//W3C//DTD SVG 1.1//EN"
 "http://www.w3.org/Graphics/SVG/1.1/DTD/svg11.dtd">
<!-- Generated by graphviz version 2.38.0 (20140413.2041)
 -->
<!-- Title: %3 Pages: 1 -->
<svg width="509pt" height="316pt"
 viewBox="0.00 0.00 509.00 316.00" xmlns="http://www.w3.org/2000/svg" xmlns:xlink="http://www.w3.org/1999/xlink">
<g id="graph0" class="graph" transform="scale(1 1) rotate(0) translate(4 312)">
<title>%3</title>
<polygon fill="none" stroke="none" points="-4,4 -4,-312 505,-312 505,4 -4,4"/>
<g id="clust1" class="cluster"><title>cluster_a</title>
<polygon fill="none" stroke="none" points="8,-68 8,-300 493,-300 493,-68 8,-68"/>
</g>
<g id="clust2" class="cluster"><title>cluster_b</title>
<polygon fill="none" stroke="none" points="144.5,-8 144.5,-60 233.5,-60 233.5,-8 144.5,-8"/>
</g>
<!-- Application -->
<g id="node1" class="node"><title>Application</title>
<polygon fill="#f2f2f5" stroke="none" points="24,-80 24,-288 93,-288 93,-80 24,-80"/>
<text text-anchor="start" x="28.5" y="-276.2" font-family="Segoe UI" font-weight="bold" font-size="11.00" fill="#000001">Application</text>
<polygon fill="#ffffff" stroke="none" points="28.5,-84 28.5,-264 89.5,-264 89.5,-84 28.5,-84"/>
<text text-anchor="start" x="44.5" y="-251.2" font-family="Segoe UI" font-size="11.00" fill="#010509">Setup</text>
<text text-anchor="start" x="32.5" y="-231.2" font-family="Segoe UI" font-size="11.00" fill="#010509">&#45;c</text>
<text text-anchor="start" x="32.5" y="-211.2" font-family="Segoe UI" font-size="11.00" fill="#010509">&#45;g</text>
<text text-anchor="start" x="32.5" y="-191.2" font-family="Segoe UI" font-size="11.00" fill="#010509">&#45;e</text>
<text text-anchor="start" x="32.5" y="-171.2" font-family="Segoe UI" font-size="11.00" fill="#010509">&#45;s</text>
<text text-anchor="start" x="32.5" y="-151.2" font-family="Segoe UI" font-size="11.00" fill="#010509">&#45;n</text>
<text text-anchor="start" x="36" y="-131.2" font-family="Segoe UI" font-size="11.00" fill="#010509">Generate</text>
<text text-anchor="start" x="32.5" y="-111.2" font-family="Segoe UI" font-size="11.00" fill="#010509">&#45;i</text>
<text text-anchor="start" x="32.5" y="-91.2" font-family="Segoe UI" font-size="11.00" fill="#010509">&#45;o</text>
</g>
<!-- Database -->
<g id="node2" class="node"><title>Database</title>
<polygon fill="#f2f2f5" stroke="none" points="145,-120 145,-268 233,-268 233,-120 145,-120"/>
<text text-anchor="start" x="149" y="-256.2" font-family="Segoe UI" font-weight="bold" font-size="11.00" fill="#000001">Swap Database</text>
<polygon fill="#ffffff" stroke="none" points="149,-124 149,-244 229,-244 229,-124 149,-124"/>
<text text-anchor="start" x="153" y="-231.2" font-family="Segoe UI" font-size="11.00" fill="#010509">Complex.txt</text>
<text text-anchor="start" x="153" y="-211.2" font-family="Segoe UI" font-size="11.00" fill="#010509">Groups.txt</text>
<text text-anchor="start" x="153" y="-191.2" font-family="Segoe UI" font-size="11.00" fill="#010509">Elements.xt</text>
<text text-anchor="start" x="153" y="-171.2" font-family="Segoe UI" font-size="11.00" fill="#010509">Simple.txt</text>
<text text-anchor="start" x="153" y="-151.2" font-family="Segoe UI" font-size="11.00" fill="#010509">Enums.txt</text>
<text text-anchor="start" x="153" y="-131.2" font-family="Segoe UI" font-size="11.00" fill="#010509">input.xsd</text>
</g>
<!-- Application&#45;&gt;Database -->
<g id="edge6" class="edge"><title>Application:C&#45;&gt;Database:C</title>
<path fill="none" stroke="#69bfff" d="M90.5,-234C115.157,-234 121.972,-234 145.374,-234"/>
<polygon fill="#69bfff" stroke="#69bfff" points="145.5,-234.875 148,-234 145.5,-233.125 145.5,-234.875"/>
</g>
<!-- Application&#45;&gt;Database -->
<g id="edge7" class="edge"><title>Application:S&#45;&gt;Database:S</title>
<path fill="none" stroke="#69bfff" d="M90.5,-174C115.157,-174 121.972,-174 145.374,-174"/>
<polygon fill="#69bfff" stroke="#69bfff" points="145.5,-174.875 148,-174 145.5,-173.125 145.5,-174.875"/>
</g>
<!-- Application&#45;&gt;Database -->
<g id="edge8" class="edge"><title>Application:E&#45;&gt;Database:E</title>
<path fill="none" stroke="#69bfff" d="M90.5,-194C115.157,-194 121.972,-194 145.374,-194"/>
<polygon fill="#69bfff" stroke="#69bfff" points="145.5,-194.875 148,-194 145.5,-193.125 145.5,-194.875"/>
</g>
<!-- Application&#45;&gt;Database -->
<g id="edge9" class="edge"><title>Application:N&#45;&gt;Database:N</title>
<path fill="none" stroke="#69bfff" d="M90.5,-154C115.157,-154 121.972,-154 145.374,-154"/>
<polygon fill="#69bfff" stroke="#69bfff" points="145.5,-154.875 148,-154 145.5,-153.125 145.5,-154.875"/>
</g>
<!-- Application&#45;&gt;Database -->
<g id="edge10" class="edge"><title>Application:G&#45;&gt;Database:G</title>
<path fill="none" stroke="#69bfff" d="M90.5,-214C115.157,-214 121.972,-214 145.374,-214"/>
<polygon fill="#69bfff" stroke="#69bfff" points="145.5,-214.875 148,-214 145.5,-213.125 145.5,-214.875"/>
</g>
<!-- Input -->
<g id="node6" class="node"><title>Input</title>
<polygon fill="#f2f2f5" stroke="none" points="160.5,-24 160.5,-44 217.5,-44 217.5,-24 160.5,-24"/>
<text text-anchor="start" x="165" y="-32.2" font-family="Segoe UI" font-weight="bold" font-size="11.00" fill="#000001">input.xsd</text>
</g>
<!-- Application&#45;&gt;Input -->
<g id="edge11" class="edge"><title>Application:I&#45;&gt;Input</title>
<path fill="none" stroke="#69bfff" d="M90.5,-114C120.847,-114 113.34,-83.0037 137,-64 141.625,-60.2851 146.759,-56.7196 151.936,-53.4251"/>
<polygon fill="#69bfff" stroke="#69bfff" points="152.505,-54.1011 154.157,-52.0301 151.574,-52.6193 152.505,-54.1011"/>
</g>
<!-- Index -->
<g id="node3" class="node"><title>Index</title>
<polygon fill="#f2f2f5" stroke="none" points="285,-120 285,-268 387,-268 387,-120 285,-120"/>
<text text-anchor="start" x="321" y="-256.2" font-family="Segoe UI" font-weight="bold" font-size="11.00" fill="#000001">Index</text>
<polygon fill="#ffffff" stroke="none" points="289,-124 289,-244 383,-244 383,-124 289,-124"/>
<text text-anchor="start" x="293" y="-231.2" font-family="Segoe UI" font-size="11.00" fill="#010509">xsd:complexType</text>
<text text-anchor="start" x="293" y="-211.2" font-family="Segoe UI" font-size="11.00" fill="#010509">xsd:group</text>
<text text-anchor="start" x="293" y="-191.2" font-family="Segoe UI" font-size="11.00" fill="#010509">xsd:element</text>
<text text-anchor="start" x="293" y="-171.2" font-family="Segoe UI" font-size="11.00" fill="#010509">xsd:simpleType</text>
<text text-anchor="start" x="293" y="-151.2" font-family="Segoe UI" font-size="11.00" fill="#010509">xsd:enumeration</text>
<text text-anchor="start" x="293" y="-131.2" font-family="Segoe UI" font-size="11.00" fill="#010509">input.xsd</text>
</g>
<!-- Database&#45;&gt;Index -->
<g id="edge12" class="edge"><title>Database:C&#45;&gt;Index:C</title>
<path fill="none" stroke="#69bfff" d="M230,-234C254.872,-234 261.745,-234 285.351,-234"/>
<polygon fill="#69bfff" stroke="#69bfff" points="285.5,-234.875 288,-234 285.5,-233.125 285.5,-234.875"/>
</g>
<!-- Database&#45;&gt;Index -->
<g id="edge13" class="edge"><title>Database:S&#45;&gt;Index:S</title>
<path fill="none" stroke="#69bfff" d="M230,-174C254.872,-174 261.745,-174 285.351,-174"/>
<polygon fill="#69bfff" stroke="#69bfff" points="285.5,-174.875 288,-174 285.5,-173.125 285.5,-174.875"/>
</g>
<!-- Database&#45;&gt;Index -->
<g id="edge14" class="edge"><title>Database:E&#45;&gt;Index:E</title>
<path fill="none" stroke="#69bfff" d="M230,-194C254.872,-194 261.745,-194 285.351,-194"/>
<polygon fill="#69bfff" stroke="#69bfff" points="285.5,-194.875 288,-194 285.5,-193.125 285.5,-194.875"/>
</g>
<!-- Database&#45;&gt;Index -->
<g id="edge15" class="edge"><title>Database:N&#45;&gt;Index:N</title>
<path fill="none" stroke="#69bfff" d="M230,-154C254.872,-154 261.745,-154 285.351,-154"/>
<polygon fill="#69bfff" stroke="#69bfff" points="285.5,-154.875 288,-154 285.5,-153.125 285.5,-154.875"/>
</g>
<!-- Database&#45;&gt;Index -->
<g id="edge16" class="edge"><title>Database:G&#45;&gt;Index:G</title>
<path fill="none" stroke="#69bfff" d="M230,-214C254.872,-214 261.745,-214 285.351,-214"/>
<polygon fill="#69bfff" stroke="#69bfff" points="285.5,-214.875 288,-214 285.5,-213.125 285.5,-214.875"/>
</g>
<!-- Class -->
<g id="node4" class="node"><title>Class</title>
<text text-anchor="middle" x="458" y="-211.2" font-family="Segoe UI" font-size="11.00" fill="#010509">Class</text>
</g>
<!-- Index&#45;&gt;Class -->
<g id="edge1" class="edge"><title>Index:C&#45;&gt;Class</title>
<path fill="none" stroke="#69bfff" d="M384,-234C398.906,-234 414.936,-230.073 428.166,-225.699"/>
<polygon fill="#69bfff" stroke="#69bfff" points="428.685,-226.448 430.774,-224.819 428.125,-224.79 428.685,-226.448"/>
</g>
<!-- Index&#45;&gt;Class -->
<g id="edge2" class="edge"><title>Index:G&#45;&gt;Class</title>
<path fill="none" stroke="#69bfff" d="M384,-214C398.614,-214 414.874,-214 428.332,-214"/>
<polygon fill="#69bfff" stroke="#69bfff" points="428.485,-214.875 430.985,-214 428.485,-213.125 428.485,-214.875"/>
</g>
<!-- Index&#45;&gt;Class -->
<g id="edge3" class="edge"><title>Index:E&#45;&gt;Class</title>
<path fill="none" stroke="#69bfff" d="M384,-194C398.906,-194 414.936,-197.927 428.166,-202.301"/>
<polygon fill="#69bfff" stroke="#69bfff" points="428.125,-203.21 430.774,-203.181 428.685,-201.552 428.125,-203.21"/>
</g>
<!-- Enum -->
<g id="node5" class="node"><title>Enum</title>
<text text-anchor="middle" x="458" y="-154.2" font-family="Segoe UI" font-size="11.00" fill="#010509">Enum</text>
</g>
<!-- Index&#45;&gt;Enum -->
<g id="edge4" class="edge"><title>Index:S&#45;&gt;Enum</title>
<path fill="none" stroke="#69bfff" d="M384,-174C398.883,-174 415.039,-170.607 428.359,-166.852"/>
<polygon fill="#69bfff" stroke="#69bfff" points="428.824,-167.629 430.985,-166.097 428.34,-165.947 428.824,-167.629"/>
</g>
<!-- Index&#45;&gt;Enum -->
<g id="edge5" class="edge"><title>Index:N&#45;&gt;Enum</title>
<path fill="none" stroke="#69bfff" d="M384,-154C398.627,-154 414.888,-154.609 428.343,-155.278"/>
<polygon fill="#69bfff" stroke="#69bfff" points="428.455,-156.159 430.996,-155.412 428.543,-154.412 428.455,-156.159"/>
</g>
<!-- Input&#45;&gt;Database -->
<g id="edge17" class="edge"><title>Input&#45;&gt;Database:I</title>
<path fill="none" stroke="#69bfff" d="M189,-120.392C189,-96.4146 189,-69.3146 189,-52.1995"/>
<polygon fill="#69bfff" stroke="#69bfff" points="188.125,-120.5 189,-123 189.875,-120.5 188.125,-120.5"/>
</g>
<!-- Input&#45;&gt;Index -->
<g id="edge18" class="edge"><title>Input&#45;&gt;Index:I</title>
<path fill="none" stroke="#69bfff" d="M225.488,-52.0491C230.983,-55.621 236.364,-59.6326 241,-64 267.636,-89.0945 251.334,-131.934 285.455,-133.928"/>
<polygon fill="#69bfff" stroke="#69bfff" points="285.476,-134.804 288,-134 285.526,-133.054 285.476,-134.804"/>
</g>
</g>
</svg>
