<?xml version="1.0" encoding="UTF-8" standalone="no"?>
<!DOCTYPE svg PUBLIC "-//W3C//DTD SVG 1.1//EN"
 "http://www.w3.org/Graphics/SVG/1.1/DTD/svg11.dtd">
<!-- Generated by graphviz version 2.38.0 (20140413.2041)
 -->
<!-- Title: %3 Pages: 1 -->
<svg width="228pt" height="116pt"
 viewBox="0.00 0.00 228.00 116.00" xmlns="http://www.w3.org/2000/svg" xmlns:xlink="http://www.w3.org/1999/xlink">
<g id="graph0" class="graph" transform="scale(1 1) rotate(0) translate(4 112)">
<title>%3</title>
<polygon fill="none" stroke="none" points="-4,4 -4,-112 224,-112 224,4 -4,4"/>
<!-- 0 -->
<g id="node1" class="node"><title>0</title>
<text text-anchor="middle" x="113" y="-87.2" font-family="Segoe UI" font-size="11.00" fill="#222222">Reference</text>
</g>
<!-- 1 -->
<g id="node2" class="node"><title>1</title>
<text text-anchor="middle" x="54" y="-15.2" font-family="Segoe UI" font-size="11.00" fill="#222222">CompoundReference</text>
</g>
<!-- 0&#45;&gt;1 -->
<g id="edge1" class="edge"><title>0&#45;&gt;1</title>
<path fill="none" stroke="#606ee0" d="M92.5,-71.6966C82.877,-61.5244 71.9627,-48.6459 64.0605,-38.1667"/>
<polygon fill="#606ee0" stroke="#606ee0" points="64.718,-37.5846 62.5215,-36.1043 63.3154,-38.6313 64.718,-37.5846"/>
</g>
<!-- 0&#45;&gt;1 -->
<g id="edge2" class="edge"><title>0&#45;&gt;1</title>
<path fill="none" stroke="#606ee0" d="M104.331,-71.6966C96.807,-61.5244 86.0118,-48.6459 76.249,-38.1667"/>
<polygon fill="#606ee0" stroke="#606ee0" points="76.6611,-37.3273 74.3115,-36.1043 75.3856,-38.5255 76.6611,-37.3273"/>
</g>
<!-- 2 -->
<g id="node3" class="node"><title>2</title>
<text text-anchor="middle" x="173" y="-15.2" font-family="Segoe UI" font-size="11.00" fill="#222222">MemberReference</text>
</g>
<!-- 0&#45;&gt;2 -->
<g id="edge3" class="edge"><title>0&#45;&gt;2</title>
<path fill="none" stroke="#606ee0" d="M121.916,-71.6966C129.585,-61.5244 140.565,-48.6459 150.477,-38.1667"/>
<polygon fill="#606ee0" stroke="#606ee0" points="151.352,-38.5174 152.444,-36.1043 150.085,-37.3095 151.352,-38.5174"/>
</g>
<!-- 0&#45;&gt;2 -->
<g id="edge4" class="edge"><title>0&#45;&gt;2</title>
<path fill="none" stroke="#606ee0" d="M133.747,-71.6966C143.515,-61.5244 154.614,-48.6459 162.666,-38.1667"/>
<polygon fill="#606ee0" stroke="#606ee0" points="163.417,-38.6239 164.234,-36.1043 162.024,-37.5646 163.417,-38.6239"/>
</g>
</g>
</svg>
