<?xml version="1.0" encoding="UTF-8" standalone="no"?>
<!DOCTYPE svg PUBLIC "-//W3C//DTD SVG 1.1//EN"
 "http://www.w3.org/Graphics/SVG/1.1/DTD/svg11.dtd">
<!-- Generated by graphviz version 2.38.0 (20140413.2041)
 -->
<!-- Title: %3 Pages: 1 -->
<svg width="225pt" height="317pt"
 viewBox="0.72 0.72 224.72 316.40" xmlns="http://www.w3.org/2000/svg" xmlns:xlink="http://www.w3.org/1999/xlink">
<g id="graph0" class="graph" transform="scale(1 1) rotate(0) translate(4.72 312.403)">
<title>%3</title>
<polygon fill="#f8f8fa" stroke="none" points="-4,4 -4,-311.683 220,-311.683 220,4 -4,4"/>
<text text-anchor="middle" x="108" y="-295.683" font-family="Segoe UI" font-size="10.00">Project Structure</text>
<!-- Doxygen -->
<g id="node1" class="node"><title>Doxygen</title>
<text text-anchor="middle" x="82" y="-257.338" font-family="Segoe UI" font-size="10.00" fill="#222222">Doxygen</text>
</g>
<!-- Xml -->
<g id="node6" class="node"><title>Xml</title>
<text text-anchor="middle" x="120" y="-90.0326" font-family="Segoe UI" font-size="10.00" fill="#222222">Xml</text>
</g>
<!-- Doxygen&#45;&gt;Xml -->
<g id="edge1" class="edge"><title>Doxygen&#45;&gt;Xml</title>
<path fill="none" stroke="#606ee0" d="M84.0124,-241.677C86.8037,-219.651 92.4881,-180.361 101,-147.533 103.761,-136.883 107.687,-125.346 111.255,-115.68"/>
<polygon fill="#606ee0" stroke="#606ee0" points="112.963,-116.107 113.079,-110.811 109.686,-114.879 112.963,-116.107"/>
</g>
<!-- GenApi -->
<g id="node2" class="node"><title>GenApi</title>
<ellipse fill="#ff1040" fill-opacity="0.125490" stroke="#b4bcfb" stroke-opacity="0.250980" cx="128" cy="-165.763" rx="18.4632" ry="18.4632"/>
<text text-anchor="middle" x="128" y="-163.263" font-family="Segoe UI" font-size="10.00" fill="#222222">GenApi</text>
</g>
<!-- GenApi&#45;&gt;Doxygen -->
<g id="edge3" class="edge"><title>GenApi&#45;&gt;Doxygen</title>
<path fill="none" stroke="#606ee0" d="M120.154,-182.468C112.662,-197.464 101.306,-220.194 92.93,-236.96"/>
<polygon fill="#606ee0" stroke="#606ee0" points="91.3214,-236.264 90.6522,-241.519 94.4524,-237.829 91.3214,-236.264"/>
<text text-anchor="middle" x="128" y="-204.993" font-family="Segoe UI" font-size="10.00" fill="#606ee0">Creates</text>
</g>
<!-- ResourceCompiler -->
<g id="node3" class="node"><title>ResourceCompiler</title>
<ellipse fill="#ff1040" fill-opacity="0.125490" stroke="#b4bcfb" stroke-opacity="0.250980" cx="176" cy="-259.838" rx="28.6914" ry="28.6914"/>
<text text-anchor="middle" x="176" y="-262.838" font-family="Segoe UI" font-size="10.00" fill="#222222">Resource</text>
<text text-anchor="middle" x="176" y="-251.838" font-family="Segoe UI" font-size="10.00" fill="#222222">Compiler</text>
</g>
<!-- GenApi&#45;&gt;ResourceCompiler -->
<g id="edge5" class="edge"><title>GenApi&#45;&gt;ResourceCompiler</title>
<path fill="none" stroke="#606ee0" d="M137.309,-181.671C141.074,-187.879 145.378,-195.209 149,-201.993 153.516,-210.45 158.108,-219.788 162.194,-228.41"/>
<polygon fill="#606ee0" stroke="#606ee0" points="160.696,-229.337 164.408,-233.116 163.863,-227.847 160.696,-229.337"/>
</g>
<!-- GenApi&#45;&gt;Xml -->
<g id="edge2" class="edge"><title>GenApi&#45;&gt;Xml</title>
<path fill="none" stroke="#606ee0" d="M126.063,-147.52C124.992,-137.983 123.649,-126.026 122.5,-115.79"/>
<polygon fill="#606ee0" stroke="#606ee0" points="124.216,-115.39 121.919,-110.617 120.738,-115.781 124.216,-115.39"/>
</g>
<!-- Utils -->
<g id="node8" class="node"><title>Utils</title>
<text text-anchor="middle" x="189" y="-16.2663" font-family="Segoe UI" font-size="10.00" fill="#222222">Utils</text>
</g>
<!-- ResourceCompiler&#45;&gt;Utils -->
<g id="edge4" class="edge"><title>ResourceCompiler&#45;&gt;Utils</title>
<path fill="none" stroke="#606ee0" d="M177.517,-230.946C180.123,-183.009 185.402,-85.9327 187.785,-42.1171"/>
<polygon fill="#606ee0" stroke="#606ee0" points="189.536,-42.1323 188.06,-37.0446 186.041,-41.9422 189.536,-42.1323"/>
</g>
<!-- MdDox -->
<g id="node4" class="node"><title>MdDox</title>
<ellipse fill="#ff1040" fill-opacity="0.125490" stroke="#b4bcfb" stroke-opacity="0.250980" cx="27" cy="-18.7663" rx="18.5355" ry="18.5355"/>
<text text-anchor="middle" x="27" y="-16.2663" font-family="Segoe UI" font-size="10.00" fill="#222222">MdDox</text>
</g>
<!-- MdDoxTree -->
<g id="node5" class="node"><title>MdDoxTree</title>
<text text-anchor="middle" x="27" y="-163.263" font-family="Segoe UI" font-size="10.00" fill="#222222">MdDoxTree</text>
</g>
<!-- MdDox&#45;&gt;MdDoxTree -->
<g id="edge6" class="edge"><title>MdDox&#45;&gt;MdDoxTree</title>
<path fill="none" stroke="#606ee0" d="M27,-37.8553C27,-64.3636 27,-113.722 27,-142.447"/>
<polygon fill="#606ee0" stroke="#606ee0" points="25.2501,-142.56 27,-147.56 28.7501,-142.56 25.2501,-142.56"/>
</g>
<!-- MdDoxTree&#45;&gt;Doxygen -->
<g id="edge9" class="edge"><title>MdDoxTree&#45;&gt;Doxygen</title>
<path fill="none" stroke="#606ee0" d="M37.2987,-184.004C46.2727,-199.027 59.3304,-220.887 69.0181,-237.105"/>
<polygon fill="#606ee0" stroke="#606ee0" points="67.5884,-238.124 71.6549,-241.519 70.5932,-236.329 67.5884,-238.124"/>
</g>
<!-- TypeFilter -->
<g id="node7" class="node"><title>TypeFilter</title>
<text text-anchor="middle" x="117" y="-16.2663" font-family="Segoe UI" font-size="10.00" fill="#222222">TypeFilter</text>
</g>
<!-- Xml&#45;&gt;TypeFilter -->
<g id="edge8" class="edge"><title>Xml&#45;&gt;TypeFilter</title>
<path fill="none" stroke="#606ee0" d="M119.289,-74.525C118.888,-64.9242 118.381,-52.8032 117.946,-42.4071"/>
<polygon fill="#606ee0" stroke="#606ee0" points="119.684,-42.0729 117.727,-37.1504 116.187,-42.2191 119.684,-42.0729"/>
</g>
<!-- Xml&#45;&gt;Utils -->
<g id="edge7" class="edge"><title>Xml&#45;&gt;Utils</title>
<path fill="none" stroke="#606ee0" d="M136.352,-74.525C146.006,-64.4838 158.311,-51.6859 168.597,-40.9878"/>
<polygon fill="#606ee0" stroke="#606ee0" points="170.082,-41.9676 172.286,-37.1504 167.559,-39.5418 170.082,-41.9676"/>
</g>
</g>
</svg>
