<?xml version="1.0" encoding="UTF-8" standalone="no"?>
<!DOCTYPE svg PUBLIC "-//W3C//DTD SVG 1.1//EN"
 "http://www.w3.org/Graphics/SVG/1.1/DTD/svg11.dtd">
<!-- Generated by graphviz version 2.38.0 (20140413.2041)
 -->
<!-- Title: %3 Pages: 1 -->
<svg width="134pt" height="260pt"
 viewBox="0.00 0.00 134.00 260.00" xmlns="http://www.w3.org/2000/svg" xmlns:xlink="http://www.w3.org/1999/xlink">
<g id="graph0" class="graph" transform="scale(1 1) rotate(0) translate(4 256)">
<title>%3</title>
<polygon fill="none" stroke="none" points="-4,4 -4,-256 130,-256 130,4 -4,4"/>
<!-- 0 -->
<g id="node1" class="node"><title>0</title>
<text text-anchor="middle" x="63" y="-231.5" font-family="Segoe UI" font-size="10.00" fill="#222222">Writer</text>
</g>
<!-- 1 -->
<g id="node2" class="node"><title>1</title>
<text text-anchor="middle" x="63" y="-159.5" font-family="Segoe UI" font-size="10.00" fill="#222222">Object</text>
</g>
<!-- 0&#45;&gt;1 -->
<g id="edge4" class="edge"><title>0&#45;&gt;1</title>
<path fill="none" stroke="#606ee0" d="M63,-215.697C63,-206.457 63,-194.984 63,-185.105"/>
<polygon fill="#606ee0" stroke="#606ee0" points="64.7501,-185.104 63,-180.104 61.2501,-185.104 64.7501,-185.104"/>
</g>
<!-- 2 -->
<g id="node3" class="node"><title>2</title>
<text text-anchor="middle" x="27" y="-87.5" font-family="Segoe UI" font-size="10.00" fill="#222222">Group</text>
</g>
<!-- 1&#45;&gt;2 -->
<g id="edge2" class="edge"><title>1&#45;&gt;2</title>
<path fill="none" stroke="#606ee0" d="M54.1011,-143.697C49.2621,-134.287 43.2321,-122.562 38.0895,-112.563"/>
<polygon fill="#606ee0" stroke="#606ee0" points="39.6396,-111.75 35.7965,-108.104 36.5271,-113.351 39.6396,-111.75"/>
</g>
<!-- 4 -->
<g id="node5" class="node"><title>4</title>
<text text-anchor="middle" x="99" y="-87.5" font-family="Segoe UI" font-size="10.00" fill="#222222">Simple</text>
</g>
<!-- 1&#45;&gt;4 -->
<g id="edge3" class="edge"><title>1&#45;&gt;4</title>
<path fill="none" stroke="#606ee0" d="M71.8989,-143.697C76.7379,-134.287 82.7679,-122.562 87.9105,-112.563"/>
<polygon fill="#606ee0" stroke="#606ee0" points="89.4729,-113.351 90.2035,-108.104 86.3604,-111.75 89.4729,-113.351"/>
</g>
<!-- 3 -->
<g id="node4" class="node"><title>3</title>
<text text-anchor="middle" x="27" y="-15.5" font-family="Segoe UI" font-size="10.00" fill="#222222">Complex</text>
</g>
<!-- 2&#45;&gt;3 -->
<g id="edge1" class="edge"><title>2&#45;&gt;3</title>
<path fill="none" stroke="#606ee0" d="M27,-71.6966C27,-62.4569 27,-50.9842 27,-41.105"/>
<polygon fill="#606ee0" stroke="#606ee0" points="28.7501,-41.1043 27,-36.1043 25.2501,-41.1044 28.7501,-41.1043"/>
</g>
</g>
</svg>
