<?xml version="1.0" encoding="UTF-8" standalone="no"?>
<!DOCTYPE svg PUBLIC "-//W3C//DTD SVG 1.1//EN"
 "http://www.w3.org/Graphics/SVG/1.1/DTD/svg11.dtd">
<!-- Generated by graphviz version 2.38.0 (20140413.2041)
 -->
<!-- Title: %3 Pages: 1 -->
<svg width="454pt" height="116pt"
 viewBox="0.00 0.00 454.00 116.00" xmlns="http://www.w3.org/2000/svg" xmlns:xlink="http://www.w3.org/1999/xlink">
<g id="graph0" class="graph" transform="scale(1 1) rotate(0) translate(4 112)">
<title>%3</title>
<polygon fill="none" stroke="none" points="-4,4 -4,-112 450,-112 450,4 -4,4"/>
<!-- 0 -->
<g id="node1" class="node"><title>0</title>
<text text-anchor="middle" x="234.5" y="-87.2" font-family="Segoe UI" font-size="11.00" fill="#222222">MemberDefQueryVisitor</text>
</g>
<!-- 1 -->
<g id="node2" class="node"><title>1</title>
<text text-anchor="middle" x="46.5" y="-15.2" font-family="Segoe UI" font-size="11.00" fill="#222222">FunctionDefWriter</text>
</g>
<!-- 0&#45;&gt;1 -->
<g id="edge1" class="edge"><title>0&#45;&gt;1</title>
<path fill="none" stroke="#606ee0" d="M188.51,-71.8761C160.867,-61.5836 125.653,-48.4719 97.2069,-37.8802"/>
<polygon fill="#606ee0" stroke="#606ee0" points="97.637,-36.1731 92.3406,-36.0683 96.4157,-39.4531 97.637,-36.1731"/>
</g>
<!-- 2 -->
<g id="node3" class="node"><title>2</title>
<text text-anchor="middle" x="174.5" y="-15.2" font-family="Segoe UI" font-size="11.00" fill="#222222">MemberDefListingWriter</text>
</g>
<!-- 0&#45;&gt;2 -->
<g id="edge2" class="edge"><title>0&#45;&gt;2</title>
<path fill="none" stroke="#606ee0" d="M219.669,-71.6966C211.458,-62.1178 201.191,-50.1392 192.521,-40.024"/>
<polygon fill="#606ee0" stroke="#606ee0" points="193.744,-38.7617 189.161,-36.1043 191.086,-41.0395 193.744,-38.7617"/>
</g>
<!-- 3 -->
<g id="node4" class="node"><title>3</title>
<text text-anchor="middle" x="295.5" y="-15.2" font-family="Segoe UI" font-size="11.00" fill="#222222">EnumDefWriter</text>
</g>
<!-- 0&#45;&gt;3 -->
<g id="edge3" class="edge"><title>0&#45;&gt;3</title>
<path fill="none" stroke="#606ee0" d="M249.579,-71.6966C257.926,-62.1178 268.364,-50.1392 277.179,-40.024"/>
<polygon fill="#606ee0" stroke="#606ee0" points="278.629,-41.0236 280.595,-36.1043 275.991,-38.7242 278.629,-41.0236"/>
</g>
<!-- 4 -->
<g id="node5" class="node"><title>4</title>
<text text-anchor="middle" x="399.5" y="-15.2" font-family="Segoe UI" font-size="11.00" fill="#222222">MemberDefWriter</text>
</g>
<!-- 0&#45;&gt;4 -->
<g id="edge4" class="edge"><title>0&#45;&gt;4</title>
<path fill="none" stroke="#606ee0" d="M274.864,-71.8761C298.924,-61.6687 329.52,-48.6885 354.376,-38.1433"/>
<polygon fill="#606ee0" stroke="#606ee0" points="355.348,-39.6321 359.268,-36.0683 353.981,-36.4101 355.348,-39.6321"/>
</g>
</g>
</svg>
