<?xml version="1.0" encoding="UTF-8" standalone="no"?>
<!DOCTYPE svg PUBLIC "-//W3C//DTD SVG 1.1//EN"
 "http://www.w3.org/Graphics/SVG/1.1/DTD/svg11.dtd">
<!-- Generated by graphviz version 2.38.0 (20140413.2041)
 -->
<!-- Title: %3 Pages: 1 -->
<svg width="416pt" height="188pt"
 viewBox="0.00 0.00 415.50 188.00" xmlns="http://www.w3.org/2000/svg" xmlns:xlink="http://www.w3.org/1999/xlink">
<g id="graph0" class="graph" transform="scale(1 1) rotate(0) translate(4 184)">
<title>%3</title>
<polygon fill="none" stroke="none" points="-4,4 -4,-184 411.5,-184 411.5,4 -4,4"/>
<!-- 0 -->
<g id="node1" class="node"><title>0</title>
<text text-anchor="middle" x="207.5" y="-159.5" font-family="Segoe UI" font-size="10.00" fill="#222222">CompoundDefQueryVisitor</text>
</g>
<!-- 1 -->
<g id="node2" class="node"><title>1</title>
<text text-anchor="middle" x="207.5" y="-87.5" font-family="Segoe UI" font-size="10.00" fill="#222222">PageWriter</text>
</g>
<!-- 0&#45;&gt;1 -->
<g id="edge5" class="edge"><title>0&#45;&gt;1</title>
<path fill="none" stroke="#606ee0" d="M207.5,-143.697C207.5,-134.457 207.5,-122.984 207.5,-113.105"/>
<polygon fill="#606ee0" stroke="#606ee0" points="209.25,-113.104 207.5,-108.104 205.75,-113.104 209.25,-113.104"/>
</g>
<!-- 2 -->
<g id="node3" class="node"><title>2</title>
<text text-anchor="middle" x="45.5" y="-15.5" font-family="Segoe UI" font-size="10.00" fill="#222222">DirectoryPageWriter</text>
</g>
<!-- 1&#45;&gt;2 -->
<g id="edge1" class="edge"><title>1&#45;&gt;2</title>
<path fill="none" stroke="#606ee0" d="M180.385,-77.2836C155.692,-66.6139 118.772,-50.6609 89.7979,-38.1411"/>
<polygon fill="#606ee0" stroke="#606ee0" points="90.137,-36.3813 84.853,-36.0044 88.7487,-39.5941 90.137,-36.3813"/>
</g>
<!-- 3 -->
<g id="node4" class="node"><title>3</title>
<text text-anchor="middle" x="151.5" y="-15.5" font-family="Segoe UI" font-size="10.00" fill="#222222">GenericPageWriter</text>
</g>
<!-- 1&#45;&gt;3 -->
<g id="edge2" class="edge"><title>1&#45;&gt;3</title>
<path fill="none" stroke="#606ee0" d="M193.657,-71.6966C185.994,-62.1178 176.411,-50.1392 168.319,-40.024"/>
<polygon fill="#606ee0" stroke="#606ee0" points="169.674,-38.9155 165.183,-36.1043 166.94,-41.1019 169.674,-38.9155"/>
</g>
<!-- 4 -->
<g id="node5" class="node"><title>4</title>
<text text-anchor="middle" x="263.5" y="-15.5" font-family="Segoe UI" font-size="10.00" fill="#222222">NamespacePageWriter</text>
</g>
<!-- 1&#45;&gt;4 -->
<g id="edge3" class="edge"><title>1&#45;&gt;4</title>
<path fill="none" stroke="#606ee0" d="M221.343,-71.6966C229.006,-62.1178 238.589,-50.1392 246.681,-40.024"/>
<polygon fill="#606ee0" stroke="#606ee0" points="248.06,-41.1019 249.817,-36.1043 245.326,-38.9155 248.06,-41.1019"/>
</g>
<!-- 5 -->
<g id="node6" class="node"><title>5</title>
<text text-anchor="middle" x="370.5" y="-15.5" font-family="Segoe UI" font-size="10.00" fill="#222222">ClassPageWriter</text>
</g>
<!-- 1&#45;&gt;5 -->
<g id="edge4" class="edge"><title>1&#45;&gt;5</title>
<path fill="none" stroke="#606ee0" d="M234.783,-77.2836C260.419,-66.2742 299.153,-49.6399 328.688,-36.9562"/>
<polygon fill="#606ee0" stroke="#606ee0" points="329.442,-38.537 333.345,-34.9559 328.061,-35.321 329.442,-38.537"/>
</g>
</g>
</svg>
