<?xml version="1.0" encoding="UTF-8" standalone="no"?>
<!DOCTYPE svg PUBLIC "-//W3C//DTD SVG 1.1//EN"
 "http://www.w3.org/Graphics/SVG/1.1/DTD/svg11.dtd">
<!-- Generated by graphviz version 2.38.0 (20140413.2041)
 -->
<!-- Title: %3 Pages: 1 -->
<svg width="463pt" height="188pt"
 viewBox="0.00 0.00 462.50 188.00" xmlns="http://www.w3.org/2000/svg" xmlns:xlink="http://www.w3.org/1999/xlink">
<g id="graph0" class="graph" transform="scale(1 1) rotate(0) translate(4 184)">
<title>%3</title>
<polygon fill="none" stroke="none" points="-4,4 -4,-184 458.5,-184 458.5,4 -4,4"/>
<!-- 0 -->
<g id="node1" class="node"><title>0</title>
<text text-anchor="middle" x="232" y="-159.2" font-family="Segoe UI" font-size="11.00" fill="#222222">CompoundDefQueryVisitor</text>
</g>
<!-- 1 -->
<g id="node2" class="node"><title>1</title>
<text text-anchor="middle" x="232" y="-87.2" font-family="Segoe UI" font-size="11.00" fill="#222222">PageWriter</text>
</g>
<!-- 0&#45;&gt;1 -->
<g id="edge5" class="edge"><title>0&#45;&gt;1</title>
<path fill="none" stroke="#606ee0" d="M232,-143.697C232,-134.457 232,-122.984 232,-113.105"/>
<polygon fill="#606ee0" stroke="#606ee0" points="233.75,-113.104 232,-108.104 230.25,-113.104 233.75,-113.104"/>
</g>
<!-- 2 -->
<g id="node3" class="node"><title>2</title>
<text text-anchor="middle" x="52" y="-15.2" font-family="Segoe UI" font-size="11.00" fill="#222222">DirectoryPageWriter</text>
</g>
<!-- 1&#45;&gt;2 -->
<g id="edge1" class="edge"><title>1&#45;&gt;2</title>
<path fill="none" stroke="#606ee0" d="M202.679,-77.5975C175.049,-66.8524 133.136,-50.553 100.524,-37.8703"/>
<polygon fill="#606ee0" stroke="#606ee0" points="101.076,-36.2077 95.7821,-36.0264 99.8078,-39.4697 101.076,-36.2077"/>
</g>
<!-- 3 -->
<g id="node4" class="node"><title>3</title>
<text text-anchor="middle" x="170" y="-15.2" font-family="Segoe UI" font-size="11.00" fill="#222222">GenericPageWriter</text>
</g>
<!-- 1&#45;&gt;3 -->
<g id="edge2" class="edge"><title>1&#45;&gt;3</title>
<path fill="none" stroke="#606ee0" d="M216.674,-71.6966C208.19,-62.1178 197.58,-50.1392 188.621,-40.024"/>
<polygon fill="#606ee0" stroke="#606ee0" points="189.775,-38.687 185.15,-36.1043 187.155,-41.0076 189.775,-38.687"/>
</g>
<!-- 4 -->
<g id="node5" class="node"><title>4</title>
<text text-anchor="middle" x="295" y="-15.2" font-family="Segoe UI" font-size="11.00" fill="#222222">NamespacePageWriter</text>
</g>
<!-- 1&#45;&gt;4 -->
<g id="edge3" class="edge"><title>1&#45;&gt;4</title>
<path fill="none" stroke="#606ee0" d="M247.573,-71.6966C256.194,-62.1178 266.975,-50.1392 276.078,-40.024"/>
<polygon fill="#606ee0" stroke="#606ee0" points="277.562,-40.9915 279.606,-36.1043 274.96,-38.6501 277.562,-40.9915"/>
</g>
<!-- 5 -->
<g id="node6" class="node"><title>5</title>
<text text-anchor="middle" x="413" y="-15.2" font-family="Segoe UI" font-size="11.00" fill="#222222">ClassPageWriter</text>
</g>
<!-- 1&#45;&gt;5 -->
<g id="edge4" class="edge"><title>1&#45;&gt;5</title>
<path fill="none" stroke="#606ee0" d="M261.081,-77.7533C289.464,-66.7763 333.109,-49.8971 366.348,-37.0424"/>
<polygon fill="#606ee0" stroke="#606ee0" points="367.141,-38.612 371.173,-35.1762 365.878,-35.3476 367.141,-38.612"/>
</g>
</g>
</svg>
