<?xml version="1.0" encoding="UTF-8" standalone="no"?>
<!DOCTYPE svg PUBLIC "-//W3C//DTD SVG 1.1//EN"
 "http://www.w3.org/Graphics/SVG/1.1/DTD/svg11.dtd">
<!-- Generated by graphviz version 2.38.0 (20140413.2041)
 -->
<!-- Title: %3 Pages: 1 -->
<svg width="463pt" height="188pt"
 viewBox="0.00 0.00 463.00 188.00" xmlns="http://www.w3.org/2000/svg" xmlns:xlink="http://www.w3.org/1999/xlink">
<g id="graph0" class="graph" transform="scale(1 1) rotate(0) translate(4 184)">
<title>%3</title>
<polygon fill="none" stroke="none" points="-4,4 -4,-184 459,-184 459,4 -4,4"/>
<!-- 0 -->
<g id="node1" class="node"><title>0</title>
<text text-anchor="middle" x="291.5" y="-159.2" font-family="Segoe UI" font-size="11.00" fill="#222222">CompoundDefQueryVisitor</text>
</g>
<!-- 1 -->
<g id="node2" class="node"><title>1</title>
<text text-anchor="middle" x="246.5" y="-87.2" font-family="Segoe UI" font-size="11.00" fill="#222222">PageWriter</text>
</g>
<!-- 0&#45;&gt;1 -->
<g id="edge5" class="edge"><title>0&#45;&gt;1</title>
<path fill="none" stroke="#606ee0" d="M280.376,-143.697C273.892,-133.609 265.696,-120.86 258.99,-110.429"/>
<polygon fill="#606ee0" stroke="#606ee0" points="259.584,-109.734 257.496,-108.104 258.112,-110.68 259.584,-109.734"/>
</g>
<!-- 6 -->
<g id="node7" class="node"><title>6</title>
<text text-anchor="middle" x="336.5" y="-87.2" font-family="Segoe UI" font-size="11.00" fill="#222222">TableOfContents</text>
</g>
<!-- 0&#45;&gt;6 -->
<g id="edge6" class="edge"><title>0&#45;&gt;6</title>
<path fill="none" stroke="#606ee0" d="M302.624,-143.697C309.108,-133.609 317.304,-120.86 324.01,-110.429"/>
<polygon fill="#606ee0" stroke="#606ee0" points="324.888,-110.68 325.504,-108.104 323.416,-109.734 324.888,-110.68"/>
</g>
<!-- 2 -->
<g id="node3" class="node"><title>2</title>
<text text-anchor="middle" x="58.5" y="-15.2" font-family="Segoe UI" font-size="11.00" fill="#222222">NamespacePageWriter</text>
</g>
<!-- 1&#45;&gt;2 -->
<g id="edge1" class="edge"><title>1&#45;&gt;2</title>
<path fill="none" stroke="#606ee0" d="M217.125,-78.0625C187.676,-67.0976 141.827,-50.0259 106.98,-37.0509"/>
<polygon fill="#606ee0" stroke="#606ee0" points="107.138,-36.1763 104.49,-36.1239 106.528,-37.8163 107.138,-36.1763"/>
</g>
<!-- 3 -->
<g id="node4" class="node"><title>3</title>
<text text-anchor="middle" x="187.5" y="-15.2" font-family="Segoe UI" font-size="11.00" fill="#222222">DirectoryPageWriter</text>
</g>
<!-- 1&#45;&gt;3 -->
<g id="edge2" class="edge"><title>1&#45;&gt;3</title>
<path fill="none" stroke="#606ee0" d="M231.916,-71.6966C223.342,-61.5244 212.487,-48.6459 203.655,-38.1667"/>
<polygon fill="#606ee0" stroke="#606ee0" points="204.197,-37.452 201.917,-36.1043 202.859,-38.5798 204.197,-37.452"/>
</g>
<!-- 4 -->
<g id="node5" class="node"><title>4</title>
<text text-anchor="middle" x="305.5" y="-15.2" font-family="Segoe UI" font-size="11.00" fill="#222222">GenericPageWriter</text>
</g>
<!-- 1&#45;&gt;4 -->
<g id="edge3" class="edge"><title>1&#45;&gt;4</title>
<path fill="none" stroke="#606ee0" d="M261.084,-71.6966C269.658,-61.5244 280.513,-48.6459 289.345,-38.1667"/>
<polygon fill="#606ee0" stroke="#606ee0" points="290.141,-38.5798 291.083,-36.1043 288.803,-37.452 290.141,-38.5798"/>
</g>
<!-- 5 -->
<g id="node6" class="node"><title>5</title>
<text text-anchor="middle" x="413.5" y="-15.2" font-family="Segoe UI" font-size="11.00" fill="#222222">ClassPageWriter</text>
</g>
<!-- 1&#45;&gt;5 -->
<g id="edge4" class="edge"><title>1&#45;&gt;5</title>
<path fill="none" stroke="#606ee0" d="M275.506,-75.9133C278.537,-74.5786 281.578,-73.2537 284.5,-72 312.631,-59.9323 344.437,-46.8582 369.429,-36.7147"/>
<polygon fill="#606ee0" stroke="#606ee0" points="369.838,-37.493 371.825,-35.7424 369.18,-35.8714 369.838,-37.493"/>
</g>
</g>
</svg>
