<?xml version="1.0" encoding="UTF-8" standalone="no"?>
<!DOCTYPE svg PUBLIC "-//W3C//DTD SVG 1.1//EN"
 "http://www.w3.org/Graphics/SVG/1.1/DTD/svg11.dtd">
<!-- Generated by graphviz version 2.38.0 (20140413.2041)
 -->
<!-- Title: %3 Pages: 1 -->
<svg width="196pt" height="206pt"
 viewBox="0.00 0.00 196.00 206.00" xmlns="http://www.w3.org/2000/svg" xmlns:xlink="http://www.w3.org/1999/xlink">
<g id="graph0" class="graph" transform="scale(1 1) rotate(0) translate(4 202)">
<title>%3</title>
<polygon fill="none" stroke="none" points="-4,4 -4,-202 192,-202 192,4 -4,4"/>
<!-- Doxygen -->
<g id="node1" class="node"><title>Doxygen</title>
<polygon fill="#f3f6ff" stroke="#b4bcfb" stroke-opacity="0.250980" points="188,-36 133,-36 133,-0 188,-0 188,-36"/>
<text text-anchor="middle" x="160.5" y="-15.5" font-family="Segoe UI" font-size="10.00" fill="#222222">Doxygen</text>
</g>
<!-- GenApi -->
<g id="node2" class="node"><title>GenApi</title>
<polygon fill="#ff1040" fill-opacity="0.125490" stroke="#b4bcfb" stroke-opacity="0.250980" points="75.5,-36 21.5,-36 21.5,-0 75.5,-0 75.5,-36"/>
<text text-anchor="middle" x="48.5" y="-15.5" font-family="Segoe UI" font-size="10.00" fill="#222222">GenApi</text>
</g>
<!-- Doxygen&#45;&gt;GenApi -->
<g id="edge2" class="edge"><title>Doxygen&#45;&gt;GenApi</title>
<path fill="none" stroke="#606ee0" d="M127.843,-18C111.25,-18 91.1766,-18 75.5031,-18"/>
<polygon fill="#606ee0" stroke="#606ee0" points="127.872,-19.7501 132.872,-18 127.872,-16.2501 127.872,-19.7501"/>
</g>
<!-- ResourceCompiler -->
<g id="node3" class="node"><title>ResourceCompiler</title>
<polygon fill="#ff1040" fill-opacity="0.125490" stroke="#b4bcfb" stroke-opacity="0.250980" points="97,-144 0,-144 0,-108 97,-108 97,-144"/>
<text text-anchor="middle" x="48.5" y="-123.5" font-family="Segoe UI" font-size="10.00" fill="#222222">ResourceCompiler</text>
</g>
<!-- ResourceCompiler&#45;&gt;GenApi -->
<g id="edge1" class="edge"><title>ResourceCompiler&#45;&gt;GenApi</title>
<path fill="none" stroke="#606ee0" d="M97.0219,-108.026C104.196,-103.26 110.632,-97.331 115,-90 123.189,-76.2546 123.189,-67.7454 115,-54 107.4,-41.2431 93.5336,-32.7312 80.4223,-27.2036"/>
<polygon fill="#606ee0" stroke="#606ee0" points="80.9318,-25.5228 75.639,-25.2997 79.6374,-28.7747 80.9318,-25.5228"/>
</g>
<!-- Schema -->
<g id="node4" class="node"><title>Schema</title>
<polygon fill="#f3f6ff" stroke="#b4bcfb" stroke-opacity="0.250980" points="69.5,-90 21.5,-90 21.5,-54 75.5,-54 75.5,-84 69.5,-90"/>
<polyline fill="none" stroke="#b4bcfb" stroke-opacity="0.250980" points="69.5,-90 69.5,-84 "/>
<polyline fill="none" stroke="#b4bcfb" stroke-opacity="0.250980" points="75.5,-84 69.5,-84 "/>
<text text-anchor="middle" x="48.5" y="-69.5" font-family="Segoe UI" font-size="10.00" fill="#222222">Schema</text>
</g>
<!-- Schema&#45;&gt;GenApi -->
<g id="edge4" class="edge"><title>Schema&#45;&gt;GenApi</title>
<path fill="none" stroke="#606ee0" d="M48.5,-53.7902C48.5,-49.6536 48.5,-45.5169 48.5,-41.3803"/>
<polygon fill="#606ee0" stroke="#606ee0" points="50.2501,-41.1406 48.5,-36.1406 46.7501,-41.1407 50.2501,-41.1406"/>
</g>
<!-- Templates -->
<g id="node5" class="node"><title>Templates</title>
<polygon fill="#f3f6ff" stroke="#b4bcfb" stroke-opacity="0.250980" points="73.5,-198 17.5,-198 17.5,-162 79.5,-162 79.5,-192 73.5,-198"/>
<polyline fill="none" stroke="#b4bcfb" stroke-opacity="0.250980" points="73.5,-198 73.5,-192 "/>
<polyline fill="none" stroke="#b4bcfb" stroke-opacity="0.250980" points="79.5,-192 73.5,-192 "/>
<text text-anchor="middle" x="48.5" y="-177.5" font-family="Segoe UI" font-size="10.00" fill="#222222">Templates</text>
</g>
<!-- Templates&#45;&gt;ResourceCompiler -->
<g id="edge3" class="edge"><title>Templates&#45;&gt;ResourceCompiler</title>
<path fill="none" stroke="#606ee0" d="M48.5,-161.79C48.5,-157.654 48.5,-153.517 48.5,-149.38"/>
<polygon fill="#606ee0" stroke="#606ee0" points="50.2501,-149.141 48.5,-144.141 46.7501,-149.141 50.2501,-149.141"/>
</g>
</g>
</svg>
