<?xml version="1.0" encoding="UTF-8" standalone="no"?>
<!DOCTYPE svg PUBLIC "-//W3C//DTD SVG 1.1//EN"
 "http://www.w3.org/Graphics/SVG/1.1/DTD/svg11.dtd">
<!-- Generated by graphviz version 2.38.0 (20140413.2041)
 -->
<!-- Title: %3 Pages: 1 -->
<svg width="426pt" height="384pt"
 viewBox="0.00 0.00 426.00 384.00" xmlns="http://www.w3.org/2000/svg" xmlns:xlink="http://www.w3.org/1999/xlink">
<g id="graph0" class="graph" transform="scale(1 1) rotate(0) translate(4 380)">
<title>%3</title>
<polygon fill="none" stroke="none" points="-4,4 -4,-380 422,-380 422,4 -4,4"/>
<!-- MainPage -->
<g id="node1" class="node"><title>MainPage</title>
<polygon fill="#e6e8fa" stroke="#cacde8" points="133.5,-332 71.5,-332 71.5,-262 133.5,-262 133.5,-332"/>
<polygon fill="#e6e8fa" stroke="none" points="72.5,-263 72.5,-331 132.5,-331 132.5,-263 72.5,-263"/>
<text text-anchor="start" x="76.5" y="-319.2" font-family="Segoe UI" font-weight="bold" font-size="11.00" fill="#000001">MainPage</text>
<polygon fill="#cacde8" stroke="none" points="76.5,-267 76.5,-307 128.5,-307 128.5,-267 76.5,-267"/>
<text text-anchor="start" x="80.5" y="-294.2" font-family="Segoe UI" font-size="11.00" fill="#222222">Brief</text>
<text text-anchor="start" x="80.5" y="-274.2" font-family="Segoe UI" font-size="11.00" fill="#222222">Detail</text>
</g>
<!-- Index -->
<g id="node2" class="node"><title>Index</title>
<polygon fill="#e6e8fa" stroke="#cacde8" points="229,-376 152,-376 152,-218 229,-218 229,-376"/>
<polygon fill="#e6e8fa" stroke="none" points="153,-219 153,-375 228,-375 228,-219 153,-219"/>
<text text-anchor="start" x="157.5" y="-363.2" font-family="Segoe UI" font-weight="bold" font-size="11.00" fill="#000001">Index</text>
<polygon fill="#cacde8" stroke="none" points="157.5,-331 157.5,-351 224.5,-351 224.5,-331 157.5,-331"/>
<text text-anchor="start" x="161.5" y="-338.2" font-family="Segoe UI" font-size="11.00" fill="#222222">Description</text>
<polygon fill="#cacde8" stroke="none" points="157.5,-223 157.5,-323 224.5,-323 224.5,-223 157.5,-223"/>
<text text-anchor="start" x="167" y="-311.2" font-family="Segoe UI" font-weight="bold" font-size="11.00" fill="#000001">Contents</text>
<text text-anchor="start" x="161.5" y="-290.2" font-family="Segoe UI" font-size="11.00" fill="#222222">Directory</text>
<text text-anchor="start" x="161.5" y="-270.2" font-family="Segoe UI" font-size="11.00" fill="#222222">Class</text>
<text text-anchor="start" x="161.5" y="-250.2" font-family="Segoe UI" font-size="11.00" fill="#222222">Page</text>
<text text-anchor="start" x="161.5" y="-230.2" font-family="Segoe UI" font-size="11.00" fill="#222222">Namespace</text>
</g>
<!-- MainPage&#45;&gt;Index -->
<g id="edge1" class="edge"><title>MainPage:Title&#45;&gt;Index:Description</title>
<path fill="none" stroke="#606ee0" d="M133.5,-321C146.094,-321 143.442,-338.286 153.892,-340.717"/>
<polygon fill="#606ee0" stroke="#606ee0" points="153.92,-341.6 156.5,-341 154.109,-339.861 153.92,-341.6"/>
</g>
<!-- ClassIndex -->
<g id="node3" class="node"><title>ClassIndex</title>
<polygon fill="#e6e8fa" stroke="#cacde8" points="97,-182 0,-182 0,-72 97,-72 97,-182"/>
<polygon fill="#e6e8fa" stroke="none" points="1,-73 1,-181 96,-181 96,-73 1,-73"/>
<text text-anchor="start" x="5.5" y="-169.2" font-family="Segoe UI" font-weight="bold" font-size="11.00" fill="#000001">Index</text>
<polygon fill="#cacde8" stroke="none" points="5.5,-77 5.5,-157 92.5,-157 92.5,-77 5.5,-77"/>
<text text-anchor="start" x="9.5" y="-145.2" font-family="Segoe UI" font-weight="bold" font-size="11.00" fill="#000001">Contents (A&#45;Z)</text>
<text text-anchor="start" x="9.5" y="-124.2" font-family="Segoe UI" font-size="11.00" fill="#222222">Class[0]</text>
<text text-anchor="start" x="9.5" y="-104.2" font-family="Segoe UI" font-size="11.00" fill="#222222">Class[1]</text>
<text text-anchor="start" x="9.5" y="-84.2" font-family="Segoe UI" font-size="11.00" fill="#222222">Class[n]</text>
</g>
<!-- Index&#45;&gt;ClassIndex -->
<g id="edge2" class="edge"><title>Index:Class&#45;&gt;ClassIndex</title>
<path fill="none" stroke="#606ee0" d="M156.5,-273C131.276,-273 155.212,-239.786 142.5,-218 141.645,-216.535 120.896,-196.629 99.1105,-175.91"/>
<polygon fill="#606ee0" stroke="#606ee0" points="99.6859,-175.25 97.2712,-174.162 98.48,-176.518 99.6859,-175.25"/>
</g>
<!-- NamespaceIndex -->
<g id="node4" class="node"><title>NamespaceIndex</title>
<polygon fill="#e6e8fa" stroke="#cacde8" points="212,-182 115,-182 115,-72 212,-72 212,-182"/>
<polygon fill="#e6e8fa" stroke="none" points="116,-73 116,-181 211,-181 211,-73 116,-73"/>
<text text-anchor="start" x="120.5" y="-169.2" font-family="Segoe UI" font-weight="bold" font-size="11.00" fill="#000001">Index</text>
<polygon fill="#cacde8" stroke="none" points="120.5,-77 120.5,-157 207.5,-157 207.5,-77 120.5,-77"/>
<text text-anchor="start" x="124.5" y="-145.2" font-family="Segoe UI" font-weight="bold" font-size="11.00" fill="#000001">Contents (A&#45;Z)</text>
<text text-anchor="start" x="124.5" y="-124.2" font-family="Segoe UI" font-size="11.00" fill="#222222">Namespace[0]</text>
<text text-anchor="start" x="124.5" y="-104.2" font-family="Segoe UI" font-size="11.00" fill="#222222">Namespace[1]</text>
<text text-anchor="start" x="124.5" y="-84.2" font-family="Segoe UI" font-size="11.00" fill="#222222">Namespace[n]</text>
</g>
<!-- Index&#45;&gt;NamespaceIndex -->
<g id="edge3" class="edge"><title>Index:Namespace&#45;&gt;NamespaceIndex</title>
<path fill="none" stroke="#606ee0" d="M191.5,-222C191.5,-209.81 189.311,-197.088 186.156,-185.083"/>
<polygon fill="#606ee0" stroke="#606ee0" points="186.921,-184.558 185.424,-182.372 185.231,-185.014 186.921,-184.558"/>
</g>
<!-- PageIndex -->
<g id="node5" class="node"><title>PageIndex</title>
<polygon fill="#e6e8fa" stroke="#cacde8" points="327,-182 230,-182 230,-72 327,-72 327,-182"/>
<polygon fill="#e6e8fa" stroke="none" points="231,-73 231,-181 326,-181 326,-73 231,-73"/>
<text text-anchor="start" x="235.5" y="-169.2" font-family="Segoe UI" font-weight="bold" font-size="11.00" fill="#000001">Index</text>
<polygon fill="#cacde8" stroke="none" points="235.5,-77 235.5,-157 322.5,-157 322.5,-77 235.5,-77"/>
<text text-anchor="start" x="239.5" y="-145.2" font-family="Segoe UI" font-weight="bold" font-size="11.00" fill="#000001">Contents (A&#45;Z)</text>
<text text-anchor="start" x="239.5" y="-124.2" font-family="Segoe UI" font-size="11.00" fill="#222222">Page[0]</text>
<text text-anchor="start" x="239.5" y="-104.2" font-family="Segoe UI" font-size="11.00" fill="#222222">Page[1]</text>
<text text-anchor="start" x="239.5" y="-84.2" font-family="Segoe UI" font-size="11.00" fill="#222222">Page[n]</text>
</g>
<!-- Index&#45;&gt;PageIndex -->
<g id="edge4" class="edge"><title>Index:Page&#45;&gt;PageIndex</title>
<path fill="none" stroke="#606ee0" d="M225.5,-253C257.483,-253 270.452,-217.885 275.577,-184.878"/>
<polygon fill="#606ee0" stroke="#606ee0" points="276.488,-184.701 275.991,-182.1 274.757,-184.444 276.488,-184.701"/>
</g>
<!-- DirectoryIndex -->
<g id="node6" class="node"><title>DirectoryIndex</title>
<polygon fill="#e6e8fa" stroke="#cacde8" points="400,-352 303,-352 303,-242 400,-242 400,-352"/>
<polygon fill="#e6e8fa" stroke="none" points="304,-243 304,-351 399,-351 399,-243 304,-243"/>
<text text-anchor="start" x="308.5" y="-339.2" font-family="Segoe UI" font-weight="bold" font-size="11.00" fill="#000001">Index</text>
<polygon fill="#cacde8" stroke="none" points="308.5,-247 308.5,-327 395.5,-327 395.5,-247 308.5,-247"/>
<text text-anchor="start" x="312.5" y="-315.2" font-family="Segoe UI" font-weight="bold" font-size="11.00" fill="#000001">Contents (A&#45;Z)</text>
<text text-anchor="start" x="312.5" y="-294.2" font-family="Segoe UI" font-size="11.00" fill="#222222">Dir[0]</text>
<text text-anchor="start" x="312.5" y="-274.2" font-family="Segoe UI" font-size="11.00" fill="#222222">Dir[1]</text>
<text text-anchor="start" x="312.5" y="-254.2" font-family="Segoe UI" font-size="11.00" fill="#222222">Dir[n]</text>
</g>
<!-- Index&#45;&gt;DirectoryIndex -->
<g id="edge5" class="edge"><title>Index:Directory&#45;&gt;DirectoryIndex:Title</title>
<path fill="none" stroke="#606ee0" d="M225.5,-293C265.251,-293 262.931,-338.776 300.709,-340.922"/>
<polygon fill="#606ee0" stroke="#606ee0" points="300.977,-341.805 303.5,-341 301.025,-340.056 300.977,-341.805"/>
</g>
<!-- ClassPage -->
<g id="node7" class="node"><title>ClassPage</title>
<polygon fill="#e6e8fa" stroke="#cacde8" points="76.5,-36 22.5,-36 22.5,-0 76.5,-0 76.5,-36"/>
<text text-anchor="middle" x="49.5" y="-15.2" font-family="Segoe UI" font-size="11.00" fill="#222222">ClassPage</text>
</g>
<!-- ClassIndex&#45;&gt;ClassPage -->
<g id="edge6" class="edge"><title>ClassIndex:Item&#45;&gt;ClassPage</title>
<path fill="none" stroke="#606ee0" d="M49.5,-76C49.5,-63.6843 49.5,-49.8719 49.5,-38.9285"/>
<polygon fill="#606ee0" stroke="#606ee0" points="50.3751,-38.7108 49.5,-36.2108 48.6251,-38.7109 50.3751,-38.7108"/>
</g>
<!-- NamespacePage -->
<g id="node10" class="node"><title>NamespacePage</title>
<polygon fill="#e6e8fa" stroke="#cacde8" points="207.5,-36 121.5,-36 121.5,-0 207.5,-0 207.5,-36"/>
<text text-anchor="middle" x="164.5" y="-15.2" font-family="Segoe UI" font-size="11.00" fill="#222222">NamespacePage</text>
</g>
<!-- NamespaceIndex&#45;&gt;NamespacePage -->
<g id="edge9" class="edge"><title>NamespaceIndex:Item&#45;&gt;NamespacePage</title>
<path fill="none" stroke="#606ee0" d="M164.5,-76C164.5,-63.6843 164.5,-49.8719 164.5,-38.9285"/>
<polygon fill="#606ee0" stroke="#606ee0" points="165.375,-38.7108 164.5,-36.2108 163.625,-38.7109 165.375,-38.7108"/>
</g>
<!-- GenericPage -->
<g id="node9" class="node"><title>GenericPage</title>
<polygon fill="#e6e8fa" stroke="#cacde8" points="312,-36 247,-36 247,-0 312,-0 312,-36"/>
<text text-anchor="middle" x="279.5" y="-15.2" font-family="Segoe UI" font-size="11.00" fill="#222222">GenericPage</text>
</g>
<!-- PageIndex&#45;&gt;GenericPage -->
<g id="edge8" class="edge"><title>PageIndex:Item&#45;&gt;GenericPage</title>
<path fill="none" stroke="#606ee0" d="M279.5,-76C279.5,-63.6843 279.5,-49.8719 279.5,-38.9285"/>
<polygon fill="#606ee0" stroke="#606ee0" points="280.375,-38.7108 279.5,-36.2108 278.625,-38.7109 280.375,-38.7108"/>
</g>
<!-- DirectoryPage -->
<g id="node8" class="node"><title>DirectoryPage</title>
<polygon fill="#e6e8fa" stroke="#cacde8" points="418,-145 345,-145 345,-109 418,-109 418,-145"/>
<text text-anchor="middle" x="381.5" y="-124.2" font-family="Segoe UI" font-size="11.00" fill="#222222">DirectoryPage</text>
</g>
<!-- DirectoryIndex&#45;&gt;DirectoryPage -->
<g id="edge7" class="edge"><title>DirectoryIndex:Item&#45;&gt;DirectoryPage</title>
<path fill="none" stroke="#606ee0" d="M352.5,-246C352.5,-210.584 364.972,-170.872 373.558,-147.729"/>
<polygon fill="#606ee0" stroke="#606ee0" points="374.423,-147.914 374.48,-145.266 372.784,-147.301 374.423,-147.914"/>
</g>
</g>
</svg>
