<?xml version="1.0" encoding="UTF-8" standalone="no"?>
<!DOCTYPE svg PUBLIC "-//W3C//DTD SVG 1.1//EN"
 "http://www.w3.org/Graphics/SVG/1.1/DTD/svg11.dtd">
<!-- Generated by graphviz version 2.38.0 (20140413.2041)
 -->
<!-- Title: %3 Pages: 1 -->
<svg width="429pt" height="206pt"
 viewBox="0.00 0.00 429.00 206.00" xmlns="http://www.w3.org/2000/svg" xmlns:xlink="http://www.w3.org/1999/xlink">
<g id="graph0" class="graph" transform="scale(1 1) rotate(0) translate(4 202)">
<title>%3</title>
<polygon fill="none" stroke="none" points="-4,4 -4,-202 425,-202 425,4 -4,4"/>
<!-- SiteBuilder -->
<g id="node1" class="node"><title>SiteBuilder</title>
<text text-anchor="middle" x="35.5" y="-96.2" font-family="Segoe UI" font-size="11.00" fill="#010509">SiteBuilder</text>
</g>
<!-- Config -->
<g id="node2" class="node"><title>Config</title>
<text text-anchor="middle" x="35.5" y="-42.2" font-family="Segoe UI" font-size="11.00" fill="#010509">Config</text>
</g>
<!-- SiteBuilder&#45;&gt;Config -->
<g id="edge1" class="edge"><title>SiteBuilder&#45;&gt;Config</title>
<path fill="none" stroke="#ff1040" d="M35.5,-78.0324C35.5,-73.0685 35.5,-68.1046 35.5,-63.1406"/>
<polygon fill="#ff1040" stroke="#ff1040" points="34.6251,-78.2901 35.5,-80.7902 36.3751,-78.2902 34.6251,-78.2901"/>
</g>
<!-- buildFromXml -->
<g id="node3" class="node"><title>buildFromXml</title>
<text text-anchor="middle" x="150.5" y="-96.2" font-family="Segoe UI" font-size="11.00" fill="#010509">buildFromXml</text>
</g>
<!-- SiteBuilder&#45;&gt;buildFromXml -->
<g id="edge2" class="edge"><title>SiteBuilder&#45;&gt;buildFromXml</title>
<path fill="none" stroke="#ff1040" d="M71.0177,-99C81.5171,-99 93.2163,-99 104.309,-99"/>
<polygon fill="#ff1040" stroke="#ff1040" points="104.315,-99.8751 106.815,-99 104.315,-98.1251 104.315,-99.8751"/>
</g>
<!-- Build -->
<g id="node4" class="node"><title>Build</title>
<text text-anchor="middle" x="274.5" y="-177.2" font-family="Segoe UI" font-size="11.00" fill="#010509">Build</text>
</g>
<!-- buildFromXml&#45;&gt;Build -->
<g id="edge3" class="edge"><title>buildFromXml&#45;&gt;Build</title>
<path fill="none" stroke="#ff1040" d="M177.103,-117.062C192.346,-127.703 212.14,-141.323 230,-153 234.817,-156.149 239.98,-159.433 245.006,-162.581"/>
<polygon fill="#ff1040" stroke="#ff1040" points="244.567,-163.338 247.151,-163.921 245.494,-161.854 244.567,-163.338"/>
</g>
<!-- WriteIndex -->
<g id="node5" class="node"><title>WriteIndex</title>
<text text-anchor="middle" x="274.5" y="-123.2" font-family="Segoe UI" font-size="11.00" fill="#010509">WriteIndex</text>
</g>
<!-- buildFromXml&#45;&gt;WriteIndex -->
<g id="edge4" class="edge"><title>buildFromXml&#45;&gt;WriteIndex</title>
<path fill="none" stroke="#ff1040" d="M194.17,-108.443C207.826,-111.466 222.835,-114.787 236.087,-117.72"/>
<polygon fill="#ff1040" stroke="#ff1040" points="236.083,-118.615 238.713,-118.301 236.461,-116.907 236.083,-118.615"/>
</g>
<!-- Dispatch -->
<g id="node6" class="node"><title>Dispatch</title>
<text text-anchor="middle" x="274.5" y="-69.2" font-family="Segoe UI" font-size="11.00" fill="#010509">Dispatch</text>
</g>
<!-- buildFromXml&#45;&gt;Dispatch -->
<g id="edge5" class="edge"><title>buildFromXml&#45;&gt;Dispatch</title>
<path fill="none" stroke="#ff1040" d="M194.17,-89.5567C209.889,-86.0779 227.399,-82.2028 241.96,-78.9801"/>
<polygon fill="#ff1040" stroke="#ff1040" points="242.205,-79.8221 244.457,-78.4275 241.827,-78.1135 242.205,-79.8221"/>
</g>
<!-- ConvertGraphs -->
<g id="node7" class="node"><title>ConvertGraphs</title>
<text text-anchor="middle" x="274.5" y="-15.2" font-family="Segoe UI" font-size="11.00" fill="#010509">ConvertGraphs</text>
</g>
<!-- buildFromXml&#45;&gt;ConvertGraphs -->
<g id="edge6" class="edge"><title>buildFromXml&#45;&gt;ConvertGraphs</title>
<path fill="none" stroke="#ff1040" d="M177.103,-80.9376C192.346,-70.2973 212.14,-56.6767 230,-45 233.766,-42.5377 237.744,-39.9933 241.703,-37.4957"/>
<polygon fill="#ff1040" stroke="#ff1040" points="242.249,-38.186 243.898,-36.1137 241.316,-36.7049 242.249,-38.186"/>
</g>
<!-- BuildItem -->
<g id="node8" class="node"><title>BuildItem</title>
<text text-anchor="middle" x="388" y="-96.2" font-family="Segoe UI" font-size="11.00" fill="#010509">BuildItem</text>
</g>
<!-- Dispatch&#45;&gt;BuildItem -->
<g id="edge7" class="edge"><title>Dispatch&#45;&gt;BuildItem</title>
<path fill="none" stroke="#ff1040" d="M304.504,-79.0234C319.265,-82.5979 337.305,-86.9662 352.746,-90.7054"/>
<polygon fill="#ff1040" stroke="#ff1040" points="352.763,-91.6098 355.399,-91.3478 353.175,-89.9089 352.763,-91.6098"/>
</g>
<!-- WriteItem -->
<g id="node9" class="node"><title>WriteItem</title>
<text text-anchor="middle" x="388" y="-42.2" font-family="Segoe UI" font-size="11.00" fill="#010509">WriteItem</text>
</g>
<!-- Dispatch&#45;&gt;WriteItem -->
<g id="edge8" class="edge"><title>Dispatch&#45;&gt;WriteItem</title>
<path fill="none" stroke="#ff1040" d="M304.504,-64.9766C319.021,-61.4612 336.71,-57.178 351.979,-53.4805"/>
<polygon fill="#ff1040" stroke="#ff1040" points="352.379,-54.2838 354.603,-52.8449 351.968,-52.583 352.379,-54.2838"/>
</g>
</g>
</svg>
