<?xml version="1.0" encoding="UTF-8" standalone="no"?>
<!DOCTYPE svg PUBLIC "-//W3C//DTD SVG 1.1//EN"
 "http://www.w3.org/Graphics/SVG/1.1/DTD/svg11.dtd">
<!-- Generated by graphviz version 2.38.0 (20140413.2041)
 -->
<!-- Title: %3 Pages: 1 -->
<svg width="420pt" height="206pt"
 viewBox="0.00 0.00 420.00 206.00" xmlns="http://www.w3.org/2000/svg" xmlns:xlink="http://www.w3.org/1999/xlink">
<g id="graph0" class="graph" transform="scale(1 1) rotate(0) translate(4 202)">
<title>%3</title>
<polygon fill="none" stroke="none" points="-4,4 -4,-202 416,-202 416,4 -4,4"/>
<!-- D5AaALF -->
<g id="node1" class="node"><title>D5AaALF</title>
<text text-anchor="middle" x="68.5" y="-69.2" font-family="Segoe UI" font-size="11.00" fill="#010509">CompoundDefQueryVisitor</text>
</g>
<!-- qQ0aALF -->
<g id="node2" class="node"><title>qQ0aALF</title>
<text text-anchor="middle" x="216" y="-96.2" font-family="Segoe UI" font-size="11.00" fill="#010509">PageWriter</text>
</g>
<!-- D5AaALF&#45;&gt;qQ0aALF -->
<g id="edge5" class="edge"><title>D5AaALF&#45;&gt;qQ0aALF</title>
<path fill="none" stroke="#69bfff" d="M137.139,-84.5515C152.6,-87.4206 168.371,-90.3472 181.639,-92.8094"/>
<polygon fill="#69bfff" stroke="#69bfff" points="181.549,-94.5724 186.784,-93.7641 182.188,-91.1312 181.549,-94.5724"/>
</g>
<!-- DI0aALF -->
<g id="node7" class="node"><title>DI0aALF</title>
<text text-anchor="middle" x="216" y="-42.2" font-family="Segoe UI" font-size="11.00" fill="#010509">TableOfContents</text>
</g>
<!-- D5AaALF&#45;&gt;DI0aALF -->
<g id="edge6" class="edge"><title>D5AaALF&#45;&gt;DI0aALF</title>
<path fill="none" stroke="#69bfff" d="M137.139,-59.4485C147.503,-57.5253 158.006,-55.5762 167.801,-53.7586"/>
<polygon fill="#69bfff" stroke="#69bfff" points="168.258,-55.4538 172.854,-52.8208 167.619,-52.0126 168.258,-55.4538"/>
</g>
<!-- q9AaALF -->
<g id="node3" class="node"><title>q9AaALF</title>
<text text-anchor="middle" x="353.5" y="-177.2" font-family="Segoe UI" font-size="11.00" fill="#010509">DirectoryPageWriter</text>
</g>
<!-- qQ0aALF&#45;&gt;q9AaALF -->
<g id="edge1" class="edge"><title>qQ0aALF&#45;&gt;q9AaALF</title>
<path fill="none" stroke="#69bfff" d="M240.91,-117.101C256.009,-128.137 276.158,-142.155 295,-153 298.931,-155.263 303.083,-157.495 307.283,-159.648"/>
<polygon fill="#69bfff" stroke="#69bfff" points="306.599,-161.263 311.851,-161.952 308.175,-158.138 306.599,-161.263"/>
</g>
<!-- q1AaALF -->
<g id="node4" class="node"><title>q1AaALF</title>
<text text-anchor="middle" x="353.5" y="-123.2" font-family="Segoe UI" font-size="11.00" fill="#010509">GenericPageWriter</text>
</g>
<!-- qQ0aALF&#45;&gt;q1AaALF -->
<g id="edge2" class="edge"><title>qQ0aALF&#45;&gt;q1AaALF</title>
<path fill="none" stroke="#69bfff" d="M245.076,-104.594C260.947,-107.757 281.304,-111.813 300.021,-115.543"/>
<polygon fill="#69bfff" stroke="#69bfff" points="300.006,-117.324 305.251,-116.585 300.69,-113.892 300.006,-117.324"/>
</g>
<!-- qMWaALF -->
<g id="node5" class="node"><title>qMWaALF</title>
<text text-anchor="middle" x="353.5" y="-69.2" font-family="Segoe UI" font-size="11.00" fill="#010509">NamespacePageWriter</text>
</g>
<!-- qQ0aALF&#45;&gt;qMWaALF -->
<g id="edge3" class="edge"><title>qQ0aALF&#45;&gt;qMWaALF</title>
<path fill="none" stroke="#69bfff" d="M245.076,-93.4056C258.03,-90.8244 273.971,-87.6478 289.57,-84.5395"/>
<polygon fill="#69bfff" stroke="#69bfff" points="290.281,-86.1824 294.842,-83.489 289.597,-82.7499 290.281,-86.1824"/>
</g>
<!-- DfpaALF -->
<g id="node6" class="node"><title>DfpaALF</title>
<text text-anchor="middle" x="353.5" y="-15.2" font-family="Segoe UI" font-size="11.00" fill="#010509">ClassPageWriter</text>
</g>
<!-- qQ0aALF&#45;&gt;DfpaALF -->
<g id="edge4" class="edge"><title>qQ0aALF&#45;&gt;DfpaALF</title>
<path fill="none" stroke="#69bfff" d="M245.2,-81.2687C249.848,-78.2328 254.587,-75.0674 259,-72 275.422,-60.585 277.859,-55.3042 295,-45 298.887,-42.6633 303.009,-40.3806 307.191,-38.1948"/>
<polygon fill="#69bfff" stroke="#69bfff" points="308.09,-39.7002 311.743,-35.8631 306.495,-36.5851 308.09,-39.7002"/>
</g>
</g>
</svg>
