<?xml version="1.0" encoding="UTF-8" standalone="no"?>
<!DOCTYPE svg PUBLIC "-//W3C//DTD SVG 1.1//EN"
 "http://www.w3.org/Graphics/SVG/1.1/DTD/svg11.dtd">
<!-- Generated by graphviz version 2.38.0 (20140413.2041)
 -->
<!-- Title: %3 Pages: 1 -->
<svg width="170pt" height="260pt"
 viewBox="0.00 0.00 170.00 260.00" xmlns="http://www.w3.org/2000/svg" xmlns:xlink="http://www.w3.org/1999/xlink">
<g id="graph0" class="graph" transform="scale(1 1) rotate(0) translate(4 256)">
<title>%3</title>
<polygon fill="none" stroke="none" points="-4,4 -4,-256 166,-256 166,4 -4,4"/>
<!-- 0 -->
<g id="node1" class="node"><title>0</title>
<text text-anchor="middle" x="99" y="-231.5" font-family="Segoe UI" font-size="10.00" fill="#222222">Writer</text>
</g>
<!-- 1 -->
<g id="node2" class="node"><title>1</title>
<text text-anchor="middle" x="63" y="-159.5" font-family="Segoe UI" font-size="10.00" fill="#222222">Object</text>
</g>
<!-- 0&#45;&gt;1 -->
<g id="edge4" class="edge"><title>0&#45;&gt;1</title>
<path fill="none" stroke="#606ee0" d="M90.1011,-215.697C85.2621,-206.287 79.2321,-194.562 74.0895,-184.563"/>
<polygon fill="#606ee0" stroke="#606ee0" points="75.6396,-183.75 71.7965,-180.104 72.5271,-185.351 75.6396,-183.75"/>
</g>
<!-- 5 -->
<g id="node6" class="node"><title>5</title>
<text text-anchor="middle" x="135" y="-159.5" font-family="Segoe UI" font-size="10.00" fill="#222222">Common</text>
</g>
<!-- 0&#45;&gt;5 -->
<g id="edge5" class="edge"><title>0&#45;&gt;5</title>
<path fill="none" stroke="#606ee0" d="M107.899,-215.697C112.738,-206.287 118.768,-194.562 123.911,-184.563"/>
<polygon fill="#606ee0" stroke="#606ee0" points="125.473,-185.351 126.203,-180.104 122.36,-183.75 125.473,-185.351"/>
</g>
<!-- 2 -->
<g id="node3" class="node"><title>2</title>
<text text-anchor="middle" x="27" y="-87.5" font-family="Segoe UI" font-size="10.00" fill="#222222">Simple</text>
</g>
<!-- 1&#45;&gt;2 -->
<g id="edge2" class="edge"><title>1&#45;&gt;2</title>
<path fill="none" stroke="#606ee0" d="M54.1011,-143.697C49.2621,-134.287 43.2321,-122.562 38.0895,-112.563"/>
<polygon fill="#606ee0" stroke="#606ee0" points="39.6396,-111.75 35.7965,-108.104 36.5271,-113.351 39.6396,-111.75"/>
</g>
<!-- 3 -->
<g id="node4" class="node"><title>3</title>
<text text-anchor="middle" x="99" y="-87.5" font-family="Segoe UI" font-size="10.00" fill="#222222">Group</text>
</g>
<!-- 1&#45;&gt;3 -->
<g id="edge3" class="edge"><title>1&#45;&gt;3</title>
<path fill="none" stroke="#606ee0" d="M71.8989,-143.697C76.7379,-134.287 82.7679,-122.562 87.9105,-112.563"/>
<polygon fill="#606ee0" stroke="#606ee0" points="89.4729,-113.351 90.2035,-108.104 86.3604,-111.75 89.4729,-113.351"/>
</g>
<!-- 4 -->
<g id="node5" class="node"><title>4</title>
<text text-anchor="middle" x="99" y="-15.5" font-family="Segoe UI" font-size="10.00" fill="#222222">Complex</text>
</g>
<!-- 3&#45;&gt;4 -->
<g id="edge1" class="edge"><title>3&#45;&gt;4</title>
<path fill="none" stroke="#606ee0" d="M99,-71.6966C99,-62.4569 99,-50.9842 99,-41.105"/>
<polygon fill="#606ee0" stroke="#606ee0" points="100.75,-41.1043 99,-36.1043 97.2501,-41.1044 100.75,-41.1043"/>
</g>
</g>
</svg>
