<?xml version="1.0" encoding="UTF-8" standalone="no"?>
<!DOCTYPE svg PUBLIC "-//W3C//DTD SVG 1.1//EN"
 "http://www.w3.org/Graphics/SVG/1.1/DTD/svg11.dtd">
<!-- Generated by graphviz version 2.38.0 (20140413.2041)
 -->
<!-- Title: %3 Pages: 1 -->
<svg width="225pt" height="3770pt"
 viewBox="0.00 0.00 225.00 3770.00" xmlns="http://www.w3.org/2000/svg" xmlns:xlink="http://www.w3.org/1999/xlink">
<g id="graph0" class="graph" transform="scale(1 1) rotate(0) translate(4 3766)">
<title>%3</title>
<polygon fill="none" stroke="none" points="-4,4 -4,-3766 221,-3766 221,4 -4,4"/>
<!-- 0 -->
<g id="node1" class="node"><title>0</title>
<text text-anchor="middle" x="27" y="-1878.2" font-family="Segoe UI" font-size="11.00" fill="#010509">Query</text>
</g>
<!-- 1 -->
<g id="node2" class="node"><title>1</title>
<text text-anchor="middle" x="153.5" y="-3741.2" font-family="Segoe UI" font-size="11.00" fill="#010509">AnchorQuery</text>
</g>
<!-- 0&#45;&gt;1 -->
<g id="edge1" class="edge"><title>0&#45;&gt;1</title>
<path fill="none" stroke="#69bfff" d="M28.0593,-1899.21C28.7328,-2085.39 35.9626,-3637.74 90,-3717 95.9508,-3725.73 105.364,-3731.65 115.097,-3735.67"/>
<polygon fill="#69bfff" stroke="#69bfff" points="114.592,-3737.35 119.887,-3737.49 115.836,-3734.08 114.592,-3737.35"/>
</g>
<!-- 2 -->
<g id="node3" class="node"><title>2</title>
<text text-anchor="middle" x="153.5" y="-3687.2" font-family="Segoe UI" font-size="11.00" fill="#010509">SimpleSectQuery</text>
</g>
<!-- 0&#45;&gt;2 -->
<g id="edge2" class="edge"><title>0&#45;&gt;2</title>
<path fill="none" stroke="#69bfff" d="M28.0787,-1899.25C28.9367,-2082.51 37.5653,-3586.17 90,-3663 93.8761,-3668.68 99.2179,-3673.17 105.159,-3676.72"/>
<polygon fill="#69bfff" stroke="#69bfff" points="104.578,-3678.4 109.805,-3679.26 106.255,-3675.33 104.578,-3678.4"/>
</g>
<!-- 3 -->
<g id="node4" class="node"><title>3</title>
<text text-anchor="middle" x="153.5" y="-3633.2" font-family="Segoe UI" font-size="11.00" fill="#010509">LanguageQuery</text>
</g>
<!-- 0&#45;&gt;3 -->
<g id="edge3" class="edge"><title>0&#45;&gt;3</title>
<path fill="none" stroke="#69bfff" d="M28.0992,-1899.25C29.1463,-2079.44 39.1648,-3534.6 90,-3609 94.5284,-3615.63 101.052,-3620.64 108.194,-3624.42"/>
<polygon fill="#69bfff" stroke="#69bfff" points="107.447,-3626.01 112.708,-3626.63 108.982,-3622.86 107.447,-3626.01"/>
</g>
<!-- 4 -->
<g id="node5" class="node"><title>4</title>
<text text-anchor="middle" x="153.5" y="-3579.2" font-family="Segoe UI" font-size="11.00" fill="#010509">ParamTypeQuery</text>
</g>
<!-- 0&#45;&gt;4 -->
<g id="edge4" class="edge"><title>0&#45;&gt;4</title>
<path fill="none" stroke="#69bfff" d="M28.1209,-1899.23C29.3616,-2076.18 40.761,-3483.03 90,-3555 93.8825,-3560.67 99.2277,-3565.16 105.17,-3568.72"/>
<polygon fill="#69bfff" stroke="#69bfff" points="104.59,-3570.39 109.817,-3571.25 106.267,-3567.32 104.59,-3570.39"/>
</g>
<!-- 5 -->
<g id="node6" class="node"><title>5</title>
<text text-anchor="middle" x="153.5" y="-3525.2" font-family="Segoe UI" font-size="11.00" fill="#010509">FileQuery</text>
</g>
<!-- 0&#45;&gt;5 -->
<g id="edge5" class="edge"><title>0&#45;&gt;5</title>
<path fill="none" stroke="#69bfff" d="M28.1437,-1899.18C29.5826,-2072.72 42.3539,-3431.45 90,-3501 97.248,-3511.58 109.579,-3518.04 121.383,-3521.98"/>
<polygon fill="#69bfff" stroke="#69bfff" points="121.099,-3523.72 126.393,-3523.51 122.125,-3520.37 121.099,-3523.72"/>
</g>
<!-- 6 -->
<g id="node7" class="node"><title>6</title>
<text text-anchor="middle" x="153.5" y="-3471.2" font-family="Segoe UI" font-size="11.00" fill="#010509">ChildNodeQuery</text>
</g>
<!-- 0&#45;&gt;6 -->
<g id="edge6" class="edge"><title>0&#45;&gt;6</title>
<path fill="none" stroke="#69bfff" d="M28.1678,-1899.11C29.8093,-2069.07 43.9436,-3379.87 90,-3447 94.129,-3453.02 99.9025,-3457.7 106.287,-3461.35"/>
<polygon fill="#69bfff" stroke="#69bfff" points="105.551,-3462.94 110.792,-3463.71 107.176,-3459.84 105.551,-3462.94"/>
</g>
<!-- 7 -->
<g id="node8" class="node"><title>7</title>
<text text-anchor="middle" x="153.5" y="-3417.2" font-family="Segoe UI" font-size="11.00" fill="#010509">DoxygenQuery</text>
</g>
<!-- 0&#45;&gt;7 -->
<g id="edge7" class="edge"><title>0&#45;&gt;7</title>
<path fill="none" stroke="#69bfff" d="M28.1959,-1899.26C30.0579,-2066.55 45.5532,-3328.31 90,-3393 94.9887,-3400.26 102.37,-3405.58 110.328,-3409.48"/>
<polygon fill="#69bfff" stroke="#69bfff" points="110.063,-3411.28 115.342,-3411.72 111.494,-3408.08 110.063,-3411.28"/>
</g>
<!-- 8 -->
<g id="node9" class="node"><title>8</title>
<text text-anchor="middle" x="153.5" y="-3363.2" font-family="Segoe UI" font-size="11.00" fill="#010509">FormulaQuery</text>
</g>
<!-- 0&#45;&gt;8 -->
<g id="edge8" class="edge"><title>0&#45;&gt;8</title>
<path fill="none" stroke="#69bfff" d="M28.2227,-1899.12C30.2973,-2062.47 47.1355,-3276.71 90,-3339 95.4277,-3346.89 103.678,-3352.49 112.421,-3356.46"/>
<polygon fill="#69bfff" stroke="#69bfff" points="112.026,-3358.19 117.314,-3358.5 113.373,-3354.96 112.026,-3358.19"/>
</g>
<!-- 9 -->
<g id="node10" class="node"><title>9</title>
<text text-anchor="middle" x="153.5" y="-3309.2" font-family="Segoe UI" font-size="11.00" fill="#010509">ParamQuery</text>
</g>
<!-- 0&#45;&gt;9 -->
<g id="edge9" class="edge"><title>0&#45;&gt;9</title>
<path fill="none" stroke="#69bfff" d="M28.2544,-1899.2C30.5614,-2059.43 48.7361,-3225.14 90,-3285 96.3996,-3294.28 106.708,-3300.4 117.123,-3304.41"/>
<polygon fill="#69bfff" stroke="#69bfff" points="116.605,-3306.09 121.903,-3306.12 117.78,-3302.79 116.605,-3306.09"/>
</g>
<!-- 10 -->
<g id="node11" class="node"><title>10</title>
<text text-anchor="middle" x="153.5" y="-3255.2" font-family="Segoe UI" font-size="11.00" fill="#010509">SpQuery</text>
</g>
<!-- 0&#45;&gt;10 -->
<g id="edge10" class="edge"><title>0&#45;&gt;10</title>
<path fill="none" stroke="#69bfff" d="M28.2881,-1899.23C30.8339,-2056.09 50.3318,-3173.57 90,-3231 97.2884,-3241.55 109.626,-3248.01 121.423,-3251.95"/>
<polygon fill="#69bfff" stroke="#69bfff" points="121.136,-3253.69 126.429,-3253.49 122.164,-3250.34 121.136,-3253.69"/>
</g>
<!-- 11 -->
<g id="node12" class="node"><title>11</title>
<text text-anchor="middle" x="153.5" y="-3201.2" font-family="Segoe UI" font-size="11.00" fill="#010509">ListingQuery</text>
</g>
<!-- 0&#45;&gt;11 -->
<g id="edge11" class="edge"><title>0&#45;&gt;11</title>
<path fill="none" stroke="#69bfff" d="M28.3283,-1899.46C31.1367,-2053.6 51.9426,-3122.01 90,-3177 96.2432,-3186.02 106.175,-3192.05 116.299,-3196.07"/>
<polygon fill="#69bfff" stroke="#69bfff" points="115.973,-3197.81 121.27,-3197.89 117.174,-3194.53 115.973,-3197.81"/>
</g>
<!-- 12 -->
<g id="node13" class="node"><title>12</title>
<text text-anchor="middle" x="153.5" y="-3147.2" font-family="Segoe UI" font-size="11.00" fill="#010509">VariableListQuery</text>
</g>
<!-- 0&#45;&gt;12 -->
<g id="edge12" class="edge"><title>0&#45;&gt;12</title>
<path fill="none" stroke="#69bfff" d="M28.3618,-1899.17C31.404,-2048.56 53.5084,-3070.39 90,-3123 93.5789,-3128.16 98.3639,-3132.34 103.7,-3135.73"/>
<polygon fill="#69bfff" stroke="#69bfff" points="103.094,-3137.4 108.298,-3138.39 104.848,-3134.37 103.094,-3137.4"/>
</g>
<!-- 13 -->
<g id="node14" class="node"><title>13</title>
<text text-anchor="middle" x="153.5" y="-3093.2" font-family="Segoe UI" font-size="11.00" fill="#010509">RefQuery</text>
</g>
<!-- 0&#45;&gt;13 -->
<g id="edge13" class="edge"><title>0&#45;&gt;13</title>
<path fill="none" stroke="#69bfff" d="M27.8067,-1899.33C26.4526,-2041.78 20.3629,-2968.85 90,-3069 97.3213,-3079.53 109.664,-3085.98 121.456,-3089.93"/>
<polygon fill="#69bfff" stroke="#69bfff" points="121.166,-3091.67 126.459,-3091.47 122.195,-3088.32 121.166,-3091.67"/>
</g>
<!-- 14 -->
<g id="node15" class="node"><title>14</title>
<text text-anchor="middle" x="153.5" y="-3039.2" font-family="Segoe UI" font-size="11.00" fill="#010509">HighlightQuery</text>
</g>
<!-- 0&#45;&gt;14 -->
<g id="edge14" class="edge"><title>0&#45;&gt;14</title>
<path fill="none" stroke="#69bfff" d="M27.8549,-1899.37C26.9068,-2038.23 23.542,-2919.67 90,-3015 94.8702,-3021.99 101.949,-3027.18 109.609,-3031.03"/>
<polygon fill="#69bfff" stroke="#69bfff" points="109.165,-3032.76 114.438,-3033.26 110.633,-3029.58 109.165,-3032.76"/>
</g>
<!-- 15 -->
<g id="node16" class="node"><title>15</title>
<text text-anchor="middle" x="153.5" y="-2985.2" font-family="Segoe UI" font-size="11.00" fill="#010509">TableQuery</text>
</g>
<!-- 0&#45;&gt;15 -->
<g id="edge15" class="edge"><title>0&#45;&gt;15</title>
<path fill="none" stroke="#69bfff" d="M27.9085,-1899.35C27.3832,-2034.31 26.7078,-2870.48 90,-2961 96.6957,-2970.58 107.54,-2976.78 118.331,-2980.79"/>
<polygon fill="#69bfff" stroke="#69bfff" points="117.973,-2982.52 123.27,-2982.49 119.108,-2979.21 117.973,-2982.52"/>
</g>
<!-- 16 -->
<g id="node17" class="node"><title>16</title>
<text text-anchor="middle" x="153.5" y="-2931.2" font-family="Segoe UI" font-size="11.00" fill="#010509">LinkQuery</text>
</g>
<!-- 0&#45;&gt;16 -->
<g id="edge16" class="edge"><title>0&#45;&gt;16</title>
<path fill="none" stroke="#69bfff" d="M27.9675,-1899.26C27.8817,-2030.03 29.8604,-2821.26 90,-2907 97.3645,-2917.5 109.713,-2923.95 121.499,-2927.9"/>
<polygon fill="#69bfff" stroke="#69bfff" points="121.205,-2929.64 126.499,-2929.44 122.237,-2926.29 121.205,-2929.64"/>
</g>
<!-- 17 -->
<g id="node18" class="node"><title>17</title>
<text text-anchor="middle" x="153.5" y="-2877.2" font-family="Segoe UI" font-size="11.00" fill="#010509">InternalS3Query</text>
</g>
<!-- 0&#45;&gt;17 -->
<g id="edge17" class="edge"><title>0&#45;&gt;17</title>
<path fill="none" stroke="#69bfff" d="M28.0322,-1899.1C28.402,-2025.39 32.9997,-2772.03 90,-2853 94.6201,-2859.56 101.187,-2864.54 108.342,-2868.32"/>
<polygon fill="#69bfff" stroke="#69bfff" points="107.6,-2869.91 112.862,-2870.52 109.131,-2866.76 107.6,-2869.91"/>
</g>
<!-- 18 -->
<g id="node19" class="node"><title>18</title>
<text text-anchor="middle" x="153.5" y="-2823.2" font-family="Segoe UI" font-size="11.00" fill="#010509">Sect4Query</text>
</g>
<!-- 0&#45;&gt;18 -->
<g id="edge18" class="edge"><title>0&#45;&gt;18</title>
<path fill="none" stroke="#69bfff" d="M28.1055,-1899.26C28.9595,-2021.89 36.1833,-2722.85 90,-2799 96.8623,-2808.71 107.982,-2814.96 118.953,-2818.97"/>
<polygon fill="#69bfff" stroke="#69bfff" points="118.671,-2820.72 123.968,-2820.65 119.788,-2817.4 118.671,-2820.72"/>
</g>
<!-- 19 -->
<g id="node20" class="node"><title>19</title>
<text text-anchor="middle" x="153.5" y="-2769.2" font-family="Segoe UI" font-size="11.00" fill="#010509">ReferenceQuery</text>
</g>
<!-- 0&#45;&gt;19 -->
<g id="edge19" class="edge"><title>0&#45;&gt;19</title>
<path fill="none" stroke="#69bfff" d="M28.1879,-1899.32C29.5497,-2017.85 39.3469,-2673.65 90,-2745 94.6462,-2751.55 101.225,-2756.52 108.384,-2760.29"/>
<polygon fill="#69bfff" stroke="#69bfff" points="107.643,-2761.88 112.905,-2762.49 109.174,-2758.73 107.643,-2761.88"/>
</g>
<!-- 20 -->
<g id="node21" class="node"><title>20</title>
<text text-anchor="middle" x="153.5" y="-2715.2" font-family="Segoe UI" font-size="11.00" fill="#010509">ImageQuery</text>
</g>
<!-- 0&#45;&gt;20 -->
<g id="edge20" class="edge"><title>0&#45;&gt;20</title>
<path fill="none" stroke="#69bfff" d="M28.2799,-1899.27C30.172,-2013.27 42.4905,-2624.41 90,-2691 96.489,-2700.1 106.707,-2706.15 117.015,-2710.18"/>
<polygon fill="#69bfff" stroke="#69bfff" points="116.448,-2711.84 121.745,-2711.89 117.638,-2708.54 116.448,-2711.84"/>
</g>
<!-- 21 -->
<g id="node22" class="node"><title>21</title>
<text text-anchor="middle" x="153.5" y="-2661.2" font-family="Segoe UI" font-size="11.00" fill="#010509">EntryQuery</text>
</g>
<!-- 0&#45;&gt;21 -->
<g id="edge21" class="edge"><title>0&#45;&gt;21</title>
<path fill="none" stroke="#69bfff" d="M28.3819,-1899.1C30.8263,-2008.15 45.6139,-2575.14 90,-2637 97.115,-2646.92 108.657,-2653.22 119.899,-2657.22"/>
<polygon fill="#69bfff" stroke="#69bfff" points="119.388,-2658.9 124.684,-2658.8 120.483,-2655.57 119.388,-2658.9"/>
</g>
<!-- 22 -->
<g id="node23" class="node"><title>22</title>
<text text-anchor="middle" x="153.5" y="-2607.2" font-family="Segoe UI" font-size="11.00" fill="#010509">SectionDefQuery</text>
</g>
<!-- 0&#45;&gt;22 -->
<g id="edge22" class="edge"><title>0&#45;&gt;22</title>
<path fill="none" stroke="#69bfff" d="M28.504,-1899.15C31.5494,-2003.63 48.7617,-2525.91 90,-2583 93.971,-2588.5 99.3014,-2592.89 105.182,-2596.39"/>
<polygon fill="#69bfff" stroke="#69bfff" points="104.547,-2598.04 109.774,-2598.9 106.225,-2594.96 104.547,-2598.04"/>
</g>
<!-- 23 -->
<g id="node24" class="node"><title>23</title>
<text text-anchor="middle" x="153.5" y="-2553.2" font-family="Segoe UI" font-size="11.00" fill="#010509">BlockQuoteQuery</text>
</g>
<!-- 0&#45;&gt;23 -->
<g id="edge23" class="edge"><title>0&#45;&gt;23</title>
<path fill="none" stroke="#69bfff" d="M28.6408,-1899.03C32.3141,-1998.4 51.8824,-2476.63 90,-2529 93.641,-2534 98.4061,-2538.09 103.683,-2541.42"/>
<polygon fill="#69bfff" stroke="#69bfff" points="103.019,-2543.06 108.223,-2544.05 104.772,-2540.03 103.019,-2543.06"/>
</g>
<!-- 24 -->
<g id="node25" class="node"><title>24</title>
<text text-anchor="middle" x="153.5" y="-2499.2" font-family="Segoe UI" font-size="11.00" fill="#010509">LinkedTextQuery</text>
</g>
<!-- 0&#45;&gt;24 -->
<g id="edge24" class="edge"><title>0&#45;&gt;24</title>
<path fill="none" stroke="#69bfff" d="M28.8072,-1899.05C33.1676,-1993.41 55.014,-2427.37 90,-2475 94.2638,-2480.81 100.039,-2485.38 106.365,-2488.97"/>
<polygon fill="#69bfff" stroke="#69bfff" points="105.579,-2490.54 110.82,-2491.31 107.205,-2487.44 105.579,-2490.54"/>
</g>
<!-- 25 -->
<g id="node26" class="node"><title>25</title>
<text text-anchor="middle" x="153.5" y="-2445.2" font-family="Segoe UI" font-size="11.00" fill="#010509">VarListEntryQuery</text>
</g>
<!-- 0&#45;&gt;25 -->
<g id="edge25" class="edge"><title>0&#45;&gt;25</title>
<path fill="none" stroke="#69bfff" d="M27.7233,-1899.09C26.7796,-1983.22 26.7147,-2335.76 90,-2421 93.6882,-2425.97 98.4811,-2430.03 103.773,-2433.36"/>
<polygon fill="#69bfff" stroke="#69bfff" points="103.116,-2435 108.322,-2435.98 104.863,-2431.96 103.116,-2435"/>
</g>
<!-- 26 -->
<g id="node27" class="node"><title>26</title>
<text text-anchor="middle" x="153.5" y="-2391.2" font-family="Segoe UI" font-size="11.00" fill="#010509">TitleQuery</text>
</g>
<!-- 0&#45;&gt;26 -->
<g id="edge26" class="edge"><title>0&#45;&gt;26</title>
<path fill="none" stroke="#69bfff" d="M27.982,-1899.1C28.2446,-1977.98 32.9219,-2291.13 90,-2367 97.6474,-2377.17 109.911,-2383.56 121.558,-2387.55"/>
<polygon fill="#69bfff" stroke="#69bfff" points="121.202,-2389.27 126.497,-2389.12 122.261,-2385.94 121.202,-2389.27"/>
</g>
<!-- 27 -->
<g id="node28" class="node"><title>27</title>
<text text-anchor="middle" x="153.5" y="-2337.2" font-family="Segoe UI" font-size="11.00" fill="#010509">ParBlockQuery</text>
</g>
<!-- 0&#45;&gt;27 -->
<g id="edge27" class="edge"><title>0&#45;&gt;27</title>
<path fill="none" stroke="#69bfff" d="M28.3082,-1899.29C29.8889,-1972.86 39.1463,-2246.49 90,-2313 95.3509,-2320 102.884,-2325.21 110.874,-2329.08"/>
<polygon fill="#69bfff" stroke="#69bfff" points="110.614,-2330.88 115.893,-2331.32 112.042,-2327.69 110.614,-2330.88"/>
</g>
<!-- 28 -->
<g id="node29" class="node"><title>28</title>
<text text-anchor="middle" x="153.5" y="-2283.2" font-family="Segoe UI" font-size="11.00" fill="#010509">EmptyQuery</text>
</g>
<!-- 0&#45;&gt;28 -->
<g id="edge28" class="edge"><title>0&#45;&gt;28</title>
<path fill="none" stroke="#69bfff" d="M28.7236,-1899.27C31.7365,-1966.85 45.2949,-2201.73 90,-2259 96.7503,-2267.65 106.821,-2273.57 116.917,-2277.62"/>
<polygon fill="#69bfff" stroke="#69bfff" points="116.565,-2279.35 121.861,-2279.45 117.783,-2276.07 116.565,-2279.35"/>
</g>
<!-- 29 -->
<g id="node30" class="node"><title>29</title>
<text text-anchor="middle" x="153.5" y="-2229.2" font-family="Segoe UI" font-size="11.00" fill="#010509">MemberIndexQuery</text>
</g>
<!-- 0&#45;&gt;29 -->
<g id="edge29" class="edge"><title>0&#45;&gt;29</title>
<path fill="none" stroke="#69bfff" d="M29.2651,-1899.15C33.8484,-1960.18 51.388,-2156.86 90,-2205 92.4406,-2208.04 95.2906,-2210.75 98.4038,-2213.16"/>
<polygon fill="#69bfff" stroke="#69bfff" points="97.7039,-2214.8 102.798,-2216.26 99.7214,-2211.94 97.7039,-2214.8"/>
</g>
<!-- 30 -->
<g id="node31" class="node"><title>30</title>
<text text-anchor="middle" x="153.5" y="-2175.2" font-family="Segoe UI" font-size="11.00" fill="#010509">Sect3Query</text>
</g>
<!-- 0&#45;&gt;30 -->
<g id="edge30" class="edge"><title>0&#45;&gt;30</title>
<path fill="none" stroke="#69bfff" d="M30.0187,-1899.1C36.3667,-1953.12 57.4546,-2111.92 90,-2151 97.4117,-2159.9 108.307,-2165.94 118.933,-2170.01"/>
<polygon fill="#69bfff" stroke="#69bfff" points="118.485,-2171.71 123.782,-2171.75 119.663,-2168.41 118.485,-2171.71"/>
</g>
<!-- 31 -->
<g id="node32" class="node"><title>31</title>
<text text-anchor="middle" x="153.5" y="-2121.2" font-family="Segoe UI" font-size="11.00" fill="#010509">InternalS4Query</text>
</g>
<!-- 0&#45;&gt;31 -->
<g id="edge31" class="edge"><title>0&#45;&gt;31</title>
<path fill="none" stroke="#69bfff" d="M28.2058,-1899.07C29.616,-1939.53 38.4749,-2038.4 90,-2097 94.9465,-2102.63 101.274,-2107.12 107.996,-2110.7"/>
<polygon fill="#69bfff" stroke="#69bfff" points="107.444,-2112.38 112.701,-2113.03 109,-2109.24 107.444,-2112.38"/>
</g>
<!-- 32 -->
<g id="node33" class="node"><title>32</title>
<text text-anchor="middle" x="153.5" y="-2067.2" font-family="Segoe UI" font-size="11.00" fill="#010509">NodeQuery</text>
</g>
<!-- 0&#45;&gt;32 -->
<g id="edge32" class="edge"><title>0&#45;&gt;32</title>
<path fill="none" stroke="#69bfff" d="M30.3028,-1899.26C35.3531,-1932.1 50.301,-2001.59 90,-2043 97.8024,-2051.14 108.468,-2056.96 118.78,-2061.06"/>
<polygon fill="#69bfff" stroke="#69bfff" points="118.185,-2062.71 123.481,-2062.83 119.416,-2059.43 118.185,-2062.71"/>
</g>
<!-- 33 -->
<g id="node34" class="node"><title>33</title>
<text text-anchor="middle" x="153.5" y="-2013.2" font-family="Segoe UI" font-size="11.00" fill="#010509">ParaQuery</text>
</g>
<!-- 0&#45;&gt;33 -->
<g id="edge33" class="edge"><title>0&#45;&gt;33</title>
<path fill="none" stroke="#69bfff" d="M34.2158,-1899.03C43.1657,-1922.59 61.7741,-1963.81 90,-1989 98.9468,-1996.99 110.619,-2002.88 121.451,-2007.09"/>
<polygon fill="#69bfff" stroke="#69bfff" points="121.06,-2008.81 126.356,-2008.91 122.276,-2005.53 121.06,-2008.81"/>
</g>
<!-- 34 -->
<g id="node35" class="node"><title>34</title>
<text text-anchor="middle" x="153.5" y="-1959.2" font-family="Segoe UI" font-size="11.00" fill="#010509">InternalS2Query</text>
</g>
<!-- 0&#45;&gt;34 -->
<g id="edge34" class="edge"><title>0&#45;&gt;34</title>
<path fill="none" stroke="#69bfff" d="M45.7953,-1899.16C57.5877,-1910.49 73.8162,-1924.8 90,-1935 95.6583,-1938.56 101.868,-1941.87 108.11,-1944.86"/>
<polygon fill="#69bfff" stroke="#69bfff" points="107.609,-1946.56 112.88,-1947.09 109.088,-1943.39 107.609,-1946.56"/>
</g>
<!-- 35 -->
<g id="node36" class="node"><title>35</title>
<text text-anchor="middle" x="153.5" y="-1905.2" font-family="Segoe UI" font-size="11.00" fill="#010509">Sect1Query</text>
</g>
<!-- 0&#45;&gt;35 -->
<g id="edge35" class="edge"><title>0&#45;&gt;35</title>
<path fill="none" stroke="#69bfff" d="M54.0993,-1886.66C72.8989,-1890.74 98.4303,-1896.27 118.775,-1900.69"/>
<polygon fill="#69bfff" stroke="#69bfff" points="118.571,-1902.43 123.829,-1901.78 119.313,-1899.01 118.571,-1902.43"/>
</g>
<!-- 36 -->
<g id="node37" class="node"><title>36</title>
<text text-anchor="middle" x="153.5" y="-1851.2" font-family="Segoe UI" font-size="11.00" fill="#010509">HeadingQuery</text>
</g>
<!-- 0&#45;&gt;36 -->
<g id="edge36" class="edge"><title>0&#45;&gt;36</title>
<path fill="none" stroke="#69bfff" d="M54.0993,-1875.34C70.3932,-1871.81 91.7441,-1867.18 110.392,-1863.13"/>
<polygon fill="#69bfff" stroke="#69bfff" points="111.058,-1864.78 115.574,-1862.01 110.316,-1861.36 111.058,-1864.78"/>
</g>
<!-- 37 -->
<g id="node38" class="node"><title>37</title>
<text text-anchor="middle" x="153.5" y="-1797.2" font-family="Segoe UI" font-size="11.00" fill="#010509">RefTextQuery</text>
</g>
<!-- 0&#45;&gt;37 -->
<g id="edge37" class="edge"><title>0&#45;&gt;37</title>
<path fill="none" stroke="#69bfff" d="M45.7953,-1862.84C57.5877,-1851.51 73.8162,-1837.2 90,-1827 97.371,-1822.36 105.678,-1818.15 113.772,-1814.51"/>
<polygon fill="#69bfff" stroke="#69bfff" points="114.895,-1815.93 118.773,-1812.32 113.491,-1812.72 114.895,-1815.93"/>
</g>
<!-- 38 -->
<g id="node39" class="node"><title>38</title>
<text text-anchor="middle" x="153.5" y="-1743.2" font-family="Segoe UI" font-size="11.00" fill="#010509">MarkupQuery</text>
</g>
<!-- 0&#45;&gt;38 -->
<g id="edge38" class="edge"><title>0&#45;&gt;38</title>
<path fill="none" stroke="#69bfff" d="M34.2158,-1862.97C43.1657,-1839.41 61.7741,-1798.19 90,-1773 96.9193,-1766.82 105.469,-1761.9 113.999,-1758.03"/>
<polygon fill="#69bfff" stroke="#69bfff" points="114.827,-1759.58 118.726,-1756 113.442,-1756.37 114.827,-1759.58"/>
</g>
<!-- 39 -->
<g id="node40" class="node"><title>39</title>
<text text-anchor="middle" x="153.5" y="-1689.2" font-family="Segoe UI" font-size="11.00" fill="#010509">MemberDefQuery</text>
</g>
<!-- 0&#45;&gt;39 -->
<g id="edge39" class="edge"><title>0&#45;&gt;39</title>
<path fill="none" stroke="#69bfff" d="M30.3028,-1862.74C35.3531,-1829.9 50.301,-1760.41 90,-1719 93.7574,-1715.08 98.1789,-1711.7 102.905,-1708.79"/>
<polygon fill="#69bfff" stroke="#69bfff" points="103.862,-1710.25 107.321,-1706.24 102.115,-1707.22 103.862,-1710.25"/>
</g>
<!-- 40 -->
<g id="node41" class="node"><title>40</title>
<text text-anchor="middle" x="153.5" y="-1635.2" font-family="Segoe UI" font-size="11.00" fill="#010509">InternalQuery</text>
</g>
<!-- 0&#45;&gt;40 -->
<g id="edge40" class="edge"><title>0&#45;&gt;40</title>
<path fill="none" stroke="#69bfff" d="M28.2058,-1862.93C29.616,-1822.47 38.4749,-1723.6 90,-1665 96.388,-1657.74 105.08,-1652.36 113.949,-1648.4"/>
<polygon fill="#69bfff" stroke="#69bfff" points="114.939,-1649.88 118.881,-1646.34 113.593,-1646.65 114.939,-1649.88"/>
</g>
<!-- 41 -->
<g id="node42" class="node"><title>41</title>
<text text-anchor="middle" x="153.5" y="-1581.2" font-family="Segoe UI" font-size="11.00" fill="#010509">ParamListItemQuery</text>
</g>
<!-- 0&#45;&gt;41 -->
<g id="edge41" class="edge"><title>0&#45;&gt;41</title>
<path fill="none" stroke="#69bfff" d="M30.0187,-1862.9C36.3667,-1808.88 57.4546,-1650.08 90,-1611 92.392,-1608.13 95.1468,-1605.55 98.1382,-1603.25"/>
<polygon fill="#69bfff" stroke="#69bfff" points="99.282,-1604.58 102.352,-1600.26 97.2601,-1601.72 99.282,-1604.58"/>
</g>
<!-- 42 -->
<g id="node43" class="node"><title>42</title>
<text text-anchor="middle" x="153.5" y="-1527.2" font-family="Segoe UI" font-size="11.00" fill="#010509">XRefSectQuery</text>
</g>
<!-- 0&#45;&gt;42 -->
<g id="edge42" class="edge"><title>0&#45;&gt;42</title>
<path fill="none" stroke="#69bfff" d="M29.2651,-1862.85C33.8484,-1801.82 51.388,-1605.14 90,-1557 95.3897,-1550.28 102.776,-1545.2 110.584,-1541.37"/>
<polygon fill="#69bfff" stroke="#69bfff" points="111.659,-1542.8 115.487,-1539.14 110.211,-1539.61 111.659,-1542.8"/>
</g>
<!-- 43 -->
<g id="node44" class="node"><title>43</title>
<text text-anchor="middle" x="153.5" y="-1473.2" font-family="Segoe UI" font-size="11.00" fill="#010509">ListOfAllMembersQuery</text>
</g>
<!-- 0&#45;&gt;43 -->
<g id="edge43" class="edge"><title>0&#45;&gt;43</title>
<path fill="none" stroke="#69bfff" d="M28.7236,-1862.73C31.7365,-1795.15 45.2949,-1560.27 90,-1503 91.5546,-1501.01 93.2853,-1499.16 95.1519,-1497.45"/>
<polygon fill="#69bfff" stroke="#69bfff" points="96.4339,-1498.66 99.1613,-1494.12 94.1971,-1495.97 96.4339,-1498.66"/>
</g>
<!-- 44 -->
<g id="node45" class="node"><title>44</title>
<text text-anchor="middle" x="153.5" y="-1419.2" font-family="Segoe UI" font-size="11.00" fill="#010509">TemplateParamListQuery</text>
</g>
<!-- 0&#45;&gt;44 -->
<g id="edge44" class="edge"><title>0&#45;&gt;44</title>
<path fill="none" stroke="#69bfff" d="M28.3082,-1862.71C29.8889,-1789.14 39.1463,-1515.51 90,-1449 91.5346,-1446.99 93.2486,-1445.13 95.1015,-1443.41"/>
<polygon fill="#69bfff" stroke="#69bfff" points="96.3853,-1444.62 99.0866,-1440.06 94.1331,-1441.94 96.3853,-1444.62"/>
</g>
<!-- 45 -->
<g id="node46" class="node"><title>45</title>
<text text-anchor="middle" x="153.5" y="-1365.2" font-family="Segoe UI" font-size="11.00" fill="#010509">DescriptionQuery</text>
</g>
<!-- 0&#45;&gt;45 -->
<g id="edge45" class="edge"><title>0&#45;&gt;45</title>
<path fill="none" stroke="#69bfff" d="M27.982,-1862.9C28.2446,-1784.02 32.9219,-1470.87 90,-1395 93.7749,-1389.98 98.6745,-1385.88 104.07,-1382.54"/>
<polygon fill="#69bfff" stroke="#69bfff" points="105.223,-1383.9 108.704,-1379.9 103.493,-1380.86 105.223,-1383.9"/>
</g>
<!-- 46 -->
<g id="node47" class="node"><title>46</title>
<text text-anchor="middle" x="153.5" y="-1311.2" font-family="Segoe UI" font-size="11.00" fill="#010509">Sect2Query</text>
</g>
<!-- 0&#45;&gt;46 -->
<g id="edge46" class="edge"><title>0&#45;&gt;46</title>
<path fill="none" stroke="#69bfff" d="M27.7233,-1862.91C26.7796,-1778.78 26.7147,-1426.24 90,-1341 97.0268,-1331.54 108.064,-1325.35 118.92,-1321.32"/>
<polygon fill="#69bfff" stroke="#69bfff" points="119.719,-1322.9 123.88,-1319.62 118.583,-1319.59 119.719,-1322.9"/>
</g>
<!-- 47 -->
<g id="node48" class="node"><title>47</title>
<text text-anchor="middle" x="153.5" y="-1257.2" font-family="Segoe UI" font-size="11.00" fill="#010509">InternalS1Query</text>
</g>
<!-- 0&#45;&gt;47 -->
<g id="edge47" class="edge"><title>0&#45;&gt;47</title>
<path fill="none" stroke="#69bfff" d="M28.8072,-1862.95C33.1676,-1768.59 55.014,-1334.63 90,-1287 94.605,-1280.73 100.973,-1275.9 107.893,-1272.18"/>
<polygon fill="#69bfff" stroke="#69bfff" points="109.047,-1273.57 112.757,-1269.78 107.499,-1270.43 109.047,-1273.57"/>
</g>
<!-- 48 -->
<g id="node49" class="node"><title>48</title>
<text text-anchor="middle" x="153.5" y="-1203.2" font-family="Segoe UI" font-size="11.00" fill="#010509">ListQuery</text>
</g>
<!-- 0&#45;&gt;48 -->
<g id="edge48" class="edge"><title>0&#45;&gt;48</title>
<path fill="none" stroke="#69bfff" d="M28.6408,-1862.97C32.3141,-1763.6 51.8824,-1285.37 90,-1233 97.4864,-1222.71 109.725,-1216.31 121.396,-1212.33"/>
<polygon fill="#69bfff" stroke="#69bfff" points="122.104,-1213.94 126.348,-1210.77 121.053,-1210.6 122.104,-1213.94"/>
</g>
<!-- 49 -->
<g id="node50" class="node"><title>49</title>
<text text-anchor="middle" x="153.5" y="-1149.2" font-family="Segoe UI" font-size="11.00" fill="#010509">ParamListQuery</text>
</g>
<!-- 0&#45;&gt;49 -->
<g id="edge49" class="edge"><title>0&#45;&gt;49</title>
<path fill="none" stroke="#69bfff" d="M28.504,-1862.85C31.5494,-1758.37 48.7617,-1236.09 90,-1179 94.7572,-1172.41 101.465,-1167.42 108.734,-1163.63"/>
<polygon fill="#69bfff" stroke="#69bfff" points="109.571,-1165.17 113.32,-1161.43 108.055,-1162.02 109.571,-1165.17"/>
</g>
<!-- 50 -->
<g id="node51" class="node"><title>50</title>
<text text-anchor="middle" x="153.5" y="-1095.2" font-family="Segoe UI" font-size="11.00" fill="#010509">CodeLineQuery</text>
</g>
<!-- 0&#45;&gt;50 -->
<g id="edge50" class="edge"><title>0&#45;&gt;50</title>
<path fill="none" stroke="#69bfff" d="M28.3819,-1862.9C30.8263,-1753.85 45.6139,-1186.86 90,-1125 94.9077,-1118.16 101.922,-1113.04 109.491,-1109.2"/>
<polygon fill="#69bfff" stroke="#69bfff" points="110.469,-1110.68 114.261,-1106.98 108.99,-1107.51 110.469,-1110.68"/>
</g>
<!-- 51 -->
<g id="node52" class="node"><title>51</title>
<text text-anchor="middle" x="153.5" y="-1041.2" font-family="Segoe UI" font-size="11.00" fill="#010509">CaptionQuery</text>
</g>
<!-- 0&#45;&gt;51 -->
<g id="edge51" class="edge"><title>0&#45;&gt;51</title>
<path fill="none" stroke="#69bfff" d="M28.2799,-1862.73C30.172,-1748.73 42.4905,-1137.59 90,-1071 95.6185,-1063.12 104.033,-1057.53 112.881,-1053.55"/>
<polygon fill="#69bfff" stroke="#69bfff" points="113.874,-1055.03 117.826,-1051.51 112.536,-1051.8 113.874,-1055.03"/>
</g>
<!-- 52 -->
<g id="node53" class="node"><title>52</title>
<text text-anchor="middle" x="153.5" y="-987.2" font-family="Segoe UI" font-size="11.00" fill="#010509">TocItemQuery</text>
</g>
<!-- 0&#45;&gt;52 -->
<g id="edge52" class="edge"><title>0&#45;&gt;52</title>
<path fill="none" stroke="#69bfff" d="M28.1879,-1862.68C29.5497,-1744.15 39.3469,-1088.35 90,-1017 95.542,-1009.19 103.834,-1003.62 112.581,-999.657"/>
<polygon fill="#69bfff" stroke="#69bfff" points="113.533,-1001.16 117.473,-997.614 112.184,-997.926 113.533,-1001.16"/>
</g>
<!-- 53 -->
<g id="node54" class="node"><title>53</title>
<text text-anchor="middle" x="153.5" y="-933.2" font-family="Segoe UI" font-size="11.00" fill="#010509">CopyQuery</text>
</g>
<!-- 0&#45;&gt;53 -->
<g id="edge53" class="edge"><title>0&#45;&gt;53</title>
<path fill="none" stroke="#69bfff" d="M28.1055,-1862.74C28.9595,-1740.11 36.1833,-1039.15 90,-963 97.1032,-952.949 108.768,-946.608 120.108,-942.621"/>
<polygon fill="#69bfff" stroke="#69bfff" points="120.72,-944.262 124.934,-941.052 119.638,-940.934 120.72,-944.262"/>
</g>
<!-- 54 -->
<g id="node55" class="node"><title>54</title>
<text text-anchor="middle" x="153.5" y="-879.2" font-family="Segoe UI" font-size="11.00" fill="#010509">LocationQuery</text>
</g>
<!-- 0&#45;&gt;54 -->
<g id="edge54" class="edge"><title>0&#45;&gt;54</title>
<path fill="none" stroke="#69bfff" d="M28.0322,-1862.9C28.402,-1736.61 32.9997,-989.975 90,-909 95.224,-901.579 102.937,-896.18 111.175,-892.259"/>
<polygon fill="#69bfff" stroke="#69bfff" points="111.921,-893.843 115.794,-890.229 110.512,-890.639 111.921,-893.843"/>
</g>
<!-- 55 -->
<g id="node56" class="node"><title>55</title>
<text text-anchor="middle" x="153.5" y="-825.2" font-family="Segoe UI" font-size="11.00" fill="#010509">GraphQuery</text>
</g>
<!-- 0&#45;&gt;55 -->
<g id="edge55" class="edge"><title>0&#45;&gt;55</title>
<path fill="none" stroke="#69bfff" d="M27.9675,-1862.74C27.8817,-1731.97 29.8604,-940.739 90,-855 96.5335,-845.685 106.99,-839.558 117.496,-835.538"/>
<polygon fill="#69bfff" stroke="#69bfff" points="118.181,-837.152 122.312,-833.836 117.015,-833.852 118.181,-837.152"/>
</g>
<!-- 56 -->
<g id="node57" class="node"><title>56</title>
<text text-anchor="middle" x="153.5" y="-771.2" font-family="Segoe UI" font-size="11.00" fill="#010509">ParamNameQuery</text>
</g>
<!-- 0&#45;&gt;56 -->
<g id="edge56" class="edge"><title>0&#45;&gt;56</title>
<path fill="none" stroke="#69bfff" d="M27.9085,-1862.65C27.3832,-1727.69 26.7078,-891.523 90,-801 93.2669,-796.328 97.5215,-792.457 102.276,-789.253"/>
<polygon fill="#69bfff" stroke="#69bfff" points="103.424,-790.602 106.768,-786.493 101.592,-787.619 103.424,-790.602"/>
</g>
<!-- 57 -->
<g id="node58" class="node"><title>57</title>
<text text-anchor="middle" x="153.5" y="-717.2" font-family="Segoe UI" font-size="11.00" fill="#010509">CompoundRefQuery</text>
</g>
<!-- 0&#45;&gt;57 -->
<g id="edge57" class="edge"><title>0&#45;&gt;57</title>
<path fill="none" stroke="#69bfff" d="M27.8549,-1862.63C26.9068,-1723.77 23.542,-842.327 90,-747 91.9962,-744.137 94.3636,-741.575 96.9899,-739.282"/>
<polygon fill="#69bfff" stroke="#69bfff" points="98.4552,-740.358 101.314,-735.898 96.298,-737.602 98.4552,-740.358"/>
</g>
<!-- 58 -->
<g id="node59" class="node"><title>58</title>
<text text-anchor="middle" x="153.5" y="-663.2" font-family="Segoe UI" font-size="11.00" fill="#010509">IndexEntryQuery</text>
</g>
<!-- 0&#45;&gt;58 -->
<g id="edge58" class="edge"><title>0&#45;&gt;58</title>
<path fill="none" stroke="#69bfff" d="M27.8067,-1862.67C26.4526,-1720.22 20.3629,-793.152 90,-693 94.2216,-686.929 100.112,-682.212 106.605,-678.551"/>
<polygon fill="#69bfff" stroke="#69bfff" points="107.547,-680.034 111.182,-676.181 105.937,-676.926 107.547,-680.034"/>
</g>
<!-- 59 -->
<g id="node60" class="node"><title>59</title>
<text text-anchor="middle" x="153.5" y="-609.2" font-family="Segoe UI" font-size="11.00" fill="#010509">ParamNameListQuery</text>
</g>
<!-- 0&#45;&gt;59 -->
<g id="edge59" class="edge"><title>0&#45;&gt;59</title>
<path fill="none" stroke="#69bfff" d="M28.3618,-1862.83C31.404,-1713.44 53.5084,-691.609 90,-639 91.4,-636.982 92.9845,-635.113 94.7144,-633.383"/>
<polygon fill="#69bfff" stroke="#69bfff" points="95.905,-634.666 98.4569,-630.024 93.5671,-632.062 95.905,-634.666"/>
</g>
<!-- 60 -->
<g id="node61" class="node"><title>60</title>
<text text-anchor="middle" x="153.5" y="-555.2" font-family="Segoe UI" font-size="11.00" fill="#010509">MemberRefQuery</text>
</g>
<!-- 0&#45;&gt;60 -->
<g id="edge60" class="edge"><title>0&#45;&gt;60</title>
<path fill="none" stroke="#69bfff" d="M28.3283,-1862.54C31.1367,-1708.4 51.9426,-639.988 90,-585 93.5735,-579.837 98.3555,-575.654 103.69,-572.266"/>
<polygon fill="#69bfff" stroke="#69bfff" points="104.837,-573.624 108.287,-569.604 103.083,-570.596 104.837,-573.624"/>
</g>
<!-- 61 -->
<g id="node62" class="node"><title>61</title>
<text text-anchor="middle" x="153.5" y="-501.2" font-family="Segoe UI" font-size="11.00" fill="#010509">TocListQuery</text>
</g>
<!-- 0&#45;&gt;61 -->
<g id="edge61" class="edge"><title>0&#45;&gt;61</title>
<path fill="none" stroke="#69bfff" d="M28.2881,-1862.77C30.8339,-1705.91 50.3318,-588.432 90,-531 96.0614,-522.224 105.615,-516.28 115.445,-512.263"/>
<polygon fill="#69bfff" stroke="#69bfff" points="116.218,-513.842 120.28,-510.441 114.984,-510.567 116.218,-513.842"/>
</g>
<!-- 62 -->
<g id="node63" class="node"><title>62</title>
<text text-anchor="middle" x="153.5" y="-447.2" font-family="Segoe UI" font-size="11.00" fill="#010509">CompoundIndexQuery</text>
</g>
<!-- 0&#45;&gt;62 -->
<g id="edge62" class="edge"><title>0&#45;&gt;62</title>
<path fill="none" stroke="#69bfff" d="M28.2544,-1862.8C30.5614,-1702.57 48.7361,-536.855 90,-477 91.3942,-474.978 92.9739,-473.106 94.6997,-471.373"/>
<polygon fill="#69bfff" stroke="#69bfff" points="95.891,-472.655 98.4351,-468.009 93.5486,-470.055 95.891,-472.655"/>
</g>
<!-- 63 -->
<g id="node64" class="node"><title>63</title>
<text text-anchor="middle" x="153.5" y="-393.2" font-family="Segoe UI" font-size="11.00" fill="#010509">UrlLinkQuery</text>
</g>
<!-- 0&#45;&gt;63 -->
<g id="edge63" class="edge"><title>0&#45;&gt;63</title>
<path fill="none" stroke="#69bfff" d="M28.2227,-1862.88C30.2973,-1699.53 47.1355,-485.286 90,-423 96.0465,-414.214 105.596,-408.267 115.427,-404.25"/>
<polygon fill="#69bfff" stroke="#69bfff" points="116.199,-405.829 120.262,-402.428 114.966,-402.553 116.199,-405.829"/>
</g>
<!-- 64 -->
<g id="node65" class="node"><title>64</title>
<text text-anchor="middle" x="153.5" y="-339.2" font-family="Segoe UI" font-size="11.00" fill="#010509">ReimplementQuery</text>
</g>
<!-- 0&#45;&gt;64 -->
<g id="edge64" class="edge"><title>0&#45;&gt;64</title>
<path fill="none" stroke="#69bfff" d="M28.1959,-1862.74C30.0579,-1695.45 45.5532,-433.69 90,-369 92.5979,-365.219 95.8447,-361.964 99.4839,-359.162"/>
<polygon fill="#69bfff" stroke="#69bfff" points="100.815,-360.368 103.921,-356.077 98.8167,-357.494 100.815,-360.368"/>
</g>
<!-- 65 -->
<g id="node66" class="node"><title>65</title>
<text text-anchor="middle" x="153.5" y="-285.2" font-family="Segoe UI" font-size="11.00" fill="#010509">DoxygenIndexQuery</text>
</g>
<!-- 0&#45;&gt;65 -->
<g id="edge65" class="edge"><title>0&#45;&gt;65</title>
<path fill="none" stroke="#69bfff" d="M28.1678,-1862.89C29.8093,-1692.93 43.9436,-382.134 90,-315 92.1606,-311.851 94.7715,-309.066 97.6846,-306.604"/>
<polygon fill="#69bfff" stroke="#69bfff" points="98.9151,-307.867 101.83,-303.444 96.7931,-305.084 98.9151,-307.867"/>
</g>
<!-- 66 -->
<g id="node67" class="node"><title>66</title>
<text text-anchor="middle" x="153.5" y="-231.2" font-family="Segoe UI" font-size="11.00" fill="#010509">ListItemQuery</text>
</g>
<!-- 0&#45;&gt;66 -->
<g id="edge66" class="edge"><title>0&#45;&gt;66</title>
<path fill="none" stroke="#69bfff" d="M28.1437,-1862.82C29.5826,-1689.28 42.3539,-330.55 90,-261 95.5237,-252.937 104,-247.266 112.944,-243.283"/>
<polygon fill="#69bfff" stroke="#69bfff" points="113.979,-244.75 117.946,-241.239 112.656,-241.51 113.979,-244.75"/>
</g>
<!-- 67 -->
<g id="node68" class="node"><title>67</title>
<text text-anchor="middle" x="153.5" y="-177.2" font-family="Segoe UI" font-size="11.00" fill="#010509">RowQuery</text>
</g>
<!-- 0&#45;&gt;67 -->
<g id="edge67" class="edge"><title>0&#45;&gt;67</title>
<path fill="none" stroke="#69bfff" d="M28.1209,-1862.77C29.3616,-1685.82 40.761,-278.97 90,-207 97.2415,-196.416 109.572,-189.953 121.376,-186.02"/>
<polygon fill="#69bfff" stroke="#69bfff" points="122.119,-187.623 126.387,-184.484 121.093,-184.276 122.119,-187.623"/>
</g>
<!-- 68 -->
<g id="node69" class="node"><title>68</title>
<text text-anchor="middle" x="153.5" y="-123.2" font-family="Segoe UI" font-size="11.00" fill="#010509">CompoundDefQuery</text>
</g>
<!-- 0&#45;&gt;68 -->
<g id="edge68" class="edge"><title>0&#45;&gt;68</title>
<path fill="none" stroke="#69bfff" d="M28.0992,-1862.75C29.1463,-1682.56 39.1648,-227.395 90,-153 91.9255,-150.182 94.2118,-147.656 96.753,-145.393"/>
<polygon fill="#69bfff" stroke="#69bfff" points="98.1268,-146.535 100.941,-142.047 95.9422,-143.801 98.1268,-146.535"/>
</g>
<!-- 69 -->
<g id="node70" class="node"><title>69</title>
<text text-anchor="middle" x="153.5" y="-69.2" font-family="Segoe UI" font-size="11.00" fill="#010509">IncQuery</text>
</g>
<!-- 0&#45;&gt;69 -->
<g id="edge69" class="edge"><title>0&#45;&gt;69</title>
<path fill="none" stroke="#69bfff" d="M28.0787,-1862.75C28.9367,-1679.49 37.5653,-175.826 90,-99 97.2296,-88.4074 109.558,-81.9437 121.364,-78.0117"/>
<polygon fill="#69bfff" stroke="#69bfff" points="122.107,-79.6144 126.376,-76.4769 121.082,-76.2678 122.107,-79.6144"/>
</g>
<!-- 70 -->
<g id="node71" class="node"><title>70</title>
<text text-anchor="middle" x="153.5" y="-15.2" font-family="Segoe UI" font-size="11.00" fill="#010509">EnumValueQuery</text>
</g>
<!-- 0&#45;&gt;70 -->
<g id="edge70" class="edge"><title>0&#45;&gt;70</title>
<path fill="none" stroke="#69bfff" d="M28.0593,-1862.79C28.7328,-1676.61 35.9626,-124.261 90,-45 93.8732,-39.3188 99.2134,-34.8254 105.154,-31.2733"/>
<polygon fill="#69bfff" stroke="#69bfff" points="106.25,-32.6689 109.799,-28.7364 104.572,-29.5971 106.25,-32.6689"/>
</g>
</g>
</svg>
