<?xml version="1.0" encoding="UTF-8" standalone="no"?>
<!DOCTYPE svg PUBLIC "-//W3C//DTD SVG 1.1//EN"
 "http://www.w3.org/Graphics/SVG/1.1/DTD/svg11.dtd">
<!-- Generated by graphviz version 2.38.0 (20140413.2041)
 -->
<!-- Title: %3 Pages: 1 -->
<svg width="134pt" height="260pt"
 viewBox="0.00 0.00 134.00 260.00" xmlns="http://www.w3.org/2000/svg" xmlns:xlink="http://www.w3.org/1999/xlink">
<g id="graph0" class="graph" transform="scale(1 1) rotate(0) translate(4 256)">
<title>%3</title>
<polygon fill="none" stroke="none" points="-4,4 -4,-256 130,-256 130,4 -4,4"/>
<!-- 0 -->
<g id="node1" class="node"><title>0</title>
<text text-anchor="middle" x="63" y="-231.2" font-family="Segoe UI" font-size="11.00" fill="#222222">Writer</text>
</g>
<!-- 1 -->
<g id="node2" class="node"><title>1</title>
<text text-anchor="middle" x="63" y="-159.2" font-family="Segoe UI" font-size="11.00" fill="#222222">Object</text>
</g>
<!-- 0&#45;&gt;1 -->
<g id="edge4" class="edge"><title>0&#45;&gt;1</title>
<path fill="none" stroke="#606ee0" d="M63,-215.697C63,-205.694 63,-193.074 63,-182.693"/>
<polygon fill="#606ee0" stroke="#606ee0" points="63.8751,-182.604 63,-180.104 62.1251,-182.604 63.8751,-182.604"/>
</g>
<!-- 2 -->
<g id="node3" class="node"><title>2</title>
<text text-anchor="middle" x="27" y="-87.2" font-family="Segoe UI" font-size="11.00" fill="#222222">Group</text>
</g>
<!-- 1&#45;&gt;2 -->
<g id="edge2" class="edge"><title>1&#45;&gt;2</title>
<path fill="none" stroke="#606ee0" d="M54.1011,-143.697C48.9133,-133.609 42.3567,-120.86 36.9921,-110.429"/>
<polygon fill="#606ee0" stroke="#606ee0" points="37.7181,-109.927 35.7965,-108.104 36.1618,-110.728 37.7181,-109.927"/>
</g>
<!-- 4 -->
<g id="node5" class="node"><title>4</title>
<text text-anchor="middle" x="99" y="-87.2" font-family="Segoe UI" font-size="11.00" fill="#222222">Simple</text>
</g>
<!-- 1&#45;&gt;4 -->
<g id="edge3" class="edge"><title>1&#45;&gt;4</title>
<path fill="none" stroke="#606ee0" d="M71.8989,-143.697C77.0867,-133.609 83.6433,-120.86 89.0079,-110.429"/>
<polygon fill="#606ee0" stroke="#606ee0" points="89.8382,-110.728 90.2035,-108.104 88.2819,-109.927 89.8382,-110.728"/>
</g>
<!-- 3 -->
<g id="node4" class="node"><title>3</title>
<text text-anchor="middle" x="27" y="-15.2" font-family="Segoe UI" font-size="11.00" fill="#222222">Complex</text>
</g>
<!-- 2&#45;&gt;3 -->
<g id="edge1" class="edge"><title>2&#45;&gt;3</title>
<path fill="none" stroke="#606ee0" d="M27,-71.6966C27,-61.694 27,-49.0744 27,-38.6926"/>
<polygon fill="#606ee0" stroke="#606ee0" points="27.8751,-38.6043 27,-36.1043 26.1251,-38.6044 27.8751,-38.6043"/>
</g>
</g>
</svg>
