<?xml version="1.0" encoding="UTF-8" standalone="no"?>
<!DOCTYPE svg PUBLIC "-//W3C//DTD SVG 1.1//EN"
 "http://www.w3.org/Graphics/SVG/1.1/DTD/svg11.dtd">
<!-- Generated by graphviz version 2.38.0 (20140413.2041)
 -->
<!-- Title: %3 Pages: 1 -->
<svg width="271pt" height="274pt"
 viewBox="0.00 0.00 271.00 274.00" xmlns="http://www.w3.org/2000/svg" xmlns:xlink="http://www.w3.org/1999/xlink">
<g id="graph0" class="graph" transform="scale(1 1) rotate(0) translate(4 270)">
<title>%3</title>
<polygon fill="none" stroke="none" points="-4,4 -4,-270 267,-270 267,4 -4,4"/>
<!-- Doxygen -->
<g id="node1" class="node"><title>Doxygen</title>
<polygon fill="#e6e8fa" stroke="#cacde8" points="134,-266 73,-266 73,-230 134,-230 134,-266"/>
<text text-anchor="middle" x="103.5" y="-245.2" font-family="Segoe UI" font-size="11.00" fill="#222222">Doxygen</text>
</g>
<!-- Xml -->
<g id="node6" class="node"><title>Xml</title>
<polygon fill="#e6e8fa" stroke="#cacde8" points="168.5,-109 114.5,-109 114.5,-73 168.5,-73 168.5,-109"/>
<text text-anchor="middle" x="141.5" y="-88.2" font-family="Segoe UI" font-size="11.00" fill="#222222">Xml</text>
</g>
<!-- Doxygen&#45;&gt;Xml -->
<g id="edge1" class="edge"><title>Doxygen&#45;&gt;Xml</title>
<path fill="none" stroke="#606ee0" d="M105.938,-229.664C108.977,-209.401 114.732,-174.951 122.5,-146 125.587,-134.496 129.947,-121.929 133.713,-111.815"/>
<polygon fill="#606ee0" stroke="#606ee0" points="134.598,-111.947 134.656,-109.299 132.959,-111.332 134.598,-111.947"/>
</g>
<!-- GenApi -->
<g id="node2" class="node"><title>GenApi</title>
<polygon fill="#e6e8fa" stroke="#cacde8" points="185.5,-182 131.5,-182 131.5,-146 185.5,-146 185.5,-182"/>
<text text-anchor="middle" x="158.5" y="-161.2" font-family="Segoe UI" font-size="11.00" fill="#222222">GenApi</text>
</g>
<!-- GenApi&#45;&gt;Doxygen -->
<g id="edge3" class="edge"><title>GenApi&#45;&gt;Doxygen</title>
<path fill="none" stroke="#606ee0" d="M147.041,-182.084C138.211,-195.25 125.987,-213.475 116.738,-227.263"/>
<polygon fill="#606ee0" stroke="#606ee0" points="115.83,-227.046 115.164,-229.61 117.283,-228.021 115.83,-227.046"/>
<text text-anchor="middle" x="153" y="-203.2" font-family="Segoe UI" font-size="11.00" fill="#606ee0">Creates</text>
</g>
<!-- ResourceCompiler -->
<g id="node3" class="node"><title>ResourceCompiler</title>
<polygon fill="#e6e8fa" stroke="#cacde8" points="263,-266 156,-266 156,-230 263,-230 263,-266"/>
<text text-anchor="middle" x="209.5" y="-245.2" font-family="Segoe UI" font-size="11.00" fill="#222222">ResourceCompiler</text>
</g>
<!-- GenApi&#45;&gt;ResourceCompiler -->
<g id="edge5" class="edge"><title>GenApi&#45;&gt;ResourceCompiler</title>
<path fill="none" stroke="#606ee0" d="M169.125,-182.084C177.314,-195.25 188.649,-213.475 197.225,-227.263"/>
<polygon fill="#606ee0" stroke="#606ee0" points="196.621,-227.949 198.684,-229.61 198.107,-227.025 196.621,-227.949"/>
</g>
<!-- GenApi&#45;&gt;Xml -->
<g id="edge2" class="edge"><title>GenApi&#45;&gt;Xml</title>
<path fill="none" stroke="#606ee0" d="M154.385,-145.813C151.921,-135.522 148.78,-122.404 146.216,-111.696"/>
<polygon fill="#606ee0" stroke="#606ee0" points="147.01,-111.256 145.577,-109.029 145.309,-111.664 147.01,-111.256"/>
</g>
<!-- Utils -->
<g id="node8" class="node"><title>Utils</title>
<polygon fill="#e6e8fa" stroke="#cacde8" points="240.5,-36 186.5,-36 186.5,-0 240.5,-0 240.5,-36"/>
<text text-anchor="middle" x="213.5" y="-15.2" font-family="Segoe UI" font-size="11.00" fill="#222222">Utils</text>
</g>
<!-- ResourceCompiler&#45;&gt;Utils -->
<g id="edge4" class="edge"><title>ResourceCompiler&#45;&gt;Utils</title>
<path fill="none" stroke="#606ee0" d="M209.801,-229.863C210.529,-188.333 212.386,-82.5054 213.157,-38.5755"/>
<polygon fill="#606ee0" stroke="#606ee0" points="214.032,-38.5399 213.201,-36.0249 212.283,-38.5091 214.032,-38.5399"/>
</g>
<!-- MdDox -->
<g id="node4" class="node"><title>MdDox</title>
<polygon fill="#e6e8fa" stroke="#cacde8" points="64.5,-36 10.5,-36 10.5,-0 64.5,-0 64.5,-36"/>
<text text-anchor="middle" x="37.5" y="-15.2" font-family="Segoe UI" font-size="11.00" fill="#222222">MdDox</text>
</g>
<!-- MdDoxTree -->
<g id="node5" class="node"><title>MdDoxTree</title>
<polygon fill="#e6e8fa" stroke="#cacde8" points="75,-182 0,-182 0,-146 75,-146 75,-182"/>
<text text-anchor="middle" x="37.5" y="-161.2" font-family="Segoe UI" font-size="11.00" fill="#222222">MdDoxTree</text>
</g>
<!-- MdDox&#45;&gt;MdDoxTree -->
<g id="edge6" class="edge"><title>MdDox&#45;&gt;MdDoxTree</title>
<path fill="none" stroke="#606ee0" d="M37.5,-36.0619C37.5,-62.8961 37.5,-114.825 37.5,-143.241"/>
<polygon fill="#606ee0" stroke="#606ee0" points="36.6251,-143.416 37.5,-145.916 38.3751,-143.416 36.6251,-143.416"/>
</g>
<!-- MdDoxTree&#45;&gt;Doxygen -->
<g id="edge9" class="edge"><title>MdDoxTree&#45;&gt;Doxygen</title>
<path fill="none" stroke="#606ee0" d="M51.2504,-182.084C61.9349,-195.359 76.7589,-213.776 87.8887,-227.604"/>
<polygon fill="#606ee0" stroke="#606ee0" points="87.2539,-228.211 89.5031,-229.61 88.6172,-227.114 87.2539,-228.211"/>
</g>
<!-- TypeFilter -->
<g id="node7" class="node"><title>TypeFilter</title>
<polygon fill="#e6e8fa" stroke="#cacde8" points="168,-36 103,-36 103,-0 168,-0 168,-36"/>
<text text-anchor="middle" x="135.5" y="-15.2" font-family="Segoe UI" font-size="11.00" fill="#222222">TypeFilter</text>
</g>
<!-- Xml&#45;&gt;TypeFilter -->
<g id="edge8" class="edge"><title>Xml&#45;&gt;TypeFilter</title>
<path fill="none" stroke="#606ee0" d="M140.048,-72.8129C139.178,-62.522 138.069,-49.4039 137.164,-38.6961"/>
<polygon fill="#606ee0" stroke="#606ee0" points="138.022,-38.4463 136.939,-36.0288 136.278,-38.5937 138.022,-38.4463"/>
</g>
<!-- Xml&#45;&gt;Utils -->
<g id="edge7" class="edge"><title>Xml&#45;&gt;Utils</title>
<path fill="none" stroke="#606ee0" d="M158.929,-72.8129C169.63,-62.2604 183.346,-48.735 194.35,-37.8841"/>
<polygon fill="#606ee0" stroke="#606ee0" points="195.066,-38.4073 196.231,-36.0288 193.837,-37.1612 195.066,-38.4073"/>
</g>
</g>
</svg>
