<?xml version="1.0" encoding="UTF-8" standalone="no"?>
<!DOCTYPE svg PUBLIC "-//W3C//DTD SVG 1.1//EN"
 "http://www.w3.org/Graphics/SVG/1.1/DTD/svg11.dtd">
<!-- Generated by graphviz version 2.38.0 (20140413.2041)
 -->
<!-- Title: %3 Pages: 1 -->
<svg width="394pt" height="393pt"
 viewBox="0.00 0.00 394.00 393.00" xmlns="http://www.w3.org/2000/svg" xmlns:xlink="http://www.w3.org/1999/xlink">
<g id="graph0" class="graph" transform="scale(1 1) rotate(0) translate(4 389)">
<title>%3</title>
<polygon fill="#f8f8fa" stroke="none" points="-4,4 -4,-389 390,-389 390,4 -4,4"/>
<text text-anchor="middle" x="193" y="-373" font-family="Segoe UI" font-size="10.00">Page Structure</text>
<!-- MainPage -->
<g id="node1" class="node"><title>MainPage</title>
<polygon fill="#f3f6ff" stroke="#b4bcfb" stroke-opacity="0.250980" points="117.5,-324 61.5,-324 61.5,-257 117.5,-257 117.5,-324"/>
<polygon fill="#f3f6ff" stroke="none" points="62.5,-258 62.5,-323 116.5,-323 116.5,-258 62.5,-258"/>
<text text-anchor="start" x="66.5" y="-311.5" font-family="Segoe UI" font-weight="bold" font-size="10.00" fill="#000001">MainPage</text>
<polygon fill="#d7e0f7" fill-opacity="0.501961" stroke="none" points="66.5,-261.5 66.5,-299.5 112.5,-299.5 112.5,-261.5 66.5,-261.5"/>
<text text-anchor="start" x="70.5" y="-287.5" font-family="Segoe UI" font-size="10.00" fill="#222222">Brief</text>
<text text-anchor="start" x="70.5" y="-268.5" font-family="Segoe UI" font-size="10.00" fill="#222222">Detail</text>
</g>
<!-- Index -->
<g id="node2" class="node"><title>Index</title>
<polygon fill="#f3f6ff" stroke="#b4bcfb" stroke-opacity="0.250980" points="243.5,-366 173.5,-366 173.5,-215 243.5,-215 243.5,-366"/>
<polygon fill="#f3f6ff" stroke="none" points="174.5,-216 174.5,-365 242.5,-365 242.5,-216 174.5,-216"/>
<text text-anchor="start" x="178.5" y="-353.5" font-family="Segoe UI" font-weight="bold" font-size="10.00" fill="#000001">Site Index</text>
<polygon fill="#d7e0f7" fill-opacity="0.501961" stroke="none" points="178.5,-322.5 178.5,-341.5 238.5,-341.5 238.5,-322.5 178.5,-322.5"/>
<text text-anchor="start" x="182.5" y="-329.5" font-family="Segoe UI" font-size="10.00" fill="#222222">Description</text>
<polygon fill="#d7e0f7" fill-opacity="0.501961" stroke="none" points="178.5,-219.5 178.5,-314.5 238.5,-314.5 238.5,-219.5 178.5,-219.5"/>
<text text-anchor="start" x="187.5" y="-303.5" font-family="Segoe UI" font-weight="bold" font-size="10.00" fill="#000001">Contents</text>
<text text-anchor="start" x="182.5" y="-283.5" font-family="Segoe UI" font-size="10.00" fill="#222222">Directory</text>
<text text-anchor="start" x="182.5" y="-264.5" font-family="Segoe UI" font-size="10.00" fill="#222222">Class</text>
<text text-anchor="start" x="182.5" y="-245.5" font-family="Segoe UI" font-size="10.00" fill="#222222">Page</text>
<text text-anchor="start" x="182.5" y="-226.5" font-family="Segoe UI" font-size="10.00" fill="#222222">Namespace</text>
</g>
<!-- MainPage&#45;&gt;Index -->
<g id="edge1" class="edge"><title>MainPage:Title&#45;&gt;Index:Description</title>
<path fill="none" stroke="#606ee0" d="M117.5,-313.5C143.614,-313.5 148.884,-330.06 172.23,-332.26"/>
<polygon fill="#606ee0" stroke="#606ee0" points="172.425,-334.02 177.5,-332.5 172.585,-330.524 172.425,-334.02"/>
<text text-anchor="middle" x="145.5" y="-333.5" font-family="Segoe UI" font-size="10.00" fill="#222222">Provides</text>
</g>
<!-- ClassIndex -->
<g id="node3" class="node"><title>ClassIndex</title>
<polygon fill="#f3f6ff" stroke="#b4bcfb" stroke-opacity="0.250980" points="87,-178 0,-178 0,-73 87,-73 87,-178"/>
<polygon fill="#f3f6ff" stroke="none" points="1,-74 1,-177 86,-177 86,-74 1,-74"/>
<text text-anchor="start" x="5.5" y="-165.5" font-family="Segoe UI" font-weight="bold" font-size="10.00" fill="#000001">Class Index</text>
<polygon fill="#d7e0f7" fill-opacity="0.501961" stroke="none" points="5.5,-77.5 5.5,-153.5 82.5,-153.5 82.5,-77.5 5.5,-77.5"/>
<text text-anchor="start" x="9.5" y="-142.5" font-family="Segoe UI" font-weight="bold" font-size="10.00" fill="#000001">Contents (A&#45;Z)</text>
<text text-anchor="start" x="9.5" y="-122.5" font-family="Segoe UI" font-size="10.00" fill="#222222">Class[0]</text>
<text text-anchor="start" x="9.5" y="-103.5" font-family="Segoe UI" font-size="10.00" fill="#222222">Class[1]</text>
<text text-anchor="start" x="9.5" y="-84.5" font-family="Segoe UI" font-size="10.00" fill="#222222">Class[n]</text>
</g>
<!-- Index&#45;&gt;ClassIndex -->
<g id="edge2" class="edge"><title>Index:Class&#45;&gt;ClassIndex</title>
<path fill="none" stroke="#606ee0" d="M177.5,-266.5C175.896,-266.5 128.604,-216.768 90.654,-176.586"/>
<polygon fill="#606ee0" stroke="#606ee0" points="91.7176,-175.163 87.0125,-172.729 89.1727,-177.566 91.7176,-175.163"/>
</g>
<!-- NamespaceIndex -->
<g id="node4" class="node"><title>NamespaceIndex</title>
<polygon fill="#f3f6ff" stroke="#b4bcfb" stroke-opacity="0.250980" points="197.5,-178 105.5,-178 105.5,-73 197.5,-73 197.5,-178"/>
<polygon fill="#f3f6ff" stroke="none" points="106.5,-74 106.5,-177 196.5,-177 196.5,-74 106.5,-74"/>
<text text-anchor="start" x="110.5" y="-165.5" font-family="Segoe UI" font-weight="bold" font-size="10.00" fill="#000001">Namespace Index</text>
<polygon fill="#d7e0f7" fill-opacity="0.501961" stroke="none" points="110.5,-77.5 110.5,-153.5 192.5,-153.5 192.5,-77.5 110.5,-77.5"/>
<text text-anchor="start" x="117" y="-142.5" font-family="Segoe UI" font-weight="bold" font-size="10.00" fill="#000001">Contents (A&#45;Z)</text>
<text text-anchor="start" x="114.5" y="-122.5" font-family="Segoe UI" font-size="10.00" fill="#222222">Namespace[0]</text>
<text text-anchor="start" x="114.5" y="-103.5" font-family="Segoe UI" font-size="10.00" fill="#222222">Namespace[1]</text>
<text text-anchor="start" x="114.5" y="-84.5" font-family="Segoe UI" font-size="10.00" fill="#222222">Namespace[n]</text>
</g>
<!-- Index&#45;&gt;NamespaceIndex -->
<g id="edge3" class="edge"><title>Index:Namespace&#45;&gt;NamespaceIndex</title>
<path fill="none" stroke="#606ee0" d="M177.5,-228.5C155.832,-228.5 148.658,-206.62 147.2,-183.128"/>
<polygon fill="#606ee0" stroke="#606ee0" points="148.947,-183.013 146.973,-178.098 145.451,-183.172 148.947,-183.013"/>
</g>
<!-- PageIndex -->
<g id="node5" class="node"><title>PageIndex</title>
<polygon fill="#f3f6ff" stroke="#b4bcfb" stroke-opacity="0.250980" points="303,-178 216,-178 216,-73 303,-73 303,-178"/>
<polygon fill="#f3f6ff" stroke="none" points="217,-74 217,-177 302,-177 302,-74 217,-74"/>
<text text-anchor="start" x="221.5" y="-165.5" font-family="Segoe UI" font-weight="bold" font-size="10.00" fill="#000001">Page Index</text>
<polygon fill="#d7e0f7" fill-opacity="0.501961" stroke="none" points="221.5,-77.5 221.5,-153.5 298.5,-153.5 298.5,-77.5 221.5,-77.5"/>
<text text-anchor="start" x="225.5" y="-142.5" font-family="Segoe UI" font-weight="bold" font-size="10.00" fill="#000001">Contents (A&#45;Z)</text>
<text text-anchor="start" x="225.5" y="-122.5" font-family="Segoe UI" font-size="10.00" fill="#222222">Page[0]</text>
<text text-anchor="start" x="225.5" y="-103.5" font-family="Segoe UI" font-size="10.00" fill="#222222">Page[1]</text>
<text text-anchor="start" x="225.5" y="-84.5" font-family="Segoe UI" font-size="10.00" fill="#222222">Page[n]</text>
</g>
<!-- Index&#45;&gt;PageIndex -->
<g id="edge4" class="edge"><title>Index:Page&#45;&gt;PageIndex</title>
<path fill="none" stroke="#606ee0" d="M239.5,-247.5C267.896,-247.5 272.134,-214.661 269.677,-183.198"/>
<polygon fill="#606ee0" stroke="#606ee0" points="271.416,-182.991 269.228,-178.166 267.93,-183.302 271.416,-182.991"/>
</g>
<!-- DirectoryIndex -->
<g id="node6" class="node"><title>DirectoryIndex</title>
<polygon fill="#f3f6ff" stroke="#b4bcfb" stroke-opacity="0.250980" points="386,-343 299,-343 299,-238 386,-238 386,-343"/>
<polygon fill="#f3f6ff" stroke="none" points="300,-239 300,-342 385,-342 385,-239 300,-239"/>
<text text-anchor="start" x="304.5" y="-330.5" font-family="Segoe UI" font-weight="bold" font-size="10.00" fill="#000001">Directory Index</text>
<polygon fill="#d7e0f7" fill-opacity="0.501961" stroke="none" points="304.5,-242.5 304.5,-318.5 381.5,-318.5 381.5,-242.5 304.5,-242.5"/>
<text text-anchor="start" x="308.5" y="-307.5" font-family="Segoe UI" font-weight="bold" font-size="10.00" fill="#000001">Contents (A&#45;Z)</text>
<text text-anchor="start" x="308.5" y="-287.5" font-family="Segoe UI" font-size="10.00" fill="#222222">Dir[0]</text>
<text text-anchor="start" x="308.5" y="-268.5" font-family="Segoe UI" font-size="10.00" fill="#222222">Dir[1]</text>
<text text-anchor="start" x="308.5" y="-249.5" font-family="Segoe UI" font-size="10.00" fill="#222222">Dir[n]</text>
</g>
<!-- Index&#45;&gt;DirectoryIndex -->
<g id="edge5" class="edge"><title>Index:Directory&#45;&gt;DirectoryIndex:Title</title>
<path fill="none" stroke="#606ee0" d="M239.5,-285.5C271.522,-285.5 266.349,-327.5 294.302,-332.094"/>
<polygon fill="#606ee0" stroke="#606ee0" points="294.379,-333.855 299.5,-332.5 294.652,-330.366 294.379,-333.855"/>
</g>
<!-- ClassPage -->
<g id="node7" class="node"><title>ClassPage</title>
<polygon fill="#f3f6ff" stroke="#b4bcfb" stroke-opacity="0.250980" points="71.5,-36 17.5,-36 17.5,-0 71.5,-0 71.5,-36"/>
<text text-anchor="middle" x="44.5" y="-15.5" font-family="Segoe UI" font-size="10.00" fill="#222222">ClassPage</text>
</g>
<!-- ClassIndex&#45;&gt;ClassPage -->
<g id="edge6" class="edge"><title>ClassIndex:Item&#45;&gt;ClassPage</title>
<path fill="none" stroke="#606ee0" d="M44.5,-76.5C44.5,-64.8328 44.5,-51.8339 44.5,-41.1512"/>
<polygon fill="#606ee0" stroke="#606ee0" points="46.2501,-41.1089 44.5,-36.1089 42.7501,-41.109 46.2501,-41.1089"/>
</g>
<!-- NamespacePage -->
<g id="node10" class="node"><title>NamespacePage</title>
<polygon fill="#f3f6ff" stroke="#b4bcfb" stroke-opacity="0.250980" points="189.5,-36 113.5,-36 113.5,-0 189.5,-0 189.5,-36"/>
<text text-anchor="middle" x="151.5" y="-15.5" font-family="Segoe UI" font-size="10.00" fill="#222222">NamespacePage</text>
</g>
<!-- NamespaceIndex&#45;&gt;NamespacePage -->
<g id="edge9" class="edge"><title>NamespaceIndex:Item&#45;&gt;NamespacePage</title>
<path fill="none" stroke="#606ee0" d="M151.5,-76.5C151.5,-64.8328 151.5,-51.8339 151.5,-41.1512"/>
<polygon fill="#606ee0" stroke="#606ee0" points="153.25,-41.1089 151.5,-36.1089 149.75,-41.109 153.25,-41.1089"/>
</g>
<!-- GenericPage -->
<g id="node9" class="node"><title>GenericPage</title>
<polygon fill="#f3f6ff" stroke="#b4bcfb" stroke-opacity="0.250980" points="289,-36 232,-36 232,-0 289,-0 289,-36"/>
<text text-anchor="middle" x="260.5" y="-15.5" font-family="Segoe UI" font-size="10.00" fill="#222222">GenericPage</text>
</g>
<!-- PageIndex&#45;&gt;GenericPage -->
<g id="edge8" class="edge"><title>PageIndex:Item&#45;&gt;GenericPage</title>
<path fill="none" stroke="#606ee0" d="M260.5,-76.5C260.5,-64.8328 260.5,-51.8339 260.5,-41.1512"/>
<polygon fill="#606ee0" stroke="#606ee0" points="262.25,-41.1089 260.5,-36.1089 258.75,-41.109 262.25,-41.1089"/>
</g>
<!-- DirectoryPage -->
<g id="node8" class="node"><title>DirectoryPage</title>
<polygon fill="#f3f6ff" stroke="#b4bcfb" stroke-opacity="0.250980" points="385.5,-143.5 321.5,-143.5 321.5,-107.5 385.5,-107.5 385.5,-143.5"/>
<text text-anchor="middle" x="353.5" y="-123" font-family="Segoe UI" font-size="10.00" fill="#222222">DirectoryPage</text>
</g>
<!-- DirectoryIndex&#45;&gt;DirectoryPage -->
<g id="edge7" class="edge"><title>DirectoryIndex:Item&#45;&gt;DirectoryPage</title>
<path fill="none" stroke="#606ee0" d="M343.5,-241.5C343.5,-209.081 347.493,-171.714 350.433,-148.597"/>
<polygon fill="#606ee0" stroke="#606ee0" points="352.172,-148.789 351.079,-143.605 348.701,-148.339 352.172,-148.789"/>
</g>
</g>
</svg>
