<?xml version="1.0" encoding="UTF-8" standalone="no"?>
<!DOCTYPE svg PUBLIC "-//W3C//DTD SVG 1.1//EN"
 "http://www.w3.org/Graphics/SVG/1.1/DTD/svg11.dtd">
<!-- Generated by graphviz version 2.38.0 (20140413.2041)
 -->
<!-- Title: %3 Pages: 1 -->
<svg width="212pt" height="206pt"
 viewBox="0.00 0.00 212.00 206.00" xmlns="http://www.w3.org/2000/svg" xmlns:xlink="http://www.w3.org/1999/xlink">
<g id="graph0" class="graph" transform="scale(1 1) rotate(0) translate(4 202)">
<title>%3</title>
<polygon fill="none" stroke="none" points="-4,4 -4,-202 208,-202 208,4 -4,4"/>
<!-- Doxygen -->
<g id="node1" class="node"><title>Doxygen</title>
<polygon fill="#d7e0f7" stroke="#606ee0" points="204,-36 143,-36 143,-0 204,-0 204,-36"/>
<text text-anchor="middle" x="173.5" y="-15.2" font-family="Segoe UI" font-size="11.00" fill="#222222">Doxygen</text>
</g>
<!-- GenApi -->
<g id="node2" class="node"><title>GenApi</title>
<polygon fill="#fce8b8" stroke="#606ee0" points="80.5,-36 26.5,-36 26.5,-0 80.5,-0 80.5,-36"/>
<text text-anchor="middle" x="53.5" y="-15.2" font-family="Segoe UI" font-size="11.00" fill="#222222">GenApi</text>
</g>
<!-- Doxygen&#45;&gt;GenApi -->
<g id="edge2" class="edge"><title>Doxygen&#45;&gt;GenApi</title>
<path fill="none" stroke="#606ee0" d="M137.681,-18C119.426,-18 97.4357,-18 80.6514,-18"/>
<polygon fill="#606ee0" stroke="#606ee0" points="137.724,-19.7501 142.724,-18 137.724,-16.2501 137.724,-19.7501"/>
</g>
<!-- ResourceCompiler -->
<g id="node3" class="node"><title>ResourceCompiler</title>
<polygon fill="#fce8b8" stroke="#606ee0" points="107,-144 0,-144 0,-108 107,-108 107,-144"/>
<text text-anchor="middle" x="53.5" y="-123.2" font-family="Segoe UI" font-size="11.00" fill="#222222">ResourceCompiler</text>
</g>
<!-- ResourceCompiler&#45;&gt;GenApi -->
<g id="edge1" class="edge"><title>ResourceCompiler&#45;&gt;GenApi</title>
<path fill="none" stroke="#606ee0" d="M106.663,-107.951C113.956,-103.23 120.48,-97.3361 125,-90 133.393,-76.3779 133.393,-67.6221 125,-54 116.355,-39.9675 100.375,-31.2105 85.7115,-25.8526"/>
<polygon fill="#606ee0" stroke="#606ee0" points="86.099,-24.1353 80.8017,-24.1631 84.9602,-27.4448 86.099,-24.1353"/>
</g>
<!-- Schema -->
<g id="node4" class="node"><title>Schema</title>
<polygon fill="#d7e0f7" stroke="#606ee0" points="75.5,-90 25.5,-90 25.5,-54 81.5,-54 81.5,-84 75.5,-90"/>
<polyline fill="none" stroke="#606ee0" points="75.5,-90 75.5,-84 "/>
<polyline fill="none" stroke="#606ee0" points="81.5,-84 75.5,-84 "/>
<text text-anchor="middle" x="53.5" y="-69.2" font-family="Segoe UI" font-size="11.00" fill="#222222">Schema</text>
</g>
<!-- Schema&#45;&gt;GenApi -->
<g id="edge4" class="edge"><title>Schema&#45;&gt;GenApi</title>
<path fill="none" stroke="#606ee0" d="M53.5,-53.7902C53.5,-49.6536 53.5,-45.5169 53.5,-41.3803"/>
<polygon fill="#606ee0" stroke="#606ee0" points="55.2501,-41.1406 53.5,-36.1406 51.7501,-41.1407 55.2501,-41.1406"/>
</g>
<!-- Templates -->
<g id="node5" class="node"><title>Templates</title>
<polygon fill="#d7e0f7" stroke="#606ee0" points="81.5,-198 19.5,-198 19.5,-162 87.5,-162 87.5,-192 81.5,-198"/>
<polyline fill="none" stroke="#606ee0" points="81.5,-198 81.5,-192 "/>
<polyline fill="none" stroke="#606ee0" points="87.5,-192 81.5,-192 "/>
<text text-anchor="middle" x="53.5" y="-177.2" font-family="Segoe UI" font-size="11.00" fill="#222222">Templates</text>
</g>
<!-- Templates&#45;&gt;ResourceCompiler -->
<g id="edge3" class="edge"><title>Templates&#45;&gt;ResourceCompiler</title>
<path fill="none" stroke="#606ee0" d="M53.5,-161.79C53.5,-157.654 53.5,-153.517 53.5,-149.38"/>
<polygon fill="#606ee0" stroke="#606ee0" points="55.2501,-149.141 53.5,-144.141 51.7501,-149.141 55.2501,-149.141"/>
</g>
</g>
</svg>
