<?xml version="1.0" encoding="UTF-8" standalone="no"?>
<!DOCTYPE svg PUBLIC "-//W3C//DTD SVG 1.1//EN"
 "http://www.w3.org/Graphics/SVG/1.1/DTD/svg11.dtd">
<!-- Generated by graphviz version 2.38.0 (20140413.2041)
 -->
<!-- Title: %3 Pages: 1 -->
<svg width="406pt" height="116pt"
 viewBox="0.00 0.00 405.50 116.00" xmlns="http://www.w3.org/2000/svg" xmlns:xlink="http://www.w3.org/1999/xlink">
<g id="graph0" class="graph" transform="scale(1 1) rotate(0) translate(4 112)">
<title>%3</title>
<polygon fill="none" stroke="none" points="-4,4 -4,-112 401.5,-112 401.5,4 -4,4"/>
<!-- 0 -->
<g id="node1" class="node"><title>0</title>
<text text-anchor="middle" x="208.5" y="-87.5" font-family="Segoe UI" font-size="10.00" fill="#222222">MemberDefQueryVisitor</text>
</g>
<!-- 1 -->
<g id="node2" class="node"><title>1</title>
<text text-anchor="middle" x="40.5" y="-15.5" font-family="Segoe UI" font-size="10.00" fill="#222222">FunctionDefWriter</text>
</g>
<!-- 0&#45;&gt;1 -->
<g id="edge1" class="edge"><title>0&#45;&gt;1</title>
<path fill="none" stroke="#606ee0" d="M167.403,-71.8761C142.711,-61.5881 111.26,-48.4832 85.8453,-37.8939"/>
<polygon fill="#606ee0" stroke="#606ee0" points="86.4616,-36.2549 81.1731,-35.9471 85.1154,-39.4857 86.4616,-36.2549"/>
</g>
<!-- 2 -->
<g id="node3" class="node"><title>2</title>
<text text-anchor="middle" x="154.5" y="-15.5" font-family="Segoe UI" font-size="10.00" fill="#222222">MemberDefListingWriter</text>
</g>
<!-- 0&#45;&gt;2 -->
<g id="edge2" class="edge"><title>0&#45;&gt;2</title>
<path fill="none" stroke="#606ee0" d="M195.152,-71.6966C187.828,-62.2026 178.685,-50.351 170.926,-40.293"/>
<polygon fill="#606ee0" stroke="#606ee0" points="172.134,-38.9943 167.695,-36.1043 169.363,-41.1322 172.134,-38.9943"/>
</g>
<!-- 3 -->
<g id="node4" class="node"><title>3</title>
<text text-anchor="middle" x="262.5" y="-15.5" font-family="Segoe UI" font-size="10.00" fill="#222222">EnumDefWriter</text>
</g>
<!-- 0&#45;&gt;3 -->
<g id="edge3" class="edge"><title>0&#45;&gt;3</title>
<path fill="none" stroke="#606ee0" d="M221.848,-71.6966C229.172,-62.2026 238.315,-50.351 246.074,-40.293"/>
<polygon fill="#606ee0" stroke="#606ee0" points="247.637,-41.1322 249.305,-36.1043 244.866,-38.9943 247.637,-41.1322"/>
</g>
<!-- 4 -->
<g id="node5" class="node"><title>4</title>
<text text-anchor="middle" x="356.5" y="-15.5" font-family="Segoe UI" font-size="10.00" fill="#222222">MemberDefWriter</text>
</g>
<!-- 0&#45;&gt;4 -->
<g id="edge4" class="edge"><title>0&#45;&gt;4</title>
<path fill="none" stroke="#606ee0" d="M244.705,-71.8761C266.196,-61.7112 293.502,-48.7966 315.747,-38.2753"/>
<polygon fill="#606ee0" stroke="#606ee0" points="316.641,-39.7882 320.413,-36.0683 315.145,-36.6242 316.641,-39.7882"/>
</g>
</g>
</svg>
