<?xml version="1.0" encoding="UTF-8" standalone="no"?>
<!DOCTYPE svg PUBLIC "-//W3C//DTD SVG 1.1//EN"
 "http://www.w3.org/Graphics/SVG/1.1/DTD/svg11.dtd">
<!-- Generated by graphviz version 2.38.0 (20140413.2041)
 -->
<!-- Title: %3 Pages: 1 -->
<svg width="225pt" height="3770pt"
 viewBox="0.00 0.00 225.00 3770.00" xmlns="http://www.w3.org/2000/svg" xmlns:xlink="http://www.w3.org/1999/xlink">
<g id="graph0" class="graph" transform="scale(1 1) rotate(0) translate(4 3766)">
<title>%3</title>
<polygon fill="none" stroke="none" points="-4,4 -4,-3766 221,-3766 221,4 -4,4"/>
<!-- 0 -->
<g id="node1" class="node"><title>0</title>
<text text-anchor="middle" x="27" y="-1878.2" font-family="Segoe UI" font-size="11.00" fill="#010509">Query</text>
</g>
<!-- 1 -->
<g id="node2" class="node"><title>1</title>
<text text-anchor="middle" x="153.5" y="-3741.2" font-family="Segoe UI" font-size="11.00" fill="#010509">FileQuery</text>
</g>
<!-- 0&#45;&gt;1 -->
<g id="edge1" class="edge"><title>0&#45;&gt;1</title>
<path fill="none" stroke="#69bfff" d="M28.0593,-1899.21C28.7328,-2085.39 35.9626,-3637.74 90,-3717 97.2242,-3727.6 109.552,-3734.06 121.359,-3737.99"/>
<polygon fill="#69bfff" stroke="#69bfff" points="121.078,-3739.74 126.371,-3739.53 122.102,-3736.39 121.078,-3739.74"/>
</g>
<!-- 2 -->
<g id="node3" class="node"><title>2</title>
<text text-anchor="middle" x="153.5" y="-3687.2" font-family="Segoe UI" font-size="11.00" fill="#010509">HighlightQuery</text>
</g>
<!-- 0&#45;&gt;2 -->
<g id="edge2" class="edge"><title>0&#45;&gt;2</title>
<path fill="none" stroke="#69bfff" d="M28.0787,-1899.25C28.9367,-2082.51 37.5653,-3586.17 90,-3663 94.8007,-3670.03 101.849,-3675.25 109.501,-3679.11"/>
<polygon fill="#69bfff" stroke="#69bfff" points="109.055,-3680.83 114.328,-3681.34 110.525,-3677.65 109.055,-3680.83"/>
</g>
<!-- 3 -->
<g id="node4" class="node"><title>3</title>
<text text-anchor="middle" x="153.5" y="-3633.2" font-family="Segoe UI" font-size="11.00" fill="#010509">DoxygenQuery</text>
</g>
<!-- 0&#45;&gt;3 -->
<g id="edge3" class="edge"><title>0&#45;&gt;3</title>
<path fill="none" stroke="#69bfff" d="M28.0992,-1899.25C29.1463,-2079.44 39.1648,-3534.6 90,-3609 94.9701,-3616.27 102.344,-3621.6 110.3,-3625.5"/>
<polygon fill="#69bfff" stroke="#69bfff" points="110.035,-3627.3 115.313,-3627.74 111.466,-3624.1 110.035,-3627.3"/>
</g>
<!-- 4 -->
<g id="node5" class="node"><title>4</title>
<text text-anchor="middle" x="153.5" y="-3579.2" font-family="Segoe UI" font-size="11.00" fill="#010509">Sect2Query</text>
</g>
<!-- 0&#45;&gt;4 -->
<g id="edge4" class="edge"><title>0&#45;&gt;4</title>
<path fill="none" stroke="#69bfff" d="M28.1209,-1899.23C29.3616,-2076.18 40.761,-3483.03 90,-3555 96.7138,-3564.81 107.802,-3571.08 118.789,-3575.08"/>
<polygon fill="#69bfff" stroke="#69bfff" points="118.518,-3576.83 123.815,-3576.76 119.628,-3573.51 118.518,-3576.83"/>
</g>
<!-- 5 -->
<g id="node6" class="node"><title>5</title>
<text text-anchor="middle" x="153.5" y="-3525.2" font-family="Segoe UI" font-size="11.00" fill="#010509">LanguageQuery</text>
</g>
<!-- 0&#45;&gt;5 -->
<g id="edge5" class="edge"><title>0&#45;&gt;5</title>
<path fill="none" stroke="#69bfff" d="M28.1437,-1899.18C29.5826,-2072.72 42.3539,-3431.45 90,-3501 94.5363,-3507.62 101.064,-3512.63 108.207,-3516.42"/>
<polygon fill="#69bfff" stroke="#69bfff" points="107.46,-3518 112.721,-3518.62 108.995,-3514.85 107.46,-3518"/>
</g>
<!-- 6 -->
<g id="node7" class="node"><title>6</title>
<text text-anchor="middle" x="153.5" y="-3471.2" font-family="Segoe UI" font-size="11.00" fill="#010509">ChildNodeQuery</text>
</g>
<!-- 0&#45;&gt;6 -->
<g id="edge6" class="edge"><title>0&#45;&gt;6</title>
<path fill="none" stroke="#69bfff" d="M28.1678,-1899.11C29.8093,-2069.07 43.9436,-3379.87 90,-3447 94.129,-3453.02 99.9025,-3457.7 106.287,-3461.35"/>
<polygon fill="#69bfff" stroke="#69bfff" points="105.551,-3462.94 110.792,-3463.71 107.176,-3459.84 105.551,-3462.94"/>
</g>
<!-- 7 -->
<g id="node8" class="node"><title>7</title>
<text text-anchor="middle" x="153.5" y="-3417.2" font-family="Segoe UI" font-size="11.00" fill="#010509">TemplateParamListQuery</text>
</g>
<!-- 0&#45;&gt;7 -->
<g id="edge7" class="edge"><title>0&#45;&gt;7</title>
<path fill="none" stroke="#69bfff" d="M28.1959,-1899.26C30.0579,-2066.55 45.5532,-3328.31 90,-3393 91.391,-3395.02 92.968,-3396.9 94.6917,-3398.63"/>
<polygon fill="#69bfff" stroke="#69bfff" points="93.5385,-3399.95 98.4231,-3402 95.8833,-3397.35 93.5385,-3399.95"/>
</g>
<!-- 8 -->
<g id="node9" class="node"><title>8</title>
<text text-anchor="middle" x="153.5" y="-3363.2" font-family="Segoe UI" font-size="11.00" fill="#010509">ListingQuery</text>
</g>
<!-- 0&#45;&gt;8 -->
<g id="edge8" class="edge"><title>0&#45;&gt;8</title>
<path fill="none" stroke="#69bfff" d="M28.2227,-1899.12C30.2973,-2062.47 47.1355,-3276.71 90,-3339 96.2192,-3348.04 106.144,-3354.07 116.27,-3358.09"/>
<polygon fill="#69bfff" stroke="#69bfff" points="115.945,-3359.83 121.242,-3359.91 117.146,-3356.55 115.945,-3359.83"/>
</g>
<!-- 9 -->
<g id="node10" class="node"><title>9</title>
<text text-anchor="middle" x="153.5" y="-3309.2" font-family="Segoe UI" font-size="11.00" fill="#010509">ParamQuery</text>
</g>
<!-- 0&#45;&gt;9 -->
<g id="edge9" class="edge"><title>0&#45;&gt;9</title>
<path fill="none" stroke="#69bfff" d="M28.2544,-1899.2C30.5614,-2059.43 48.7361,-3225.14 90,-3285 96.3996,-3294.28 106.708,-3300.4 117.123,-3304.41"/>
<polygon fill="#69bfff" stroke="#69bfff" points="116.605,-3306.09 121.903,-3306.12 117.78,-3302.79 116.605,-3306.09"/>
</g>
<!-- 10 -->
<g id="node11" class="node"><title>10</title>
<text text-anchor="middle" x="153.5" y="-3255.2" font-family="Segoe UI" font-size="11.00" fill="#010509">SpQuery</text>
</g>
<!-- 0&#45;&gt;10 -->
<g id="edge10" class="edge"><title>0&#45;&gt;10</title>
<path fill="none" stroke="#69bfff" d="M28.2881,-1899.23C30.8339,-2056.09 50.3318,-3173.57 90,-3231 97.2884,-3241.55 109.626,-3248.01 121.423,-3251.95"/>
<polygon fill="#69bfff" stroke="#69bfff" points="121.136,-3253.69 126.429,-3253.49 122.164,-3250.34 121.136,-3253.69"/>
</g>
<!-- 11 -->
<g id="node12" class="node"><title>11</title>
<text text-anchor="middle" x="153.5" y="-3201.2" font-family="Segoe UI" font-size="11.00" fill="#010509">VariableListQuery</text>
</g>
<!-- 0&#45;&gt;11 -->
<g id="edge11" class="edge"><title>0&#45;&gt;11</title>
<path fill="none" stroke="#69bfff" d="M28.3283,-1899.46C31.1367,-2053.6 51.9426,-3122.01 90,-3177 93.5735,-3182.16 98.3555,-3186.35 103.69,-3189.73"/>
<polygon fill="#69bfff" stroke="#69bfff" points="103.083,-3191.4 108.287,-3192.4 104.837,-3188.38 103.083,-3191.4"/>
</g>
<!-- 12 -->
<g id="node13" class="node"><title>12</title>
<text text-anchor="middle" x="153.5" y="-3147.2" font-family="Segoe UI" font-size="11.00" fill="#010509">CompoundIndexQuery</text>
</g>
<!-- 0&#45;&gt;12 -->
<g id="edge12" class="edge"><title>0&#45;&gt;12</title>
<path fill="none" stroke="#69bfff" d="M28.3618,-1899.17C31.404,-2048.56 53.5084,-3070.39 90,-3123 91.4,-3125.02 92.9845,-3126.89 94.7144,-3128.62"/>
<polygon fill="#69bfff" stroke="#69bfff" points="93.5671,-3129.94 98.4569,-3131.98 95.905,-3127.33 93.5671,-3129.94"/>
</g>
<!-- 13 -->
<g id="node14" class="node"><title>13</title>
<text text-anchor="middle" x="153.5" y="-3093.2" font-family="Segoe UI" font-size="11.00" fill="#010509">MemberIndexQuery</text>
</g>
<!-- 0&#45;&gt;13 -->
<g id="edge13" class="edge"><title>0&#45;&gt;13</title>
<path fill="none" stroke="#69bfff" d="M27.8067,-1899.33C26.4526,-2041.78 20.3629,-2968.85 90,-3069 92.425,-3072.49 95.4008,-3075.53 98.725,-3078.18"/>
<polygon fill="#69bfff" stroke="#69bfff" points="97.6996,-3079.6 102.775,-3081.11 99.7535,-3076.76 97.6996,-3079.6"/>
</g>
<!-- 14 -->
<g id="node15" class="node"><title>14</title>
<text text-anchor="middle" x="153.5" y="-3039.2" font-family="Segoe UI" font-size="11.00" fill="#010509">LinkQuery</text>
</g>
<!-- 0&#45;&gt;14 -->
<g id="edge14" class="edge"><title>0&#45;&gt;14</title>
<path fill="none" stroke="#69bfff" d="M27.8549,-1899.37C26.9068,-2038.23 23.542,-2919.67 90,-3015 97.3343,-3025.52 109.679,-3031.97 121.469,-3035.92"/>
<polygon fill="#69bfff" stroke="#69bfff" points="121.178,-3037.66 126.471,-3037.46 122.208,-3034.31 121.178,-3037.66"/>
</g>
<!-- 15 -->
<g id="node16" class="node"><title>15</title>
<text text-anchor="middle" x="153.5" y="-2985.2" font-family="Segoe UI" font-size="11.00" fill="#010509">InternalS3Query</text>
</g>
<!-- 0&#45;&gt;15 -->
<g id="edge15" class="edge"><title>0&#45;&gt;15</title>
<path fill="none" stroke="#69bfff" d="M27.9085,-1899.35C27.3832,-2034.31 26.7078,-2870.48 90,-2961 94.5993,-2967.58 101.156,-2972.57 108.309,-2976.34"/>
<polygon fill="#69bfff" stroke="#69bfff" points="107.565,-2977.93 112.827,-2978.54 109.097,-2974.78 107.565,-2977.93"/>
</g>
<!-- 16 -->
<g id="node17" class="node"><title>16</title>
<text text-anchor="middle" x="153.5" y="-2931.2" font-family="Segoe UI" font-size="11.00" fill="#010509">Sect4Query</text>
</g>
<!-- 0&#45;&gt;16 -->
<g id="edge16" class="edge"><title>0&#45;&gt;16</title>
<path fill="none" stroke="#69bfff" d="M27.9675,-1899.26C27.8817,-2030.03 29.8604,-2821.26 90,-2907 96.8278,-2916.73 107.94,-2922.99 118.915,-2926.99"/>
<polygon fill="#69bfff" stroke="#69bfff" points="118.636,-2928.74 123.933,-2928.68 119.751,-2925.43 118.636,-2928.74"/>
</g>
<!-- 17 -->
<g id="node18" class="node"><title>17</title>
<text text-anchor="middle" x="153.5" y="-2877.2" font-family="Segoe UI" font-size="11.00" fill="#010509">ImageQuery</text>
</g>
<!-- 0&#45;&gt;17 -->
<g id="edge17" class="edge"><title>0&#45;&gt;17</title>
<path fill="none" stroke="#69bfff" d="M28.0322,-1899.1C28.402,-2025.39 32.9997,-2772.03 90,-2853 96.4311,-2862.14 106.634,-2868.21 116.946,-2872.23"/>
<polygon fill="#69bfff" stroke="#69bfff" points="116.382,-2873.89 121.679,-2873.94 117.57,-2870.59 116.382,-2873.89"/>
</g>
<!-- 18 -->
<g id="node19" class="node"><title>18</title>
<text text-anchor="middle" x="153.5" y="-2823.2" font-family="Segoe UI" font-size="11.00" fill="#010509">EntryQuery</text>
</g>
<!-- 0&#45;&gt;18 -->
<g id="edge18" class="edge"><title>0&#45;&gt;18</title>
<path fill="none" stroke="#69bfff" d="M28.1055,-1899.26C28.9595,-2021.89 36.1833,-2722.85 90,-2799 97.1032,-2809.05 108.768,-2815.39 120.108,-2819.38"/>
<polygon fill="#69bfff" stroke="#69bfff" points="119.638,-2821.07 124.934,-2820.95 120.72,-2817.74 119.638,-2821.07"/>
</g>
<!-- 19 -->
<g id="node20" class="node"><title>19</title>
<text text-anchor="middle" x="153.5" y="-2769.2" font-family="Segoe UI" font-size="11.00" fill="#010509">LinkedTextQuery</text>
</g>
<!-- 0&#45;&gt;19 -->
<g id="edge19" class="edge"><title>0&#45;&gt;19</title>
<path fill="none" stroke="#69bfff" d="M28.1879,-1899.32C29.5497,-2017.85 39.3469,-2673.65 90,-2745 94.2249,-2750.95 100.048,-2755.6 106.453,-2759.24"/>
<polygon fill="#69bfff" stroke="#69bfff" points="105.724,-2760.83 110.967,-2761.59 107.343,-2757.73 105.724,-2760.83"/>
</g>
<!-- 20 -->
<g id="node21" class="node"><title>20</title>
<text text-anchor="middle" x="153.5" y="-2715.2" font-family="Segoe UI" font-size="11.00" fill="#010509">TitleQuery</text>
</g>
<!-- 0&#45;&gt;20 -->
<g id="edge20" class="edge"><title>0&#45;&gt;20</title>
<path fill="none" stroke="#69bfff" d="M28.2799,-1899.27C30.172,-2013.27 42.4905,-2624.41 90,-2691 97.3884,-2701.36 109.611,-2707.78 121.297,-2711.74"/>
<polygon fill="#69bfff" stroke="#69bfff" points="120.963,-2713.47 126.257,-2713.29 122.008,-2710.13 120.963,-2713.47"/>
</g>
<!-- 21 -->
<g id="node22" class="node"><title>21</title>
<text text-anchor="middle" x="153.5" y="-2661.2" font-family="Segoe UI" font-size="11.00" fill="#010509">CaptionQuery</text>
</g>
<!-- 0&#45;&gt;21 -->
<g id="edge21" class="edge"><title>0&#45;&gt;21</title>
<path fill="none" stroke="#69bfff" d="M28.3819,-1899.1C30.8263,-2008.15 45.6139,-2575.14 90,-2637 95.6399,-2644.86 104.062,-2650.45 112.91,-2654.43"/>
<polygon fill="#69bfff" stroke="#69bfff" points="112.566,-2656.18 117.855,-2656.47 113.903,-2652.94 112.566,-2656.18"/>
</g>
<!-- 22 -->
<g id="node23" class="node"><title>22</title>
<text text-anchor="middle" x="153.5" y="-2607.2" font-family="Segoe UI" font-size="11.00" fill="#010509">ListQuery</text>
</g>
<!-- 0&#45;&gt;22 -->
<g id="edge22" class="edge"><title>0&#45;&gt;22</title>
<path fill="none" stroke="#69bfff" d="M28.504,-1899.15C31.5494,-2003.63 48.7617,-2525.91 90,-2583 97.4488,-2593.31 109.681,-2599.73 121.358,-2603.7"/>
<polygon fill="#69bfff" stroke="#69bfff" points="121.018,-2605.42 126.313,-2605.25 122.067,-2602.08 121.018,-2605.42"/>
</g>
<!-- 23 -->
<g id="node24" class="node"><title>23</title>
<text text-anchor="middle" x="153.5" y="-2553.2" font-family="Segoe UI" font-size="11.00" fill="#010509">ParBlockQuery</text>
</g>
<!-- 0&#45;&gt;23 -->
<g id="edge23" class="edge"><title>0&#45;&gt;23</title>
<path fill="none" stroke="#69bfff" d="M28.6408,-1899.03C32.3141,-1998.4 51.8824,-2476.63 90,-2529 95.3409,-2536.34 103.1,-2541.7 111.347,-2545.62"/>
<polygon fill="#69bfff" stroke="#69bfff" points="110.685,-2547.24 115.966,-2547.65 112.093,-2544.03 110.685,-2547.24"/>
</g>
<!-- 24 -->
<g id="node25" class="node"><title>24</title>
<text text-anchor="middle" x="153.5" y="-2499.2" font-family="Segoe UI" font-size="11.00" fill="#010509">InternalS2Query</text>
</g>
<!-- 0&#45;&gt;24 -->
<g id="edge24" class="edge"><title>0&#45;&gt;24</title>
<path fill="none" stroke="#69bfff" d="M28.8072,-1899.05C33.1676,-1993.41 55.014,-2427.37 90,-2475 94.605,-2481.27 100.973,-2486.1 107.893,-2489.82"/>
<polygon fill="#69bfff" stroke="#69bfff" points="107.499,-2491.57 112.757,-2492.22 109.047,-2488.43 107.499,-2491.57"/>
</g>
<!-- 25 -->
<g id="node26" class="node"><title>25</title>
<text text-anchor="middle" x="153.5" y="-2445.2" font-family="Segoe UI" font-size="11.00" fill="#010509">SectionDefQuery</text>
</g>
<!-- 0&#45;&gt;25 -->
<g id="edge25" class="edge"><title>0&#45;&gt;25</title>
<path fill="none" stroke="#69bfff" d="M27.7233,-1899.09C26.7796,-1983.22 26.7147,-2335.76 90,-2421 94.0427,-2426.44 99.4127,-2430.81 105.312,-2434.29"/>
<polygon fill="#69bfff" stroke="#69bfff" points="104.684,-2435.94 109.913,-2436.8 106.356,-2432.87 104.684,-2435.94"/>
</g>
<!-- 26 -->
<g id="node27" class="node"><title>26</title>
<text text-anchor="middle" x="153.5" y="-2391.2" font-family="Segoe UI" font-size="11.00" fill="#010509">EmptyQuery</text>
</g>
<!-- 0&#45;&gt;26 -->
<g id="edge26" class="edge"><title>0&#45;&gt;26</title>
<path fill="none" stroke="#69bfff" d="M27.982,-1899.1C28.2446,-1977.98 32.9219,-2291.13 90,-2367 96.5949,-2375.77 106.623,-2381.73 116.728,-2385.76"/>
<polygon fill="#69bfff" stroke="#69bfff" points="116.383,-2387.5 121.68,-2387.59 117.597,-2384.22 116.383,-2387.5"/>
</g>
<!-- 27 -->
<g id="node28" class="node"><title>27</title>
<text text-anchor="middle" x="153.5" y="-2337.2" font-family="Segoe UI" font-size="11.00" fill="#010509">Sect3Query</text>
</g>
<!-- 0&#45;&gt;27 -->
<g id="edge27" class="edge"><title>0&#45;&gt;27</title>
<path fill="none" stroke="#69bfff" d="M28.3082,-1899.29C29.8889,-1972.86 39.1463,-2246.49 90,-2313 97.0975,-2322.28 108.034,-2328.42 118.785,-2332.46"/>
<polygon fill="#69bfff" stroke="#69bfff" points="118.401,-2334.18 123.698,-2334.17 119.553,-2330.88 118.401,-2334.18"/>
</g>
<!-- 28 -->
<g id="node29" class="node"><title>28</title>
<text text-anchor="middle" x="153.5" y="-2283.2" font-family="Segoe UI" font-size="11.00" fill="#010509">InternalS4Query</text>
</g>
<!-- 0&#45;&gt;28 -->
<g id="edge28" class="edge"><title>0&#45;&gt;28</title>
<path fill="none" stroke="#69bfff" d="M28.7236,-1899.27C31.7365,-1966.85 45.2949,-2201.73 90,-2259 94.7275,-2265.06 101.084,-2269.78 107.936,-2273.45"/>
<polygon fill="#69bfff" stroke="#69bfff" points="107.489,-2275.18 112.746,-2275.83 109.041,-2272.05 107.489,-2275.18"/>
</g>
<!-- 29 -->
<g id="node30" class="node"><title>29</title>
<text text-anchor="middle" x="153.5" y="-2229.2" font-family="Segoe UI" font-size="11.00" fill="#010509">XRefSectQuery</text>
</g>
<!-- 0&#45;&gt;29 -->
<g id="edge29" class="edge"><title>0&#45;&gt;29</title>
<path fill="none" stroke="#69bfff" d="M29.2651,-1899.15C33.8484,-1960.18 51.388,-2156.86 90,-2205 95.3897,-2211.72 102.776,-2216.8 110.584,-2220.63"/>
<polygon fill="#69bfff" stroke="#69bfff" points="110.211,-2222.39 115.487,-2222.86 111.659,-2219.2 110.211,-2222.39"/>
</g>
<!-- 30 -->
<g id="node31" class="node"><title>30</title>
<text text-anchor="middle" x="153.5" y="-2175.2" font-family="Segoe UI" font-size="11.00" fill="#010509">NodeQuery</text>
</g>
<!-- 0&#45;&gt;30 -->
<g id="edge30" class="edge"><title>0&#45;&gt;30</title>
<path fill="none" stroke="#69bfff" d="M30.0187,-1899.1C36.3667,-1953.12 57.4546,-2111.92 90,-2151 97.3461,-2159.82 108.114,-2165.84 118.651,-2169.9"/>
<polygon fill="#69bfff" stroke="#69bfff" points="118.165,-2171.59 123.462,-2171.64 119.352,-2168.3 118.165,-2171.59"/>
</g>
<!-- 31 -->
<g id="node32" class="node"><title>31</title>
<text text-anchor="middle" x="153.5" y="-2121.2" font-family="Segoe UI" font-size="11.00" fill="#010509">ParaQuery</text>
</g>
<!-- 0&#45;&gt;31 -->
<g id="edge31" class="edge"><title>0&#45;&gt;31</title>
<path fill="none" stroke="#69bfff" d="M28.2058,-1899.07C29.616,-1939.53 38.4749,-2038.4 90,-2097 98.1954,-2106.32 110.182,-2112.54 121.472,-2116.63"/>
<polygon fill="#69bfff" stroke="#69bfff" points="120.957,-2118.3 126.254,-2118.25 122.084,-2114.99 120.957,-2118.3"/>
</g>
<!-- 32 -->
<g id="node33" class="node"><title>32</title>
<text text-anchor="middle" x="153.5" y="-2067.2" font-family="Segoe UI" font-size="11.00" fill="#010509">RefQuery</text>
</g>
<!-- 0&#45;&gt;32 -->
<g id="edge32" class="edge"><title>0&#45;&gt;32</title>
<path fill="none" stroke="#69bfff" d="M30.3028,-1899.26C35.3531,-1932.1 50.301,-2001.59 90,-2043 98.5169,-2051.88 110.445,-2058.01 121.601,-2062.15"/>
<polygon fill="#69bfff" stroke="#69bfff" points="121.025,-2063.8 126.322,-2063.8 122.183,-2060.5 121.025,-2063.8"/>
</g>
<!-- 33 -->
<g id="node34" class="node"><title>33</title>
<text text-anchor="middle" x="153.5" y="-2013.2" font-family="Segoe UI" font-size="11.00" fill="#010509">Sect1Query</text>
</g>
<!-- 0&#45;&gt;33 -->
<g id="edge33" class="edge"><title>0&#45;&gt;33</title>
<path fill="none" stroke="#69bfff" d="M34.2158,-1899.03C43.1657,-1922.59 61.7741,-1963.81 90,-1989 98.26,-1996.37 108.843,-2001.97 118.943,-2006.09"/>
<polygon fill="#69bfff" stroke="#69bfff" points="118.556,-2007.82 123.851,-2008 119.826,-2004.56 118.556,-2007.82"/>
</g>
<!-- 34 -->
<g id="node35" class="node"><title>34</title>
<text text-anchor="middle" x="153.5" y="-1959.2" font-family="Segoe UI" font-size="11.00" fill="#010509">InternalS1Query</text>
</g>
<!-- 0&#45;&gt;34 -->
<g id="edge34" class="edge"><title>0&#45;&gt;34</title>
<path fill="none" stroke="#69bfff" d="M45.7953,-1899.16C57.5877,-1910.49 73.8162,-1924.8 90,-1935 95.6583,-1938.56 101.868,-1941.87 108.11,-1944.86"/>
<polygon fill="#69bfff" stroke="#69bfff" points="107.609,-1946.56 112.88,-1947.09 109.088,-1943.39 107.609,-1946.56"/>
</g>
<!-- 35 -->
<g id="node36" class="node"><title>35</title>
<text text-anchor="middle" x="153.5" y="-1905.2" font-family="Segoe UI" font-size="11.00" fill="#010509">RefTextQuery</text>
</g>
<!-- 0&#45;&gt;35 -->
<g id="edge35" class="edge"><title>0&#45;&gt;35</title>
<path fill="none" stroke="#69bfff" d="M54.0993,-1886.66C71.3057,-1890.39 94.1513,-1895.35 113.498,-1899.54"/>
<polygon fill="#69bfff" stroke="#69bfff" points="113.597,-1901.35 118.855,-1900.7 114.339,-1897.93 113.597,-1901.35"/>
</g>
<!-- 36 -->
<g id="node37" class="node"><title>36</title>
<text text-anchor="middle" x="153.5" y="-1851.2" font-family="Segoe UI" font-size="11.00" fill="#010509">CopyQuery</text>
</g>
<!-- 0&#45;&gt;36 -->
<g id="edge36" class="edge"><title>0&#45;&gt;36</title>
<path fill="none" stroke="#69bfff" d="M54.0993,-1875.34C73.1618,-1871.21 99.1458,-1865.57 119.626,-1861.13"/>
<polygon fill="#69bfff" stroke="#69bfff" points="120.191,-1862.8 124.706,-1860.03 119.449,-1859.38 120.191,-1862.8"/>
</g>
<!-- 37 -->
<g id="node38" class="node"><title>37</title>
<text text-anchor="middle" x="153.5" y="-1797.2" font-family="Segoe UI" font-size="11.00" fill="#010509">TocListQuery</text>
</g>
<!-- 0&#45;&gt;37 -->
<g id="edge37" class="edge"><title>0&#45;&gt;37</title>
<path fill="none" stroke="#69bfff" d="M45.7953,-1862.84C57.5877,-1851.51 73.8162,-1837.2 90,-1827 97.9319,-1822 106.948,-1817.51 115.615,-1813.69"/>
<polygon fill="#69bfff" stroke="#69bfff" points="116.484,-1815.22 120.385,-1811.64 115.101,-1812.01 116.484,-1815.22"/>
</g>
<!-- 38 -->
<g id="node39" class="node"><title>38</title>
<text text-anchor="middle" x="153.5" y="-1743.2" font-family="Segoe UI" font-size="11.00" fill="#010509">MarkupQuery</text>
</g>
<!-- 0&#45;&gt;38 -->
<g id="edge38" class="edge"><title>0&#45;&gt;38</title>
<path fill="none" stroke="#69bfff" d="M34.2158,-1862.97C43.1657,-1839.41 61.7741,-1798.19 90,-1773 96.9193,-1766.82 105.469,-1761.9 113.999,-1758.03"/>
<polygon fill="#69bfff" stroke="#69bfff" points="114.827,-1759.58 118.726,-1756 113.442,-1756.37 114.827,-1759.58"/>
</g>
<!-- 39 -->
<g id="node40" class="node"><title>39</title>
<text text-anchor="middle" x="153.5" y="-1689.2" font-family="Segoe UI" font-size="11.00" fill="#010509">CompoundDefQuery</text>
</g>
<!-- 0&#45;&gt;39 -->
<g id="edge39" class="edge"><title>0&#45;&gt;39</title>
<path fill="none" stroke="#69bfff" d="M30.3028,-1862.74C35.3531,-1829.9 50.301,-1760.41 90,-1719 91.9937,-1716.92 94.1744,-1714.99 96.4884,-1713.2"/>
<polygon fill="#69bfff" stroke="#69bfff" points="97.7323,-1714.47 100.786,-1710.14 95.6993,-1711.62 97.7323,-1714.47"/>
</g>
<!-- 40 -->
<g id="node41" class="node"><title>40</title>
<text text-anchor="middle" x="153.5" y="-1635.2" font-family="Segoe UI" font-size="11.00" fill="#010509">VarListEntryQuery</text>
</g>
<!-- 0&#45;&gt;40 -->
<g id="edge40" class="edge"><title>0&#45;&gt;40</title>
<path fill="none" stroke="#69bfff" d="M28.2058,-1862.93C29.616,-1822.47 38.4749,-1723.6 90,-1665 93.9026,-1660.56 98.6649,-1656.83 103.802,-1653.69"/>
<polygon fill="#69bfff" stroke="#69bfff" points="104.713,-1655.19 108.195,-1651.19 102.983,-1652.14 104.713,-1655.19"/>
</g>
<!-- 41 -->
<g id="node42" class="node"><title>41</title>
<text text-anchor="middle" x="153.5" y="-1581.2" font-family="Segoe UI" font-size="11.00" fill="#010509">MemberDefQuery</text>
</g>
<!-- 0&#45;&gt;41 -->
<g id="edge41" class="edge"><title>0&#45;&gt;41</title>
<path fill="none" stroke="#69bfff" d="M30.0187,-1862.9C36.3667,-1808.88 57.4546,-1650.08 90,-1611 93.5903,-1606.69 97.9981,-1603.05 102.797,-1599.98"/>
<polygon fill="#69bfff" stroke="#69bfff" points="103.887,-1601.36 107.301,-1597.31 102.106,-1598.35 103.887,-1601.36"/>
</g>
<!-- 42 -->
<g id="node43" class="node"><title>42</title>
<text text-anchor="middle" x="153.5" y="-1527.2" font-family="Segoe UI" font-size="11.00" fill="#010509">ReimplementQuery</text>
</g>
<!-- 0&#45;&gt;42 -->
<g id="edge42" class="edge"><title>0&#45;&gt;42</title>
<path fill="none" stroke="#69bfff" d="M29.2651,-1862.85C33.8484,-1801.82 51.388,-1605.14 90,-1557 92.711,-1553.62 95.9271,-1550.65 99.4481,-1548.05"/>
<polygon fill="#69bfff" stroke="#69bfff" points="100.552,-1549.42 103.709,-1545.17 98.5885,-1546.52 100.552,-1549.42"/>
</g>
<!-- 43 -->
<g id="node44" class="node"><title>43</title>
<text text-anchor="middle" x="153.5" y="-1473.2" font-family="Segoe UI" font-size="11.00" fill="#010509">InternalQuery</text>
</g>
<!-- 0&#45;&gt;43 -->
<g id="edge43" class="edge"><title>0&#45;&gt;43</title>
<path fill="none" stroke="#69bfff" d="M28.7236,-1862.73C31.7365,-1795.15 45.2949,-1560.27 90,-1503 96.1315,-1495.15 105.003,-1489.54 114.144,-1485.54"/>
<polygon fill="#69bfff" stroke="#69bfff" points="114.96,-1487.1 118.936,-1483.6 113.645,-1483.86 114.96,-1487.1"/>
</g>
<!-- 44 -->
<g id="node45" class="node"><title>44</title>
<text text-anchor="middle" x="153.5" y="-1419.2" font-family="Segoe UI" font-size="11.00" fill="#010509">ParamListItemQuery</text>
</g>
<!-- 0&#45;&gt;44 -->
<g id="edge44" class="edge"><title>0&#45;&gt;44</title>
<path fill="none" stroke="#69bfff" d="M28.3082,-1862.71C29.8889,-1789.14 39.1463,-1515.51 90,-1449 92.3198,-1445.97 95.0498,-1443.27 98.0493,-1440.87"/>
<polygon fill="#69bfff" stroke="#69bfff" points="99.2808,-1442.14 102.294,-1437.78 97.2211,-1439.31 99.2808,-1442.14"/>
</g>
<!-- 45 -->
<g id="node46" class="node"><title>45</title>
<text text-anchor="middle" x="153.5" y="-1365.2" font-family="Segoe UI" font-size="11.00" fill="#010509">DescriptionQuery</text>
</g>
<!-- 0&#45;&gt;45 -->
<g id="edge45" class="edge"><title>0&#45;&gt;45</title>
<path fill="none" stroke="#69bfff" d="M27.982,-1862.9C28.2446,-1784.02 32.9219,-1470.87 90,-1395 93.7749,-1389.98 98.6745,-1385.88 104.07,-1382.54"/>
<polygon fill="#69bfff" stroke="#69bfff" points="105.223,-1383.9 108.704,-1379.9 103.493,-1380.86 105.223,-1383.9"/>
</g>
<!-- 46 -->
<g id="node47" class="node"><title>46</title>
<text text-anchor="middle" x="153.5" y="-1311.2" font-family="Segoe UI" font-size="11.00" fill="#010509">ReferenceQuery</text>
</g>
<!-- 0&#45;&gt;46 -->
<g id="edge46" class="edge"><title>0&#45;&gt;46</title>
<path fill="none" stroke="#69bfff" d="M27.7233,-1862.91C26.7796,-1778.78 26.7147,-1426.24 90,-1341 94.6372,-1334.75 101.021,-1329.94 107.946,-1326.22"/>
<polygon fill="#69bfff" stroke="#69bfff" points="109.101,-1327.6 112.813,-1323.82 107.554,-1324.47 109.101,-1327.6"/>
</g>
<!-- 47 -->
<g id="node48" class="node"><title>47</title>
<text text-anchor="middle" x="153.5" y="-1257.2" font-family="Segoe UI" font-size="11.00" fill="#010509">ParamListQuery</text>
</g>
<!-- 0&#45;&gt;47 -->
<g id="edge47" class="edge"><title>0&#45;&gt;47</title>
<path fill="none" stroke="#69bfff" d="M28.8072,-1862.95C33.1676,-1768.59 55.014,-1334.63 90,-1287 94.8094,-1280.45 101.542,-1275.47 108.818,-1271.69"/>
<polygon fill="#69bfff" stroke="#69bfff" points="109.655,-1273.23 113.406,-1269.49 108.141,-1270.08 109.655,-1273.23"/>
</g>
<!-- 48 -->
<g id="node49" class="node"><title>48</title>
<text text-anchor="middle" x="153.5" y="-1203.2" font-family="Segoe UI" font-size="11.00" fill="#010509">ListOfAllMembersQuery</text>
</g>
<!-- 0&#45;&gt;48 -->
<g id="edge48" class="edge"><title>0&#45;&gt;48</title>
<path fill="none" stroke="#69bfff" d="M28.6408,-1862.97C32.3141,-1763.6 51.8824,-1285.37 90,-1233 91.4455,-1231.01 93.0683,-1229.17 94.8298,-1227.47"/>
<polygon fill="#69bfff" stroke="#69bfff" points="96.0149,-1228.75 98.6285,-1224.15 93.7119,-1226.12 96.0149,-1228.75"/>
</g>
<!-- 49 -->
<g id="node50" class="node"><title>49</title>
<text text-anchor="middle" x="153.5" y="-1149.2" font-family="Segoe UI" font-size="11.00" fill="#010509">BlockQuoteQuery</text>
</g>
<!-- 0&#45;&gt;49 -->
<g id="edge49" class="edge"><title>0&#45;&gt;49</title>
<path fill="none" stroke="#69bfff" d="M28.504,-1862.85C31.5494,-1758.37 48.7617,-1236.09 90,-1179 93.6228,-1173.98 98.377,-1169.89 103.649,-1166.55"/>
<polygon fill="#69bfff" stroke="#69bfff" points="104.737,-1167.94 108.185,-1163.92 102.982,-1164.92 104.737,-1167.94"/>
</g>
<!-- 50 -->
<g id="node51" class="node"><title>50</title>
<text text-anchor="middle" x="153.5" y="-1095.2" font-family="Segoe UI" font-size="11.00" fill="#010509">TocItemQuery</text>
</g>
<!-- 0&#45;&gt;50 -->
<g id="edge50" class="edge"><title>0&#45;&gt;50</title>
<path fill="none" stroke="#69bfff" d="M28.3819,-1862.9C30.8263,-1753.85 45.6139,-1186.86 90,-1125 95.5236,-1117.3 103.716,-1111.78 112.363,-1107.82"/>
<polygon fill="#69bfff" stroke="#69bfff" points="113.274,-1109.34 117.201,-1105.78 111.914,-1106.11 113.274,-1109.34"/>
</g>
<!-- 51 -->
<g id="node52" class="node"><title>51</title>
<text text-anchor="middle" x="153.5" y="-1041.2" font-family="Segoe UI" font-size="11.00" fill="#010509">CodeLineQuery</text>
</g>
<!-- 0&#45;&gt;51 -->
<g id="edge51" class="edge"><title>0&#45;&gt;51</title>
<path fill="none" stroke="#69bfff" d="M28.2799,-1862.73C30.172,-1748.73 42.4905,-1137.59 90,-1071 94.8891,-1064.15 101.895,-1059.02 109.462,-1055.18"/>
<polygon fill="#69bfff" stroke="#69bfff" points="110.44,-1056.66 114.232,-1052.96 108.96,-1053.49 110.44,-1056.66"/>
</g>
<!-- 52 -->
<g id="node53" class="node"><title>52</title>
<text text-anchor="middle" x="153.5" y="-987.2" font-family="Segoe UI" font-size="11.00" fill="#010509">TableQuery</text>
</g>
<!-- 0&#45;&gt;52 -->
<g id="edge52" class="edge"><title>0&#45;&gt;52</title>
<path fill="none" stroke="#69bfff" d="M28.1879,-1862.68C29.5497,-1744.15 39.3469,-1088.35 90,-1017 96.764,-1007.47 107.624,-1001.28 118.409,-997.26"/>
<polygon fill="#69bfff" stroke="#69bfff" points="119.183,-998.844 123.343,-995.564 118.046,-995.534 119.183,-998.844"/>
</g>
<!-- 53 -->
<g id="node54" class="node"><title>53</title>
<text text-anchor="middle" x="153.5" y="-933.2" font-family="Segoe UI" font-size="11.00" fill="#010509">CompoundRefQuery</text>
</g>
<!-- 0&#45;&gt;53 -->
<g id="edge53" class="edge"><title>0&#45;&gt;53</title>
<path fill="none" stroke="#69bfff" d="M28.1055,-1862.74C28.9595,-1740.11 36.1833,-1039.15 90,-963 92.0145,-960.149 94.396,-957.597 97.0329,-955.313"/>
<polygon fill="#69bfff" stroke="#69bfff" points="98.4989,-956.389 101.371,-951.938 96.3499,-953.627 98.4989,-956.389"/>
</g>
<!-- 54 -->
<g id="node55" class="node"><title>54</title>
<text text-anchor="middle" x="153.5" y="-879.2" font-family="Segoe UI" font-size="11.00" fill="#010509">UrlLinkQuery</text>
</g>
<!-- 0&#45;&gt;54 -->
<g id="edge54" class="edge"><title>0&#45;&gt;54</title>
<path fill="none" stroke="#69bfff" d="M28.0322,-1862.9C28.402,-1736.61 32.9997,-989.975 90,-909 96.1393,-900.278 105.716,-894.351 115.543,-890.331"/>
<polygon fill="#69bfff" stroke="#69bfff" points="116.315,-891.91 120.374,-888.507 115.078,-888.636 116.315,-891.91"/>
</g>
<!-- 55 -->
<g id="node56" class="node"><title>55</title>
<text text-anchor="middle" x="153.5" y="-825.2" font-family="Segoe UI" font-size="11.00" fill="#010509">LocationQuery</text>
</g>
<!-- 0&#45;&gt;55 -->
<g id="edge55" class="edge"><title>0&#45;&gt;55</title>
<path fill="none" stroke="#69bfff" d="M27.9675,-1862.74C27.8817,-1731.97 29.8604,-940.739 90,-855 95.2116,-847.57 102.919,-842.168 111.157,-838.246"/>
<polygon fill="#69bfff" stroke="#69bfff" points="111.902,-839.83 115.775,-836.216 110.494,-836.626 111.902,-839.83"/>
</g>
<!-- 56 -->
<g id="node57" class="node"><title>56</title>
<text text-anchor="middle" x="153.5" y="-771.2" font-family="Segoe UI" font-size="11.00" fill="#010509">ParamNameQuery</text>
</g>
<!-- 0&#45;&gt;56 -->
<g id="edge56" class="edge"><title>0&#45;&gt;56</title>
<path fill="none" stroke="#69bfff" d="M27.9085,-1862.65C27.3832,-1727.69 26.7078,-891.523 90,-801 93.2669,-796.328 97.5215,-792.457 102.276,-789.253"/>
<polygon fill="#69bfff" stroke="#69bfff" points="103.424,-790.602 106.768,-786.493 101.592,-787.619 103.424,-790.602"/>
</g>
<!-- 57 -->
<g id="node58" class="node"><title>57</title>
<text text-anchor="middle" x="153.5" y="-717.2" font-family="Segoe UI" font-size="11.00" fill="#010509">IndexEntryQuery</text>
</g>
<!-- 0&#45;&gt;57 -->
<g id="edge57" class="edge"><title>0&#45;&gt;57</title>
<path fill="none" stroke="#69bfff" d="M27.8549,-1862.63C26.9068,-1723.77 23.542,-842.327 90,-747 94.2291,-740.934 100.124,-736.22 106.618,-732.56"/>
<polygon fill="#69bfff" stroke="#69bfff" points="107.56,-734.043 111.196,-730.191 105.951,-730.935 107.56,-734.043"/>
</g>
<!-- 58 -->
<g id="node59" class="node"><title>58</title>
<text text-anchor="middle" x="153.5" y="-663.2" font-family="Segoe UI" font-size="11.00" fill="#010509">ParamNameListQuery</text>
</g>
<!-- 0&#45;&gt;58 -->
<g id="edge58" class="edge"><title>0&#45;&gt;58</title>
<path fill="none" stroke="#69bfff" d="M27.8067,-1862.67C26.4526,-1720.22 20.3629,-793.152 90,-693 91.4023,-690.983 92.9887,-689.116 94.7202,-687.387"/>
<polygon fill="#69bfff" stroke="#69bfff" points="95.9105,-688.671 98.4655,-684.03 93.5743,-686.064 95.9105,-688.671"/>
</g>
<!-- 59 -->
<g id="node60" class="node"><title>59</title>
<text text-anchor="middle" x="153.5" y="-609.2" font-family="Segoe UI" font-size="11.00" fill="#010509">MemberRefQuery</text>
</g>
<!-- 0&#45;&gt;59 -->
<g id="edge59" class="edge"><title>0&#45;&gt;59</title>
<path fill="none" stroke="#69bfff" d="M28.3618,-1862.83C31.404,-1713.44 53.5084,-691.609 90,-639 93.5789,-633.84 98.3639,-629.66 103.7,-626.273"/>
<polygon fill="#69bfff" stroke="#69bfff" points="104.848,-627.631 108.298,-623.612 103.094,-624.602 104.848,-627.631"/>
</g>
<!-- 60 -->
<g id="node61" class="node"><title>60</title>
<text text-anchor="middle" x="153.5" y="-555.2" font-family="Segoe UI" font-size="11.00" fill="#010509">HeadingQuery</text>
</g>
<!-- 0&#45;&gt;60 -->
<g id="edge60" class="edge"><title>0&#45;&gt;60</title>
<path fill="none" stroke="#69bfff" d="M28.3283,-1862.54C31.1367,-1708.4 51.9426,-639.988 90,-585 95.1648,-577.538 102.854,-572.123 111.088,-568.198"/>
<polygon fill="#69bfff" stroke="#69bfff" points="111.833,-569.782 115.706,-566.168 110.425,-566.578 111.833,-569.782"/>
</g>
<!-- 61 -->
<g id="node62" class="node"><title>61</title>
<text text-anchor="middle" x="153.5" y="-501.2" font-family="Segoe UI" font-size="11.00" fill="#010509">GraphQuery</text>
</g>
<!-- 0&#45;&gt;61 -->
<g id="edge61" class="edge"><title>0&#45;&gt;61</title>
<path fill="none" stroke="#69bfff" d="M28.2881,-1862.77C30.8339,-1705.91 50.3318,-588.432 90,-531 96.466,-521.638 106.906,-515.5 117.417,-511.483"/>
<polygon fill="#69bfff" stroke="#69bfff" points="118.104,-513.097 122.237,-509.784 116.94,-509.796 118.104,-513.097"/>
</g>
<!-- 62 -->
<g id="node63" class="node"><title>62</title>
<text text-anchor="middle" x="153.5" y="-447.2" font-family="Segoe UI" font-size="11.00" fill="#010509">FormulaQuery</text>
</g>
<!-- 0&#45;&gt;62 -->
<g id="edge62" class="edge"><title>0&#45;&gt;62</title>
<path fill="none" stroke="#69bfff" d="M28.2544,-1862.8C30.5614,-1702.57 48.7361,-536.855 90,-477 95.4341,-469.117 103.687,-463.52 112.43,-459.551"/>
<polygon fill="#69bfff" stroke="#69bfff" points="113.382,-461.05 117.323,-457.509 112.034,-457.82 113.382,-461.05"/>
</g>
<!-- 63 -->
<g id="node64" class="node"><title>63</title>
<text text-anchor="middle" x="153.5" y="-393.2" font-family="Segoe UI" font-size="11.00" fill="#010509">SimpleSectQuery</text>
</g>
<!-- 0&#45;&gt;63 -->
<g id="edge63" class="edge"><title>0&#45;&gt;63</title>
<path fill="none" stroke="#69bfff" d="M28.2227,-1862.88C30.2973,-1699.53 47.1355,-485.286 90,-423 93.898,-417.336 99.2517,-412.852 105.198,-409.304"/>
<polygon fill="#69bfff" stroke="#69bfff" points="106.295,-410.699 109.847,-406.769 104.619,-407.626 106.295,-410.699"/>
</g>
<!-- 64 -->
<g id="node65" class="node"><title>64</title>
<text text-anchor="middle" x="153.5" y="-339.2" font-family="Segoe UI" font-size="11.00" fill="#010509">ParamTypeQuery</text>
</g>
<!-- 0&#45;&gt;64 -->
<g id="edge64" class="edge"><title>0&#45;&gt;64</title>
<path fill="none" stroke="#69bfff" d="M28.1959,-1862.74C30.0579,-1695.45 45.5532,-433.69 90,-369 93.8937,-363.333 99.2451,-358.847 105.191,-355.298"/>
<polygon fill="#69bfff" stroke="#69bfff" points="106.287,-356.694 109.839,-352.763 104.611,-353.621 106.287,-356.694"/>
</g>
<!-- 65 -->
<g id="node66" class="node"><title>65</title>
<text text-anchor="middle" x="153.5" y="-285.2" font-family="Segoe UI" font-size="11.00" fill="#010509">DoxygenIndexQuery</text>
</g>
<!-- 0&#45;&gt;65 -->
<g id="edge65" class="edge"><title>0&#45;&gt;65</title>
<path fill="none" stroke="#69bfff" d="M28.1678,-1862.89C29.8093,-1692.93 43.9436,-382.134 90,-315 92.1606,-311.851 94.7715,-309.066 97.6846,-306.604"/>
<polygon fill="#69bfff" stroke="#69bfff" points="98.9151,-307.867 101.83,-303.444 96.7931,-305.084 98.9151,-307.867"/>
</g>
<!-- 66 -->
<g id="node67" class="node"><title>66</title>
<text text-anchor="middle" x="153.5" y="-231.2" font-family="Segoe UI" font-size="11.00" fill="#010509">ListItemQuery</text>
</g>
<!-- 0&#45;&gt;66 -->
<g id="edge66" class="edge"><title>0&#45;&gt;66</title>
<path fill="none" stroke="#69bfff" d="M28.1437,-1862.82C29.5826,-1689.28 42.3539,-330.55 90,-261 95.5237,-252.937 104,-247.266 112.944,-243.283"/>
<polygon fill="#69bfff" stroke="#69bfff" points="113.979,-244.75 117.946,-241.239 112.656,-241.51 113.979,-244.75"/>
</g>
<!-- 67 -->
<g id="node68" class="node"><title>67</title>
<text text-anchor="middle" x="153.5" y="-177.2" font-family="Segoe UI" font-size="11.00" fill="#010509">RowQuery</text>
</g>
<!-- 0&#45;&gt;67 -->
<g id="edge67" class="edge"><title>0&#45;&gt;67</title>
<path fill="none" stroke="#69bfff" d="M28.1209,-1862.77C29.3616,-1685.82 40.761,-278.97 90,-207 97.2415,-196.416 109.572,-189.953 121.376,-186.02"/>
<polygon fill="#69bfff" stroke="#69bfff" points="122.119,-187.623 126.387,-184.484 121.093,-184.276 122.119,-187.623"/>
</g>
<!-- 68 -->
<g id="node69" class="node"><title>68</title>
<text text-anchor="middle" x="153.5" y="-123.2" font-family="Segoe UI" font-size="11.00" fill="#010509">IncQuery</text>
</g>
<!-- 0&#45;&gt;68 -->
<g id="edge68" class="edge"><title>0&#45;&gt;68</title>
<path fill="none" stroke="#69bfff" d="M28.0992,-1862.75C29.1463,-1682.56 39.1648,-227.395 90,-153 97.2354,-142.411 109.565,-135.948 121.37,-132.016"/>
<polygon fill="#69bfff" stroke="#69bfff" points="122.113,-133.618 126.381,-130.48 121.088,-130.272 122.113,-133.618"/>
</g>
<!-- 69 -->
<g id="node70" class="node"><title>69</title>
<text text-anchor="middle" x="153.5" y="-69.2" font-family="Segoe UI" font-size="11.00" fill="#010509">EnumValueQuery</text>
</g>
<!-- 0&#45;&gt;69 -->
<g id="edge69" class="edge"><title>0&#45;&gt;69</title>
<path fill="none" stroke="#69bfff" d="M28.0787,-1862.75C28.9367,-1679.49 37.5653,-175.826 90,-99 93.8761,-93.3208 99.2179,-88.8285 105.159,-85.2769"/>
<polygon fill="#69bfff" stroke="#69bfff" points="106.255,-86.6724 109.805,-82.7402 104.578,-83.6005 106.255,-86.6724"/>
</g>
<!-- 70 -->
<g id="node71" class="node"><title>70</title>
<text text-anchor="middle" x="153.5" y="-15.2" font-family="Segoe UI" font-size="11.00" fill="#010509">AnchorQuery</text>
</g>
<!-- 0&#45;&gt;70 -->
<g id="edge70" class="edge"><title>0&#45;&gt;70</title>
<path fill="none" stroke="#69bfff" d="M28.0593,-1862.79C28.7328,-1676.61 35.9626,-124.261 90,-45 95.9508,-36.2715 105.364,-30.3467 115.097,-26.3318"/>
<polygon fill="#69bfff" stroke="#69bfff" points="115.836,-27.9233 119.887,-24.5104 114.592,-24.6518 115.836,-27.9233"/>
</g>
</g>
</svg>
