<?xml version="1.0" encoding="UTF-8" standalone="no"?>
<!DOCTYPE svg PUBLIC "-//W3C//DTD SVG 1.1//EN"
 "http://www.w3.org/Graphics/SVG/1.1/DTD/svg11.dtd">
<!-- Generated by graphviz version 2.38.0 (20140413.2041)
 -->
<!-- Title: %3 Pages: 1 -->
<svg width="356pt" height="226pt"
 viewBox="0.72 0.72 355.72 225.72" xmlns="http://www.w3.org/2000/svg" xmlns:xlink="http://www.w3.org/1999/xlink">
<g id="graph0" class="graph" transform="scale(1 1) rotate(0) translate(4.72 221.72)">
<title>%3</title>
<polygon fill="#f8f8fa" stroke="none" points="-4,4 -4,-221 351,-221 351,4 -4,4"/>
<text text-anchor="middle" x="173.5" y="-205" font-family="Segoe UI" font-size="10.00">Build Routine</text>
<!-- SiteBuilder -->
<g id="node1" class="node"><title>SiteBuilder</title>
<text text-anchor="middle" x="27" y="-96.5" font-family="Segoe UI" font-size="10.00" fill="#222222">SiteBuilder</text>
</g>
<!-- Config -->
<g id="node2" class="node"><title>Config</title>
<text text-anchor="middle" x="27" y="-42.5" font-family="Segoe UI" font-size="10.00" fill="#222222">Config</text>
</g>
<!-- SiteBuilder&#45;&gt;Config -->
<g id="edge1" class="edge"><title>SiteBuilder&#45;&gt;Config</title>
<path fill="none" stroke="#606ee0" d="M27,-75.5505C27,-71.4138 27,-67.2772 27,-63.1406"/>
<polygon fill="#606ee0" stroke="#606ee0" points="25.2501,-75.7901 27,-80.7902 28.7501,-75.7902 25.2501,-75.7901"/>
</g>
<!-- buildFromXml -->
<g id="node3" class="node"><title>buildFromXml</title>
<text text-anchor="middle" x="121.5" y="-96.5" font-family="Segoe UI" font-size="10.00" fill="#222222">buildFromXml</text>
</g>
<!-- SiteBuilder&#45;&gt;buildFromXml -->
<g id="edge2" class="edge"><title>SiteBuilder&#45;&gt;buildFromXml</title>
<path fill="none" stroke="#606ee0" d="M54.2594,-99C63.72,-99 74.5625,-99 84.6986,-99"/>
<polygon fill="#606ee0" stroke="#606ee0" points="84.9236,-100.75 89.9236,-99 84.9236,-97.2501 84.9236,-100.75"/>
</g>
<!-- Build -->
<g id="node4" class="node"><title>Build</title>
<text text-anchor="middle" x="223" y="-177.5" font-family="Segoe UI" font-size="10.00" fill="#222222">Build</text>
</g>
<!-- buildFromXml&#45;&gt;Build -->
<g id="edge3" class="edge"><title>buildFromXml&#45;&gt;Build</title>
<path fill="none" stroke="#606ee0" d="M145.078,-117.38C160.195,-129.687 180.141,-145.924 195.934,-158.78"/>
<polygon fill="#606ee0" stroke="#606ee0" points="194.872,-160.172 199.854,-161.972 197.081,-157.458 194.872,-160.172"/>
</g>
<!-- WriteIndex -->
<g id="node5" class="node"><title>WriteIndex</title>
<text text-anchor="middle" x="223" y="-123.5" font-family="Segoe UI" font-size="10.00" fill="#222222">WriteIndex</text>
</g>
<!-- buildFromXml&#45;&gt;WriteIndex -->
<g id="edge4" class="edge"><title>buildFromXml&#45;&gt;WriteIndex</title>
<path fill="none" stroke="#606ee0" d="M153.165,-107.321C165.156,-110.575 178.891,-114.302 190.922,-117.567"/>
<polygon fill="#606ee0" stroke="#606ee0" points="190.679,-119.314 195.963,-118.935 191.596,-115.936 190.679,-119.314"/>
</g>
<!-- Dispatch -->
<g id="node6" class="node"><title>Dispatch</title>
<text text-anchor="middle" x="223" y="-69.5" font-family="Segoe UI" font-size="10.00" fill="#222222">Dispatch</text>
</g>
<!-- buildFromXml&#45;&gt;Dispatch -->
<g id="edge5" class="edge"><title>buildFromXml&#45;&gt;Dispatch</title>
<path fill="none" stroke="#606ee0" d="M153.165,-90.6788C165.156,-87.4249 178.891,-83.698 190.922,-80.4334"/>
<polygon fill="#606ee0" stroke="#606ee0" points="191.596,-82.0637 195.963,-79.0653 190.679,-78.6859 191.596,-82.0637"/>
</g>
<!-- ConvertGraphs -->
<g id="node7" class="node"><title>ConvertGraphs</title>
<text text-anchor="middle" x="223" y="-15.5" font-family="Segoe UI" font-size="10.00" fill="#222222">ConvertGraphs</text>
</g>
<!-- buildFromXml&#45;&gt;ConvertGraphs -->
<g id="edge6" class="edge"><title>buildFromXml&#45;&gt;ConvertGraphs</title>
<path fill="none" stroke="#606ee0" d="M145.078,-80.6198C160.195,-68.3133 180.141,-52.076 195.934,-39.2197"/>
<polygon fill="#606ee0" stroke="#606ee0" points="197.081,-40.5422 199.854,-36.0284 194.872,-37.8279 197.081,-40.5422"/>
</g>
<!-- BuildItem -->
<g id="node8" class="node"><title>BuildItem</title>
<text text-anchor="middle" x="320" y="-96.5" font-family="Segoe UI" font-size="10.00" fill="#222222">BuildItem</text>
</g>
<!-- Dispatch&#45;&gt;BuildItem -->
<g id="edge7" class="edge"><title>Dispatch&#45;&gt;BuildItem</title>
<path fill="none" stroke="#606ee0" d="M250.211,-79.4493C261.84,-82.7546 275.616,-86.6699 287.774,-90.1253"/>
<polygon fill="#606ee0" stroke="#606ee0" points="287.587,-91.8913 292.875,-91.575 288.544,-88.5246 287.587,-91.8913"/>
</g>
<!-- WriteItem -->
<g id="node9" class="node"><title>WriteItem</title>
<text text-anchor="middle" x="320" y="-42.5" font-family="Segoe UI" font-size="10.00" fill="#222222">WriteItem</text>
</g>
<!-- Dispatch&#45;&gt;WriteItem -->
<g id="edge8" class="edge"><title>Dispatch&#45;&gt;WriteItem</title>
<path fill="none" stroke="#606ee0" d="M250.211,-64.5507C261.84,-61.2454 275.616,-57.3301 287.774,-53.8747"/>
<polygon fill="#606ee0" stroke="#606ee0" points="288.544,-55.4754 292.875,-52.425 287.587,-52.1087 288.544,-55.4754"/>
</g>
</g>
</svg>
