<?xml version="1.0" encoding="UTF-8" standalone="no"?>
<!DOCTYPE svg PUBLIC "-//W3C//DTD SVG 1.1//EN"
 "http://www.w3.org/Graphics/SVG/1.1/DTD/svg11.dtd">
<!-- Generated by graphviz version 2.38.0 (20140413.2041)
 -->
<!-- Title: %3 Pages: 1 -->
<svg width="146pt" height="188pt"
 viewBox="0.00 0.00 146.00 188.00" xmlns="http://www.w3.org/2000/svg" xmlns:xlink="http://www.w3.org/1999/xlink">
<g id="graph0" class="graph" transform="scale(1 1) rotate(0) translate(4 184)">
<title>%3</title>
<polygon fill="none" stroke="none" points="-4,4 -4,-184 142,-184 142,4 -4,4"/>
<!-- 0 -->
<g id="node1" class="node"><title>0</title>
<text text-anchor="middle" x="69" y="-159.2" font-family="Segoe UI" font-size="11.00" fill="#222222">DocumentWriter</text>
</g>
<!-- 1 -->
<g id="node2" class="node"><title>1</title>
<text text-anchor="middle" x="69" y="-87.2" font-family="Segoe UI" font-size="11.00" fill="#222222">HtmlDocumentWriter</text>
</g>
<!-- 0&#45;&gt;1 -->
<g id="edge5" class="edge"><title>0&#45;&gt;1</title>
<path fill="none" stroke="#606ee0" d="M63.0843,-143.697C62.0525,-133.694 61.9777,-121.074 62.86,-110.693"/>
<polygon fill="#606ee0" stroke="#606ee0" points="63.7405,-110.676 63.105,-108.104 61.9982,-110.511 63.7405,-110.676"/>
</g>
<!-- 0&#45;&gt;1 -->
<g id="edge6" class="edge"><title>0&#45;&gt;1</title>
<path fill="none" stroke="#606ee0" d="M74.9157,-143.697C75.9475,-133.694 76.0223,-121.074 75.14,-110.693"/>
<polygon fill="#606ee0" stroke="#606ee0" points="76.0018,-110.511 74.895,-108.104 74.2595,-110.676 76.0018,-110.511"/>
</g>
<!-- 2 -->
<g id="node3" class="node"><title>2</title>
<text text-anchor="middle" x="69" y="-15.2" font-family="Segoe UI" font-size="11.00" fill="#222222">MarkdownDocumentWriter</text>
</g>
<!-- 1&#45;&gt;2 -->
<g id="edge1" class="edge"><title>1&#45;&gt;2</title>
<path fill="none" stroke="#606ee0" d="M51.2528,-71.6966C48.1575,-61.694 47.9332,-49.0744 50.5801,-38.6926"/>
<polygon fill="#606ee0" stroke="#606ee0" points="51.4738,-38.7483 51.3149,-36.1043 49.7903,-38.2703 51.4738,-38.7483"/>
</g>
<!-- 1&#45;&gt;2 -->
<g id="edge2" class="edge"><title>1&#45;&gt;2</title>
<path fill="none" stroke="#606ee0" d="M63.0843,-71.6966C62.0525,-61.694 61.9777,-49.0744 62.86,-38.6926"/>
<polygon fill="#606ee0" stroke="#606ee0" points="63.7405,-38.6757 63.105,-36.1043 61.9982,-38.5108 63.7405,-38.6757"/>
</g>
<!-- 1&#45;&gt;2 -->
<g id="edge3" class="edge"><title>1&#45;&gt;2</title>
<path fill="none" stroke="#606ee0" d="M74.9157,-71.6966C75.9475,-61.694 76.0223,-49.0744 75.14,-38.6926"/>
<polygon fill="#606ee0" stroke="#606ee0" points="76.0018,-38.5108 74.895,-36.1043 74.2595,-38.6757 76.0018,-38.5108"/>
</g>
<!-- 1&#45;&gt;2 -->
<g id="edge4" class="edge"><title>1&#45;&gt;2</title>
<path fill="none" stroke="#606ee0" d="M86.7472,-71.6966C89.8425,-61.694 90.0668,-49.0744 87.4199,-38.6926"/>
<polygon fill="#606ee0" stroke="#606ee0" points="88.2097,-38.2703 86.6851,-36.1043 86.5262,-38.7483 88.2097,-38.2703"/>
</g>
</g>
</svg>
