<?xml version="1.0" encoding="UTF-8" standalone="no"?>
<!DOCTYPE svg PUBLIC "-//W3C//DTD SVG 1.1//EN"
 "http://www.w3.org/Graphics/SVG/1.1/DTD/svg11.dtd">
<!-- Generated by graphviz version 2.38.0 (20140413.2041)
 -->
<!-- Title: %3 Pages: 1 -->
<svg width="464pt" height="188pt"
 viewBox="0.00 0.00 463.50 188.00" xmlns="http://www.w3.org/2000/svg" xmlns:xlink="http://www.w3.org/1999/xlink">
<g id="graph0" class="graph" transform="scale(1 1) rotate(0) translate(4 184)">
<title>%3</title>
<polygon fill="none" stroke="none" points="-4,4 -4,-184 459.5,-184 459.5,4 -4,4"/>
<!-- 0 -->
<g id="node1" class="node"><title>0</title>
<text text-anchor="middle" x="243" y="-159.2" font-family="Segoe UI" font-size="11.00" fill="#222222">CompoundDefQueryVisitor</text>
</g>
<!-- 1 -->
<g id="node2" class="node"><title>1</title>
<text text-anchor="middle" x="243" y="-87.2" font-family="Segoe UI" font-size="11.00" fill="#222222">PageWriter</text>
</g>
<!-- 0&#45;&gt;1 -->
<g id="edge5" class="edge"><title>0&#45;&gt;1</title>
<path fill="none" stroke="#606ee0" d="M243,-143.697C243,-133.694 243,-121.074 243,-110.693"/>
<polygon fill="#606ee0" stroke="#606ee0" points="243.875,-110.604 243,-108.104 242.125,-110.604 243.875,-110.604"/>
</g>
<!-- 2 -->
<g id="node3" class="node"><title>2</title>
<text text-anchor="middle" x="52" y="-15.2" font-family="Segoe UI" font-size="11.00" fill="#222222">DirectoryPageWriter</text>
</g>
<!-- 1&#45;&gt;2 -->
<g id="edge1" class="edge"><title>1&#45;&gt;2</title>
<path fill="none" stroke="#606ee0" d="M213.991,-78.3685C184.029,-67.3875 136.731,-50.0534 100.962,-36.9443"/>
<polygon fill="#606ee0" stroke="#606ee0" points="101.056,-36.0466 98.4072,-36.0079 100.453,-37.6898 101.056,-36.0466"/>
</g>
<!-- 3 -->
<g id="node4" class="node"><title>3</title>
<text text-anchor="middle" x="181" y="-15.2" font-family="Segoe UI" font-size="11.00" fill="#222222">NamespacePageWriter</text>
</g>
<!-- 1&#45;&gt;3 -->
<g id="edge2" class="edge"><title>1&#45;&gt;3</title>
<path fill="none" stroke="#606ee0" d="M227.674,-71.6966C218.664,-61.5244 207.258,-48.6459 197.976,-38.1667"/>
<polygon fill="#606ee0" stroke="#606ee0" points="198.462,-37.3957 196.15,-36.1043 197.152,-38.556 198.462,-37.3957"/>
</g>
<!-- 4 -->
<g id="node5" class="node"><title>4</title>
<text text-anchor="middle" x="306" y="-15.2" font-family="Segoe UI" font-size="11.00" fill="#222222">GenericPageWriter</text>
</g>
<!-- 1&#45;&gt;4 -->
<g id="edge3" class="edge"><title>1&#45;&gt;4</title>
<path fill="none" stroke="#606ee0" d="M258.573,-71.6966C267.728,-61.5244 279.319,-48.6459 288.75,-38.1667"/>
<polygon fill="#606ee0" stroke="#606ee0" points="289.584,-38.5479 290.606,-36.1043 288.283,-37.3772 289.584,-38.5479"/>
</g>
<!-- 5 -->
<g id="node6" class="node"><title>5</title>
<text text-anchor="middle" x="414" y="-15.2" font-family="Segoe UI" font-size="11.00" fill="#222222">ClassPageWriter</text>
</g>
<!-- 1&#45;&gt;5 -->
<g id="edge4" class="edge"><title>1&#45;&gt;5</title>
<path fill="none" stroke="#606ee0" d="M272.008,-77.1255C298.793,-66.1608 338.966,-49.7155 369.754,-37.1125"/>
<polygon fill="#606ee0" stroke="#606ee0" points="370.345,-37.8158 372.328,-36.0589 369.682,-36.1963 370.345,-37.8158"/>
</g>
</g>
</svg>
