<?xml version="1.0" encoding="UTF-8" standalone="no"?>
<!DOCTYPE svg PUBLIC "-//W3C//DTD SVG 1.1//EN"
 "http://www.w3.org/Graphics/SVG/1.1/DTD/svg11.dtd">
<!-- Generated by graphviz version 2.38.0 (20140413.2041)
 -->
<!-- Title: %3 Pages: 1 -->
<svg width="463pt" height="188pt"
 viewBox="0.00 0.00 462.50 188.00" xmlns="http://www.w3.org/2000/svg" xmlns:xlink="http://www.w3.org/1999/xlink">
<g id="graph0" class="graph" transform="scale(1 1) rotate(0) translate(4 184)">
<title>%3</title>
<polygon fill="none" stroke="none" points="-4,4 -4,-184 458.5,-184 458.5,4 -4,4"/>
<!-- 0 -->
<g id="node1" class="node"><title>0</title>
<text text-anchor="middle" x="232" y="-159.2" font-family="Segoe UI" font-size="11.00" fill="#222222">CompoundDefQueryVisitor</text>
</g>
<!-- 1 -->
<g id="node2" class="node"><title>1</title>
<text text-anchor="middle" x="232" y="-87.2" font-family="Segoe UI" font-size="11.00" fill="#222222">PageWriter</text>
</g>
<!-- 0&#45;&gt;1 -->
<g id="edge5" class="edge"><title>0&#45;&gt;1</title>
<path fill="none" stroke="#606ee0" d="M232,-143.697C232,-133.694 232,-121.074 232,-110.693"/>
<polygon fill="#606ee0" stroke="#606ee0" points="232.875,-110.604 232,-108.104 231.125,-110.604 232.875,-110.604"/>
</g>
<!-- 2 -->
<g id="node3" class="node"><title>2</title>
<text text-anchor="middle" x="52" y="-15.2" font-family="Segoe UI" font-size="11.00" fill="#222222">DirectoryPageWriter</text>
</g>
<!-- 1&#45;&gt;2 -->
<g id="edge1" class="edge"><title>1&#45;&gt;2</title>
<path fill="none" stroke="#606ee0" d="M202.679,-77.5975C174.369,-66.5881 131.066,-49.748 98.1349,-36.9414"/>
<polygon fill="#606ee0" stroke="#606ee0" points="98.4293,-36.1171 95.7821,-36.0264 97.795,-37.7481 98.4293,-36.1171"/>
</g>
<!-- 3 -->
<g id="node4" class="node"><title>3</title>
<text text-anchor="middle" x="170" y="-15.2" font-family="Segoe UI" font-size="11.00" fill="#222222">GenericPageWriter</text>
</g>
<!-- 1&#45;&gt;3 -->
<g id="edge2" class="edge"><title>1&#45;&gt;3</title>
<path fill="none" stroke="#606ee0" d="M216.674,-71.6966C207.664,-61.5244 196.258,-48.6459 186.976,-38.1667"/>
<polygon fill="#606ee0" stroke="#606ee0" points="187.462,-37.3957 185.15,-36.1043 186.152,-38.556 187.462,-37.3957"/>
</g>
<!-- 4 -->
<g id="node5" class="node"><title>4</title>
<text text-anchor="middle" x="295" y="-15.2" font-family="Segoe UI" font-size="11.00" fill="#222222">NamespacePageWriter</text>
</g>
<!-- 1&#45;&gt;4 -->
<g id="edge3" class="edge"><title>1&#45;&gt;4</title>
<path fill="none" stroke="#606ee0" d="M247.573,-71.6966C256.728,-61.5244 268.319,-48.6459 277.75,-38.1667"/>
<polygon fill="#606ee0" stroke="#606ee0" points="278.584,-38.5479 279.606,-36.1043 277.283,-37.3772 278.584,-38.5479"/>
</g>
<!-- 5 -->
<g id="node6" class="node"><title>5</title>
<text text-anchor="middle" x="413" y="-15.2" font-family="Segoe UI" font-size="11.00" fill="#222222">ClassPageWriter</text>
</g>
<!-- 1&#45;&gt;5 -->
<g id="edge4" class="edge"><title>1&#45;&gt;5</title>
<path fill="none" stroke="#606ee0" d="M261.081,-77.7533C290.162,-66.5063 335.265,-49.0634 368.78,-36.1015"/>
<polygon fill="#606ee0" stroke="#606ee0" points="369.157,-36.8941 371.173,-35.1762 368.526,-35.2619 369.157,-36.8941"/>
</g>
</g>
</svg>
