<?xml version="1.0" encoding="UTF-8" standalone="no"?>
<!DOCTYPE svg PUBLIC "-//W3C//DTD SVG 1.1//EN"
 "http://www.w3.org/Graphics/SVG/1.1/DTD/svg11.dtd">
<!-- Generated by graphviz version 2.38.0 (20140413.2041)
 -->
<!-- Title: %3 Pages: 1 -->
<svg width="332pt" height="125pt"
 viewBox="0.00 0.00 332.00 125.00" xmlns="http://www.w3.org/2000/svg" xmlns:xlink="http://www.w3.org/1999/xlink">
<g id="graph0" class="graph" transform="scale(1 1) rotate(0) translate(4 121)">
<title>%3</title>
<polygon fill="none" stroke="none" points="-4,4 -4,-121 328,-121 328,4 -4,4"/>
<!-- 0 -->
<g id="node1" class="node"><title>0</title>
<text text-anchor="middle" x="27" y="-42.2" font-family="Segoe UI" font-size="11.00" fill="#010509">Writer</text>
</g>
<!-- 1 -->
<g id="node2" class="node"><title>1</title>
<text text-anchor="middle" x="117" y="-69.2" font-family="Segoe UI" font-size="11.00" fill="#010509">Object</text>
</g>
<!-- 0&#45;&gt;1 -->
<g id="edge4" class="edge"><title>0&#45;&gt;1</title>
<path fill="none" stroke="#69bfff" d="M54.4029,-53.1009C64.764,-56.2799 76.6837,-59.9371 87.2606,-63.1822"/>
<polygon fill="#69bfff" stroke="#69bfff" points="87.2723,-64.101 89.919,-63.9979 87.7856,-62.428 87.2723,-64.101"/>
</g>
<!-- 5 -->
<g id="node6" class="node"><title>5</title>
<text text-anchor="middle" x="117" y="-15.2" font-family="Segoe UI" font-size="11.00" fill="#010509">Common</text>
</g>
<!-- 0&#45;&gt;5 -->
<g id="edge5" class="edge"><title>0&#45;&gt;5</title>
<path fill="none" stroke="#69bfff" d="M54.4029,-36.8991C64.764,-33.7201 76.6837,-30.0629 87.2606,-26.8178"/>
<polygon fill="#69bfff" stroke="#69bfff" points="87.7856,-27.572 89.919,-26.0021 87.2723,-25.899 87.7856,-27.572"/>
</g>
<!-- 2 -->
<g id="node3" class="node"><title>2</title>
<text text-anchor="middle" x="207" y="-96.2" font-family="Segoe UI" font-size="11.00" fill="#010509">Simple</text>
</g>
<!-- 1&#45;&gt;2 -->
<g id="edge2" class="edge"><title>1&#45;&gt;2</title>
<path fill="none" stroke="#69bfff" d="M144.403,-80.1009C154.764,-83.2799 166.684,-86.9371 177.261,-90.1822"/>
<polygon fill="#69bfff" stroke="#69bfff" points="177.272,-91.101 179.919,-90.9979 177.786,-89.428 177.272,-91.101"/>
</g>
<!-- 3 -->
<g id="node4" class="node"><title>3</title>
<text text-anchor="middle" x="207" y="-42.2" font-family="Segoe UI" font-size="11.00" fill="#010509">Group</text>
</g>
<!-- 1&#45;&gt;3 -->
<g id="edge3" class="edge"><title>1&#45;&gt;3</title>
<path fill="none" stroke="#69bfff" d="M144.403,-63.8991C154.764,-60.7201 166.684,-57.0629 177.261,-53.8178"/>
<polygon fill="#69bfff" stroke="#69bfff" points="177.786,-54.572 179.919,-53.0021 177.272,-52.899 177.786,-54.572"/>
</g>
<!-- 4 -->
<g id="node5" class="node"><title>4</title>
<text text-anchor="middle" x="297" y="-42.2" font-family="Segoe UI" font-size="11.00" fill="#010509">Complex</text>
</g>
<!-- 3&#45;&gt;4 -->
<g id="edge1" class="edge"><title>3&#45;&gt;4</title>
<path fill="none" stroke="#69bfff" d="M234.403,-45C244.764,-45 256.684,-45 267.261,-45"/>
<polygon fill="#69bfff" stroke="#69bfff" points="267.419,-45.8751 269.919,-45 267.419,-44.1251 267.419,-45.8751"/>
</g>
</g>
</svg>
