<?xml version="1.0" encoding="UTF-8" standalone="no"?>
<!DOCTYPE svg PUBLIC "-//W3C//DTD SVG 1.1//EN"
 "http://www.w3.org/Graphics/SVG/1.1/DTD/svg11.dtd">
<!-- Generated by graphviz version 2.38.0 (20140413.2041)
 -->
<!-- Title: %3 Pages: 1 -->
<svg width="415pt" height="188pt"
 viewBox="0.00 0.00 414.50 188.00" xmlns="http://www.w3.org/2000/svg" xmlns:xlink="http://www.w3.org/1999/xlink">
<g id="graph0" class="graph" transform="scale(1 1) rotate(0) translate(4 184)">
<title>%3</title>
<polygon fill="none" stroke="none" points="-4,4 -4,-184 410.5,-184 410.5,4 -4,4"/>
<!-- 0 -->
<g id="node1" class="node"><title>0</title>
<text text-anchor="middle" x="260.5" y="-159.5" font-family="Segoe UI" font-size="10.00" fill="#222222">CompoundDefQueryVisitor</text>
</g>
<!-- 1 -->
<g id="node2" class="node"><title>1</title>
<text text-anchor="middle" x="219.5" y="-87.5" font-family="Segoe UI" font-size="10.00" fill="#222222">PageWriter</text>
</g>
<!-- 0&#45;&gt;1 -->
<g id="edge5" class="edge"><title>0&#45;&gt;1</title>
<path fill="none" stroke="#606ee0" d="M250.365,-143.697C244.854,-134.287 237.987,-122.562 232.13,-112.563"/>
<polygon fill="#606ee0" stroke="#606ee0" points="233.555,-111.534 229.518,-108.104 230.535,-113.303 233.555,-111.534"/>
</g>
<!-- 6 -->
<g id="node7" class="node"><title>6</title>
<text text-anchor="middle" x="302.5" y="-87.5" font-family="Segoe UI" font-size="10.00" fill="#222222">TableOfContents</text>
</g>
<!-- 0&#45;&gt;6 -->
<g id="edge6" class="edge"><title>0&#45;&gt;6</title>
<path fill="none" stroke="#606ee0" d="M270.882,-143.697C276.528,-134.287 283.563,-122.562 289.562,-112.563"/>
<polygon fill="#606ee0" stroke="#606ee0" points="291.165,-113.292 292.237,-108.104 288.164,-111.491 291.165,-113.292"/>
</g>
<!-- 2 -->
<g id="node3" class="node"><title>2</title>
<text text-anchor="middle" x="51.5" y="-15.5" font-family="Segoe UI" font-size="10.00" fill="#222222">NamespacePageWriter</text>
</g>
<!-- 1&#45;&gt;2 -->
<g id="edge1" class="edge"><title>1&#45;&gt;2</title>
<path fill="none" stroke="#606ee0" d="M192.134,-77.5975C166.451,-66.8964 127.548,-50.6865 97.1633,-38.0264"/>
<polygon fill="#606ee0" stroke="#606ee0" points="97.6518,-36.3341 92.3633,-36.0264 96.3056,-39.5649 97.6518,-36.3341"/>
</g>
<!-- 3 -->
<g id="node4" class="node"><title>3</title>
<text text-anchor="middle" x="166.5" y="-15.5" font-family="Segoe UI" font-size="10.00" fill="#222222">DirectoryPageWriter</text>
</g>
<!-- 1&#45;&gt;3 -->
<g id="edge2" class="edge"><title>1&#45;&gt;3</title>
<path fill="none" stroke="#606ee0" d="M206.399,-71.6966C199.211,-62.2026 190.237,-50.351 182.622,-40.293"/>
<polygon fill="#606ee0" stroke="#606ee0" points="183.864,-39.0343 179.45,-36.1043 181.073,-41.147 183.864,-39.0343"/>
</g>
<!-- 4 -->
<g id="node5" class="node"><title>4</title>
<text text-anchor="middle" x="272.5" y="-15.5" font-family="Segoe UI" font-size="10.00" fill="#222222">GenericPageWriter</text>
</g>
<!-- 1&#45;&gt;4 -->
<g id="edge3" class="edge"><title>1&#45;&gt;4</title>
<path fill="none" stroke="#606ee0" d="M232.601,-71.6966C239.789,-62.2026 248.763,-50.351 256.378,-40.293"/>
<polygon fill="#606ee0" stroke="#606ee0" points="257.927,-41.147 259.55,-36.1043 255.136,-39.0343 257.927,-41.147"/>
</g>
<!-- 5 -->
<g id="node6" class="node"><title>5</title>
<text text-anchor="middle" x="369.5" y="-15.5" font-family="Segoe UI" font-size="10.00" fill="#222222">ClassPageWriter</text>
</g>
<!-- 1&#45;&gt;5 -->
<g id="edge4" class="edge"><title>1&#45;&gt;5</title>
<path fill="none" stroke="#606ee0" d="M246.664,-76.3235C269.395,-65.7158 302.187,-50.4127 328.173,-38.2858"/>
<polygon fill="#606ee0" stroke="#606ee0" points="329.151,-39.7606 332.942,-36.0603 327.671,-36.5889 329.151,-39.7606"/>
</g>
</g>
</svg>
