<?xml version="1.0" encoding="UTF-8" standalone="no"?>
<!DOCTYPE svg PUBLIC "-//W3C//DTD SVG 1.1//EN"
 "http://www.w3.org/Graphics/SVG/1.1/DTD/svg11.dtd">
<!-- Generated by graphviz version 2.38.0 (20140413.2041)
 -->
<!-- Title: %3 Pages: 1 -->
<svg width="464pt" height="188pt"
 viewBox="0.00 0.00 463.50 188.00" xmlns="http://www.w3.org/2000/svg" xmlns:xlink="http://www.w3.org/1999/xlink">
<g id="graph0" class="graph" transform="scale(1 1) rotate(0) translate(4 184)">
<title>%3</title>
<polygon fill="none" stroke="none" points="-4,4 -4,-184 459.5,-184 459.5,4 -4,4"/>
<!-- 0 -->
<g id="node1" class="node"><title>0</title>
<text text-anchor="middle" x="288.5" y="-159.2" font-family="Segoe UI" font-size="11.00" fill="#222222">CompoundDefQueryVisitor</text>
</g>
<!-- 1 -->
<g id="node2" class="node"><title>1</title>
<text text-anchor="middle" x="243.5" y="-87.2" font-family="Segoe UI" font-size="11.00" fill="#222222">PageWriter</text>
</g>
<!-- 0&#45;&gt;1 -->
<g id="edge5" class="edge"><title>0&#45;&gt;1</title>
<path fill="none" stroke="#606ee0" d="M277.376,-143.697C270.892,-133.609 262.696,-120.86 255.99,-110.429"/>
<polygon fill="#606ee0" stroke="#606ee0" points="256.584,-109.734 254.496,-108.104 255.112,-110.68 256.584,-109.734"/>
</g>
<!-- 6 -->
<g id="node7" class="node"><title>6</title>
<text text-anchor="middle" x="333.5" y="-87.2" font-family="Segoe UI" font-size="11.00" fill="#222222">TableOfContents</text>
</g>
<!-- 0&#45;&gt;6 -->
<g id="edge6" class="edge"><title>0&#45;&gt;6</title>
<path fill="none" stroke="#606ee0" d="M299.624,-143.697C306.108,-133.609 314.304,-120.86 321.01,-110.429"/>
<polygon fill="#606ee0" stroke="#606ee0" points="321.888,-110.68 322.504,-108.104 320.416,-109.734 321.888,-110.68"/>
</g>
<!-- 2 -->
<g id="node3" class="node"><title>2</title>
<text text-anchor="middle" x="58.5" y="-15.2" font-family="Segoe UI" font-size="11.00" fill="#222222">NamespacePageWriter</text>
</g>
<!-- 1&#45;&gt;2 -->
<g id="edge1" class="edge"><title>1&#45;&gt;2</title>
<path fill="none" stroke="#606ee0" d="M214.186,-77.9083C185.133,-66.9152 140.15,-49.8946 105.993,-36.9703"/>
<polygon fill="#606ee0" stroke="#606ee0" points="106.201,-36.1134 103.553,-36.047 105.581,-37.7502 106.201,-36.1134"/>
</g>
<!-- 3 -->
<g id="node4" class="node"><title>3</title>
<text text-anchor="middle" x="187.5" y="-15.2" font-family="Segoe UI" font-size="11.00" fill="#222222">DirectoryPageWriter</text>
</g>
<!-- 1&#45;&gt;3 -->
<g id="edge2" class="edge"><title>1&#45;&gt;3</title>
<path fill="none" stroke="#606ee0" d="M229.657,-71.6966C221.52,-61.5244 211.217,-48.6459 202.833,-38.1667"/>
<polygon fill="#606ee0" stroke="#606ee0" points="203.429,-37.5099 201.183,-36.1043 202.062,-38.6031 203.429,-37.5099"/>
</g>
<!-- 4 -->
<g id="node5" class="node"><title>4</title>
<text text-anchor="middle" x="299.5" y="-15.2" font-family="Segoe UI" font-size="11.00" fill="#222222">ClassPageWriter</text>
</g>
<!-- 1&#45;&gt;4 -->
<g id="edge3" class="edge"><title>1&#45;&gt;4</title>
<path fill="none" stroke="#606ee0" d="M257.343,-71.6966C265.48,-61.5244 275.783,-48.6459 284.167,-38.1667"/>
<polygon fill="#606ee0" stroke="#606ee0" points="284.938,-38.6031 285.817,-36.1043 283.571,-37.5099 284.938,-38.6031"/>
</g>
<!-- 5 -->
<g id="node6" class="node"><title>5</title>
<text text-anchor="middle" x="407.5" y="-15.2" font-family="Segoe UI" font-size="11.00" fill="#222222">GenericPageWriter</text>
</g>
<!-- 1&#45;&gt;5 -->
<g id="edge4" class="edge"><title>1&#45;&gt;5</title>
<path fill="none" stroke="#606ee0" d="M272.516,-75.9383C275.546,-74.5988 278.583,-73.2659 281.5,-72 308.811,-60.1486 339.614,-47.1849 363.927,-37.0451"/>
<polygon fill="#606ee0" stroke="#606ee0" points="364.288,-37.8424 366.259,-36.0727 363.615,-36.2272 364.288,-37.8424"/>
</g>
</g>
</svg>
