<?xml version="1.0" encoding="UTF-8" standalone="no"?>
<!DOCTYPE svg PUBLIC "-//W3C//DTD SVG 1.1//EN"
 "http://www.w3.org/Graphics/SVG/1.1/DTD/svg11.dtd">
<!-- Generated by graphviz version 2.38.0 (20140413.2041)
 -->
<!-- Title: %3 Pages: 1 -->
<svg width="434pt" height="386pt"
 viewBox="0.00 0.00 434.00 386.00" xmlns="http://www.w3.org/2000/svg" xmlns:xlink="http://www.w3.org/1999/xlink">
<g id="graph0" class="graph" transform="scale(1 1) rotate(0) translate(4 382)">
<title>%3</title>
<polygon fill="none" stroke="none" points="-4,4 -4,-382 430,-382 430,4 -4,4"/>
<!-- MainPage -->
<g id="node1" class="node"><title>MainPage</title>
<polygon fill="#f3f6ff" stroke="#b4bcfb" points="131.5,-334 69.5,-334 69.5,-264 131.5,-264 131.5,-334"/>
<polygon fill="#f3f6ff" stroke="none" points="70.5,-265 70.5,-333 130.5,-333 130.5,-265 70.5,-265"/>
<text text-anchor="start" x="74.5" y="-321.2" font-family="Segoe UI" font-weight="bold" font-size="11.00" fill="#000001">MainPage</text>
<polygon fill="#d7e0f7" stroke="none" points="74.5,-269 74.5,-309 126.5,-309 126.5,-269 74.5,-269"/>
<text text-anchor="start" x="78.5" y="-296.2" font-family="Segoe UI" font-size="11.00" fill="#222222">Brief</text>
<text text-anchor="start" x="78.5" y="-276.2" font-family="Segoe UI" font-size="11.00" fill="#222222">Detail</text>
</g>
<!-- Index -->
<g id="node2" class="node"><title>Index</title>
<polygon fill="#f3f6ff" stroke="#b4bcfb" points="269,-378 192,-378 192,-220 269,-220 269,-378"/>
<polygon fill="#f3f6ff" stroke="none" points="193,-221 193,-377 268,-377 268,-221 193,-221"/>
<text text-anchor="start" x="197.5" y="-365.2" font-family="Segoe UI" font-weight="bold" font-size="11.00" fill="#000001">Site Index</text>
<polygon fill="#d7e0f7" stroke="none" points="197.5,-333 197.5,-353 264.5,-353 264.5,-333 197.5,-333"/>
<text text-anchor="start" x="201.5" y="-340.2" font-family="Segoe UI" font-size="11.00" fill="#222222">Description</text>
<polygon fill="#d7e0f7" stroke="none" points="197.5,-225 197.5,-325 264.5,-325 264.5,-225 197.5,-225"/>
<text text-anchor="start" x="207" y="-313.2" font-family="Segoe UI" font-weight="bold" font-size="11.00" fill="#000001">Contents</text>
<text text-anchor="start" x="201.5" y="-292.2" font-family="Segoe UI" font-size="11.00" fill="#222222">Directory</text>
<text text-anchor="start" x="201.5" y="-272.2" font-family="Segoe UI" font-size="11.00" fill="#222222">Class</text>
<text text-anchor="start" x="201.5" y="-252.2" font-family="Segoe UI" font-size="11.00" fill="#222222">Page</text>
<text text-anchor="start" x="201.5" y="-232.2" font-family="Segoe UI" font-size="11.00" fill="#222222">Namespace</text>
</g>
<!-- MainPage&#45;&gt;Index -->
<g id="edge1" class="edge"><title>MainPage:Title&#45;&gt;Index:Description</title>
<path fill="none" stroke="#606ee0" d="M131.5,-323C159.954,-323 165.653,-340.725 191.441,-342.802"/>
<polygon fill="#606ee0" stroke="#606ee0" points="191.435,-344.553 196.5,-343 191.572,-341.056 191.435,-344.553"/>
<text text-anchor="middle" x="161.5" y="-344.2" font-family="Segoe UI" font-size="11.00" fill="#222222">Provides</text>
</g>
<!-- ClassIndex -->
<g id="node3" class="node"><title>ClassIndex</title>
<polygon fill="#f3f6ff" stroke="#b4bcfb" points="97,-183 0,-183 0,-73 97,-73 97,-183"/>
<polygon fill="#f3f6ff" stroke="none" points="1,-74 1,-182 96,-182 96,-74 1,-74"/>
<text text-anchor="start" x="5.5" y="-170.2" font-family="Segoe UI" font-weight="bold" font-size="11.00" fill="#000001">Class Index</text>
<polygon fill="#d7e0f7" stroke="none" points="5.5,-78 5.5,-158 92.5,-158 92.5,-78 5.5,-78"/>
<text text-anchor="start" x="9.5" y="-146.2" font-family="Segoe UI" font-weight="bold" font-size="11.00" fill="#000001">Contents (A&#45;Z)</text>
<text text-anchor="start" x="9.5" y="-125.2" font-family="Segoe UI" font-size="11.00" fill="#222222">Class[0]</text>
<text text-anchor="start" x="9.5" y="-105.2" font-family="Segoe UI" font-size="11.00" fill="#222222">Class[1]</text>
<text text-anchor="start" x="9.5" y="-85.2" font-family="Segoe UI" font-size="11.00" fill="#222222">Class[n]</text>
</g>
<!-- Index&#45;&gt;ClassIndex -->
<g id="edge2" class="edge"><title>Index:Class&#45;&gt;ClassIndex</title>
<path fill="none" stroke="#606ee0" d="M196.5,-275C196.284,-275 143.328,-222.718 100.83,-180.726"/>
<polygon fill="#606ee0" stroke="#606ee0" points="102.059,-179.48 97.2723,-177.21 99.5989,-181.97 102.059,-179.48"/>
</g>
<!-- NamespaceIndex -->
<g id="node4" class="node"><title>NamespaceIndex</title>
<polygon fill="#f3f6ff" stroke="#b4bcfb" points="219.5,-183 115.5,-183 115.5,-73 219.5,-73 219.5,-183"/>
<polygon fill="#f3f6ff" stroke="none" points="116.5,-74 116.5,-182 218.5,-182 218.5,-74 116.5,-74"/>
<text text-anchor="start" x="120.5" y="-170.2" font-family="Segoe UI" font-weight="bold" font-size="11.00" fill="#000001">Namespace Index</text>
<polygon fill="#d7e0f7" stroke="none" points="120.5,-78 120.5,-158 214.5,-158 214.5,-78 120.5,-78"/>
<text text-anchor="start" x="128" y="-146.2" font-family="Segoe UI" font-weight="bold" font-size="11.00" fill="#000001">Contents (A&#45;Z)</text>
<text text-anchor="start" x="124.5" y="-125.2" font-family="Segoe UI" font-size="11.00" fill="#222222">Namespace[0]</text>
<text text-anchor="start" x="124.5" y="-105.2" font-family="Segoe UI" font-size="11.00" fill="#222222">Namespace[1]</text>
<text text-anchor="start" x="124.5" y="-85.2" font-family="Segoe UI" font-size="11.00" fill="#222222">Namespace[n]</text>
</g>
<!-- Index&#45;&gt;NamespaceIndex -->
<g id="edge3" class="edge"><title>Index:Namespace&#45;&gt;NamespaceIndex</title>
<path fill="none" stroke="#606ee0" d="M196.5,-235C174.057,-235 166.116,-212.619 164.088,-188.425"/>
<polygon fill="#606ee0" stroke="#606ee0" points="165.822,-188.114 163.742,-183.242 162.329,-188.348 165.822,-188.114"/>
</g>
<!-- PageIndex -->
<g id="node5" class="node"><title>PageIndex</title>
<polygon fill="#f3f6ff" stroke="#b4bcfb" points="335,-183 238,-183 238,-73 335,-73 335,-183"/>
<polygon fill="#f3f6ff" stroke="none" points="239,-74 239,-182 334,-182 334,-74 239,-74"/>
<text text-anchor="start" x="243.5" y="-170.2" font-family="Segoe UI" font-weight="bold" font-size="11.00" fill="#000001">Page Index</text>
<polygon fill="#d7e0f7" stroke="none" points="243.5,-78 243.5,-158 330.5,-158 330.5,-78 243.5,-78"/>
<text text-anchor="start" x="247.5" y="-146.2" font-family="Segoe UI" font-weight="bold" font-size="11.00" fill="#000001">Contents (A&#45;Z)</text>
<text text-anchor="start" x="247.5" y="-125.2" font-family="Segoe UI" font-size="11.00" fill="#222222">Page[0]</text>
<text text-anchor="start" x="247.5" y="-105.2" font-family="Segoe UI" font-size="11.00" fill="#222222">Page[1]</text>
<text text-anchor="start" x="247.5" y="-85.2" font-family="Segoe UI" font-size="11.00" fill="#222222">Page[n]</text>
</g>
<!-- Index&#45;&gt;PageIndex -->
<g id="edge4" class="edge"><title>Index:Page&#45;&gt;PageIndex</title>
<path fill="none" stroke="#606ee0" d="M265.5,-255C294.971,-255 299.504,-221.047 297.048,-188.391"/>
<polygon fill="#606ee0" stroke="#606ee0" points="298.77,-187.997 296.596,-183.167 295.283,-188.299 298.77,-187.997"/>
</g>
<!-- DirectoryIndex -->
<g id="node6" class="node"><title>DirectoryIndex</title>
<polygon fill="#f3f6ff" stroke="#b4bcfb" points="425,-354 328,-354 328,-244 425,-244 425,-354"/>
<polygon fill="#f3f6ff" stroke="none" points="329,-245 329,-353 424,-353 424,-245 329,-245"/>
<text text-anchor="start" x="333.5" y="-341.2" font-family="Segoe UI" font-weight="bold" font-size="11.00" fill="#000001">Directory Index</text>
<polygon fill="#d7e0f7" stroke="none" points="333.5,-249 333.5,-329 420.5,-329 420.5,-249 333.5,-249"/>
<text text-anchor="start" x="337.5" y="-317.2" font-family="Segoe UI" font-weight="bold" font-size="11.00" fill="#000001">Contents (A&#45;Z)</text>
<text text-anchor="start" x="337.5" y="-296.2" font-family="Segoe UI" font-size="11.00" fill="#222222">Dir[0]</text>
<text text-anchor="start" x="337.5" y="-276.2" font-family="Segoe UI" font-size="11.00" fill="#222222">Dir[1]</text>
<text text-anchor="start" x="337.5" y="-256.2" font-family="Segoe UI" font-size="11.00" fill="#222222">Dir[n]</text>
</g>
<!-- Index&#45;&gt;DirectoryIndex -->
<g id="edge5" class="edge"><title>Index:Directory&#45;&gt;DirectoryIndex:Title</title>
<path fill="none" stroke="#606ee0" d="M265.5,-295C298.913,-295 293.941,-338.249 323.456,-342.641"/>
<polygon fill="#606ee0" stroke="#606ee0" points="323.388,-344.391 328.5,-343 323.637,-340.9 323.388,-344.391"/>
</g>
<!-- ClassPage -->
<g id="node7" class="node"><title>ClassPage</title>
<polygon fill="#f3f6ff" stroke="#b4bcfb" points="76.5,-36 22.5,-36 22.5,-0 76.5,-0 76.5,-36"/>
<text text-anchor="middle" x="49.5" y="-15.2" font-family="Segoe UI" font-size="11.00" fill="#222222">ClassPage</text>
</g>
<!-- ClassIndex&#45;&gt;ClassPage -->
<g id="edge6" class="edge"><title>ClassIndex:Item&#45;&gt;ClassPage</title>
<path fill="none" stroke="#606ee0" d="M49.5,-77C49.5,-65.1448 49.5,-51.9266 49.5,-41.1065"/>
<polygon fill="#606ee0" stroke="#606ee0" points="51.2501,-41.0039 49.5,-36.0039 47.7501,-41.0039 51.2501,-41.0039"/>
</g>
<!-- NamespacePage -->
<g id="node10" class="node"><title>NamespacePage</title>
<polygon fill="#f3f6ff" stroke="#b4bcfb" points="210.5,-36 124.5,-36 124.5,-0 210.5,-0 210.5,-36"/>
<text text-anchor="middle" x="167.5" y="-15.2" font-family="Segoe UI" font-size="11.00" fill="#222222">NamespacePage</text>
</g>
<!-- NamespaceIndex&#45;&gt;NamespacePage -->
<g id="edge9" class="edge"><title>NamespaceIndex:Item&#45;&gt;NamespacePage</title>
<path fill="none" stroke="#606ee0" d="M167.5,-77C167.5,-65.1448 167.5,-51.9266 167.5,-41.1065"/>
<polygon fill="#606ee0" stroke="#606ee0" points="169.25,-41.0039 167.5,-36.0039 165.75,-41.0039 169.25,-41.0039"/>
</g>
<!-- GenericPage -->
<g id="node9" class="node"><title>GenericPage</title>
<polygon fill="#f3f6ff" stroke="#b4bcfb" points="320,-36 255,-36 255,-0 320,-0 320,-36"/>
<text text-anchor="middle" x="287.5" y="-15.2" font-family="Segoe UI" font-size="11.00" fill="#222222">GenericPage</text>
</g>
<!-- PageIndex&#45;&gt;GenericPage -->
<g id="edge8" class="edge"><title>PageIndex:Item&#45;&gt;GenericPage</title>
<path fill="none" stroke="#606ee0" d="M287.5,-77C287.5,-65.1448 287.5,-51.9266 287.5,-41.1065"/>
<polygon fill="#606ee0" stroke="#606ee0" points="289.25,-41.0039 287.5,-36.0039 285.75,-41.0039 289.25,-41.0039"/>
</g>
<!-- DirectoryPage -->
<g id="node8" class="node"><title>DirectoryPage</title>
<polygon fill="#f3f6ff" stroke="#b4bcfb" points="426,-146 353,-146 353,-110 426,-110 426,-146"/>
<text text-anchor="middle" x="389.5" y="-125.2" font-family="Segoe UI" font-size="11.00" fill="#222222">DirectoryPage</text>
</g>
<!-- DirectoryIndex&#45;&gt;DirectoryPage -->
<g id="edge7" class="edge"><title>DirectoryIndex:Item&#45;&gt;DirectoryPage</title>
<path fill="none" stroke="#606ee0" d="M377.5,-248C377.5,-214.217 382.347,-175.311 385.88,-151.438"/>
<polygon fill="#606ee0" stroke="#606ee0" points="387.641,-151.493 386.656,-146.288 384.18,-150.971 387.641,-151.493"/>
</g>
</g>
</svg>
