<?xml version="1.0" encoding="UTF-8" standalone="no"?>
<!DOCTYPE svg PUBLIC "-//W3C//DTD SVG 1.1//EN"
 "http://www.w3.org/Graphics/SVG/1.1/DTD/svg11.dtd">
<!-- Generated by graphviz version 2.38.0 (20140413.2041)
 -->
<!-- Title: %3 Pages: 1 -->
<svg width="298pt" height="314pt"
 viewBox="0.00 0.00 298.00 314.00" xmlns="http://www.w3.org/2000/svg" xmlns:xlink="http://www.w3.org/1999/xlink">
<g id="graph0" class="graph" transform="scale(1 1) rotate(0) translate(4 310)">
<title>%3</title>
<polygon fill="none" stroke="none" points="-4,4 -4,-310 294,-310 294,4 -4,4"/>
<!-- DxzKpO3 -->
<g id="node1" class="node"><title>DxzKpO3</title>
<text text-anchor="middle" x="68.5" y="-150.2" font-family="Segoe UI" font-size="11.00" fill="#010509">CompoundDefQueryVisitor</text>
</g>
<!-- DQxFhpu -->
<g id="node2" class="node"><title>DQxFhpu</title>
<text text-anchor="middle" x="231.5" y="-285.2" font-family="Segoe UI" font-size="11.00" fill="#010509">DirectoryPageVisitor</text>
</g>
<!-- DxzKpO3&#45;&gt;DQxFhpu -->
<g id="edge1" class="edge"><title>DxzKpO3&#45;&gt;DQxFhpu</title>
<path fill="none" stroke="#ff1040" d="M83.2574,-171.03C101.673,-194.22 136.297,-234.64 173,-261 176.079,-263.211 179.368,-265.316 182.755,-267.302"/>
<polygon fill="#ff1040" stroke="#ff1040" points="182.209,-269.003 187.424,-269.936 183.929,-265.955 182.209,-269.003"/>
</g>
<!-- DyoFhpu -->
<g id="node3" class="node"><title>DyoFhpu</title>
<text text-anchor="middle" x="231.5" y="-231.2" font-family="Segoe UI" font-size="11.00" fill="#010509">ModuleVisitor</text>
</g>
<!-- DxzKpO3&#45;&gt;DyoFhpu -->
<g id="edge2" class="edge"><title>DxzKpO3&#45;&gt;DyoFhpu</title>
<path fill="none" stroke="#ff1040" d="M103.346,-171.115C123.474,-181.773 149.572,-195.394 173,-207 178.749,-209.848 184.854,-212.796 190.857,-215.651"/>
<polygon fill="#ff1040" stroke="#ff1040" points="190.152,-217.253 195.419,-217.813 191.65,-214.09 190.152,-217.253"/>
</g>
<!-- qKOFhpu -->
<g id="node4" class="node"><title>qKOFhpu</title>
<text text-anchor="middle" x="231.5" y="-177.2" font-family="Segoe UI" font-size="11.00" fill="#010509">ClassPageWriter</text>
</g>
<!-- DxzKpO3&#45;&gt;qKOFhpu -->
<g id="edge3" class="edge"><title>DxzKpO3&#45;&gt;qKOFhpu</title>
<path fill="none" stroke="#ff1040" d="M137.312,-164.372C153.372,-167.065 170.122,-169.875 184.92,-172.356"/>
<polygon fill="#ff1040" stroke="#ff1040" points="184.639,-174.083 189.86,-173.185 185.218,-170.632 184.639,-174.083"/>
</g>
<!-- q4WFhpu -->
<g id="node5" class="node"><title>q4WFhpu</title>
<text text-anchor="middle" x="231.5" y="-123.2" font-family="Segoe UI" font-size="11.00" fill="#010509">DirectoryPageWriter</text>
</g>
<!-- DxzKpO3&#45;&gt;q4WFhpu -->
<g id="edge4" class="edge"><title>DxzKpO3&#45;&gt;q4WFhpu</title>
<path fill="none" stroke="#ff1040" d="M137.312,-141.628C149.644,-139.56 162.384,-137.423 174.334,-135.419"/>
<polygon fill="#ff1040" stroke="#ff1040" points="174.761,-137.122 179.403,-134.569 174.182,-133.67 174.761,-137.122"/>
</g>
<!-- DtOFhpu -->
<g id="node6" class="node"><title>DtOFhpu</title>
<text text-anchor="middle" x="231.5" y="-69.2" font-family="Segoe UI" font-size="11.00" fill="#010509">GenericPageWriter</text>
</g>
<!-- DxzKpO3&#45;&gt;DtOFhpu -->
<g id="edge5" class="edge"><title>DxzKpO3&#45;&gt;DtOFhpu</title>
<path fill="none" stroke="#ff1040" d="M103.346,-134.885C123.474,-124.227 149.572,-110.606 173,-99 177.447,-96.797 182.107,-94.5343 186.769,-92.3008"/>
<polygon fill="#ff1040" stroke="#ff1040" points="187.663,-93.813 191.422,-90.0804 186.156,-90.6541 187.663,-93.813"/>
</g>
<!-- DxaFhpu -->
<g id="node7" class="node"><title>DxaFhpu</title>
<text text-anchor="middle" x="231.5" y="-15.2" font-family="Segoe UI" font-size="11.00" fill="#010509">NamespacePageWriter</text>
</g>
<!-- DxzKpO3&#45;&gt;DxaFhpu -->
<g id="edge6" class="edge"><title>DxzKpO3&#45;&gt;DxaFhpu</title>
<path fill="none" stroke="#ff1040" d="M83.2574,-134.97C101.673,-111.78 136.297,-71.3599 173,-45 176.079,-42.7885 179.368,-40.6842 182.755,-38.698"/>
<polygon fill="#ff1040" stroke="#ff1040" points="183.929,-40.045 187.424,-36.0638 182.209,-36.9967 183.929,-40.045"/>
</g>
</g>
</svg>
