<?xml version="1.0" encoding="UTF-8" standalone="no"?>
<!DOCTYPE svg PUBLIC "-//W3C//DTD SVG 1.1//EN"
 "http://www.w3.org/Graphics/SVG/1.1/DTD/svg11.dtd">
<!-- Generated by graphviz version 2.40.1 (20161225.0304)
 -->
<!-- Title: %3 Pages: 1 -->
<svg width="327pt" height="314pt"
 viewBox="0.00 0.00 327.00 314.00" xmlns="http://www.w3.org/2000/svg" xmlns:xlink="http://www.w3.org/1999/xlink">
<g id="graph0" class="graph" transform="scale(1 1) rotate(0) translate(4 310)">
<title>%3</title>
<polygon fill="transparent" stroke="transparent" points="-4,4 -4,-310 323,-310 323,4 -4,4"/>
<!-- DxzKpO3 -->
<g id="node1" class="node">
<title>DxzKpO3</title>
<text text-anchor="middle" x="77" y="-150.2" font-family="Segoe UI" font-size="11.00" fill="#010509">CompoundDefQueryVisitor</text>
</g>
<!-- DQxFhpu -->
<g id="node2" class="node">
<title>DQxFhpu</title>
<text text-anchor="middle" x="254.5" y="-285.2" font-family="Segoe UI" font-size="11.00" fill="#010509">DirectoryPageVisitor</text>
</g>
<!-- DxzKpO3&#45;&gt;DQxFhpu -->
<g id="edge1" class="edge">
<title>DxzKpO3&#45;&gt;DQxFhpu</title>
<path fill="none" stroke="#ff1040" d="M92.1939,-171.1836C112.4877,-194.5391 150.4931,-235.1384 190,-261 193.5771,-263.3416 197.3907,-265.5499 201.3081,-267.6173"/>
<polygon fill="#ff1040" stroke="#ff1040" points="200.6967,-269.2698 205.9464,-269.9791 202.2848,-266.1508 200.6967,-269.2698"/>
</g>
<!-- DyoFhpu -->
<g id="node3" class="node">
<title>DyoFhpu</title>
<text text-anchor="middle" x="254.5" y="-231.2" font-family="Segoe UI" font-size="11.00" fill="#010509">ModuleVisitor</text>
</g>
<!-- DxzKpO3&#45;&gt;DyoFhpu -->
<g id="edge2" class="edge">
<title>DxzKpO3&#45;&gt;DyoFhpu</title>
<path fill="none" stroke="#ff1040" d="M113.683,-171.094C135.688,-181.8065 164.3028,-195.4899 190,-207 196.4811,-209.903 203.3683,-212.8891 210.1376,-215.7689"/>
<polygon fill="#ff1040" stroke="#ff1040" points="209.5121,-217.4044 214.7987,-217.7432 210.8772,-214.1816 209.5121,-217.4044"/>
</g>
<!-- qKOFhpu -->
<g id="node4" class="node">
<title>qKOFhpu</title>
<text text-anchor="middle" x="254.5" y="-177.2" font-family="Segoe UI" font-size="11.00" fill="#010509">ClassPageWriter</text>
</g>
<!-- DxzKpO3&#45;&gt;qKOFhpu -->
<g id="edge3" class="edge">
<title>DxzKpO3&#45;&gt;qKOFhpu</title>
<path fill="none" stroke="#ff1040" d="M154.0797,-164.7248C170.5549,-167.2309 187.576,-169.82 202.8188,-172.1386"/>
<polygon fill="#ff1040" stroke="#ff1040" points="202.7102,-173.8922 207.9165,-172.9141 203.2366,-170.432 202.7102,-173.8922"/>
</g>
<!-- q4WFhpu -->
<g id="node5" class="node">
<title>q4WFhpu</title>
<text text-anchor="middle" x="254.5" y="-123.2" font-family="Segoe UI" font-size="11.00" fill="#010509">DirectoryPageWriter</text>
</g>
<!-- DxzKpO3&#45;&gt;q4WFhpu -->
<g id="edge4" class="edge">
<title>DxzKpO3&#45;&gt;q4WFhpu</title>
<path fill="none" stroke="#ff1040" d="M154.0797,-141.2752C166.6049,-139.37 179.4457,-137.4167 191.5807,-135.5708"/>
<polygon fill="#ff1040" stroke="#ff1040" points="192.0553,-137.2688 196.7352,-134.7868 191.5289,-133.8086 192.0553,-137.2688"/>
</g>
<!-- DtOFhpu -->
<g id="node6" class="node">
<title>DtOFhpu</title>
<text text-anchor="middle" x="254.5" y="-69.2" font-family="Segoe UI" font-size="11.00" fill="#010509">GenericPageWriter</text>
</g>
<!-- DxzKpO3&#45;&gt;DtOFhpu -->
<g id="edge5" class="edge">
<title>DxzKpO3&#45;&gt;DtOFhpu</title>
<path fill="none" stroke="#ff1040" d="M113.683,-134.906C135.688,-124.1935 164.3028,-110.5101 190,-99 195.0893,-96.7204 200.4291,-94.3895 205.7655,-92.0992"/>
<polygon fill="#ff1040" stroke="#ff1040" points="206.7471,-93.583 210.658,-90.0098 205.3725,-90.3642 206.7471,-93.583"/>
</g>
<!-- DxaFhpu -->
<g id="node7" class="node">
<title>DxaFhpu</title>
<text text-anchor="middle" x="254.5" y="-15.2" font-family="Segoe UI" font-size="11.00" fill="#010509">NamespacePageWriter</text>
</g>
<!-- DxzKpO3&#45;&gt;DxaFhpu -->
<g id="edge6" class="edge">
<title>DxzKpO3&#45;&gt;DxaFhpu</title>
<path fill="none" stroke="#ff1040" d="M92.1939,-134.8164C112.4877,-111.4609 150.4931,-70.8616 190,-45 193.5771,-42.6584 197.3907,-40.4501 201.3081,-38.3827"/>
<polygon fill="#ff1040" stroke="#ff1040" points="202.2848,-39.8492 205.9464,-36.0209 200.6967,-36.7302 202.2848,-39.8492"/>
</g>
</g>
</svg>
