<?xml version="1.0" encoding="UTF-8" standalone="no"?>
<!DOCTYPE svg PUBLIC "-//W3C//DTD SVG 1.1//EN"
 "http://www.w3.org/Graphics/SVG/1.1/DTD/svg11.dtd">
<!-- Generated by graphviz version 2.40.1 (20161225.0304)
 -->
<!-- Title: %3 Pages: 1 -->
<svg width="444pt" height="179pt"
 viewBox="0.00 0.00 444.00 179.00" xmlns="http://www.w3.org/2000/svg" xmlns:xlink="http://www.w3.org/1999/xlink">
<g id="graph0" class="graph" transform="scale(1 1) rotate(0) translate(4 175)">
<title>%3</title>
<polygon fill="transparent" stroke="transparent" points="-4,4 -4,-175 440,-175 440,4 -4,4"/>
<!-- SiteBuilder -->
<g id="node1" class="node">
<title>SiteBuilder</title>
<text text-anchor="middle" x="39" y="-69.2" font-family="Segoe UI" font-size="11.00" fill="#010509">SiteBuilder</text>
</g>
<!-- Config -->
<g id="node2" class="node">
<title>Config</title>
<text text-anchor="middle" x="39" y="-15.2" font-family="Segoe UI" font-size="11.00" fill="#010509">Config</text>
</g>
<!-- SiteBuilder&#45;&gt;Config -->
<g id="edge1" class="edge">
<title>SiteBuilder&#45;&gt;Config</title>
<path fill="none" stroke="#ff1040" d="M39,-53.7902C39,-49.6536 39,-45.5169 39,-41.3803"/>
<polygon fill="#ff1040" stroke="#ff1040" points="40.7501,-41.1406 39,-36.1406 37.2501,-41.1407 40.7501,-41.1406"/>
</g>
<!-- LoadIndex -->
<g id="node3" class="node">
<title>LoadIndex</title>
<text text-anchor="middle" x="165" y="-96.2" font-family="Segoe UI" font-size="11.00" fill="#010509">LoadIndex</text>
</g>
<!-- SiteBuilder&#45;&gt;LoadIndex -->
<g id="edge2" class="edge">
<title>SiteBuilder&#45;&gt;LoadIndex</title>
<path fill="none" stroke="#ff1040" d="M78.1765,-80.395C92.0739,-83.373 107.7852,-86.7397 121.9854,-89.7826"/>
<polygon fill="#ff1040" stroke="#ff1040" points="121.8868,-91.5511 127.1425,-90.8877 122.6202,-88.1288 121.8868,-91.5511"/>
</g>
<!-- ConvertGraphs -->
<g id="node9" class="node">
<title>ConvertGraphs</title>
<text text-anchor="middle" x="165" y="-42.2" font-family="Segoe UI" font-size="11.00" fill="#010509">ConvertGraphs</text>
</g>
<!-- SiteBuilder&#45;&gt;ConvertGraphs -->
<g id="edge8" class="edge">
<title>SiteBuilder&#45;&gt;ConvertGraphs</title>
<path fill="none" stroke="#ff1040" d="M78.1765,-63.605C87.8614,-61.5297 98.4271,-59.2656 108.7484,-57.0539"/>
<polygon fill="#ff1040" stroke="#ff1040" points="109.2684,-58.7323 113.7907,-55.9734 108.535,-55.31 109.2684,-58.7323"/>
</g>
<!-- Build -->
<g id="node4" class="node">
<title>Build</title>
<text text-anchor="middle" x="290.5" y="-150.2" font-family="Segoe UI" font-size="11.00" fill="#010509">Build</text>
</g>
<!-- LoadIndex&#45;&gt;Build -->
<g id="edge3" class="edge">
<title>LoadIndex&#45;&gt;Build</title>
<path fill="none" stroke="#ff1040" d="M202.6541,-115.2018C220.4731,-122.8689 241.5245,-131.9269 258.5519,-139.2534"/>
<polygon fill="#ff1040" stroke="#ff1040" points="257.9572,-140.9026 263.2418,-141.2714 259.3406,-137.6876 257.9572,-140.9026"/>
</g>
<!-- WriteIndex -->
<g id="node5" class="node">
<title>WriteIndex</title>
<text text-anchor="middle" x="290.5" y="-96.2" font-family="Segoe UI" font-size="11.00" fill="#010509">WriteIndex</text>
</g>
<!-- LoadIndex&#45;&gt;WriteIndex -->
<g id="edge4" class="edge">
<title>LoadIndex&#45;&gt;WriteIndex</title>
<path fill="none" stroke="#ff1040" d="M202.6541,-99C216.4152,-99 232.104,-99 246.3786,-99"/>
<polygon fill="#ff1040" stroke="#ff1040" points="246.5675,-100.7501 251.5674,-99 246.5674,-97.2501 246.5675,-100.7501"/>
</g>
<!-- Dispatch -->
<g id="node6" class="node">
<title>Dispatch</title>
<text text-anchor="middle" x="290.5" y="-42.2" font-family="Segoe UI" font-size="11.00" fill="#010509">Dispatch</text>
</g>
<!-- LoadIndex&#45;&gt;Dispatch -->
<g id="edge5" class="edge">
<title>LoadIndex&#45;&gt;Dispatch</title>
<path fill="none" stroke="#ff1040" d="M202.6541,-82.7982C218.2269,-76.0976 236.2687,-68.3346 251.9356,-61.5935"/>
<polygon fill="#ff1040" stroke="#ff1040" points="252.8149,-63.1203 256.7161,-59.5365 251.4315,-59.9053 252.8149,-63.1203"/>
</g>
<!-- BuildItem -->
<g id="node7" class="node">
<title>BuildItem</title>
<text text-anchor="middle" x="400.5" y="-69.2" font-family="Segoe UI" font-size="11.00" fill="#010509">BuildItem</text>
</g>
<!-- Dispatch&#45;&gt;BuildItem -->
<g id="edge6" class="edge">
<title>Dispatch&#45;&gt;BuildItem</title>
<path fill="none" stroke="#ff1040" d="M324.1013,-53.2476C335.3792,-56.0158 348.0793,-59.1331 359.8392,-62.0196"/>
<polygon fill="#ff1040" stroke="#ff1040" points="359.5416,-63.7485 364.8146,-63.2409 360.376,-60.3493 359.5416,-63.7485"/>
</g>
<!-- WriteItem -->
<g id="node8" class="node">
<title>WriteItem</title>
<text text-anchor="middle" x="400.5" y="-15.2" font-family="Segoe UI" font-size="11.00" fill="#010509">WriteItem</text>
</g>
<!-- Dispatch&#45;&gt;WriteItem -->
<g id="edge7" class="edge">
<title>Dispatch&#45;&gt;WriteItem</title>
<path fill="none" stroke="#ff1040" d="M324.1013,-36.7524C335.3792,-33.9842 348.0793,-30.8669 359.8392,-27.9804"/>
<polygon fill="#ff1040" stroke="#ff1040" points="360.376,-29.6507 364.8146,-26.7591 359.5416,-26.2515 360.376,-29.6507"/>
</g>
</g>
</svg>
