<?xml version="1.0" encoding="UTF-8" standalone="no"?>
<!DOCTYPE svg PUBLIC "-//W3C//DTD SVG 1.1//EN"
 "http://www.w3.org/Graphics/SVG/1.1/DTD/svg11.dtd">
<!-- Generated by graphviz version 2.38.0 (20140413.2041)
 -->
<!-- Title: %3 Pages: 1 -->
<svg width="413pt" height="179pt"
 viewBox="0.00 0.00 413.00 179.00" xmlns="http://www.w3.org/2000/svg" xmlns:xlink="http://www.w3.org/1999/xlink">
<g id="graph0" class="graph" transform="scale(1 1) rotate(0) translate(4 175)">
<title>%3</title>
<polygon fill="none" stroke="none" points="-4,4 -4,-175 409,-175 409,4 -4,4"/>
<!-- SiteBuilder -->
<g id="node1" class="node"><title>SiteBuilder</title>
<text text-anchor="middle" x="35.5" y="-69.2" font-family="Segoe UI" font-size="11.00" fill="#010509">SiteBuilder</text>
</g>
<!-- Config -->
<g id="node2" class="node"><title>Config</title>
<text text-anchor="middle" x="35.5" y="-15.2" font-family="Segoe UI" font-size="11.00" fill="#010509">Config</text>
</g>
<!-- SiteBuilder&#45;&gt;Config -->
<g id="edge1" class="edge"><title>SiteBuilder&#45;&gt;Config</title>
<path fill="none" stroke="#ff1040" d="M35.5,-53.7902C35.5,-49.6536 35.5,-45.5169 35.5,-41.3803"/>
<polygon fill="#ff1040" stroke="#ff1040" points="37.2501,-41.1406 35.5,-36.1406 33.7501,-41.1407 37.2501,-41.1406"/>
</g>
<!-- LoadIndex -->
<g id="node3" class="node"><title>LoadIndex</title>
<text text-anchor="middle" x="151.5" y="-96.2" font-family="Segoe UI" font-size="11.00" fill="#010509">LoadIndex</text>
</g>
<!-- SiteBuilder&#45;&gt;LoadIndex -->
<g id="edge2" class="edge"><title>SiteBuilder&#45;&gt;LoadIndex</title>
<path fill="none" stroke="#ff1040" d="M71.0131,-80.1742C83.9724,-83.2435 98.7785,-86.7502 112.072,-89.8985"/>
<polygon fill="#ff1040" stroke="#ff1040" points="112.009,-91.682 117.278,-91.1315 112.815,-88.2762 112.009,-91.682"/>
</g>
<!-- ConvertGraphs -->
<g id="node9" class="node"><title>ConvertGraphs</title>
<text text-anchor="middle" x="151.5" y="-42.2" font-family="Segoe UI" font-size="11.00" fill="#010509">ConvertGraphs</text>
</g>
<!-- SiteBuilder&#45;&gt;ConvertGraphs -->
<g id="edge8" class="edge"><title>SiteBuilder&#45;&gt;ConvertGraphs</title>
<path fill="none" stroke="#ff1040" d="M71.0131,-63.8258C80.6998,-61.5316 91.4183,-58.993 101.766,-56.5424"/>
<polygon fill="#ff1040" stroke="#ff1040" points="102.347,-58.2031 106.809,-55.3478 101.54,-54.7973 102.347,-58.2031"/>
</g>
<!-- Build -->
<g id="node4" class="node"><title>Build</title>
<text text-anchor="middle" x="267.5" y="-150.2" font-family="Segoe UI" font-size="11.00" fill="#010509">Build</text>
</g>
<!-- LoadIndex&#45;&gt;Build -->
<g id="edge3" class="edge"><title>LoadIndex&#45;&gt;Build</title>
<path fill="none" stroke="#ff1040" d="M185.78,-114.764C201.503,-122.212 220.158,-131.048 235.571,-138.349"/>
<polygon fill="#ff1040" stroke="#ff1040" points="234.975,-140.004 240.243,-140.563 236.474,-136.841 234.975,-140.004"/>
</g>
<!-- WriteIndex -->
<g id="node5" class="node"><title>WriteIndex</title>
<text text-anchor="middle" x="267.5" y="-96.2" font-family="Segoe UI" font-size="11.00" fill="#010509">WriteIndex</text>
</g>
<!-- LoadIndex&#45;&gt;WriteIndex -->
<g id="edge4" class="edge"><title>LoadIndex&#45;&gt;WriteIndex</title>
<path fill="none" stroke="#ff1040" d="M185.78,-99C198.544,-99 213.24,-99 226.565,-99"/>
<polygon fill="#ff1040" stroke="#ff1040" points="226.791,-100.75 231.791,-99 226.791,-97.2501 226.791,-100.75"/>
</g>
<!-- Dispatch -->
<g id="node6" class="node"><title>Dispatch</title>
<text text-anchor="middle" x="267.5" y="-42.2" font-family="Segoe UI" font-size="11.00" fill="#010509">Dispatch</text>
</g>
<!-- LoadIndex&#45;&gt;Dispatch -->
<g id="edge5" class="edge"><title>LoadIndex&#45;&gt;Dispatch</title>
<path fill="none" stroke="#ff1040" d="M185.78,-83.2358C200.423,-76.2995 217.608,-68.1591 232.35,-61.1763"/>
<polygon fill="#ff1040" stroke="#ff1040" points="233.479,-62.578 237.249,-58.8559 231.981,-59.4149 233.479,-62.578"/>
</g>
<!-- BuildItem -->
<g id="node7" class="node"><title>BuildItem</title>
<text text-anchor="middle" x="372" y="-69.2" font-family="Segoe UI" font-size="11.00" fill="#010509">BuildItem</text>
</g>
<!-- Dispatch&#45;&gt;BuildItem -->
<g id="edge6" class="edge"><title>Dispatch&#45;&gt;BuildItem</title>
<path fill="none" stroke="#ff1040" d="M297.598,-52.6649C308.992,-55.6661 322.194,-59.1437 334.234,-62.3152"/>
<polygon fill="#ff1040" stroke="#ff1040" points="334.033,-64.072 339.314,-63.6535 334.925,-60.6875 334.033,-64.072"/>
</g>
<!-- WriteItem -->
<g id="node8" class="node"><title>WriteItem</title>
<text text-anchor="middle" x="372" y="-15.2" font-family="Segoe UI" font-size="11.00" fill="#010509">WriteItem</text>
</g>
<!-- Dispatch&#45;&gt;WriteItem -->
<g id="edge7" class="edge"><title>Dispatch&#45;&gt;WriteItem</title>
<path fill="none" stroke="#ff1040" d="M297.598,-37.3351C308.888,-34.3612 321.954,-30.9195 333.905,-27.7713"/>
<polygon fill="#ff1040" stroke="#ff1040" points="334.561,-29.4083 338.951,-26.4423 333.67,-26.0237 334.561,-29.4083"/>
</g>
</g>
</svg>
