<?xml version="1.0" encoding="UTF-8" standalone="no"?>
<!DOCTYPE svg PUBLIC "-//W3C//DTD SVG 1.1//EN"
 "http://www.w3.org/Graphics/SVG/1.1/DTD/svg11.dtd">
<!-- Generated by graphviz version 2.38.0 (20140413.2041)
 -->
<!-- Title: %3 Pages: 1 -->
<svg width="218pt" height="152pt"
 viewBox="0.00 0.00 218.00 152.00" xmlns="http://www.w3.org/2000/svg" xmlns:xlink="http://www.w3.org/1999/xlink">
<g id="graph0" class="graph" transform="scale(1 1) rotate(0) translate(4 148)">
<title>%3</title>
<polygon fill="none" stroke="none" points="-4,4 -4,-148 214,-148 214,4 -4,4"/>
<!-- D4HIlMA -->
<g id="node1" class="node"><title>D4HIlMA</title>
<text text-anchor="middle" x="34" y="-69.2" font-family="Segoe UI" font-size="11.00" fill="#70809c">Document</text>
</g>
<!-- WWw3zFL -->
<g id="node2" class="node"><title>WWw3zFL</title>
<text text-anchor="middle" x="157" y="-123.2" font-family="Segoe UI" font-size="11.00" fill="#70809c">MemberFragment</text>
</g>
<!-- D4HIlMA&#45;&gt;WWw3zFL -->
<g id="edge1" class="edge"><title>D4HIlMA&#45;&gt;WWw3zFL</title>
<path fill="none" stroke="#9c709c" d="M68.0638,-86.7557C80.5768,-92.3401 95.0764,-98.811 108.648,-104.868"/>
<polygon fill="#9c709c" stroke="#9c709c" points="107.727,-107.331 115.646,-107.991 109.867,-102.537 107.727,-107.331"/>
</g>
<!-- WrK3zFL -->
<g id="node3" class="node"><title>WrK3zFL</title>
<text text-anchor="middle" x="157" y="-69.2" font-family="Segoe UI" font-size="11.00" fill="#70809c">Page</text>
</g>
<!-- D4HIlMA&#45;&gt;WrK3zFL -->
<g id="edge2" class="edge"><title>D4HIlMA&#45;&gt;WrK3zFL</title>
<path fill="none" stroke="#9c709c" d="M68.0638,-72C84.9326,-72 105.412,-72 122.361,-72"/>
<polygon fill="#9c709c" stroke="#9c709c" points="122.375,-74.6251 129.875,-72 122.375,-69.3751 122.375,-74.6251"/>
</g>
<!-- dcG3zFL -->
<g id="node4" class="node"><title>dcG3zFL</title>
<text text-anchor="middle" x="157" y="-15.2" font-family="Segoe UI" font-size="11.00" fill="#70809c">Parameter</text>
</g>
<!-- D4HIlMA&#45;&gt;dcG3zFL -->
<g id="edge3" class="edge"><title>D4HIlMA&#45;&gt;dcG3zFL</title>
<path fill="none" stroke="#9c709c" d="M68.0638,-57.2443C82.8695,-50.6368 100.456,-42.788 115.997,-35.8525"/>
<polygon fill="#9c709c" stroke="#9c709c" points="117.197,-38.1916 122.976,-32.7379 115.057,-33.3974 117.197,-38.1916"/>
</g>
</g>
</svg>
