<?xml version="1.0" encoding="UTF-8" standalone="no"?>
<!DOCTYPE svg PUBLIC "-//W3C//DTD SVG 1.1//EN"
 "http://www.w3.org/Graphics/SVG/1.1/DTD/svg11.dtd">
<!-- Generated by graphviz version 2.40.1 (20161225.0304)
 -->
<!-- Title: %3 Pages: 1 -->
<svg width="238pt" height="152pt"
 viewBox="0.00 0.00 238.00 152.00" xmlns="http://www.w3.org/2000/svg" xmlns:xlink="http://www.w3.org/1999/xlink">
<g id="graph0" class="graph" transform="scale(1 1) rotate(0) translate(4 148)">
<title>%3</title>
<polygon fill="transparent" stroke="transparent" points="-4,4 -4,-148 234,-148 234,4 -4,4"/>
<!-- D4HIlMA -->
<g id="node1" class="node">
<title>D4HIlMA</title>
<text text-anchor="middle" x="38" y="-69.2" font-family="Segoe UI" font-size="11.00" fill="#70809c">Document</text>
</g>
<!-- WWw3zFL -->
<g id="node2" class="node">
<title>WWw3zFL</title>
<text text-anchor="middle" x="171" y="-123.2" font-family="Segoe UI" font-size="11.00" fill="#70809c">MemberFragment</text>
</g>
<!-- D4HIlMA&#45;&gt;WWw3zFL -->
<g id="edge1" class="edge">
<title>D4HIlMA&#45;&gt;WWw3zFL</title>
<path fill="none" stroke="#9c709c" d="M76.1125,-87.4742C89.5695,-92.938 104.9358,-99.177 119.3262,-105.0197"/>
<polygon fill="#9c709c" stroke="#9c709c" points="118.3629,-107.4616 126.2995,-107.8509 120.338,-102.5973 118.3629,-107.4616"/>
</g>
<!-- WrK3zFL -->
<g id="node3" class="node">
<title>WrK3zFL</title>
<text text-anchor="middle" x="171" y="-69.2" font-family="Segoe UI" font-size="11.00" fill="#70809c">Page</text>
</g>
<!-- D4HIlMA&#45;&gt;WrK3zFL -->
<g id="edge2" class="edge">
<title>D4HIlMA&#45;&gt;WrK3zFL</title>
<path fill="none" stroke="#9c709c" d="M76.1125,-72C95.0531,-72 117.776,-72 136.2365,-72"/>
<polygon fill="#9c709c" stroke="#9c709c" points="136.3637,-74.6251 143.8637,-72 136.3637,-69.3751 136.3637,-74.6251"/>
</g>
<!-- dcG3zFL -->
<g id="node4" class="node">
<title>dcG3zFL</title>
<text text-anchor="middle" x="171" y="-15.2" font-family="Segoe UI" font-size="11.00" fill="#70809c">Parameter</text>
</g>
<!-- D4HIlMA&#45;&gt;dcG3zFL -->
<g id="edge3" class="edge">
<title>D4HIlMA&#45;&gt;dcG3zFL</title>
<path fill="none" stroke="#9c709c" d="M76.1125,-56.5258C91.8219,-50.1475 110.1333,-42.7128 126.4566,-36.0853"/>
<polygon fill="#9c709c" stroke="#9c709c" points="127.8386,-38.3574 133.8001,-33.1037 125.8635,-33.493 127.8386,-38.3574"/>
</g>
</g>
</svg>
