<?xml version="1.0" encoding="UTF-8" standalone="no"?>
<!DOCTYPE svg PUBLIC "-//W3C//DTD SVG 1.1//EN"
 "http://www.w3.org/Graphics/SVG/1.1/DTD/svg11.dtd">
<!-- Generated by graphviz version 2.40.1 (20161225.0304)
 -->
<!-- Title: %3 Pages: 1 -->
<svg width="205pt" height="152pt"
 viewBox="0.00 0.00 205.00 152.00" xmlns="http://www.w3.org/2000/svg" xmlns:xlink="http://www.w3.org/1999/xlink">
<g id="graph0" class="graph" transform="scale(1 1) rotate(0) translate(4 148)">
<title>%3</title>
<polygon fill="transparent" stroke="transparent" points="-4,4 -4,-148 201,-148 201,4 -4,4"/>
<!-- DxzKpO3 -->
<g id="node1" class="node">
<title>DxzKpO3</title>
<text text-anchor="middle" x="28.5" y="-69.2" font-family="Segoe UI" font-size="11.00" fill="#010509">Fragment</text>
</g>
<!-- qL3Fhpu -->
<g id="node2" class="node">
<title>qL3Fhpu</title>
<text text-anchor="middle" x="145" y="-123.2" font-family="Segoe UI" font-size="11.00" fill="#010509">MemberFragment</text>
</g>
<!-- DxzKpO3&#45;&gt;qL3Fhpu -->
<g id="edge1" class="edge">
<title>DxzKpO3&#45;&gt;qL3Fhpu</title>
<path fill="none" stroke="#ff1040" d="M57.2978,-85.3483C70.4949,-91.4655 86.4292,-98.8513 101.0752,-105.64"/>
<polygon fill="#ff1040" stroke="#ff1040" points="100.7146,-107.4017 105.987,-107.9167 102.1866,-104.2262 100.7146,-107.4017"/>
</g>
<!-- qxCFhpu -->
<g id="node3" class="node">
<title>qxCFhpu</title>
<text text-anchor="middle" x="145" y="-69.2" font-family="Segoe UI" font-size="11.00" fill="#010509">Page</text>
</g>
<!-- DxzKpO3&#45;&gt;qxCFhpu -->
<g id="edge2" class="edge">
<title>DxzKpO3&#45;&gt;qxCFhpu</title>
<path fill="none" stroke="#ff1040" d="M57.2978,-72C74.0293,-72 95.1602,-72 112.4878,-72"/>
<polygon fill="#ff1040" stroke="#ff1040" points="112.7342,-73.7501 117.7342,-72 112.7342,-70.2501 112.7342,-73.7501"/>
</g>
<!-- DAbFhpu -->
<g id="node4" class="node">
<title>DAbFhpu</title>
<text text-anchor="middle" x="145" y="-15.2" font-family="Segoe UI" font-size="11.00" fill="#010509">Parameter</text>
</g>
<!-- DxzKpO3&#45;&gt;DAbFhpu -->
<g id="edge3" class="edge">
<title>DxzKpO3&#45;&gt;DAbFhpu</title>
<path fill="none" stroke="#ff1040" d="M57.2978,-58.6517C73.3112,-51.2291 93.3547,-41.9386 110.2366,-34.1135"/>
<polygon fill="#ff1040" stroke="#ff1040" points="111.108,-35.6385 114.9084,-31.948 109.6361,-32.463 111.108,-35.6385"/>
</g>
</g>
</svg>
