<?xml version="1.0" encoding="UTF-8" standalone="no"?>
<!DOCTYPE svg PUBLIC "-//W3C//DTD SVG 1.1//EN"
 "http://www.w3.org/Graphics/SVG/1.1/DTD/svg11.dtd">
<!-- Generated by graphviz version 2.38.0 (20140413.2041)
 -->
<!-- Title: %3 Pages: 1 -->
<svg width="190pt" height="152pt"
 viewBox="0.00 0.00 190.00 152.00" xmlns="http://www.w3.org/2000/svg" xmlns:xlink="http://www.w3.org/1999/xlink">
<g id="graph0" class="graph" transform="scale(1 1) rotate(0) translate(4 148)">
<title>%3</title>
<polygon fill="none" stroke="none" points="-4,4 -4,-148 186,-148 186,4 -4,4"/>
<!-- DxzKpO3 -->
<g id="node1" class="node"><title>DxzKpO3</title>
<text text-anchor="middle" x="27" y="-69.2" font-family="Segoe UI" font-size="11.00" fill="#010509">Fragment</text>
</g>
<!-- qL3Fhpu -->
<g id="node2" class="node"><title>qL3Fhpu</title>
<text text-anchor="middle" x="136" y="-123.2" font-family="Segoe UI" font-size="11.00" fill="#010509">MemberFragment</text>
</g>
<!-- DxzKpO3&#45;&gt;qL3Fhpu -->
<g id="edge1" class="edge"><title>DxzKpO3&#45;&gt;qL3Fhpu</title>
<path fill="none" stroke="#ff1040" d="M54.1751,-85.2099C66.2929,-91.3254 80.9671,-98.7311 94.4688,-105.545"/>
<polygon fill="#ff1040" stroke="#ff1040" points="93.745,-107.14 98.9972,-107.83 95.3219,-104.015 93.745,-107.14"/>
</g>
<!-- qxCFhpu -->
<g id="node3" class="node"><title>qxCFhpu</title>
<text text-anchor="middle" x="136" y="-69.2" font-family="Segoe UI" font-size="11.00" fill="#010509">Page</text>
</g>
<!-- DxzKpO3&#45;&gt;qxCFhpu -->
<g id="edge2" class="edge"><title>DxzKpO3&#45;&gt;qxCFhpu</title>
<path fill="none" stroke="#ff1040" d="M54.1751,-72C69.0722,-72 87.8329,-72 103.529,-72"/>
<polygon fill="#ff1040" stroke="#ff1040" points="103.724,-73.7501 108.724,-72 103.724,-70.2501 103.724,-73.7501"/>
</g>
<!-- DAbFhpu -->
<g id="node4" class="node"><title>DAbFhpu</title>
<text text-anchor="middle" x="136" y="-15.2" font-family="Segoe UI" font-size="11.00" fill="#010509">Parameter</text>
</g>
<!-- DxzKpO3&#45;&gt;DAbFhpu -->
<g id="edge3" class="edge"><title>DxzKpO3&#45;&gt;DAbFhpu</title>
<path fill="none" stroke="#ff1040" d="M54.1751,-58.7901C69.2017,-51.2066 88.1595,-41.6391 103.938,-33.6764"/>
<polygon fill="#ff1040" stroke="#ff1040" points="105.049,-35.0758 108.724,-31.2607 103.472,-31.9511 105.049,-35.0758"/>
</g>
</g>
</svg>
