<?xml version="1.0" encoding="UTF-8" standalone="no"?>
<!DOCTYPE svg PUBLIC "-//W3C//DTD SVG 1.1//EN"
 "http://www.w3.org/Graphics/SVG/1.1/DTD/svg11.dtd">
<!-- Generated by graphviz version 2.38.0 (20140413.2041)
 -->
<!-- Title: %3 Pages: 1 -->
<svg width="332pt" height="44pt"
 viewBox="0.00 0.00 332.00 44.00" xmlns="http://www.w3.org/2000/svg" xmlns:xlink="http://www.w3.org/1999/xlink">
<g id="graph0" class="graph" transform="scale(1 1) rotate(0) translate(4 40)">
<title>%3</title>
<polygon fill="none" stroke="none" points="-4,4 -4,-40 328,-40 328,4 -4,4"/>
<!-- DcxlZuL -->
<g id="node1" class="node"><title>DcxlZuL</title>
<text text-anchor="middle" x="27" y="-15.2" font-family="Segoe UI" font-size="11.00" fill="#010509">Writer</text>
</g>
<!-- qbxlZuL -->
<g id="node2" class="node"><title>qbxlZuL</title>
<text text-anchor="middle" x="117" y="-15.2" font-family="Segoe UI" font-size="11.00" fill="#010509">Object</text>
</g>
<!-- DcxlZuL&#45;&gt;qbxlZuL -->
<g id="edge3" class="edge"><title>DcxlZuL&#45;&gt;qbxlZuL</title>
<path fill="none" stroke="#69bfff" d="M54.4029,-18C63.9738,-18 74.8745,-18 84.8184,-18"/>
<polygon fill="#69bfff" stroke="#69bfff" points="84.919,-19.7501 89.919,-18 84.919,-16.2501 84.919,-19.7501"/>
</g>
<!-- q7AlZuL -->
<g id="node3" class="node"><title>q7AlZuL</title>
<text text-anchor="middle" x="207" y="-15.2" font-family="Segoe UI" font-size="11.00" fill="#010509">Group</text>
</g>
<!-- qbxlZuL&#45;&gt;q7AlZuL -->
<g id="edge2" class="edge"><title>qbxlZuL&#45;&gt;q7AlZuL</title>
<path fill="none" stroke="#69bfff" d="M144.403,-18C153.974,-18 164.875,-18 174.818,-18"/>
<polygon fill="#69bfff" stroke="#69bfff" points="174.919,-19.7501 179.919,-18 174.919,-16.2501 174.919,-19.7501"/>
</g>
<!-- D9xlZuL -->
<g id="node4" class="node"><title>D9xlZuL</title>
<text text-anchor="middle" x="297" y="-15.2" font-family="Segoe UI" font-size="11.00" fill="#010509">Complex</text>
</g>
<!-- q7AlZuL&#45;&gt;D9xlZuL -->
<g id="edge1" class="edge"><title>q7AlZuL&#45;&gt;D9xlZuL</title>
<path fill="none" stroke="#69bfff" d="M234.403,-18C243.974,-18 254.875,-18 264.818,-18"/>
<polygon fill="#69bfff" stroke="#69bfff" points="264.919,-19.7501 269.919,-18 264.919,-16.2501 264.919,-19.7501"/>
</g>
</g>
</svg>
