<?xml version="1.0" encoding="UTF-8" standalone="no"?>
<!DOCTYPE svg PUBLIC "-//W3C//DTD SVG 1.1//EN"
 "http://www.w3.org/Graphics/SVG/1.1/DTD/svg11.dtd">
<!-- Generated by graphviz version 2.38.0 (20140413.2041)
 -->
<!-- Title: %3 Pages: 1 -->
<svg width="419pt" height="296pt"
 viewBox="0.00 0.00 419.00 296.00" xmlns="http://www.w3.org/2000/svg" xmlns:xlink="http://www.w3.org/1999/xlink">
<g id="graph0" class="graph" transform="scale(1 1) rotate(0) translate(4 292)">
<title>%3</title>
<polygon fill="none" stroke="none" points="-4,4 -4,-292 415,-292 415,4 -4,4"/>
<g id="clust1" class="cluster"><title>cluster_a</title>
<polygon fill="none" stroke="none" points="8,-68 8,-280 403,-280 403,-68 8,-68"/>
</g>
<g id="clust2" class="cluster"><title>cluster_b</title>
<polygon fill="none" stroke="none" points="144.5,-8 144.5,-60 233.5,-60 233.5,-8 144.5,-8"/>
</g>
<!-- Application -->
<g id="node1" class="node"><title>Application</title>
<polygon fill="#242726" stroke="none" points="24,-80 24,-268 93,-268 93,-80 24,-80"/>
<text text-anchor="start" x="28.5" y="-256.2" font-family="Segoe UI" font-weight="bold" font-size="11.00" fill="#aeb6c2">Application</text>
<polygon fill="#464948" fill-opacity="0.752941" stroke="none" points="28.5,-84 28.5,-244 89.5,-244 89.5,-84 28.5,-84"/>
<text text-anchor="start" x="44.5" y="-231.2" font-family="Segoe UI" font-size="11.00" fill="#828ea0">Setup</text>
<text text-anchor="start" x="32.5" y="-211.2" font-family="Segoe UI" font-size="11.00" fill="#828ea0">&#45;c</text>
<text text-anchor="start" x="32.5" y="-191.2" font-family="Segoe UI" font-size="11.00" fill="#828ea0">&#45;g</text>
<text text-anchor="start" x="32.5" y="-171.2" font-family="Segoe UI" font-size="11.00" fill="#828ea0">&#45;e</text>
<text text-anchor="start" x="32.5" y="-151.2" font-family="Segoe UI" font-size="11.00" fill="#828ea0">&#45;s</text>
<text text-anchor="start" x="32.5" y="-131.2" font-family="Segoe UI" font-size="11.00" fill="#828ea0">&#45;n</text>
<text text-anchor="start" x="36" y="-111.2" font-family="Segoe UI" font-size="11.00" fill="#828ea0">Generate</text>
<text text-anchor="start" x="32.5" y="-91.2" font-family="Segoe UI" font-size="11.00" fill="#828ea0">&#45;i</text>
</g>
<!-- Database -->
<g id="node2" class="node"><title>Database</title>
<polygon fill="#242726" stroke="none" points="145,-100 145,-248 233,-248 233,-100 145,-100"/>
<text text-anchor="start" x="149" y="-236.2" font-family="Segoe UI" font-weight="bold" font-size="11.00" fill="#aeb6c2">Swap Database</text>
<polygon fill="#464948" fill-opacity="0.752941" stroke="none" points="149,-104 149,-224 229,-224 229,-104 149,-104"/>
<text text-anchor="start" x="153" y="-211.2" font-family="Segoe UI" font-size="11.00" fill="#828ea0">Complex.txt</text>
<text text-anchor="start" x="153" y="-191.2" font-family="Segoe UI" font-size="11.00" fill="#828ea0">Groups.txt</text>
<text text-anchor="start" x="153" y="-171.2" font-family="Segoe UI" font-size="11.00" fill="#828ea0">Elements.xt</text>
<text text-anchor="start" x="153" y="-151.2" font-family="Segoe UI" font-size="11.00" fill="#828ea0">Simple.txt</text>
<text text-anchor="start" x="153" y="-131.2" font-family="Segoe UI" font-size="11.00" fill="#828ea0">Enums.txt</text>
<text text-anchor="start" x="153" y="-111.2" font-family="Segoe UI" font-size="11.00" fill="#828ea0">input.xsd</text>
</g>
<!-- Application&#45;&gt;Database -->
<g id="edge1" class="edge"><title>Application:C&#45;&gt;Database:C</title>
<path fill="none" stroke="#828ea0" d="M90.5,-214C114.259,-214 121.451,-214 142.88,-214"/>
<polygon fill="#828ea0" stroke="#828ea0" points="143,-215.75 148,-214 143,-212.25 143,-215.75"/>
</g>
<!-- Application&#45;&gt;Database -->
<g id="edge2" class="edge"><title>Application:S&#45;&gt;Database:S</title>
<path fill="none" stroke="#828ea0" d="M90.5,-154C114.259,-154 121.451,-154 142.88,-154"/>
<polygon fill="#828ea0" stroke="#828ea0" points="143,-155.75 148,-154 143,-152.25 143,-155.75"/>
</g>
<!-- Application&#45;&gt;Database -->
<g id="edge3" class="edge"><title>Application:E&#45;&gt;Database:E</title>
<path fill="none" stroke="#828ea0" d="M90.5,-174C114.259,-174 121.451,-174 142.88,-174"/>
<polygon fill="#828ea0" stroke="#828ea0" points="143,-175.75 148,-174 143,-172.25 143,-175.75"/>
</g>
<!-- Application&#45;&gt;Database -->
<g id="edge4" class="edge"><title>Application:N&#45;&gt;Database:N</title>
<path fill="none" stroke="#828ea0" d="M90.5,-134C114.259,-134 121.451,-134 142.88,-134"/>
<polygon fill="#828ea0" stroke="#828ea0" points="143,-135.75 148,-134 143,-132.25 143,-135.75"/>
</g>
<!-- Application&#45;&gt;Database -->
<g id="edge5" class="edge"><title>Application:G&#45;&gt;Database:G</title>
<path fill="none" stroke="#828ea0" d="M90.5,-194C114.259,-194 121.451,-194 142.88,-194"/>
<polygon fill="#828ea0" stroke="#828ea0" points="143,-195.75 148,-194 143,-192.25 143,-195.75"/>
</g>
<!-- Input -->
<g id="node4" class="node"><title>Input</title>
<polygon fill="#242726" stroke="none" points="160.5,-24 160.5,-44 217.5,-44 217.5,-24 160.5,-24"/>
<text text-anchor="start" x="165" y="-32.2" font-family="Segoe UI" font-weight="bold" font-size="11.00" fill="#aeb6c2">input.xsd</text>
</g>
<!-- Application&#45;&gt;Input -->
<g id="edge6" class="edge"><title>Application:I&#45;&gt;Input</title>
<path fill="none" stroke="#828ea0" d="M90.5,-94C115.094,-94 116.063,-76.9044 137,-64 141.987,-60.9261 147.284,-57.7329 152.504,-54.6261"/>
<polygon fill="#828ea0" stroke="#828ea0" points="153.454,-56.097 156.862,-52.0413 151.669,-53.0866 153.454,-56.097"/>
</g>
<!-- Index -->
<g id="node3" class="node"><title>Index</title>
<polygon fill="#242726" stroke="none" points="285,-100 285,-248 387,-248 387,-100 285,-100"/>
<text text-anchor="start" x="321" y="-236.2" font-family="Segoe UI" font-weight="bold" font-size="11.00" fill="#aeb6c2">Index</text>
<polygon fill="#464948" fill-opacity="0.752941" stroke="none" points="289,-104 289,-224 383,-224 383,-104 289,-104"/>
<text text-anchor="start" x="293" y="-211.2" font-family="Segoe UI" font-size="11.00" fill="#828ea0">xsd:complexType</text>
<text text-anchor="start" x="293" y="-191.2" font-family="Segoe UI" font-size="11.00" fill="#828ea0">xsd:group</text>
<text text-anchor="start" x="293" y="-171.2" font-family="Segoe UI" font-size="11.00" fill="#828ea0">xsd:element</text>
<text text-anchor="start" x="293" y="-151.2" font-family="Segoe UI" font-size="11.00" fill="#828ea0">xsd:simpleType</text>
<text text-anchor="start" x="293" y="-131.2" font-family="Segoe UI" font-size="11.00" fill="#828ea0">xsd:enumeration</text>
<text text-anchor="start" x="293" y="-111.2" font-family="Segoe UI" font-size="11.00" fill="#828ea0">input.xsd</text>
</g>
<!-- Database&#45;&gt;Index -->
<g id="edge7" class="edge"><title>Database:C&#45;&gt;Index:C</title>
<path fill="none" stroke="#828ea0" d="M230,-214C253.965,-214 261.22,-214 282.836,-214"/>
<polygon fill="#828ea0" stroke="#828ea0" points="283,-215.75 288,-214 283,-212.25 283,-215.75"/>
</g>
<!-- Database&#45;&gt;Index -->
<g id="edge8" class="edge"><title>Database:S&#45;&gt;Index:S</title>
<path fill="none" stroke="#828ea0" d="M230,-154C253.965,-154 261.22,-154 282.836,-154"/>
<polygon fill="#828ea0" stroke="#828ea0" points="283,-155.75 288,-154 283,-152.25 283,-155.75"/>
</g>
<!-- Database&#45;&gt;Index -->
<g id="edge9" class="edge"><title>Database:E&#45;&gt;Index:E</title>
<path fill="none" stroke="#828ea0" d="M230,-174C253.965,-174 261.22,-174 282.836,-174"/>
<polygon fill="#828ea0" stroke="#828ea0" points="283,-175.75 288,-174 283,-172.25 283,-175.75"/>
</g>
<!-- Database&#45;&gt;Index -->
<g id="edge10" class="edge"><title>Database:N&#45;&gt;Index:N</title>
<path fill="none" stroke="#828ea0" d="M230,-134C253.965,-134 261.22,-134 282.836,-134"/>
<polygon fill="#828ea0" stroke="#828ea0" points="283,-135.75 288,-134 283,-132.25 283,-135.75"/>
</g>
<!-- Database&#45;&gt;Index -->
<g id="edge11" class="edge"><title>Database:G&#45;&gt;Index:G</title>
<path fill="none" stroke="#828ea0" d="M230,-194C253.965,-194 261.22,-194 282.836,-194"/>
<polygon fill="#828ea0" stroke="#828ea0" points="283,-195.75 288,-194 283,-192.25 283,-195.75"/>
</g>
<!-- Input&#45;&gt;Database -->
<g id="edge12" class="edge"><title>Input&#45;&gt;Database:I</title>
<path fill="none" stroke="#828ea0" d="M189,-97.6443C189,-81.6776 189,-64.4036 189,-52.0469"/>
<polygon fill="#828ea0" stroke="#828ea0" points="187.25,-98 189,-103 190.75,-98 187.25,-98"/>
</g>
<!-- Input&#45;&gt;Index -->
<g id="edge13" class="edge"><title>Input&#45;&gt;Index:I</title>
<path fill="none" stroke="#828ea0" d="M223.825,-52.0534C229.747,-55.7249 235.703,-59.7685 241,-64 263.34,-81.8455 258.296,-110.176 282.708,-113.648"/>
<polygon fill="#828ea0" stroke="#828ea0" points="282.895,-115.414 288,-114 283.127,-111.922 282.895,-115.414"/>
</g>
</g>
</svg>
