<?xml version="1.0" encoding="UTF-8" standalone="no"?>
<!DOCTYPE svg PUBLIC "-//W3C//DTD SVG 1.1//EN"
 "http://www.w3.org/Graphics/SVG/1.1/DTD/svg11.dtd">
<!-- Generated by graphviz version 2.38.0 (20140413.2041)
 -->
<!-- Title: %3 Pages: 1 -->
<svg width="424pt" height="600pt"
 viewBox="0.00 0.00 424.00 600.00" xmlns="http://www.w3.org/2000/svg" xmlns:xlink="http://www.w3.org/1999/xlink">
<g id="graph0" class="graph" transform="scale(1 1) rotate(0) translate(4 596)">
<title>%3</title>
<polygon fill="none" stroke="none" points="-4,4 -4,-596 420,-596 420,4 -4,4"/>
<!-- Site -->
<g id="node1" class="node"><title>Site</title>
<polygon fill="#828ea0" fill-opacity="0.062745" stroke="none" points="8,-508 8,-568 60,-568 60,-508 8,-508"/>
<text text-anchor="start" x="24" y="-556.2" font-family="Segoe UI" font-weight="bold" font-size="11.00" fill="#aeb6c2">Site</text>
<text text-anchor="start" x="12" y="-535.2" font-family="Segoe UI" font-size="11.00" fill="#828ea0">IndexList</text>
<text text-anchor="start" x="12" y="-515.2" font-family="Segoe UI" font-size="11.00" fill="#828ea0">Config</text>
</g>
<!-- Config -->
<g id="node2" class="node"><title>Config</title>
<polygon fill="#828ea0" fill-opacity="0.062745" stroke="none" points="10,-340 10,-380 58,-380 58,-340 10,-340"/>
<text text-anchor="start" x="16.5" y="-368.2" font-family="Segoe UI" font-weight="bold" font-size="11.00" fill="#aeb6c2">Config</text>
<text text-anchor="start" x="14" y="-347.2" font-family="Segoe UI" font-size="11.00" fill="#828ea0">Settings</text>
</g>
<!-- Site&#45;&gt;Config -->
<g id="edge1" class="edge"><title>Site:Config&#45;&gt;Config</title>
<path fill="none" stroke="#ea3e53" d="M34,-507C34,-466.077 34,-418.701 34,-389.288"/>
<polygon fill="#ea3e53" stroke="#ea3e53" points="35.7501,-389.011 34,-384.011 32.2501,-389.011 35.7501,-389.011"/>
</g>
<!-- IndexList -->
<g id="node3" class="node"><title>IndexList</title>
<polygon fill="#828ea0" fill-opacity="0.062745" stroke="none" points="94.5,-508 94.5,-568 151.5,-568 151.5,-508 94.5,-508"/>
<text text-anchor="start" x="99" y="-556.2" font-family="Segoe UI" font-weight="bold" font-size="11.00" fill="#aeb6c2">IndexList</text>
<text text-anchor="start" x="99" y="-535.2" font-family="Segoe UI" font-size="11.00" fill="#828ea0">Id</text>
<text text-anchor="start" x="99" y="-515.2" font-family="Segoe UI" font-size="11.00" fill="#828ea0">Fragment</text>
</g>
<!-- Site&#45;&gt;IndexList -->
<g id="edge2" class="edge"><title>Site&#45;&gt;IndexList:Index</title>
<path fill="none" stroke="#ea3e53" d="M68.047,-553.361C74.6564,-555.501 81.7181,-557.176 88.6925,-557.768"/>
<polygon fill="#ea3e53" stroke="#ea3e53" points="88.9285,-559.53 94,-558 89.081,-556.034 88.9285,-559.53"/>
</g>
<!-- Fragment -->
<g id="node4" class="node"><title>Fragment</title>
<polygon fill="#828ea0" fill-opacity="0.062745" stroke="none" points="186,-488 186,-588 246,-588 246,-488 186,-488"/>
<text text-anchor="start" x="190" y="-576.2" font-family="Segoe UI" font-weight="bold" font-size="11.00" fill="#aeb6c2">Fragment</text>
<text text-anchor="start" x="190" y="-555.2" font-family="Segoe UI" font-size="11.00" fill="#828ea0">(Inherit)</text>
<text text-anchor="start" x="190" y="-535.2" font-family="Segoe UI" font-size="11.00" fill="#828ea0">Title</text>
<text text-anchor="start" x="190" y="-515.2" font-family="Segoe UI" font-size="11.00" fill="#828ea0">Brief</text>
<text text-anchor="start" x="190" y="-495.2" font-family="Segoe UI" font-size="11.00" fill="#828ea0">Detail</text>
</g>
<!-- IndexList&#45;&gt;Fragment -->
<g id="edge3" class="edge"><title>IndexList:Fragment&#45;&gt;Fragment:Fragment</title>
<path fill="none" stroke="#ea3e53" d="M153,-518C181.333,-518 158.104,-570.734 179.992,-577.326"/>
<polygon fill="#ea3e53" stroke="#ea3e53" points="179.811,-579.068 185,-578 180.278,-575.599 179.811,-579.068"/>
</g>
<!-- Page -->
<g id="node5" class="node"><title>Page</title>
<polygon fill="#828ea0" fill-opacity="0.062745" stroke="none" points="185,-276 185,-444 247,-444 247,-276 185,-276"/>
<text text-anchor="start" x="203" y="-432.2" font-family="Segoe UI" font-weight="bold" font-size="11.00" fill="#aeb6c2">Page</text>
<text text-anchor="start" x="189" y="-411.2" font-family="Segoe UI" font-size="11.00" fill="#828ea0">(Inherit)</text>
<polygon fill="#828ea0" fill-opacity="0.062745" stroke="none" points="189,-280 189,-400 243,-400 243,-280 189,-280"/>
<text text-anchor="start" x="203" y="-388.2" font-family="Segoe UI" font-weight="bold" font-size="11.00" fill="#aeb6c2">Type</text>
<text text-anchor="start" x="193" y="-367.2" font-family="Segoe UI" font-size="11.00" fill="#828ea0">Generic</text>
<text text-anchor="start" x="193" y="-347.2" font-family="Segoe UI" font-size="11.00" fill="#828ea0">Specs</text>
<text text-anchor="start" x="193" y="-327.2" font-family="Segoe UI" font-size="11.00" fill="#828ea0">Module</text>
<text text-anchor="start" x="193" y="-307.2" font-family="Segoe UI" font-size="11.00" fill="#828ea0">Class</text>
<text text-anchor="start" x="193" y="-287.2" font-family="Segoe UI" font-size="11.00" fill="#828ea0">Directory</text>
</g>
<!-- Fragment&#45;&gt;Page -->
<g id="edge4" class="edge"><title>Fragment:Page&#45;&gt;Page:Page</title>
<path fill="none" stroke="#ea3e53" d="M216,-483.972C216,-472.905 216,-461.214 216,-450.075"/>
<polygon fill="#ea3e53" stroke="#ea3e53" points="217.75,-450 216,-445 214.25,-450 217.75,-450"/>
</g>
<!-- Generic -->
<g id="node6" class="node"><title>Generic</title>
<polygon fill="#828ea0" fill-opacity="0.062745" stroke="none" points="281,-340 281,-380 329,-380 329,-340 281,-340"/>
<text text-anchor="start" x="285" y="-368.2" font-family="Segoe UI" font-weight="bold" font-size="11.00" fill="#aeb6c2">Generic</text>
<text text-anchor="start" x="285" y="-347.2" font-family="Segoe UI" font-size="11.00" fill="#828ea0">(Inherit)</text>
</g>
<!-- Page&#45;&gt;Generic -->
<g id="edge5" class="edge"><title>Page:Generic&#45;&gt;Generic</title>
<path fill="none" stroke="#ea3e53" d="M244,-370C251.636,-370 259.746,-369.202 267.452,-368.057"/>
<polygon fill="#ea3e53" stroke="#ea3e53" points="268.052,-369.733 272.712,-367.214 267.498,-366.277 268.052,-369.733"/>
</g>
<!-- Module -->
<g id="node7" class="node"><title>Module</title>
<polygon fill="#828ea0" fill-opacity="0.062745" stroke="none" points="10,-38 10,-198 86,-198 86,-38 10,-38"/>
<text text-anchor="start" x="28" y="-186.2" font-family="Segoe UI" font-weight="bold" font-size="11.00" fill="#aeb6c2">Module</text>
<text text-anchor="start" x="14" y="-165.2" font-family="Segoe UI" font-size="11.00" fill="#828ea0">(Inherit)</text>
<text text-anchor="start" x="14" y="-145.2" font-family="Segoe UI" font-size="11.00" fill="#828ea0">Functions</text>
<text text-anchor="start" x="14" y="-125.2" font-family="Segoe UI" font-size="11.00" fill="#828ea0">Variables</text>
<text text-anchor="start" x="14" y="-105.2" font-family="Segoe UI" font-size="11.00" fill="#828ea0">Aliases</text>
<text text-anchor="start" x="14" y="-85.2" font-family="Segoe UI" font-size="11.00" fill="#828ea0">Enumerations</text>
<text text-anchor="start" x="14" y="-65.2" font-family="Segoe UI" font-size="11.00" fill="#828ea0">Classes</text>
<text text-anchor="start" x="14" y="-45.2" font-family="Segoe UI" font-size="11.00" fill="#828ea0">Modules</text>
</g>
<!-- Page&#45;&gt;Module -->
<g id="edge6" class="edge"><title>Page:Module&#45;&gt;Module</title>
<path fill="none" stroke="#ea3e53" d="M188,-330C125.464,-330 89.1988,-264.85 69.3182,-206.954"/>
<polygon fill="#ea3e53" stroke="#ea3e53" points="70.9344,-206.27 67.6801,-202.09 67.6175,-207.387 70.9344,-206.27"/>
</g>
<!-- Class -->
<g id="node8" class="node"><title>Class</title>
<polygon fill="#828ea0" fill-opacity="0.062745" stroke="none" points="120,-4 120,-232 204,-232 204,-4 120,-4"/>
<text text-anchor="start" x="148.5" y="-220.2" font-family="Segoe UI" font-weight="bold" font-size="11.00" fill="#aeb6c2">Class</text>
<text text-anchor="start" x="124" y="-199.2" font-family="Segoe UI" font-size="11.00" fill="#828ea0">(Inherit)</text>
<text text-anchor="start" x="124" y="-179.2" font-family="Segoe UI" font-size="11.00" fill="#828ea0">Base</text>
<text text-anchor="start" x="124" y="-159.2" font-family="Segoe UI" font-size="11.00" fill="#828ea0">Derived</text>
<polygon fill="#828ea0" fill-opacity="0.062745" stroke="none" points="124,-8 124,-148 200,-148 200,-8 124,-8"/>
<text text-anchor="start" x="140" y="-136.2" font-family="Segoe UI" font-weight="bold" font-size="11.00" fill="#828ea0">Sections</text>
<text text-anchor="start" x="128" y="-115.2" font-family="Segoe UI" font-size="11.00" fill="#828ea0">Functions</text>
<text text-anchor="start" x="128" y="-95.2" font-family="Segoe UI" font-size="11.00" fill="#828ea0">Variables</text>
<text text-anchor="start" x="128" y="-75.2" font-family="Segoe UI" font-size="11.00" fill="#828ea0">Aliases</text>
<text text-anchor="start" x="128" y="-55.2" font-family="Segoe UI" font-size="11.00" fill="#828ea0">Enumerations</text>
<text text-anchor="start" x="128" y="-35.2" font-family="Segoe UI" font-size="11.00" fill="#828ea0">Modules</text>
<text text-anchor="start" x="128" y="-15.2" font-family="Segoe UI" font-size="11.00" fill="#828ea0">Classes</text>
</g>
<!-- Page&#45;&gt;Class -->
<g id="edge7" class="edge"><title>Page:Class&#45;&gt;Class</title>
<path fill="none" stroke="#ea3e53" d="M188,-310C153.25,-310 142.413,-278.576 141.807,-241.22"/>
<polygon fill="#ea3e53" stroke="#ea3e53" points="143.557,-241.147 141.786,-236.154 140.057,-241.162 143.557,-241.147"/>
</g>
<!-- Directory -->
<g id="node9" class="node"><title>Directory</title>
<polygon fill="#828ea0" fill-opacity="0.062745" stroke="none" points="238.5,-68 238.5,-168 301.5,-168 301.5,-68 238.5,-68"/>
<text text-anchor="start" x="246" y="-156.2" font-family="Segoe UI" font-weight="bold" font-size="11.00" fill="#aeb6c2">Directory</text>
<text text-anchor="start" x="243" y="-135.2" font-family="Segoe UI" font-size="11.00" fill="#828ea0">(Inherit)</text>
<text text-anchor="start" x="243" y="-115.2" font-family="Segoe UI" font-size="11.00" fill="#828ea0">Directories</text>
<text text-anchor="start" x="243" y="-95.2" font-family="Segoe UI" font-size="11.00" fill="#828ea0">Files</text>
<text text-anchor="start" x="243" y="-75.2" font-family="Segoe UI" font-size="11.00" fill="#828ea0">Stats</text>
</g>
<!-- Page&#45;&gt;Directory -->
<g id="edge8" class="edge"><title>Page:Directory&#45;&gt;Directory</title>
<path fill="none" stroke="#ea3e53" d="M216,-279C216,-243.936 227.787,-206.712 240.346,-177"/>
<polygon fill="#ea3e53" stroke="#ea3e53" points="242.001,-177.582 242.367,-172.298 238.785,-176.201 242.001,-177.582"/>
</g>
<!-- Specs -->
<g id="node10" class="node"><title>Specs</title>
<polygon fill="#828ea0" fill-opacity="0.062745" stroke="none" points="336,-48 336,-188 408,-188 408,-48 336,-48"/>
<text text-anchor="start" x="357" y="-176.2" font-family="Segoe UI" font-weight="bold" font-size="11.00" fill="#aeb6c2">Specs</text>
<text text-anchor="start" x="340" y="-155.2" font-family="Segoe UI" font-size="11.00" fill="#828ea0">(Inherit)</text>
<text text-anchor="start" x="340" y="-135.2" font-family="Segoe UI" font-size="11.00" fill="#828ea0">Files</text>
<text text-anchor="start" x="340" y="-115.2" font-family="Segoe UI" font-size="11.00" fill="#828ea0">Directories</text>
<text text-anchor="start" x="340" y="-95.2" font-family="Segoe UI" font-size="11.00" fill="#828ea0">Lines</text>
<text text-anchor="start" x="340" y="-75.2" font-family="Segoe UI" font-size="11.00" fill="#828ea0">Classes</text>
<text text-anchor="start" x="340" y="-55.2" font-family="Segoe UI" font-size="11.00" fill="#828ea0">Namespaces</text>
</g>
<!-- Page&#45;&gt;Specs -->
<g id="edge9" class="edge"><title>Page:Specs&#45;&gt;Specs</title>
<path fill="none" stroke="#ea3e53" d="M244,-350C279.788,-350 243.173,-301.104 264,-272 281.002,-248.241 299.995,-258.188 319,-236 328.905,-224.436 337.297,-210.717 344.278,-196.816"/>
<polygon fill="#ea3e53" stroke="#ea3e53" points="345.962,-197.357 346.592,-192.097 342.819,-195.816 345.962,-197.357"/>
</g>
</g>
</svg>
