<?xml version="1.0" encoding="UTF-8" standalone="no"?>
<!DOCTYPE svg PUBLIC "-//W3C//DTD SVG 1.1//EN"
 "http://www.w3.org/Graphics/SVG/1.1/DTD/svg11.dtd">
<!-- Generated by graphviz version 2.38.0 (20140413.2041)
 -->
<!-- Title: %3 Pages: 1 -->
<svg width="413pt" height="179pt"
 viewBox="0.00 0.00 413.00 179.00" xmlns="http://www.w3.org/2000/svg" xmlns:xlink="http://www.w3.org/1999/xlink">
<g id="graph0" class="graph" transform="scale(1 1) rotate(0) translate(4 175)">
<title>%3</title>
<polygon fill="none" stroke="none" points="-4,4 -4,-175 409,-175 409,4 -4,4"/>
<!-- SiteBuilder -->
<g id="node1" class="node"><title>SiteBuilder</title>
<text text-anchor="middle" x="35.5" y="-69.2" font-family="Segoe UI" font-size="11.00" fill="#828ea0">SiteBuilder</text>
</g>
<!-- Config -->
<g id="node2" class="node"><title>Config</title>
<text text-anchor="middle" x="35.5" y="-15.2" font-family="Segoe UI" font-size="11.00" fill="#828ea0">Config</text>
</g>
<!-- SiteBuilder&#45;&gt;Config -->
<g id="edge1" class="edge"><title>SiteBuilder&#45;&gt;Config</title>
<path fill="none" stroke="#ea3e53" d="M35.5,-53.7902C35.5,-49.6536 35.5,-45.5169 35.5,-41.3803"/>
<polygon fill="#ea3e53" stroke="#ea3e53" points="37.2501,-41.1406 35.5,-36.1406 33.7501,-41.1407 37.2501,-41.1406"/>
</g>
<!-- buildFromXml -->
<g id="node3" class="node"><title>buildFromXml</title>
<text text-anchor="middle" x="151.5" y="-96.2" font-family="Segoe UI" font-size="11.00" fill="#828ea0">buildFromXml</text>
</g>
<!-- SiteBuilder&#45;&gt;buildFromXml -->
<g id="edge2" class="edge"><title>SiteBuilder&#45;&gt;buildFromXml</title>
<path fill="none" stroke="#ea3e53" d="M71.0131,-80.1742C80.9251,-82.5217 91.9174,-85.1252 102.487,-87.6285"/>
<polygon fill="#ea3e53" stroke="#ea3e53" points="102.366,-89.3982 107.635,-88.8478 103.173,-85.9925 102.366,-89.3982"/>
</g>
<!-- ConvertGraphs -->
<g id="node9" class="node"><title>ConvertGraphs</title>
<text text-anchor="middle" x="151.5" y="-42.2" font-family="Segoe UI" font-size="11.00" fill="#828ea0">ConvertGraphs</text>
</g>
<!-- SiteBuilder&#45;&gt;ConvertGraphs -->
<g id="edge8" class="edge"><title>SiteBuilder&#45;&gt;ConvertGraphs</title>
<path fill="none" stroke="#ea3e53" d="M71.0131,-63.8258C80.6998,-61.5316 91.4183,-58.993 101.766,-56.5424"/>
<polygon fill="#ea3e53" stroke="#ea3e53" points="102.347,-58.2031 106.809,-55.3478 101.54,-54.7973 102.347,-58.2031"/>
</g>
<!-- Build -->
<g id="node4" class="node"><title>Build</title>
<text text-anchor="middle" x="267.5" y="-150.2" font-family="Segoe UI" font-size="11.00" fill="#828ea0">Build</text>
</g>
<!-- buildFromXml&#45;&gt;Build -->
<g id="edge3" class="edge"><title>buildFromXml&#45;&gt;Build</title>
<path fill="none" stroke="#ea3e53" d="M190.777,-117.131C205.422,-124.068 221.922,-131.884 235.773,-138.445"/>
<polygon fill="#ea3e53" stroke="#ea3e53" points="235.094,-140.06 240.362,-140.619 236.592,-136.897 235.094,-140.06"/>
</g>
<!-- WriteIndex -->
<g id="node5" class="node"><title>WriteIndex</title>
<text text-anchor="middle" x="267.5" y="-96.2" font-family="Segoe UI" font-size="11.00" fill="#828ea0">WriteIndex</text>
</g>
<!-- buildFromXml&#45;&gt;WriteIndex -->
<g id="edge4" class="edge"><title>buildFromXml&#45;&gt;WriteIndex</title>
<path fill="none" stroke="#ea3e53" d="M195.274,-99C205.496,-99 216.37,-99 226.464,-99"/>
<polygon fill="#ea3e53" stroke="#ea3e53" points="226.663,-100.75 231.663,-99 226.663,-97.2501 226.663,-100.75"/>
</g>
<!-- Dispatch -->
<g id="node6" class="node"><title>Dispatch</title>
<text text-anchor="middle" x="267.5" y="-42.2" font-family="Segoe UI" font-size="11.00" fill="#828ea0">Dispatch</text>
</g>
<!-- buildFromXml&#45;&gt;Dispatch -->
<g id="edge5" class="edge"><title>buildFromXml&#45;&gt;Dispatch</title>
<path fill="none" stroke="#ea3e53" d="M190.777,-80.8686C204.258,-74.483 219.31,-67.353 232.421,-61.1426"/>
<polygon fill="#ea3e53" stroke="#ea3e53" points="233.388,-62.6212 237.157,-58.8992 231.889,-59.4582 233.388,-62.6212"/>
</g>
<!-- BuildItem -->
<g id="node7" class="node"><title>BuildItem</title>
<text text-anchor="middle" x="372" y="-69.2" font-family="Segoe UI" font-size="11.00" fill="#828ea0">BuildItem</text>
</g>
<!-- Dispatch&#45;&gt;BuildItem -->
<g id="edge6" class="edge"><title>Dispatch&#45;&gt;BuildItem</title>
<path fill="none" stroke="#ea3e53" d="M297.598,-52.6649C308.992,-55.6661 322.194,-59.1437 334.234,-62.3152"/>
<polygon fill="#ea3e53" stroke="#ea3e53" points="334.033,-64.072 339.314,-63.6535 334.925,-60.6875 334.033,-64.072"/>
</g>
<!-- WriteItem -->
<g id="node8" class="node"><title>WriteItem</title>
<text text-anchor="middle" x="372" y="-15.2" font-family="Segoe UI" font-size="11.00" fill="#828ea0">WriteItem</text>
</g>
<!-- Dispatch&#45;&gt;WriteItem -->
<g id="edge7" class="edge"><title>Dispatch&#45;&gt;WriteItem</title>
<path fill="none" stroke="#ea3e53" d="M297.598,-37.3351C308.888,-34.3612 321.954,-30.9195 333.905,-27.7713"/>
<polygon fill="#ea3e53" stroke="#ea3e53" points="334.561,-29.4083 338.951,-26.4423 333.67,-26.0237 334.561,-29.4083"/>
</g>
</g>
</svg>
