<?xml version="1.0" encoding="UTF-8" standalone="no"?>
<!DOCTYPE svg PUBLIC "-//W3C//DTD SVG 1.1//EN"
 "http://www.w3.org/Graphics/SVG/1.1/DTD/svg11.dtd">
<!-- Generated by graphviz version 2.38.0 (20140413.2041)
 -->
<!-- Title: %3 Pages: 1 -->
<svg width="332pt" height="125pt"
 viewBox="0.00 0.00 332.00 125.00" xmlns="http://www.w3.org/2000/svg" xmlns:xlink="http://www.w3.org/1999/xlink">
<g id="graph0" class="graph" transform="scale(1 1) rotate(0) translate(4 121)">
<title>%3</title>
<polygon fill="none" stroke="none" points="-4,4 -4,-121 328,-121 328,4 -4,4"/>
<!-- DZDlmA2 -->
<g id="node1" class="node"><title>DZDlmA2</title>
<text text-anchor="middle" x="27" y="-42.2" font-family="Segoe UI" font-size="11.00" fill="#010509">Writer</text>
</g>
<!-- DBDlmA2 -->
<g id="node2" class="node"><title>DBDlmA2</title>
<text text-anchor="middle" x="117" y="-69.2" font-family="Segoe UI" font-size="11.00" fill="#010509">Object</text>
</g>
<!-- DZDlmA2&#45;&gt;DBDlmA2 -->
<g id="edge4" class="edge"><title>DZDlmA2&#45;&gt;DBDlmA2</title>
<path fill="none" stroke="#69bfff" d="M54.4029,-53.1009C64.0616,-56.0643 75.0747,-59.4434 85.0918,-62.5168"/>
<polygon fill="#69bfff" stroke="#69bfff" points="84.6256,-64.2042 89.919,-63.9979 85.6523,-60.8582 84.6256,-64.2042"/>
</g>
<!-- DOclmA2 -->
<g id="node6" class="node"><title>DOclmA2</title>
<text text-anchor="middle" x="117" y="-15.2" font-family="Segoe UI" font-size="11.00" fill="#010509">Common</text>
</g>
<!-- DZDlmA2&#45;&gt;DOclmA2 -->
<g id="edge5" class="edge"><title>DZDlmA2&#45;&gt;DOclmA2</title>
<path fill="none" stroke="#69bfff" d="M54.4029,-36.8991C64.0616,-33.9357 75.0747,-30.5566 85.0918,-27.4832"/>
<polygon fill="#69bfff" stroke="#69bfff" points="85.6523,-29.1418 89.919,-26.0021 84.6256,-25.7958 85.6523,-29.1418"/>
</g>
<!-- DaDlmA2 -->
<g id="node3" class="node"><title>DaDlmA2</title>
<text text-anchor="middle" x="207" y="-96.2" font-family="Segoe UI" font-size="11.00" fill="#010509">Simple</text>
</g>
<!-- DBDlmA2&#45;&gt;DaDlmA2 -->
<g id="edge2" class="edge"><title>DBDlmA2&#45;&gt;DaDlmA2</title>
<path fill="none" stroke="#69bfff" d="M144.403,-80.1009C154.062,-83.0643 165.075,-86.4434 175.092,-89.5168"/>
<polygon fill="#69bfff" stroke="#69bfff" points="174.626,-91.2042 179.919,-90.9979 175.652,-87.8582 174.626,-91.2042"/>
</g>
<!-- qmmRmA2 -->
<g id="node4" class="node"><title>qmmRmA2</title>
<text text-anchor="middle" x="207" y="-42.2" font-family="Segoe UI" font-size="11.00" fill="#010509">Group</text>
</g>
<!-- DBDlmA2&#45;&gt;qmmRmA2 -->
<g id="edge3" class="edge"><title>DBDlmA2&#45;&gt;qmmRmA2</title>
<path fill="none" stroke="#69bfff" d="M144.403,-63.8991C154.062,-60.9357 165.075,-57.5566 175.092,-54.4832"/>
<polygon fill="#69bfff" stroke="#69bfff" points="175.652,-56.1418 179.919,-53.0021 174.626,-52.7958 175.652,-56.1418"/>
</g>
<!-- q0clmA2 -->
<g id="node5" class="node"><title>q0clmA2</title>
<text text-anchor="middle" x="297" y="-42.2" font-family="Segoe UI" font-size="11.00" fill="#010509">Complex</text>
</g>
<!-- qmmRmA2&#45;&gt;q0clmA2 -->
<g id="edge1" class="edge"><title>qmmRmA2&#45;&gt;q0clmA2</title>
<path fill="none" stroke="#69bfff" d="M234.403,-45C243.974,-45 254.875,-45 264.818,-45"/>
<polygon fill="#69bfff" stroke="#69bfff" points="264.919,-46.7501 269.919,-45 264.919,-43.2501 264.919,-46.7501"/>
</g>
</g>
</svg>
