<?xml version="1.0" encoding="UTF-8" standalone="no"?>
<!DOCTYPE svg PUBLIC "-//W3C//DTD SVG 1.1//EN"
 "http://www.w3.org/Graphics/SVG/1.1/DTD/svg11.dtd">
<!-- Generated by graphviz version 2.38.0 (20140413.2041)
 -->
<!-- Title: %3 Pages: 1 -->
<svg width="408pt" height="179pt"
 viewBox="0.00 0.00 408.00 179.00" xmlns="http://www.w3.org/2000/svg" xmlns:xlink="http://www.w3.org/1999/xlink">
<g id="graph0" class="graph" transform="scale(1 1) rotate(0) translate(4 175)">
<title>%3</title>
<polygon fill="none" stroke="none" points="-4,4 -4,-175 404,-175 404,4 -4,4"/>
<!-- MemberFragment -->
<g id="node1" class="node"><title>MemberFragment</title>
<text text-anchor="middle" x="53" y="-96.2" font-family="Segoe UI" font-size="11.00" fill="#828ea0">MemberFragment</text>
</g>
<!-- Type -->
<g id="node2" class="node"><title>Type</title>
<text text-anchor="middle" x="174" y="-150.2" font-family="Segoe UI" font-size="11.00" fill="#828ea0">Type</text>
</g>
<!-- MemberFragment&#45;&gt;Type -->
<g id="edge1" class="edge"><title>MemberFragment&#45;&gt;Type</title>
<path fill="none" stroke="#56aa56" d="M93.9563,-117.131C109.607,-124.234 127.288,-132.257 141.953,-138.911"/>
<polygon fill="#56aa56" stroke="#56aa56" points="141.527,-140.64 146.803,-141.112 142.973,-137.453 141.527,-140.64"/>
</g>
<!-- Visibility -->
<g id="node3" class="node"><title>Visibility</title>
<text text-anchor="middle" x="174" y="-96.2" font-family="Segoe UI" font-size="11.00" fill="#828ea0">Visibility</text>
</g>
<!-- MemberFragment&#45;&gt;Visibility -->
<g id="edge2" class="edge"><title>MemberFragment&#45;&gt;Visibility</title>
<path fill="none" stroke="#56aa56" d="M106.195,-99C117.363,-99 128.879,-99 139.138,-99"/>
<polygon fill="#56aa56" stroke="#56aa56" points="139.379,-100.75 144.379,-99 139.379,-97.2501 139.379,-100.75"/>
</g>
<!-- Fragment -->
<g id="node4" class="node"><title>Fragment</title>
<text text-anchor="middle" x="174" y="-42.2" font-family="Segoe UI" font-size="11.00" fill="#828ea0">Fragment</text>
</g>
<!-- MemberFragment&#45;&gt;Fragment -->
<g id="edge3" class="edge"><title>MemberFragment&#45;&gt;Fragment</title>
<path fill="none" stroke="#56aa56" d="M93.9563,-80.8686C108.03,-74.4821 123.745,-67.3509 137.433,-61.1398"/>
<polygon fill="#56aa56" stroke="#56aa56" points="138.161,-62.7309 141.991,-59.0711 136.715,-59.5437 138.161,-62.7309"/>
</g>
<!-- Paragraph -->
<g id="node5" class="node"><title>Paragraph</title>
<text text-anchor="middle" x="276" y="-42.2" font-family="Segoe UI" font-size="11.00" fill="#828ea0">Paragraph</text>
</g>
<!-- Fragment&#45;&gt;Paragraph -->
<g id="edge4" class="edge"><title>Fragment&#45;&gt;Paragraph</title>
<path fill="none" stroke="#56aa56" d="M206.092,-45C215.76,-45 226.533,-45 236.635,-45"/>
<polygon fill="#56aa56" stroke="#56aa56" points="236.847,-46.7501 241.847,-45 236.847,-43.2501 236.847,-46.7501"/>
</g>
<!-- Brief -->
<g id="node6" class="node"><title>Brief</title>
<text text-anchor="middle" x="373" y="-69.2" font-family="Segoe UI" font-size="11.00" fill="#828ea0">Brief</text>
</g>
<!-- Paragraph&#45;&gt;Brief -->
<g id="edge5" class="edge"><title>Paragraph&#45;&gt;Brief</title>
<path fill="none" stroke="#56aa56" d="M310.226,-54.4433C320.159,-57.2663 331.01,-60.3503 340.808,-63.1348"/>
<polygon fill="#56aa56" stroke="#56aa56" points="340.537,-64.8771 345.825,-64.5607 341.494,-61.5104 340.537,-64.8771"/>
</g>
<!-- Detail -->
<g id="node7" class="node"><title>Detail</title>
<text text-anchor="middle" x="373" y="-15.2" font-family="Segoe UI" font-size="11.00" fill="#828ea0">Detail</text>
</g>
<!-- Paragraph&#45;&gt;Detail -->
<g id="edge6" class="edge"><title>Paragraph&#45;&gt;Detail</title>
<path fill="none" stroke="#56aa56" d="M310.226,-35.5567C320.159,-32.7337 331.01,-29.6497 340.808,-26.8652"/>
<polygon fill="#56aa56" stroke="#56aa56" points="341.494,-28.4896 345.825,-25.4393 340.537,-25.1229 341.494,-28.4896"/>
</g>
</g>
</svg>
