<?xml version="1.0" encoding="UTF-8" standalone="no"?>
<!DOCTYPE svg PUBLIC "-//W3C//DTD SVG 1.1//EN"
 "http://www.w3.org/Graphics/SVG/1.1/DTD/svg11.dtd">
<!-- Generated by graphviz version 2.38.0 (20140413.2041)
 -->
<!-- Title: %3 Pages: 1 -->
<svg width="482pt" height="390pt"
 viewBox="0.00 0.00 482.00 390.00" xmlns="http://www.w3.org/2000/svg" xmlns:xlink="http://www.w3.org/1999/xlink">
<g id="graph0" class="graph" transform="scale(1 1) rotate(0) translate(4 386)">
<title>%3</title>
<polygon fill="none" stroke="none" points="-4,4 -4,-386 478,-386 478,4 -4,4"/>
<!-- MainPage -->
<g id="node1" class="node"><title>MainPage</title>
<polygon fill="#828ea0" fill-opacity="0.062745" stroke="none" points="85.5,-274 85.5,-334 145.5,-334 145.5,-274 85.5,-274"/>
<text text-anchor="start" x="89.5" y="-322.2" font-family="Segoe UI" font-weight="bold" font-size="11.00" fill="#aeb6c2">MainPage</text>
<text text-anchor="start" x="89.5" y="-301.2" font-family="Segoe UI" font-size="11.00" fill="#828ea0">Brief</text>
<text text-anchor="start" x="89.5" y="-281.2" font-family="Segoe UI" font-size="11.00" fill="#828ea0">Detail</text>
</g>
<!-- Index -->
<g id="node2" class="node"><title>Index</title>
<polygon fill="#828ea0" fill-opacity="0.062745" stroke="none" points="216,-230 216,-378 291,-378 291,-230 216,-230"/>
<text text-anchor="start" x="220.5" y="-366.2" font-family="Segoe UI" font-weight="bold" font-size="11.00" fill="#aeb6c2">Index</text>
<text text-anchor="start" x="220.5" y="-345.2" font-family="Segoe UI" font-size="11.00" fill="#828ea0">Description</text>
<polygon fill="#828ea0" fill-opacity="0.062745" stroke="none" points="220.5,-234 220.5,-334 287.5,-334 287.5,-234 220.5,-234"/>
<text text-anchor="start" x="230" y="-322.2" font-family="Segoe UI" font-weight="bold" font-size="11.00" fill="#aeb6c2">Contents</text>
<text text-anchor="start" x="224.5" y="-301.2" font-family="Segoe UI" font-size="11.00" fill="#828ea0">Directory</text>
<text text-anchor="start" x="224.5" y="-281.2" font-family="Segoe UI" font-size="11.00" fill="#828ea0">Class</text>
<text text-anchor="start" x="224.5" y="-261.2" font-family="Segoe UI" font-size="11.00" fill="#828ea0">Page</text>
<text text-anchor="start" x="224.5" y="-241.2" font-family="Segoe UI" font-size="11.00" fill="#828ea0">Namespace</text>
</g>
<!-- MainPage&#45;&gt;Index -->
<g id="edge1" class="edge"><title>MainPage:Title&#45;&gt;Index:Description</title>
<path fill="none" stroke="#7c7c7c" d="M146.5,-324C177.193,-324 182.502,-345.447 210.419,-347.793"/>
<polygon fill="#7c7c7c" stroke="#7c7c7c" points="210.433,-349.544 215.5,-348 210.576,-346.047 210.433,-349.544"/>
<text text-anchor="middle" x="180.5" y="-348.2" font-family="Segoe UI" font-size="11.00" fill="#828ea0">Copied</text>
</g>
<!-- ClassIndex -->
<g id="node3" class="node"><title>ClassIndex</title>
<polygon fill="#828ea0" fill-opacity="0.062745" stroke="none" points="8,-77 8,-185 103,-185 103,-77 8,-77"/>
<text text-anchor="start" x="12.5" y="-173.2" font-family="Segoe UI" font-weight="bold" font-size="11.00" fill="#aeb6c2">Index</text>
<polygon fill="#828ea0" fill-opacity="0.062745" stroke="none" points="12.5,-81 12.5,-161 99.5,-161 99.5,-81 12.5,-81"/>
<text text-anchor="start" x="16.5" y="-149.2" font-family="Segoe UI" font-weight="bold" font-size="11.00" fill="#aeb6c2">Contents (A&#45;Z)</text>
<text text-anchor="start" x="16.5" y="-128.2" font-family="Segoe UI" font-size="11.00" fill="#828ea0">Class[0]</text>
<text text-anchor="start" x="16.5" y="-108.2" font-family="Segoe UI" font-size="11.00" fill="#828ea0">Class[1]</text>
<text text-anchor="start" x="16.5" y="-88.2" font-family="Segoe UI" font-size="11.00" fill="#828ea0">Class[n]</text>
</g>
<!-- Index&#45;&gt;ClassIndex -->
<g id="edge2" class="edge"><title>Index:Class&#45;&gt;ClassIndex</title>
<path fill="none" stroke="#7c7c7c" d="M219.5,-284C183.358,-284 188.888,-250.697 162.5,-226 144.092,-208.772 138.47,-205.607 119.5,-189 118.073,-187.75 116.629,-186.484 115.173,-185.205"/>
<polygon fill="#7c7c7c" stroke="#7c7c7c" points="116.208,-183.785 111.298,-181.796 113.896,-186.412 116.208,-183.785"/>
</g>
<!-- NamespaceIndex -->
<g id="node4" class="node"><title>NamespaceIndex</title>
<polygon fill="#828ea0" fill-opacity="0.062745" stroke="none" points="137,-77 137,-185 232,-185 232,-77 137,-77"/>
<text text-anchor="start" x="141.5" y="-173.2" font-family="Segoe UI" font-weight="bold" font-size="11.00" fill="#aeb6c2">Index</text>
<polygon fill="#828ea0" fill-opacity="0.062745" stroke="none" points="141.5,-81 141.5,-161 228.5,-161 228.5,-81 141.5,-81"/>
<text text-anchor="start" x="145.5" y="-149.2" font-family="Segoe UI" font-weight="bold" font-size="11.00" fill="#aeb6c2">Contents (A&#45;Z)</text>
<text text-anchor="start" x="145.5" y="-128.2" font-family="Segoe UI" font-size="11.00" fill="#828ea0">Namespace[0]</text>
<text text-anchor="start" x="145.5" y="-108.2" font-family="Segoe UI" font-size="11.00" fill="#828ea0">Namespace[1]</text>
<text text-anchor="start" x="145.5" y="-88.2" font-family="Segoe UI" font-size="11.00" fill="#828ea0">Namespace[n]</text>
</g>
<!-- Index&#45;&gt;NamespaceIndex -->
<g id="edge3" class="edge"><title>Index:Namespace&#45;&gt;NamespaceIndex</title>
<path fill="none" stroke="#7c7c7c" d="M219.5,-244C195.436,-244 186.127,-220.154 183.081,-194.468"/>
<polygon fill="#7c7c7c" stroke="#7c7c7c" points="184.803,-194.108 182.552,-189.312 181.321,-194.465 184.803,-194.108"/>
</g>
<!-- PageIndex -->
<g id="node5" class="node"><title>PageIndex</title>
<polygon fill="#828ea0" fill-opacity="0.062745" stroke="none" points="266,-77 266,-185 361,-185 361,-77 266,-77"/>
<text text-anchor="start" x="270.5" y="-173.2" font-family="Segoe UI" font-weight="bold" font-size="11.00" fill="#aeb6c2">Index</text>
<polygon fill="#828ea0" fill-opacity="0.062745" stroke="none" points="270.5,-81 270.5,-161 357.5,-161 357.5,-81 270.5,-81"/>
<text text-anchor="start" x="274.5" y="-149.2" font-family="Segoe UI" font-weight="bold" font-size="11.00" fill="#aeb6c2">Contents (A&#45;Z)</text>
<text text-anchor="start" x="274.5" y="-128.2" font-family="Segoe UI" font-size="11.00" fill="#828ea0">Page[0]</text>
<text text-anchor="start" x="274.5" y="-108.2" font-family="Segoe UI" font-size="11.00" fill="#828ea0">Page[1]</text>
<text text-anchor="start" x="274.5" y="-88.2" font-family="Segoe UI" font-size="11.00" fill="#828ea0">Page[n]</text>
</g>
<!-- Index&#45;&gt;PageIndex -->
<g id="edge4" class="edge"><title>Index:Page&#45;&gt;PageIndex</title>
<path fill="none" stroke="#7c7c7c" d="M288.5,-264C319.512,-264 325.054,-228.392 323.217,-194.165"/>
<polygon fill="#7c7c7c" stroke="#7c7c7c" points="324.961,-194.007 322.895,-189.129 321.468,-194.231 324.961,-194.007"/>
</g>
<!-- DirectoryIndex -->
<g id="node6" class="node"><title>DirectoryIndex</title>
<polygon fill="#828ea0" fill-opacity="0.062745" stroke="none" points="369,-250 369,-358 464,-358 464,-250 369,-250"/>
<text text-anchor="start" x="373.5" y="-346.2" font-family="Segoe UI" font-weight="bold" font-size="11.00" fill="#aeb6c2">Index</text>
<polygon fill="#828ea0" fill-opacity="0.062745" stroke="none" points="373.5,-254 373.5,-334 460.5,-334 460.5,-254 373.5,-254"/>
<text text-anchor="start" x="377.5" y="-322.2" font-family="Segoe UI" font-weight="bold" font-size="11.00" fill="#aeb6c2">Contents (A&#45;Z)</text>
<text text-anchor="start" x="377.5" y="-301.2" font-family="Segoe UI" font-size="11.00" fill="#828ea0">Dir[0]</text>
<text text-anchor="start" x="377.5" y="-281.2" font-family="Segoe UI" font-size="11.00" fill="#828ea0">Dir[1]</text>
<text text-anchor="start" x="377.5" y="-261.2" font-family="Segoe UI" font-size="11.00" fill="#828ea0">Dir[n]</text>
</g>
<!-- Index&#45;&gt;DirectoryIndex -->
<g id="edge5" class="edge"><title>Index:Directory&#45;&gt;DirectoryIndex:Title</title>
<path fill="none" stroke="#7c7c7c" d="M288.5,-304C327.335,-304 327.944,-344.3 363.494,-347.763"/>
<polygon fill="#7c7c7c" stroke="#7c7c7c" points="363.423,-349.512 368.5,-348 363.588,-346.016 363.423,-349.512"/>
</g>
<!-- ClassPage -->
<g id="node7" class="node"><title>ClassPage</title>
<text text-anchor="middle" x="56.5" y="-15.2" font-family="Segoe UI" font-size="11.00" fill="#828ea0">ClassPage</text>
</g>
<!-- ClassIndex&#45;&gt;ClassPage -->
<g id="edge6" class="edge"><title>ClassIndex:Item&#45;&gt;ClassPage</title>
<path fill="none" stroke="#7c7c7c" d="M56.5,-80C56.5,-67.1427 56.5,-52.7611 56.5,-41.1926"/>
<polygon fill="#7c7c7c" stroke="#7c7c7c" points="58.2501,-41.0909 56.5,-36.0909 54.7501,-41.091 58.2501,-41.0909"/>
</g>
<!-- NamespacePage -->
<g id="node10" class="node"><title>NamespacePage</title>
<text text-anchor="middle" x="185.5" y="-15.2" font-family="Segoe UI" font-size="11.00" fill="#828ea0">NamespacePage</text>
</g>
<!-- NamespaceIndex&#45;&gt;NamespacePage -->
<g id="edge9" class="edge"><title>NamespaceIndex:Item&#45;&gt;NamespacePage</title>
<path fill="none" stroke="#7c7c7c" d="M185.5,-80C185.5,-67.1427 185.5,-52.7611 185.5,-41.1926"/>
<polygon fill="#7c7c7c" stroke="#7c7c7c" points="187.25,-41.0909 185.5,-36.0909 183.75,-41.091 187.25,-41.0909"/>
</g>
<!-- GenericPage -->
<g id="node9" class="node"><title>GenericPage</title>
<text text-anchor="middle" x="314.5" y="-15.2" font-family="Segoe UI" font-size="11.00" fill="#828ea0">GenericPage</text>
</g>
<!-- PageIndex&#45;&gt;GenericPage -->
<g id="edge8" class="edge"><title>PageIndex:Item&#45;&gt;GenericPage</title>
<path fill="none" stroke="#7c7c7c" d="M314.5,-80C314.5,-67.1427 314.5,-52.7611 314.5,-41.1926"/>
<polygon fill="#7c7c7c" stroke="#7c7c7c" points="316.25,-41.0909 314.5,-36.0909 312.75,-41.091 316.25,-41.0909"/>
</g>
<!-- DirectoryPage -->
<g id="node8" class="node"><title>DirectoryPage</title>
<text text-anchor="middle" x="430.5" y="-128.2" font-family="Segoe UI" font-size="11.00" fill="#828ea0">DirectoryPage</text>
</g>
<!-- DirectoryIndex&#45;&gt;DirectoryPage -->
<g id="edge7" class="edge"><title>DirectoryIndex:Item&#45;&gt;DirectoryPage</title>
<path fill="none" stroke="#7c7c7c" d="M417.5,-253C417.5,-218.43 422.811,-178.62 426.644,-154.391"/>
<polygon fill="#7c7c7c" stroke="#7c7c7c" points="428.417,-154.385 427.485,-149.17 424.962,-153.828 428.417,-154.385"/>
</g>
</g>
</svg>
