<?xml version="1.0" encoding="UTF-8" standalone="no"?>
<!DOCTYPE svg PUBLIC "-//W3C//DTD SVG 1.1//EN"
 "http://www.w3.org/Graphics/SVG/1.1/DTD/svg11.dtd">
<!-- Generated by graphviz version 2.38.0 (20140413.2041)
 -->
<!-- Title: %3 Pages: 1 -->
<svg width="392pt" height="206pt"
 viewBox="0.00 0.00 392.00 206.00" xmlns="http://www.w3.org/2000/svg" xmlns:xlink="http://www.w3.org/1999/xlink">
<g id="graph0" class="graph" transform="scale(1 1) rotate(0) translate(4 202)">
<title>%3</title>
<polygon fill="none" stroke="none" points="-4,4 -4,-202 388,-202 388,4 -4,4"/>
<!-- qFEwf2Z -->
<g id="node1" class="node"><title>qFEwf2Z</title>
<text text-anchor="middle" x="68.5" y="-96.2" font-family="Segoe UI" font-size="11.00" fill="#010509">CompoundDefQueryVisitor</text>
</g>
<!-- D4xwf2Z -->
<g id="node2" class="node"><title>D4xwf2Z</title>
<text text-anchor="middle" x="202" y="-96.2" font-family="Segoe UI" font-size="11.00" fill="#010509">PageWriter</text>
</g>
<!-- qFEwf2Z&#45;&gt;D4xwf2Z -->
<g id="edge5" class="edge"><title>qFEwf2Z&#45;&gt;D4xwf2Z</title>
<path fill="none" stroke="#69bfff" d="M137.176,-99C147.796,-99 158.348,-99 167.724,-99"/>
<polygon fill="#69bfff" stroke="#69bfff" points="167.805,-100.75 172.805,-99 167.805,-97.2501 167.805,-100.75"/>
</g>
<!-- DqEwf2Z -->
<g id="node3" class="node"><title>DqEwf2Z</title>
<text text-anchor="middle" x="325.5" y="-177.2" font-family="Segoe UI" font-size="11.00" fill="#010509">DirectoryPageWriter</text>
</g>
<!-- D4xwf2Z&#45;&gt;DqEwf2Z -->
<g id="edge1" class="edge"><title>D4xwf2Z&#45;&gt;DqEwf2Z</title>
<path fill="none" stroke="#69bfff" d="M221.852,-117.194C234.082,-128.399 250.721,-142.567 267,-153 270.537,-155.267 274.295,-157.457 278.129,-159.543"/>
<polygon fill="#69bfff" stroke="#69bfff" points="277.419,-161.147 282.657,-161.942 279.058,-158.054 277.419,-161.147"/>
</g>
<!-- qZ7wf2Z -->
<g id="node4" class="node"><title>qZ7wf2Z</title>
<text text-anchor="middle" x="325.5" y="-123.2" font-family="Segoe UI" font-size="11.00" fill="#010509">GenericPageWriter</text>
</g>
<!-- D4xwf2Z&#45;&gt;qZ7wf2Z -->
<g id="edge2" class="edge"><title>D4xwf2Z&#45;&gt;qZ7wf2Z</title>
<path fill="none" stroke="#69bfff" d="M231.18,-105.262C243.417,-107.982 258.158,-111.257 272.272,-114.394"/>
<polygon fill="#69bfff" stroke="#69bfff" points="272.177,-116.165 277.438,-115.542 272.937,-112.749 272.177,-116.165"/>
</g>
<!-- D3xwf2Z -->
<g id="node5" class="node"><title>D3xwf2Z</title>
<text text-anchor="middle" x="325.5" y="-69.2" font-family="Segoe UI" font-size="11.00" fill="#010509">NamespacePageWriter</text>
</g>
<!-- D4xwf2Z&#45;&gt;D3xwf2Z -->
<g id="edge3" class="edge"><title>D4xwf2Z&#45;&gt;D3xwf2Z</title>
<path fill="none" stroke="#69bfff" d="M231.18,-92.7378C240.42,-90.6844 251.088,-88.3138 261.836,-85.9254"/>
<polygon fill="#69bfff" stroke="#69bfff" points="262.273,-87.6209 266.775,-84.8279 261.514,-84.2043 262.273,-87.6209"/>
</g>
<!-- q1swf2Z -->
<g id="node6" class="node"><title>q1swf2Z</title>
<text text-anchor="middle" x="325.5" y="-15.2" font-family="Segoe UI" font-size="11.00" fill="#010509">ClassPageWriter</text>
</g>
<!-- D4xwf2Z&#45;&gt;q1swf2Z -->
<g id="edge4" class="edge"><title>D4xwf2Z&#45;&gt;q1swf2Z</title>
<path fill="none" stroke="#69bfff" d="M221.852,-80.8065C234.082,-69.6005 250.721,-55.4328 267,-45 270.887,-42.5091 275.04,-40.1109 279.268,-37.8417"/>
<polygon fill="#69bfff" stroke="#69bfff" points="280.257,-39.2995 283.877,-35.4317 278.635,-36.1979 280.257,-39.2995"/>
</g>
</g>
</svg>
