<?xml version="1.0" encoding="UTF-8" standalone="no"?>
<!DOCTYPE svg PUBLIC "-//W3C//DTD SVG 1.1//EN"
 "http://www.w3.org/Graphics/SVG/1.1/DTD/svg11.dtd">
<!-- Generated by graphviz version 2.38.0 (20140413.2041)
 -->
<!-- Title: %3 Pages: 1 -->
<svg width="482pt" height="388pt"
 viewBox="0.00 0.00 482.00 388.00" xmlns="http://www.w3.org/2000/svg" xmlns:xlink="http://www.w3.org/1999/xlink">
<g id="graph0" class="graph" transform="scale(1 1) rotate(0) translate(4 384)">
<title>%3</title>
<polygon fill="none" stroke="none" points="-4,4 -4,-384 478,-384 478,4 -4,4"/>
<!-- MainPage -->
<g id="node1" class="node"><title>MainPage</title>
<polygon fill="#222222" fill-opacity="0.062745" stroke="none" points="83.5,-272 83.5,-332 143.5,-332 143.5,-272 83.5,-272"/>
<text text-anchor="start" x="87.5" y="-320.2" font-family="Segoe UI" font-weight="bold" font-size="11.00" fill="#000001">MainPage</text>
<text text-anchor="start" x="87.5" y="-299.2" font-family="Segoe UI" font-size="11.00" fill="#010509">Brief</text>
<text text-anchor="start" x="87.5" y="-279.2" font-family="Segoe UI" font-size="11.00" fill="#010509">Detail</text>
</g>
<!-- Index -->
<g id="node2" class="node"><title>Index</title>
<polygon fill="#222222" fill-opacity="0.062745" stroke="none" points="178,-228 178,-376 253,-376 253,-228 178,-228"/>
<text text-anchor="start" x="182.5" y="-364.2" font-family="Segoe UI" font-weight="bold" font-size="11.00" fill="#000001">Index</text>
<text text-anchor="start" x="182.5" y="-343.2" font-family="Segoe UI" font-size="11.00" fill="#010509">Description</text>
<polygon fill="#222222" fill-opacity="0.062745" stroke="none" points="182.5,-232 182.5,-332 249.5,-332 249.5,-232 182.5,-232"/>
<text text-anchor="start" x="192" y="-320.2" font-family="Segoe UI" font-weight="bold" font-size="11.00" fill="#000001">Contents</text>
<text text-anchor="start" x="186.5" y="-299.2" font-family="Segoe UI" font-size="11.00" fill="#010509">Directory</text>
<text text-anchor="start" x="186.5" y="-279.2" font-family="Segoe UI" font-size="11.00" fill="#010509">Class</text>
<text text-anchor="start" x="186.5" y="-259.2" font-family="Segoe UI" font-size="11.00" fill="#010509">Page</text>
<text text-anchor="start" x="186.5" y="-239.2" font-family="Segoe UI" font-size="11.00" fill="#010509">Namespace</text>
</g>
<!-- MainPage&#45;&gt;Index -->
<g id="edge1" class="edge"><title>MainPage:Title&#45;&gt;Index:Description</title>
<path fill="none" stroke="#7c7cc7" d="M144.5,-322C160.652,-322 159.824,-341.037 172.262,-345.201"/>
<polygon fill="#7c7cc7" stroke="#7c7cc7" points="172.293,-346.976 177.5,-346 172.821,-343.516 172.293,-346.976"/>
</g>
<!-- ClassIndex -->
<g id="node3" class="node"><title>ClassIndex</title>
<polygon fill="#222222" fill-opacity="0.062745" stroke="none" points="8,-76 8,-184 103,-184 103,-76 8,-76"/>
<text text-anchor="start" x="12.5" y="-172.2" font-family="Segoe UI" font-weight="bold" font-size="11.00" fill="#000001">Index</text>
<polygon fill="#222222" fill-opacity="0.062745" stroke="none" points="12.5,-80 12.5,-160 99.5,-160 99.5,-80 12.5,-80"/>
<text text-anchor="start" x="16.5" y="-148.2" font-family="Segoe UI" font-weight="bold" font-size="11.00" fill="#000001">Contents (A&#45;Z)</text>
<text text-anchor="start" x="16.5" y="-127.2" font-family="Segoe UI" font-size="11.00" fill="#010509">Class[0]</text>
<text text-anchor="start" x="16.5" y="-107.2" font-family="Segoe UI" font-size="11.00" fill="#010509">Class[1]</text>
<text text-anchor="start" x="16.5" y="-87.2" font-family="Segoe UI" font-size="11.00" fill="#010509">Class[n]</text>
</g>
<!-- Index&#45;&gt;ClassIndex -->
<g id="edge2" class="edge"><title>Index:Class&#45;&gt;ClassIndex</title>
<path fill="none" stroke="#7c7cc7" d="M181.5,-282C154.085,-282 175.953,-246.645 160.5,-224 146.831,-203.97 137.666,-204.064 119.5,-188 118.079,-186.743 116.641,-185.47 115.19,-184.186"/>
<polygon fill="#7c7cc7" stroke="#7c7cc7" points="116.23,-182.769 111.327,-180.763 113.909,-185.388 116.23,-182.769"/>
</g>
<!-- NamespaceIndex -->
<g id="node4" class="node"><title>NamespaceIndex</title>
<polygon fill="#222222" fill-opacity="0.062745" stroke="none" points="137,-76 137,-184 232,-184 232,-76 137,-76"/>
<text text-anchor="start" x="141.5" y="-172.2" font-family="Segoe UI" font-weight="bold" font-size="11.00" fill="#000001">Index</text>
<polygon fill="#222222" fill-opacity="0.062745" stroke="none" points="141.5,-80 141.5,-160 228.5,-160 228.5,-80 141.5,-80"/>
<text text-anchor="start" x="145.5" y="-148.2" font-family="Segoe UI" font-weight="bold" font-size="11.00" fill="#000001">Contents (A&#45;Z)</text>
<text text-anchor="start" x="145.5" y="-127.2" font-family="Segoe UI" font-size="11.00" fill="#010509">Namespace[0]</text>
<text text-anchor="start" x="145.5" y="-107.2" font-family="Segoe UI" font-size="11.00" fill="#010509">Namespace[1]</text>
<text text-anchor="start" x="145.5" y="-87.2" font-family="Segoe UI" font-size="11.00" fill="#010509">Namespace[n]</text>
</g>
<!-- Index&#45;&gt;NamespaceIndex -->
<g id="edge3" class="edge"><title>Index:Namespace&#45;&gt;NamespaceIndex</title>
<path fill="none" stroke="#7c7cc7" d="M216.5,-231C216.5,-218.448 214.185,-205.414 210.8,-193.064"/>
<polygon fill="#7c7cc7" stroke="#7c7cc7" points="212.461,-192.508 209.398,-188.185 209.097,-193.474 212.461,-192.508"/>
</g>
<!-- PageIndex -->
<g id="node5" class="node"><title>PageIndex</title>
<polygon fill="#222222" fill-opacity="0.062745" stroke="none" points="266,-76 266,-184 361,-184 361,-76 266,-76"/>
<text text-anchor="start" x="270.5" y="-172.2" font-family="Segoe UI" font-weight="bold" font-size="11.00" fill="#000001">Index</text>
<polygon fill="#222222" fill-opacity="0.062745" stroke="none" points="270.5,-80 270.5,-160 357.5,-160 357.5,-80 270.5,-80"/>
<text text-anchor="start" x="274.5" y="-148.2" font-family="Segoe UI" font-weight="bold" font-size="11.00" fill="#000001">Contents (A&#45;Z)</text>
<text text-anchor="start" x="274.5" y="-127.2" font-family="Segoe UI" font-size="11.00" fill="#010509">Page[0]</text>
<text text-anchor="start" x="274.5" y="-107.2" font-family="Segoe UI" font-size="11.00" fill="#010509">Page[1]</text>
<text text-anchor="start" x="274.5" y="-87.2" font-family="Segoe UI" font-size="11.00" fill="#010509">Page[n]</text>
</g>
<!-- Index&#45;&gt;PageIndex -->
<g id="edge4" class="edge"><title>Index:Page&#45;&gt;PageIndex</title>
<path fill="none" stroke="#7c7cc7" d="M250.5,-262C283.934,-262 299.636,-226.915 307.004,-193.059"/>
<polygon fill="#7c7cc7" stroke="#7c7cc7" points="308.736,-193.328 308.032,-188.077 305.308,-192.621 308.736,-193.328"/>
</g>
<!-- DirectoryIndex -->
<g id="node6" class="node"><title>DirectoryIndex</title>
<polygon fill="#222222" fill-opacity="0.062745" stroke="none" points="350,-248 350,-356 445,-356 445,-248 350,-248"/>
<text text-anchor="start" x="354.5" y="-344.2" font-family="Segoe UI" font-weight="bold" font-size="11.00" fill="#000001">Index</text>
<polygon fill="#222222" fill-opacity="0.062745" stroke="none" points="354.5,-252 354.5,-332 441.5,-332 441.5,-252 354.5,-252"/>
<text text-anchor="start" x="358.5" y="-320.2" font-family="Segoe UI" font-weight="bold" font-size="11.00" fill="#000001">Contents (A&#45;Z)</text>
<text text-anchor="start" x="358.5" y="-299.2" font-family="Segoe UI" font-size="11.00" fill="#010509">Dir[0]</text>
<text text-anchor="start" x="358.5" y="-279.2" font-family="Segoe UI" font-size="11.00" fill="#010509">Dir[1]</text>
<text text-anchor="start" x="358.5" y="-259.2" font-family="Segoe UI" font-size="11.00" fill="#010509">Dir[n]</text>
</g>
<!-- Index&#45;&gt;DirectoryIndex -->
<g id="edge5" class="edge"><title>Index:Directory&#45;&gt;DirectoryIndex:Title</title>
<path fill="none" stroke="#7c7cc7" d="M250.5,-302C296.863,-302 301.087,-342.795 344.323,-345.823"/>
<polygon fill="#7c7cc7" stroke="#7c7cc7" points="344.443,-347.578 349.5,-346 344.563,-344.08 344.443,-347.578"/>
</g>
<!-- ClassPage -->
<g id="node7" class="node"><title>ClassPage</title>
<text text-anchor="middle" x="56.5" y="-15.2" font-family="Segoe UI" font-size="11.00" fill="#010509">ClassPage</text>
</g>
<!-- ClassIndex&#45;&gt;ClassPage -->
<g id="edge6" class="edge"><title>ClassIndex:Item&#45;&gt;ClassPage</title>
<path fill="none" stroke="#7c7cc7" d="M56.5,-79C56.5,-66.4438 56.5,-52.4097 56.5,-41.0731"/>
<polygon fill="#7c7cc7" stroke="#7c7cc7" points="58.2501,-41.0692 56.5,-36.0692 54.7501,-41.0692 58.2501,-41.0692"/>
</g>
<!-- NamespacePage -->
<g id="node10" class="node"><title>NamespacePage</title>
<text text-anchor="middle" x="185.5" y="-15.2" font-family="Segoe UI" font-size="11.00" fill="#010509">NamespacePage</text>
</g>
<!-- NamespaceIndex&#45;&gt;NamespacePage -->
<g id="edge9" class="edge"><title>NamespaceIndex:Item&#45;&gt;NamespacePage</title>
<path fill="none" stroke="#7c7cc7" d="M185.5,-79C185.5,-66.4438 185.5,-52.4097 185.5,-41.0731"/>
<polygon fill="#7c7cc7" stroke="#7c7cc7" points="187.25,-41.0692 185.5,-36.0692 183.75,-41.0692 187.25,-41.0692"/>
</g>
<!-- GenericPage -->
<g id="node9" class="node"><title>GenericPage</title>
<text text-anchor="middle" x="314.5" y="-15.2" font-family="Segoe UI" font-size="11.00" fill="#010509">GenericPage</text>
</g>
<!-- PageIndex&#45;&gt;GenericPage -->
<g id="edge8" class="edge"><title>PageIndex:Item&#45;&gt;GenericPage</title>
<path fill="none" stroke="#7c7cc7" d="M314.5,-79C314.5,-66.4438 314.5,-52.4097 314.5,-41.0731"/>
<polygon fill="#7c7cc7" stroke="#7c7cc7" points="316.25,-41.0692 314.5,-36.0692 312.75,-41.0692 316.25,-41.0692"/>
</g>
<!-- DirectoryPage -->
<g id="node8" class="node"><title>DirectoryPage</title>
<text text-anchor="middle" x="430.5" y="-127.2" font-family="Segoe UI" font-size="11.00" fill="#010509">DirectoryPage</text>
</g>
<!-- DirectoryIndex&#45;&gt;DirectoryPage -->
<g id="edge7" class="edge"><title>DirectoryIndex:Item&#45;&gt;DirectoryPage</title>
<path fill="none" stroke="#7c7cc7" d="M398.5,-251C398.5,-215.773 411.534,-176.634 420.965,-152.924"/>
<polygon fill="#7c7cc7" stroke="#7c7cc7" points="422.661,-153.397 422.916,-148.106 419.417,-152.083 422.661,-153.397"/>
</g>
</g>
</svg>
