<?xml version="1.0" encoding="UTF-8" standalone="no"?>
<!DOCTYPE svg PUBLIC "-//W3C//DTD SVG 1.1//EN"
 "http://www.w3.org/Graphics/SVG/1.1/DTD/svg11.dtd">
<!-- Generated by graphviz version 2.38.0 (20140413.2041)
 -->
<!-- Title: %3 Pages: 1 -->
<svg width="390pt" height="206pt"
 viewBox="0.00 0.00 390.00 206.00" xmlns="http://www.w3.org/2000/svg" xmlns:xlink="http://www.w3.org/1999/xlink">
<g id="graph0" class="graph" transform="scale(1 1) rotate(0) translate(4 202)">
<title>%3</title>
<polygon fill="none" stroke="none" points="-4,4 -4,-202 386,-202 386,4 -4,4"/>
<!-- MemberDefQuery -->
<g id="node1" class="node"><title>MemberDefQuery</title>
<text text-anchor="middle" x="53" y="-96.2" font-family="Segoe UI" font-size="11.00" fill="#828ea0">MemberDefQuery</text>
</g>
<!-- DoxMemberKind -->
<g id="node2" class="node"><title>DoxMemberKind</title>
<text text-anchor="middle" x="192.5" y="-177.2" font-family="Segoe UI" font-size="11.00" fill="#828ea0">DoxMemberKind</text>
</g>
<!-- MemberDefQuery&#45;&gt;DoxMemberKind -->
<g id="edge1" class="edge"><title>MemberDefQuery&#45;&gt;DoxMemberKind</title>
<path fill="none" stroke="#56aa56" d="M82.7101,-117.129C99.8007,-127.792 121.989,-141.413 142,-153 145.653,-155.115 149.48,-157.284 153.319,-159.429"/>
<polygon fill="#56aa56" stroke="#56aa56" points="152.6,-161.031 157.821,-161.93 154.3,-157.972 152.6,-161.031"/>
</g>
<!-- LinkedTextQuery -->
<g id="node3" class="node"><title>LinkedTextQuery</title>
<text text-anchor="middle" x="192.5" y="-123.2" font-family="Segoe UI" font-size="11.00" fill="#828ea0">LinkedTextQuery</text>
</g>
<!-- MemberDefQuery&#45;&gt;LinkedTextQuery -->
<g id="edge2" class="edge"><title>MemberDefQuery&#45;&gt;LinkedTextQuery</title>
<path fill="none" stroke="#56aa56" d="M106.375,-109.285C116.68,-111.308 127.506,-113.434 137.852,-115.466"/>
<polygon fill="#56aa56" stroke="#56aa56" points="137.645,-117.208 142.888,-116.454 138.319,-113.774 137.645,-117.208"/>
</g>
<!-- Brief -->
<g id="node4" class="node"><title>Brief</title>
<text text-anchor="middle" x="192.5" y="-69.2" font-family="Segoe UI" font-size="11.00" fill="#828ea0">Brief</text>
</g>
<!-- MemberDefQuery&#45;&gt;Brief -->
<g id="edge3" class="edge"><title>MemberDefQuery&#45;&gt;Brief</title>
<path fill="none" stroke="#56aa56" d="M106.375,-88.7154C124.512,-85.1539 144.264,-81.2754 160.172,-78.1517"/>
<polygon fill="#56aa56" stroke="#56aa56" points="160.842,-79.8036 165.411,-77.1229 160.168,-76.3692 160.842,-79.8036"/>
</g>
<!-- Detail -->
<g id="node6" class="node"><title>Detail</title>
<text text-anchor="middle" x="192.5" y="-15.2" font-family="Segoe UI" font-size="11.00" fill="#828ea0">Detail</text>
</g>
<!-- MemberDefQuery&#45;&gt;Detail -->
<g id="edge5" class="edge"><title>MemberDefQuery&#45;&gt;Detail</title>
<path fill="none" stroke="#56aa56" d="M82.7101,-80.8713C99.8007,-70.2082 121.989,-56.5869 142,-45 148.008,-41.5211 154.486,-37.8975 160.713,-34.4764"/>
<polygon fill="#56aa56" stroke="#56aa56" points="161.867,-35.8401 165.414,-31.9055 160.187,-32.7694 161.867,-35.8401"/>
</g>
<!-- DescriptionQuery -->
<g id="node5" class="node"><title>DescriptionQuery</title>
<text text-anchor="middle" x="330.5" y="-42.2" font-family="Segoe UI" font-size="11.00" fill="#828ea0">DescriptionQuery</text>
</g>
<!-- Brief&#45;&gt;DescriptionQuery -->
<g id="edge4" class="edge"><title>Brief&#45;&gt;DescriptionQuery</title>
<path fill="none" stroke="#56aa56" d="M219.722,-66.7941C235.032,-63.7546 254.956,-59.7992 273.62,-56.0937"/>
<polygon fill="#56aa56" stroke="#56aa56" points="274.283,-57.7464 278.847,-55.0562 273.601,-54.3134 274.283,-57.7464"/>
</g>
<!-- Detail&#45;&gt;DescriptionQuery -->
<g id="edge6" class="edge"><title>Detail&#45;&gt;DescriptionQuery</title>
<path fill="none" stroke="#56aa56" d="M219.722,-23.2059C235.032,-26.2454 254.956,-30.2008 273.62,-33.9063"/>
<polygon fill="#56aa56" stroke="#56aa56" points="273.601,-35.6866 278.847,-34.9438 274.283,-32.2536 273.601,-35.6866"/>
</g>
</g>
</svg>
