<?xml version="1.0" encoding="UTF-8" standalone="no"?>
<!DOCTYPE svg PUBLIC "-//W3C//DTD SVG 1.1//EN"
 "http://www.w3.org/Graphics/SVG/1.1/DTD/svg11.dtd">
<!-- Generated by graphviz version 2.38.0 (20140413.2041)
 -->
<!-- Title: %3 Pages: 1 -->
<svg width="420pt" height="206pt"
 viewBox="0.00 0.00 420.00 206.00" xmlns="http://www.w3.org/2000/svg" xmlns:xlink="http://www.w3.org/1999/xlink">
<g id="graph0" class="graph" transform="scale(1 1) rotate(0) translate(4 202)">
<title>%3</title>
<polygon fill="none" stroke="none" points="-4,4 -4,-202 416,-202 416,4 -4,4"/>
<!-- DG7wf2Z -->
<g id="node1" class="node"><title>DG7wf2Z</title>
<text text-anchor="middle" x="68.5" y="-69.2" font-family="Segoe UI" font-size="11.00" fill="#010509">CompoundDefQueryVisitor</text>
</g>
<!-- qQ7wf2Z -->
<g id="node2" class="node"><title>qQ7wf2Z</title>
<text text-anchor="middle" x="216" y="-96.2" font-family="Segoe UI" font-size="11.00" fill="#010509">PageWriter</text>
</g>
<!-- DG7wf2Z&#45;&gt;qQ7wf2Z -->
<g id="edge5" class="edge"><title>DG7wf2Z&#45;&gt;qQ7wf2Z</title>
<path fill="none" stroke="#69bfff" d="M137.139,-84.5515C152.6,-87.4206 168.371,-90.3472 181.639,-92.8094"/>
<polygon fill="#69bfff" stroke="#69bfff" points="181.549,-94.5724 186.784,-93.7641 182.188,-91.1312 181.549,-94.5724"/>
</g>
<!-- qU7wf2Z -->
<g id="node7" class="node"><title>qU7wf2Z</title>
<text text-anchor="middle" x="216" y="-42.2" font-family="Segoe UI" font-size="11.00" fill="#010509">TableOfContents</text>
</g>
<!-- DG7wf2Z&#45;&gt;qU7wf2Z -->
<g id="edge6" class="edge"><title>DG7wf2Z&#45;&gt;qU7wf2Z</title>
<path fill="none" stroke="#69bfff" d="M137.139,-59.4485C147.503,-57.5253 158.006,-55.5762 167.801,-53.7586"/>
<polygon fill="#69bfff" stroke="#69bfff" points="168.258,-55.4538 172.854,-52.8208 167.619,-52.0126 168.258,-55.4538"/>
</g>
<!-- qdxwf2Z -->
<g id="node3" class="node"><title>qdxwf2Z</title>
<text text-anchor="middle" x="353.5" y="-177.2" font-family="Segoe UI" font-size="11.00" fill="#010509">DirectoryPageWriter</text>
</g>
<!-- qQ7wf2Z&#45;&gt;qdxwf2Z -->
<g id="edge1" class="edge"><title>qQ7wf2Z&#45;&gt;qdxwf2Z</title>
<path fill="none" stroke="#69bfff" d="M240.91,-117.101C256.009,-128.137 276.158,-142.155 295,-153 298.931,-155.263 303.083,-157.495 307.283,-159.648"/>
<polygon fill="#69bfff" stroke="#69bfff" points="306.599,-161.263 311.851,-161.952 308.175,-158.138 306.599,-161.263"/>
</g>
<!-- qAEwf2Z -->
<g id="node4" class="node"><title>qAEwf2Z</title>
<text text-anchor="middle" x="353.5" y="-123.2" font-family="Segoe UI" font-size="11.00" fill="#010509">ClassPageWriter</text>
</g>
<!-- qQ7wf2Z&#45;&gt;qAEwf2Z -->
<g id="edge2" class="edge"><title>qQ7wf2Z&#45;&gt;qAEwf2Z</title>
<path fill="none" stroke="#69bfff" d="M245.076,-104.594C262.87,-108.14 286.301,-112.809 306.738,-116.881"/>
<polygon fill="#69bfff" stroke="#69bfff" points="306.619,-118.642 311.864,-117.903 307.303,-115.209 306.619,-118.642"/>
</g>
<!-- qa7wf2Z -->
<g id="node5" class="node"><title>qa7wf2Z</title>
<text text-anchor="middle" x="353.5" y="-69.2" font-family="Segoe UI" font-size="11.00" fill="#010509">GenericPageWriter</text>
</g>
<!-- qQ7wf2Z&#45;&gt;qa7wf2Z -->
<g id="edge3" class="edge"><title>qQ7wf2Z&#45;&gt;qa7wf2Z</title>
<path fill="none" stroke="#69bfff" d="M245.076,-93.4056C260.947,-90.243 281.304,-86.1866 300.021,-82.4571"/>
<polygon fill="#69bfff" stroke="#69bfff" points="300.69,-84.1083 305.251,-81.4149 300.006,-80.6758 300.69,-84.1083"/>
</g>
<!-- Dx7wf2Z -->
<g id="node6" class="node"><title>Dx7wf2Z</title>
<text text-anchor="middle" x="353.5" y="-15.2" font-family="Segoe UI" font-size="11.00" fill="#010509">NamespacePageWriter</text>
</g>
<!-- qQ7wf2Z&#45;&gt;Dx7wf2Z -->
<g id="edge4" class="edge"><title>qQ7wf2Z&#45;&gt;Dx7wf2Z</title>
<path fill="none" stroke="#69bfff" d="M245.2,-81.2687C249.848,-78.2328 254.587,-75.0674 259,-72 275.422,-60.585 277.859,-55.3042 295,-45 298.818,-42.705 302.862,-40.4621 306.967,-38.312"/>
<polygon fill="#69bfff" stroke="#69bfff" points="307.788,-39.8578 311.436,-36.0172 306.189,-36.7442 307.788,-39.8578"/>
</g>
</g>
</svg>
