<?xml version="1.0" encoding="UTF-8" standalone="no"?>
<svg
   width="18"
   height="18"
   viewBox="0 0 18 18"
   version="1.1"
   xmlns="http://www.w3.org/2000/svg">
  <path
     d="M 1.5e-7,9.0000001 9.0000001,1.5e-7 18,9.0000001 9.0000001,18 Z"
     id="path2"
     style="fill:none;stroke;#8f8f8f;stroke-width:0.53033" />
  <path
     d="m 5.9624999,12.0375 c -0.64125,-0.64125 -0.64125,-1.68375 0,-2.3249999 l 1.5,-1.5 -0.7125,-0.7125 -1.5,1.5 c -1.035,1.0349999 -1.035,2.7149999 0,3.7499999 1.035,1.035 2.7149998,1.035 3.7499999,0 L 10.5,11.25 9.7874998,10.5375 l -1.5,1.5 c -0.6412499,0.64125 -1.6837499,0.64125 -2.3249999,0 z M 7.875,10.875 l 3,-2.9999999 -0.75,-0.75 L 7.1249999,10.125 Z M 8.9999998,5.2499999 7.4999999,6.7500001 8.2125,7.4625001 9.7124998,5.9624999 c 0.6412502,-0.64125 1.6837502,-0.64125 2.3250002,0 0.64125,0.6412502 0.64125,1.6837502 0,2.3250002 l -1.5,1.5 L 11.25,10.5 12.75,9.0000001 c 1.035,-1.035 1.035,-2.715 0,-3.7500002 -1.035,-1.035 -2.715,-1.035 -3.7500002,0 z"
     id="path4"
     style="stroke-width:0.53033;fill:#828ea0;fill-opacity:1" />
</svg>
