<?xml version="1.0" encoding="UTF-8" standalone="no"?>
<!DOCTYPE svg PUBLIC "-//W3C//DTD SVG 1.1//EN"
 "http://www.w3.org/Graphics/SVG/1.1/DTD/svg11.dtd">
<!-- Generated by graphviz version 2.40.1 (20161225.0304)
 -->
<!-- Title: %3 Pages: 1 -->
<svg width="254pt" height="206pt"
 viewBox="0.00 0.00 254.00 206.00" xmlns="http://www.w3.org/2000/svg" xmlns:xlink="http://www.w3.org/1999/xlink">
<g id="graph0" class="graph" transform="scale(1 1) rotate(0) translate(4 202)">
<title>%3</title>
<polygon fill="transparent" stroke="transparent" points="-4,4 -4,-202 250,-202 250,4 -4,4"/>
<!-- DxzKpO3 -->
<g id="node1" class="node">
<title>DxzKpO3</title>
<text text-anchor="middle" x="52" y="-96.2" font-family="Segoe UI" font-size="11.00" fill="#010509">MemberFragment</text>
</g>
<!-- qWK4hpu -->
<g id="node2" class="node">
<title>qWK4hpu</title>
<text text-anchor="middle" x="193" y="-177.2" font-family="Segoe UI" font-size="11.00" fill="#010509">Enumeration</text>
</g>
<!-- DxzKpO3&#45;&gt;qWK4hpu -->
<g id="edge1" class="edge">
<title>DxzKpO3&#45;&gt;qWK4hpu</title>
<path fill="none" stroke="#ff1040" d="M80.1954,-117.0886C97.2966,-127.8614 119.6718,-141.6085 140,-153 143.9032,-155.1873 148.0034,-157.4076 152.1221,-159.5871"/>
<polygon fill="#ff1040" stroke="#ff1040" points="151.3497,-161.1581 156.5902,-161.9326 152.9765,-158.0591 151.3497,-161.1581"/>
</g>
<!-- q8B4hpu -->
<g id="node3" class="node">
<title>q8B4hpu</title>
<text text-anchor="middle" x="193" y="-123.2" font-family="Segoe UI" font-size="11.00" fill="#010509">EnumerationValue</text>
</g>
<!-- DxzKpO3&#45;&gt;q8B4hpu -->
<g id="edge2" class="edge">
<title>DxzKpO3&#45;&gt;q8B4hpu</title>
<path fill="none" stroke="#ff1040" d="M104.1026,-108.9771C114.0803,-110.8877 124.5865,-112.8996 134.7431,-114.8444"/>
<polygon fill="#ff1040" stroke="#ff1040" points="134.4572,-116.5714 139.6971,-115.7931 135.1155,-113.1338 134.4572,-116.5714"/>
</g>
<!-- qRB4hpu -->
<g id="node4" class="node">
<title>qRB4hpu</title>
<text text-anchor="middle" x="193" y="-69.2" font-family="Segoe UI" font-size="11.00" fill="#010509">Method</text>
</g>
<!-- DxzKpO3&#45;&gt;qRB4hpu -->
<g id="edge3" class="edge">
<title>DxzKpO3&#45;&gt;qRB4hpu</title>
<path fill="none" stroke="#ff1040" d="M104.1026,-89.0229C123.1558,-85.3744 144.1365,-81.3568 160.9287,-78.1413"/>
<polygon fill="#ff1040" stroke="#ff1040" points="161.4172,-79.8296 165.9988,-77.1704 160.7589,-76.3921 161.4172,-79.8296"/>
</g>
<!-- qnt4hpu -->
<g id="node5" class="node">
<title>qnt4hpu</title>
<text text-anchor="middle" x="193" y="-15.2" font-family="Segoe UI" font-size="11.00" fill="#010509">Variable</text>
</g>
<!-- DxzKpO3&#45;&gt;qnt4hpu -->
<g id="edge4" class="edge">
<title>DxzKpO3&#45;&gt;qnt4hpu</title>
<path fill="none" stroke="#ff1040" d="M80.1954,-80.9114C97.2966,-70.1386 119.6718,-56.3915 140,-45 146.7339,-41.2265 154.054,-37.3546 161.044,-33.7636"/>
<polygon fill="#ff1040" stroke="#ff1040" points="162.1608,-35.1584 165.8191,-31.327 160.57,-32.0408 162.1608,-35.1584"/>
</g>
</g>
</svg>
