<?xml version="1.0" encoding="UTF-8" standalone="no"?>
<!DOCTYPE svg PUBLIC "-//W3C//DTD SVG 1.1//EN"
 "http://www.w3.org/Graphics/SVG/1.1/DTD/svg11.dtd">
<!-- Generated by graphviz version 2.38.0 (20140413.2041)
 -->
<!-- Title: %3 Pages: 1 -->
<svg width="229pt" height="206pt"
 viewBox="0.00 0.00 229.00 206.00" xmlns="http://www.w3.org/2000/svg" xmlns:xlink="http://www.w3.org/1999/xlink">
<g id="graph0" class="graph" transform="scale(1 1) rotate(0) translate(4 202)">
<title>%3</title>
<polygon fill="none" stroke="none" points="-4,4 -4,-202 225,-202 225,4 -4,4"/>
<!-- DxzKpO3 -->
<g id="node1" class="node"><title>DxzKpO3</title>
<text text-anchor="middle" x="46" y="-96.2" font-family="Segoe UI" font-size="11.00" fill="#010509">MemberFragment</text>
</g>
<!-- qWK4hpu -->
<g id="node2" class="node"><title>qWK4hpu</title>
<text text-anchor="middle" x="174.5" y="-177.2" font-family="Segoe UI" font-size="11.00" fill="#010509">Enumeration</text>
</g>
<!-- DxzKpO3&#45;&gt;qWK4hpu -->
<g id="edge1" class="edge"><title>DxzKpO3&#45;&gt;qWK4hpu</title>
<path fill="none" stroke="#ff1040" d="M73.4022,-117.109C89.125,-127.765 109.549,-141.386 128,-153 131.207,-155.018 134.561,-157.087 137.933,-159.138"/>
<polygon fill="#ff1040" stroke="#ff1040" points="137.345,-160.827 142.529,-161.917 139.156,-157.832 137.345,-160.827"/>
</g>
<!-- q8B4hpu -->
<g id="node3" class="node"><title>q8B4hpu</title>
<text text-anchor="middle" x="174.5" y="-123.2" font-family="Segoe UI" font-size="11.00" fill="#010509">EnumerationValue</text>
</g>
<!-- DxzKpO3&#45;&gt;q8B4hpu -->
<g id="edge2" class="edge"><title>DxzKpO3&#45;&gt;q8B4hpu</title>
<path fill="none" stroke="#ff1040" d="M92.3121,-108.671C102.182,-110.778 112.687,-113.02 122.752,-115.168"/>
<polygon fill="#ff1040" stroke="#ff1040" points="122.398,-116.882 127.653,-116.215 123.129,-113.459 122.398,-116.882"/>
</g>
<!-- qRB4hpu -->
<g id="node4" class="node"><title>qRB4hpu</title>
<text text-anchor="middle" x="174.5" y="-69.2" font-family="Segoe UI" font-size="11.00" fill="#010509">Method</text>
</g>
<!-- DxzKpO3&#45;&gt;qRB4hpu -->
<g id="edge3" class="edge"><title>DxzKpO3&#45;&gt;qRB4hpu</title>
<path fill="none" stroke="#ff1040" d="M92.3121,-89.3286C108.873,-85.794 127.221,-81.8776 142.28,-78.6636"/>
<polygon fill="#ff1040" stroke="#ff1040" points="142.729,-80.3573 147.253,-77.6021 141.998,-76.9344 142.729,-80.3573"/>
</g>
<!-- qnt4hpu -->
<g id="node5" class="node"><title>qnt4hpu</title>
<text text-anchor="middle" x="174.5" y="-15.2" font-family="Segoe UI" font-size="11.00" fill="#010509">Variable</text>
</g>
<!-- DxzKpO3&#45;&gt;qnt4hpu -->
<g id="edge4" class="edge"><title>DxzKpO3&#45;&gt;qnt4hpu</title>
<path fill="none" stroke="#ff1040" d="M73.4022,-80.8913C89.125,-70.235 109.549,-56.614 128,-45 132.761,-42.003 137.849,-38.8946 142.834,-35.8995"/>
<polygon fill="#ff1040" stroke="#ff1040" points="143.978,-37.2549 147.371,-33.1873 142.182,-34.2507 143.978,-37.2549"/>
</g>
</g>
</svg>
