<?xml version="1.0" encoding="UTF-8" standalone="no"?>
<!DOCTYPE svg PUBLIC "-//W3C//DTD SVG 1.1//EN"
 "http://www.w3.org/Graphics/SVG/1.1/DTD/svg11.dtd">
<!-- Generated by graphviz version 2.38.0 (20140413.2041)
 -->
<!-- Title: Overview Pages: 1 -->
<svg width="86pt" height="188pt"
 viewBox="0.00 0.00 86.00 188.00" xmlns="http://www.w3.org/2000/svg" xmlns:xlink="http://www.w3.org/1999/xlink">
<g id="graph0" class="graph" transform="scale(1 1) rotate(0) translate(4 184)">
<title>Overview</title>
<polygon fill="none" stroke="none" points="-4,4 -4,-184 82,-184 82,4 -4,4"/>
<!-- 125 -->
<g id="node1" class="node"><title>125</title>
<polygon fill="none" stroke="#828ea0" points="78,-180 0,-180 0,-144 78,-144 78,-180"/>
<text text-anchor="middle" x="39" y="-159.5" font-family="Segoe UI" font-size="10.00" fill="#424e60">PageFragment</text>
</g>
<!-- 124 -->
<g id="node2" class="node"><title>124</title>
<polygon fill="none" stroke="#828ea0" points="66,-108 12,-108 12,-72 66,-72 66,-108"/>
<text text-anchor="middle" x="39" y="-87.5" font-family="Segoe UI" font-size="10.00" fill="#424e60">Page</text>
</g>
<!-- 125&#45;&gt;124 -->
<g id="edge1" class="edge"><title>125&#45;&gt;124</title>
<path fill="none" stroke="#424e60" d="M39,-143.697C39,-135.983 39,-126.712 39,-118.112"/>
<polygon fill="#424e60" stroke="#424e60" points="42.5001,-118.104 39,-108.104 35.5001,-118.104 42.5001,-118.104"/>
</g>
<!-- 123 -->
<g id="node3" class="node"><title>123</title>
<polygon fill="none" stroke="#828ea0" points="69,-36 9,-36 9,-0 69,-0 69,-36"/>
<text text-anchor="middle" x="39" y="-15.5" font-family="Segoe UI" font-size="10.00" fill="#424e60">IndexPage</text>
</g>
<!-- 124&#45;&gt;123 -->
<g id="edge2" class="edge"><title>124&#45;&gt;123</title>
<path fill="none" stroke="#424e60" d="M39,-71.6966C39,-63.9827 39,-54.7125 39,-46.1124"/>
<polygon fill="#424e60" stroke="#424e60" points="42.5001,-46.1043 39,-36.1043 35.5001,-46.1044 42.5001,-46.1043"/>
</g>
</g>
</svg>
