<?xml version="1.0" encoding="UTF-8" standalone="no"?>
<!DOCTYPE svg PUBLIC "-//W3C//DTD SVG 1.1//EN"
 "http://www.w3.org/Graphics/SVG/1.1/DTD/svg11.dtd">
<!-- Generated by graphviz version 2.40.1 (20161225.0304)
 -->
<!-- Title: Overview Pages: 1 -->
<svg width="92pt" height="188pt"
 viewBox="0.00 0.00 92.00 188.00" xmlns="http://www.w3.org/2000/svg" xmlns:xlink="http://www.w3.org/1999/xlink">
<g id="graph0" class="graph" transform="scale(1 1) rotate(0) translate(4 184)">
<title>Overview</title>
<polygon fill="transparent" stroke="transparent" points="-4,4 -4,-184 88,-184 88,4 -4,4"/>
<!-- 125 -->
<g id="node1" class="node">
<title>125</title>
<polygon fill="none" stroke="#828ea0" points="84,-180 0,-180 0,-144 84,-144 84,-180"/>
<text text-anchor="middle" x="42" y="-159.5" font-family="Segoe UI" font-size="10.00" fill="#424e60">PageFragment</text>
</g>
<!-- 124 -->
<g id="node2" class="node">
<title>124</title>
<polygon fill="none" stroke="#828ea0" points="69,-108 15,-108 15,-72 69,-72 69,-108"/>
<text text-anchor="middle" x="42" y="-87.5" font-family="Segoe UI" font-size="10.00" fill="#424e60">Page</text>
</g>
<!-- 125&#45;&gt;124 -->
<g id="edge1" class="edge">
<title>125&#45;&gt;124</title>
<path fill="none" stroke="#424e60" d="M42,-143.8314C42,-136.131 42,-126.9743 42,-118.4166"/>
<polygon fill="#424e60" stroke="#424e60" points="45.5001,-118.4132 42,-108.4133 38.5001,-118.4133 45.5001,-118.4132"/>
</g>
<!-- 123 -->
<g id="node3" class="node">
<title>123</title>
<polygon fill="none" stroke="#828ea0" points="74.5,-36 9.5,-36 9.5,0 74.5,0 74.5,-36"/>
<text text-anchor="middle" x="42" y="-15.5" font-family="Segoe UI" font-size="10.00" fill="#424e60">IndexPage</text>
</g>
<!-- 124&#45;&gt;123 -->
<g id="edge2" class="edge">
<title>124&#45;&gt;123</title>
<path fill="none" stroke="#424e60" d="M42,-71.8314C42,-64.131 42,-54.9743 42,-46.4166"/>
<polygon fill="#424e60" stroke="#424e60" points="45.5001,-46.4132 42,-36.4133 38.5001,-46.4133 45.5001,-46.4132"/>
</g>
</g>
</svg>
