<?xml version="1.0" encoding="UTF-8" standalone="no"?>
<!DOCTYPE svg PUBLIC "-//W3C//DTD SVG 1.1//EN"
 "http://www.w3.org/Graphics/SVG/1.1/DTD/svg11.dtd">
<!-- Generated by graphviz version 2.40.1 (20161225.0304)
 -->
<!-- Title: G Pages: 1 -->
<svg width="179pt" height="187pt"
 viewBox="0.00 0.00 179.00 187.00" xmlns="http://www.w3.org/2000/svg" xmlns:xlink="http://www.w3.org/1999/xlink">
<g id="graph0" class="graph" transform="scale(1 1) rotate(0) translate(4 183)">
<title>G</title>
<polygon fill="transparent" stroke="transparent" points="-4,4 -4,-183 175,-183 175,4 -4,4"/>
<g id="clust1" class="cluster">
<title>cluster_0</title>
<polygon fill="#828ea0" fill-opacity="0.047059" stroke="#828ea0" stroke-opacity="0.125490" points="8,-8 8,-171 163,-171 163,-8 8,-8"/>
<text text-anchor="middle" x="85.5" y="-159" font-family="Segoe UI" font-size="10.00" fill="#828ea0">Page Fragment</text>
</g>
<!-- Name -->
<g id="node1" class="node">
<title>Name</title>
<text text-anchor="middle" x="35" y="-131.5" font-family="Segoe UI" font-size="10.00" fill="#828ea0">Name</text>
</g>
<!-- String -->
<g id="node2" class="node">
<title>String</title>
<text text-anchor="middle" x="130.5" y="-131.5" font-family="Segoe UI" font-size="10.00" fill="#828ea0">String</text>
</g>
<!-- Name&#45;&gt;String -->
<g id="edge1" class="edge">
<title>Name&#45;&gt;String</title>
<path fill="none" stroke="#828ea0" d="M62.111,-134C71.7889,-134 82.8674,-134 93.2492,-134"/>
<polygon fill="#828ea0" stroke="#828ea0" points="93.3212,-137.5001 103.3212,-134 93.3212,-130.5001 93.3212,-137.5001"/>
</g>
<!-- Brief -->
<g id="node3" class="node">
<title>Brief</title>
<text text-anchor="middle" x="35" y="-77.5" font-family="Segoe UI" font-size="10.00" fill="#828ea0">Brief</text>
</g>
<!-- Paragraph -->
<g id="node4" class="node">
<title>Paragraph</title>
<text text-anchor="middle" x="130.5" y="-50.5" font-family="Segoe UI" font-size="10.00" fill="#828ea0">Paragraph</text>
</g>
<!-- Brief&#45;&gt;Paragraph -->
<g id="edge2" class="edge">
<title>Brief&#45;&gt;Paragraph</title>
<path fill="none" stroke="#828ea0" d="M62.111,-72.3351C70.2043,-70.0469 79.2772,-67.4818 88.103,-64.9866"/>
<polygon fill="#828ea0" stroke="#828ea0" points="89.2267,-68.3062 97.8973,-62.2175 87.3222,-61.5702 89.2267,-68.3062"/>
</g>
<!-- Detail -->
<g id="node5" class="node">
<title>Detail</title>
<text text-anchor="middle" x="35" y="-23.5" font-family="Segoe UI" font-size="10.00" fill="#828ea0">Detail</text>
</g>
<!-- Detail&#45;&gt;Paragraph -->
<g id="edge3" class="edge">
<title>Detail&#45;&gt;Paragraph</title>
<path fill="none" stroke="#828ea0" d="M62.111,-33.6649C70.2043,-35.9531 79.2772,-38.5182 88.103,-41.0134"/>
<polygon fill="#828ea0" stroke="#828ea0" points="87.3222,-44.4298 97.8973,-43.7825 89.2267,-37.6938 87.3222,-44.4298"/>
</g>
</g>
</svg>
