<?xml version="1.0" encoding="UTF-8" standalone="no"?>
<!DOCTYPE svg PUBLIC "-//W3C//DTD SVG 1.1//EN"
 "http://www.w3.org/Graphics/SVG/1.1/DTD/svg11.dtd">
<!-- Generated by graphviz version 2.38.0 (20140413.2041)
 -->
<!-- Title: G Pages: 1 -->
<svg width="176pt" height="187pt"
 viewBox="0.00 0.00 176.00 187.00" xmlns="http://www.w3.org/2000/svg" xmlns:xlink="http://www.w3.org/1999/xlink">
<g id="graph0" class="graph" transform="scale(1 1) rotate(0) translate(4 183)">
<title>G</title>
<polygon fill="none" stroke="none" points="-4,4 -4,-183 172,-183 172,4 -4,4"/>
<g id="clust1" class="cluster"><title>cluster_0</title>
<polygon fill="#828ea0" fill-opacity="0.047059" stroke="#828ea0" stroke-opacity="0.125490" points="8,-8 8,-171 160,-171 160,-8 8,-8"/>
<text text-anchor="middle" x="84" y="-159" font-family="Segoe UI" font-size="10.00" fill="#828ea0">Page Fragment</text>
</g>
<!-- Name -->
<g id="node1" class="node"><title>Name</title>
<text text-anchor="middle" x="35" y="-131.5" font-family="Segoe UI" font-size="10.00" fill="#828ea0">Name</text>
</g>
<!-- String -->
<g id="node2" class="node"><title>String</title>
<text text-anchor="middle" x="129" y="-131.5" font-family="Segoe UI" font-size="10.00" fill="#828ea0">String</text>
</g>
<!-- Name&#45;&gt;String -->
<g id="edge1" class="edge"><title>Name&#45;&gt;String</title>
<path fill="none" stroke="#828ea0" d="M62.1174,-134C71.3435,-134 81.8909,-134 91.8017,-134"/>
<polygon fill="#828ea0" stroke="#828ea0" points="91.8173,-137.5 101.817,-134 91.8172,-130.5 91.8173,-137.5"/>
</g>
<!-- Brief -->
<g id="node3" class="node"><title>Brief</title>
<text text-anchor="middle" x="35" y="-77.5" font-family="Segoe UI" font-size="10.00" fill="#828ea0">Brief</text>
</g>
<!-- Paragraph -->
<g id="node4" class="node"><title>Paragraph</title>
<text text-anchor="middle" x="129" y="-50.5" font-family="Segoe UI" font-size="10.00" fill="#828ea0">Paragraph</text>
</g>
<!-- Brief&#45;&gt;Paragraph -->
<g id="edge2" class="edge"><title>Brief&#45;&gt;Paragraph</title>
<path fill="none" stroke="#828ea0" d="M62.1174,-72.3351C70.2229,-69.9563 79.3483,-67.2782 88.1658,-64.6905"/>
<polygon fill="#828ea0" stroke="#828ea0" points="89.3098,-68.0024 97.9195,-61.828 87.3386,-61.2857 89.3098,-68.0024"/>
</g>
<!-- Detail -->
<g id="node5" class="node"><title>Detail</title>
<text text-anchor="middle" x="35" y="-23.5" font-family="Segoe UI" font-size="10.00" fill="#828ea0">Detail</text>
</g>
<!-- Detail&#45;&gt;Paragraph -->
<g id="edge3" class="edge"><title>Detail&#45;&gt;Paragraph</title>
<path fill="none" stroke="#828ea0" d="M62.1174,-33.6649C70.2229,-36.0437 79.3483,-38.7218 88.1658,-41.3095"/>
<polygon fill="#828ea0" stroke="#828ea0" points="87.3386,-44.7143 97.9195,-44.172 89.3098,-37.9976 87.3386,-44.7143"/>
</g>
</g>
</svg>
