<?xml version="1.0" encoding="UTF-8" standalone="no"?>
<!DOCTYPE svg PUBLIC "-//W3C//DTD SVG 1.1//EN"
 "http://www.w3.org/Graphics/SVG/1.1/DTD/svg11.dtd">
<!-- Generated by graphviz version 2.40.1 (20161225.0304)
 -->
<!-- Title: %3 Pages: 1 -->
<svg width="179pt" height="260pt"
 viewBox="0.00 0.00 179.00 260.00" xmlns="http://www.w3.org/2000/svg" xmlns:xlink="http://www.w3.org/1999/xlink">
<g id="graph0" class="graph" transform="scale(1 1) rotate(0) translate(4 256)">
<title>%3</title>
<polygon fill="transparent" stroke="transparent" points="-4,4 -4,-256 175,-256 175,4 -4,4"/>
<!-- DxzKpO3 -->
<g id="node1" class="node">
<title>DxzKpO3</title>
<text text-anchor="middle" x="27" y="-123.2" font-family="Segoe UI" font-size="11.00" fill="#010509">Page</text>
</g>
<!-- q334hpu -->
<g id="node2" class="node">
<title>q334hpu</title>
<text text-anchor="middle" x="130.5" y="-231.2" font-family="Segoe UI" font-size="11.00" fill="#010509">ClassPage</text>
</g>
<!-- DxzKpO3&#45;&gt;q334hpu -->
<g id="edge1" class="edge">
<title>DxzKpO3&#45;&gt;q334hpu</title>
<path fill="none" stroke="#ff1040" d="M38.5645,-144.0974C50.217,-161.4732 69.3828,-187.8363 90,-207 92.089,-208.9417 94.3311,-210.8407 96.6496,-212.6746"/>
<polygon fill="#ff1040" stroke="#ff1040" points="95.8501,-214.2652 100.889,-215.9002 97.9695,-211.4798 95.8501,-214.2652"/>
</g>
<!-- qCt4hpu -->
<g id="node3" class="node">
<title>qCt4hpu</title>
<text text-anchor="middle" x="130.5" y="-177.2" font-family="Segoe UI" font-size="11.00" fill="#010509">DirectoryPage</text>
</g>
<!-- DxzKpO3&#45;&gt;qCt4hpu -->
<g id="edge2" class="edge">
<title>DxzKpO3&#45;&gt;qCt4hpu</title>
<path fill="none" stroke="#ff1040" d="M54.1934,-140.1879C65.502,-146.088 78.8472,-153.0507 91.1891,-159.4899"/>
<polygon fill="#ff1040" stroke="#ff1040" points="90.4426,-161.0743 95.685,-161.8357 92.0616,-157.9713 90.4426,-161.0743"/>
</g>
<!-- qqB4hpu -->
<g id="node4" class="node">
<title>qqB4hpu</title>
<text text-anchor="middle" x="130.5" y="-123.2" font-family="Segoe UI" font-size="11.00" fill="#010509">GenericPage</text>
</g>
<!-- DxzKpO3&#45;&gt;qqB4hpu -->
<g id="edge3" class="edge">
<title>DxzKpO3&#45;&gt;qqB4hpu</title>
<path fill="none" stroke="#ff1040" d="M54.1934,-126C64.685,-126 76.9296,-126 88.4996,-126"/>
<polygon fill="#ff1040" stroke="#ff1040" points="88.7594,-127.7501 93.7594,-126 88.7593,-124.2501 88.7594,-127.7501"/>
</g>
<!-- Dx64hpu -->
<g id="node5" class="node">
<title>Dx64hpu</title>
<text text-anchor="middle" x="130.5" y="-69.2" font-family="Segoe UI" font-size="11.00" fill="#010509">IndexPage</text>
</g>
<!-- DxzKpO3&#45;&gt;Dx64hpu -->
<g id="edge4" class="edge">
<title>DxzKpO3&#45;&gt;Dx64hpu</title>
<path fill="none" stroke="#ff1040" d="M54.1934,-111.8121C66.785,-105.2426 81.9016,-97.3557 95.3466,-90.3409"/>
<polygon fill="#ff1040" stroke="#ff1040" points="96.2127,-91.863 99.8361,-87.9986 94.5937,-88.7599 96.2127,-91.863"/>
</g>
<!-- D1B4hpu -->
<g id="node6" class="node">
<title>D1B4hpu</title>
<text text-anchor="middle" x="130.5" y="-15.2" font-family="Segoe UI" font-size="11.00" fill="#010509">ModulePage</text>
</g>
<!-- DxzKpO3&#45;&gt;D1B4hpu -->
<g id="edge5" class="edge">
<title>DxzKpO3&#45;&gt;D1B4hpu</title>
<path fill="none" stroke="#ff1040" d="M38.5645,-107.9026C50.217,-90.5268 69.3828,-64.1637 90,-45 92.089,-43.0583 94.3311,-41.1593 96.6496,-39.3254"/>
<polygon fill="#ff1040" stroke="#ff1040" points="97.9695,-40.5202 100.889,-36.0998 95.8501,-37.7348 97.9695,-40.5202"/>
</g>
</g>
</svg>
