<?xml version="1.0" encoding="UTF-8" standalone="no"?>
<!DOCTYPE svg PUBLIC "-//W3C//DTD SVG 1.1//EN"
 "http://www.w3.org/Graphics/SVG/1.1/DTD/svg11.dtd">
<!-- Generated by graphviz version 2.38.0 (20140413.2041)
 -->
<!-- Title: %3 Pages: 1 -->
<svg width="171pt" height="260pt"
 viewBox="0.00 0.00 171.00 260.00" xmlns="http://www.w3.org/2000/svg" xmlns:xlink="http://www.w3.org/1999/xlink">
<g id="graph0" class="graph" transform="scale(1 1) rotate(0) translate(4 256)">
<title>%3</title>
<polygon fill="none" stroke="none" points="-4,4 -4,-256 167,-256 167,4 -4,4"/>
<!-- DxzKpO3 -->
<g id="node1" class="node"><title>DxzKpO3</title>
<text text-anchor="middle" x="27" y="-123.2" font-family="Segoe UI" font-size="11.00" fill="#010509">Page</text>
</g>
<!-- q334hpu -->
<g id="node2" class="node"><title>q334hpu</title>
<text text-anchor="middle" x="126.5" y="-231.2" font-family="Segoe UI" font-size="11.00" fill="#010509">ClassPage</text>
</g>
<!-- DxzKpO3&#45;&gt;q334hpu -->
<g id="edge1" class="edge"><title>DxzKpO3&#45;&gt;q334hpu</title>
<path fill="none" stroke="#ff1040" d="M39.811,-144.165C51.4518,-161.352 70.3098,-187.37 90,-207 91.9193,-208.913 93.9774,-210.808 96.1004,-212.654"/>
<polygon fill="#ff1040" stroke="#ff1040" points="95.0238,-214.035 99.9759,-215.916 97.2778,-211.358 95.0238,-214.035"/>
</g>
<!-- qCt4hpu -->
<g id="node3" class="node"><title>qCt4hpu</title>
<text text-anchor="middle" x="126.5" y="-177.2" font-family="Segoe UI" font-size="11.00" fill="#010509">DirectoryPage</text>
</g>
<!-- DxzKpO3&#45;&gt;qCt4hpu -->
<g id="edge2" class="edge"><title>DxzKpO3&#45;&gt;qCt4hpu</title>
<path fill="none" stroke="#ff1040" d="M54.1282,-140.471C64.5856,-146.263 76.8275,-153.043 88.1906,-159.336"/>
<polygon fill="#ff1040" stroke="#ff1040" points="87.4411,-160.922 92.663,-161.813 89.1369,-157.86 87.4411,-160.922"/>
</g>
<!-- qqB4hpu -->
<g id="node4" class="node"><title>qqB4hpu</title>
<text text-anchor="middle" x="126.5" y="-123.2" font-family="Segoe UI" font-size="11.00" fill="#010509">GenericPage</text>
</g>
<!-- DxzKpO3&#45;&gt;qqB4hpu -->
<g id="edge3" class="edge"><title>DxzKpO3&#45;&gt;qqB4hpu</title>
<path fill="none" stroke="#ff1040" d="M54.1282,-126C64.6941,-126 77.0816,-126 88.5437,-126"/>
<polygon fill="#ff1040" stroke="#ff1040" points="88.7351,-127.75 93.735,-126 88.735,-124.25 88.7351,-127.75"/>
</g>
<!-- Dx64hpu -->
<g id="node5" class="node"><title>Dx64hpu</title>
<text text-anchor="middle" x="126.5" y="-69.2" font-family="Segoe UI" font-size="11.00" fill="#010509">IndexPage</text>
</g>
<!-- DxzKpO3&#45;&gt;Dx64hpu -->
<g id="edge4" class="edge"><title>DxzKpO3&#45;&gt;Dx64hpu</title>
<path fill="none" stroke="#ff1040" d="M54.1282,-111.529C66.5872,-104.629 81.5792,-96.3254 94.6,-89.1138"/>
<polygon fill="#ff1040" stroke="#ff1040" points="95.7736,-90.4644 99.2997,-86.511 94.0778,-87.4026 95.7736,-90.4644"/>
</g>
<!-- D1B4hpu -->
<g id="node6" class="node"><title>D1B4hpu</title>
<text text-anchor="middle" x="126.5" y="-15.2" font-family="Segoe UI" font-size="11.00" fill="#010509">ModulePage</text>
</g>
<!-- DxzKpO3&#45;&gt;D1B4hpu -->
<g id="edge5" class="edge"><title>DxzKpO3&#45;&gt;D1B4hpu</title>
<path fill="none" stroke="#ff1040" d="M39.811,-107.835C51.4518,-90.6476 70.3098,-64.6297 90,-45 91.9193,-43.0866 93.9774,-41.1917 96.1004,-39.346"/>
<polygon fill="#ff1040" stroke="#ff1040" points="97.2778,-40.6424 99.9759,-36.0836 95.0238,-37.9648 97.2778,-40.6424"/>
</g>
</g>
</svg>
