<?xml version="1.0" encoding="UTF-8" standalone="no"?>
<!DOCTYPE svg PUBLIC "-//W3C//DTD SVG 1.1//EN"
 "http://www.w3.org/Graphics/SVG/1.1/DTD/svg11.dtd">
<!-- Generated by graphviz version 2.40.1 (20161225.0304)
 -->
<!-- Title: %3 Pages: 1 -->
<svg width="304pt" height="530pt"
 viewBox="0.00 0.00 304.00 530.00" xmlns="http://www.w3.org/2000/svg" xmlns:xlink="http://www.w3.org/1999/xlink">
<g id="graph0" class="graph" transform="scale(1 1) rotate(0) translate(4 526)">
<title>%3</title>
<polygon fill="transparent" stroke="transparent" points="-4,4 -4,-526 300,-526 300,4 -4,4"/>
<!-- DxzKpO3 -->
<g id="node1" class="node">
<title>DxzKpO3</title>
<text text-anchor="middle" x="59.5" y="-258.2" font-family="Segoe UI" font-size="11.00" fill="#010509">ParagraphCommand</text>
</g>
<!-- DU14hpu -->
<g id="node2" class="node">
<title>DU14hpu</title>
<text text-anchor="middle" x="225.5" y="-501.2" font-family="Segoe UI" font-size="11.00" fill="#010509">CodeCommand</text>
</g>
<!-- DxzKpO3&#45;&gt;DU14hpu -->
<g id="edge1" class="edge">
<title>DxzKpO3&#45;&gt;DU14hpu</title>
<path fill="none" stroke="#ff1040" d="M62.6185,-279.0679C70.5859,-319.9441 95.4195,-420.3573 155,-477 160.8997,-482.6088 168.0865,-487.0853 175.5885,-490.6489"/>
<polygon fill="#ff1040" stroke="#ff1040" points="175.0128,-492.3083 180.2916,-492.7516 176.4414,-489.1132 175.0128,-492.3083"/>
</g>
<!-- DNf4hpu -->
<g id="node3" class="node">
<title>DNf4hpu</title>
<text text-anchor="middle" x="225.5" y="-447.2" font-family="Segoe UI" font-size="11.00" fill="#010509">ImageCommand</text>
</g>
<!-- DxzKpO3&#45;&gt;DNf4hpu -->
<g id="edge2" class="edge">
<title>DxzKpO3&#45;&gt;DNf4hpu</title>
<path fill="none" stroke="#ff1040" d="M65.6345,-279.2407C77.6593,-312.3749 107.3838,-382.7354 155,-423 160.1838,-427.3835 166.1561,-431.0985 172.3855,-434.236"/>
<polygon fill="#ff1040" stroke="#ff1040" points="171.9238,-435.9544 177.1905,-436.5243 173.4287,-432.7944 171.9238,-435.9544"/>
</g>
<!-- q8Z4hpu -->
<g id="node4" class="node">
<title>q8Z4hpu</title>
<text text-anchor="middle" x="225.5" y="-393.2" font-family="Segoe UI" font-size="11.00" fill="#010509">KeyValueListCommand</text>
</g>
<!-- DxzKpO3&#45;&gt;q8Z4hpu -->
<g id="edge3" class="edge">
<title>DxzKpO3&#45;&gt;q8Z4hpu</title>
<path fill="none" stroke="#ff1040" d="M71.3214,-279.0989C87.5946,-302.7383 119.0048,-344.0428 155,-369 158.4063,-371.3617 162.0468,-373.552 165.8119,-375.5771"/>
<polygon fill="#ff1040" stroke="#ff1040" points="165.0358,-377.1458 170.2822,-377.8789 166.638,-374.0341 165.0358,-377.1458"/>
</g>
<!-- q4r4hpu -->
<g id="node5" class="node">
<title>q4r4hpu</title>
<text text-anchor="middle" x="225.5" y="-339.2" font-family="Segoe UI" font-size="11.00" fill="#010509">LinkCommand</text>
</g>
<!-- DxzKpO3&#45;&gt;q4r4hpu -->
<g id="edge4" class="edge">
<title>DxzKpO3&#45;&gt;q4r4hpu</title>
<path fill="none" stroke="#ff1040" d="M89.0031,-279.1943C107.5751,-290.2647 132.2549,-304.2869 155,-315 162.4626,-318.5149 170.5169,-321.9335 178.4211,-325.0906"/>
<polygon fill="#ff1040" stroke="#ff1040" points="178.0231,-326.8148 183.3165,-327.0211 179.3071,-323.5588 178.0231,-326.8148"/>
</g>
<!-- qEd4hpu -->
<g id="node6" class="node">
<title>qEd4hpu</title>
<text text-anchor="middle" x="225.5" y="-285.2" font-family="Segoe UI" font-size="11.00" fill="#010509">ListCommand</text>
</g>
<!-- DxzKpO3&#45;&gt;qEd4hpu -->
<g id="edge5" class="edge">
<title>DxzKpO3&#45;&gt;qEd4hpu</title>
<path fill="none" stroke="#ff1040" d="M119.4298,-270.7476C139.2935,-273.9785 161.0722,-277.5208 179.6993,-280.5505"/>
<polygon fill="#ff1040" stroke="#ff1040" points="179.6492,-282.3153 184.8653,-281.3907 180.2111,-278.8607 179.6492,-282.3153"/>
</g>
<!-- qKZ4hpu -->
<g id="node7" class="node">
<title>qKZ4hpu</title>
<text text-anchor="middle" x="225.5" y="-231.2" font-family="Segoe UI" font-size="11.00" fill="#010509">SectionCommand</text>
</g>
<!-- DxzKpO3&#45;&gt;qKZ4hpu -->
<g id="edge6" class="edge">
<title>DxzKpO3&#45;&gt;qKZ4hpu</title>
<path fill="none" stroke="#ff1040" d="M119.4298,-251.2524C135.4496,-248.6467 152.715,-245.8385 168.5682,-243.26"/>
<polygon fill="#ff1040" stroke="#ff1040" points="169.2323,-244.925 173.8865,-242.395 168.6704,-241.4704 169.2323,-244.925"/>
</g>
<!-- qRZ4hpu -->
<g id="node8" class="node">
<title>qRZ4hpu</title>
<text text-anchor="middle" x="225.5" y="-177.2" font-family="Segoe UI" font-size="11.00" fill="#010509">SectionCommand</text>
</g>
<!-- DxzKpO3&#45;&gt;qRZ4hpu -->
<g id="edge7" class="edge">
<title>DxzKpO3&#45;&gt;qRZ4hpu</title>
<path fill="none" stroke="#ff1040" d="M89.0031,-242.8057C107.5751,-231.7353 132.2549,-217.7131 155,-207 159.9929,-204.6483 165.2508,-202.3397 170.5514,-200.1237"/>
<polygon fill="#ff1040" stroke="#ff1040" points="171.4684,-201.6387 175.4249,-198.116 170.1352,-198.4025 171.4684,-201.6387"/>
</g>
<!-- DB14hpu -->
<g id="node9" class="node">
<title>DB14hpu</title>
<text text-anchor="middle" x="225.5" y="-123.2" font-family="Segoe UI" font-size="11.00" fill="#010509">SubParagraphCommand</text>
</g>
<!-- DxzKpO3&#45;&gt;DB14hpu -->
<g id="edge8" class="edge">
<title>DxzKpO3&#45;&gt;DB14hpu</title>
<path fill="none" stroke="#ff1040" d="M71.3214,-242.9011C87.5946,-219.2617 119.0048,-177.9572 155,-153 158.4063,-150.6383 162.0468,-148.448 165.8119,-146.4229"/>
<polygon fill="#ff1040" stroke="#ff1040" points="166.638,-147.9659 170.2822,-144.1211 165.0358,-144.8542 166.638,-147.9659"/>
</g>
<!-- DJr4hpu -->
<g id="node10" class="node">
<title>DJr4hpu</title>
<text text-anchor="middle" x="225.5" y="-69.2" font-family="Segoe UI" font-size="11.00" fill="#010509">TextCommand</text>
</g>
<!-- DxzKpO3&#45;&gt;DJr4hpu -->
<g id="edge9" class="edge">
<title>DxzKpO3&#45;&gt;DJr4hpu</title>
<path fill="none" stroke="#ff1040" d="M65.6345,-242.7593C77.6593,-209.6251 107.3838,-139.2646 155,-99 161.9243,-93.1448 170.2553,-88.4823 178.7269,-84.7956"/>
<polygon fill="#ff1040" stroke="#ff1040" points="179.4882,-86.3745 183.4398,-82.8464 178.1505,-83.1402 179.4882,-86.3745"/>
</g>
<!-- DOZ4hpu -->
<g id="node11" class="node">
<title>DOZ4hpu</title>
<text text-anchor="middle" x="225.5" y="-15.2" font-family="Segoe UI" font-size="11.00" fill="#010509">TextDecoCommand</text>
</g>
<!-- DxzKpO3&#45;&gt;DOZ4hpu -->
<g id="edge10" class="edge">
<title>DxzKpO3&#45;&gt;DOZ4hpu</title>
<path fill="none" stroke="#ff1040" d="M62.6185,-242.9321C70.5859,-202.0559 95.4195,-101.6427 155,-45 157.8081,-42.3303 160.9078,-39.9172 164.1943,-37.737"/>
<polygon fill="#ff1040" stroke="#ff1040" points="165.4458,-39.0211 168.7818,-34.906 163.6077,-36.0426 165.4458,-39.0211"/>
</g>
</g>
</svg>
