<?xml version="1.0" encoding="UTF-8" standalone="no"?>
<!DOCTYPE svg PUBLIC "-//W3C//DTD SVG 1.1//EN"
 "http://www.w3.org/Graphics/SVG/1.1/DTD/svg11.dtd">
<!-- Generated by graphviz version 2.38.0 (20140413.2041)
 -->
<!-- Title: %3 Pages: 1 -->
<svg width="273pt" height="530pt"
 viewBox="0.00 0.00 273.00 530.00" xmlns="http://www.w3.org/2000/svg" xmlns:xlink="http://www.w3.org/1999/xlink">
<g id="graph0" class="graph" transform="scale(1 1) rotate(0) translate(4 526)">
<title>%3</title>
<polygon fill="none" stroke="none" points="-4,4 -4,-526 269,-526 269,4 -4,4"/>
<!-- DxzKpO3 -->
<g id="node1" class="node"><title>DxzKpO3</title>
<text text-anchor="middle" x="52.5" y="-258.2" font-family="Segoe UI" font-size="11.00" fill="#010509">ParagraphCommand</text>
</g>
<!-- DU14hpu -->
<g id="node2" class="node"><title>DU14hpu</title>
<text text-anchor="middle" x="203" y="-501.2" font-family="Segoe UI" font-size="11.00" fill="#010509">CodeCommand</text>
</g>
<!-- DxzKpO3&#45;&gt;DU14hpu -->
<g id="edge1" class="edge"><title>DxzKpO3&#45;&gt;DU14hpu</title>
<path fill="none" stroke="#ff1040" d="M56.1468,-279.142C62.9622,-319.736 84.6982,-418.878 141,-477 145.752,-481.905 151.551,-485.983 157.663,-489.355"/>
<polygon fill="#ff1040" stroke="#ff1040" points="157.141,-491.055 162.386,-491.798 158.749,-487.946 157.141,-491.055"/>
</g>
<!-- DNf4hpu -->
<g id="node3" class="node"><title>DNf4hpu</title>
<text text-anchor="middle" x="203" y="-447.2" font-family="Segoe UI" font-size="11.00" fill="#010509">ImageCommand</text>
</g>
<!-- DxzKpO3&#45;&gt;DNf4hpu -->
<g id="edge2" class="edge"><title>DxzKpO3&#45;&gt;DNf4hpu</title>
<path fill="none" stroke="#ff1040" d="M58.8875,-279.013C69.5259,-311.776 96.1671,-381.556 141,-423 145.167,-426.852 149.974,-430.219 155.023,-433.145"/>
<polygon fill="#ff1040" stroke="#ff1040" points="154.489,-434.847 159.716,-435.709 156.167,-431.776 154.489,-434.847"/>
</g>
<!-- q8Z4hpu -->
<g id="node4" class="node"><title>q8Z4hpu</title>
<text text-anchor="middle" x="203" y="-393.2" font-family="Segoe UI" font-size="11.00" fill="#010509">KeyValueListCommand</text>
</g>
<!-- DxzKpO3&#45;&gt;q8Z4hpu -->
<g id="edge3" class="edge"><title>DxzKpO3&#45;&gt;q8Z4hpu</title>
<path fill="none" stroke="#ff1040" d="M64.4184,-279.288C79.2169,-302.757 107.657,-343.479 141,-369 143.908,-371.226 147.029,-373.314 150.265,-375.265"/>
<polygon fill="#ff1040" stroke="#ff1040" points="149.534,-376.863 154.741,-377.839 151.279,-373.829 149.534,-376.863"/>
</g>
<!-- q4r4hpu -->
<g id="node5" class="node"><title>q4r4hpu</title>
<text text-anchor="middle" x="203" y="-339.2" font-family="Segoe UI" font-size="11.00" fill="#010509">LinkCommand</text>
</g>
<!-- DxzKpO3&#45;&gt;q4r4hpu -->
<g id="edge4" class="edge"><title>DxzKpO3&#45;&gt;q4r4hpu</title>
<path fill="none" stroke="#ff1040" d="M80.526,-279.005C97.5401,-290.005 120.152,-304.018 141,-315 147.411,-318.377 154.331,-321.716 161.129,-324.833"/>
<polygon fill="#ff1040" stroke="#ff1040" points="160.532,-326.484 165.808,-326.954 161.977,-323.296 160.532,-326.484"/>
</g>
<!-- qEd4hpu -->
<g id="node6" class="node"><title>qEd4hpu</title>
<text text-anchor="middle" x="203" y="-285.2" font-family="Segoe UI" font-size="11.00" fill="#010509">ListCommand</text>
</g>
<!-- DxzKpO3&#45;&gt;qEd4hpu -->
<g id="edge5" class="edge"><title>DxzKpO3&#45;&gt;qEd4hpu</title>
<path fill="none" stroke="#ff1040" d="M105.021,-270.368C123.697,-273.763 144.495,-277.545 162.027,-280.732"/>
<polygon fill="#ff1040" stroke="#ff1040" points="162.125,-282.529 167.358,-281.701 162.751,-279.085 162.125,-282.529"/>
</g>
<!-- qKZ4hpu -->
<g id="node7" class="node"><title>qKZ4hpu</title>
<text text-anchor="middle" x="203" y="-231.2" font-family="Segoe UI" font-size="11.00" fill="#010509">SectionCommand</text>
</g>
<!-- DxzKpO3&#45;&gt;qKZ4hpu -->
<g id="edge6" class="edge"><title>DxzKpO3&#45;&gt;qKZ4hpu</title>
<path fill="none" stroke="#ff1040" d="M105.021,-251.632C120.375,-248.841 137.163,-245.788 152.392,-243.02"/>
<polygon fill="#ff1040" stroke="#ff1040" points="152.886,-244.709 157.492,-242.092 152.26,-241.265 152.886,-244.709"/>
</g>
<!-- qRZ4hpu -->
<g id="node8" class="node"><title>qRZ4hpu</title>
<text text-anchor="middle" x="203" y="-177.2" font-family="Segoe UI" font-size="11.00" fill="#010509">SectionCommand</text>
</g>
<!-- DxzKpO3&#45;&gt;qRZ4hpu -->
<g id="edge7" class="edge"><title>DxzKpO3&#45;&gt;qRZ4hpu</title>
<path fill="none" stroke="#ff1040" d="M80.526,-242.995C97.5401,-231.995 120.152,-217.982 141,-207 145.38,-204.693 149.999,-202.403 154.654,-200.189"/>
<polygon fill="#ff1040" stroke="#ff1040" points="155.53,-201.711 159.313,-198.003 154.044,-198.543 155.53,-201.711"/>
</g>
<!-- DB14hpu -->
<g id="node9" class="node"><title>DB14hpu</title>
<text text-anchor="middle" x="203" y="-123.2" font-family="Segoe UI" font-size="11.00" fill="#010509">SubParagraphCommand</text>
</g>
<!-- DxzKpO3&#45;&gt;DB14hpu -->
<g id="edge8" class="edge"><title>DxzKpO3&#45;&gt;DB14hpu</title>
<path fill="none" stroke="#ff1040" d="M64.4184,-242.712C79.2169,-219.243 107.657,-178.521 141,-153 143.908,-150.774 147.029,-148.686 150.265,-146.735"/>
<polygon fill="#ff1040" stroke="#ff1040" points="151.279,-148.171 154.741,-144.161 149.534,-145.137 151.279,-148.171"/>
</g>
<!-- DJr4hpu -->
<g id="node10" class="node"><title>DJr4hpu</title>
<text text-anchor="middle" x="203" y="-69.2" font-family="Segoe UI" font-size="11.00" fill="#010509">TextCommand</text>
</g>
<!-- DxzKpO3&#45;&gt;DJr4hpu -->
<g id="edge9" class="edge"><title>DxzKpO3&#45;&gt;DJr4hpu</title>
<path fill="none" stroke="#ff1040" d="M58.8875,-242.987C69.5259,-210.224 96.1671,-140.444 141,-99 146.666,-93.7623 153.515,-89.4221 160.546,-85.867"/>
<polygon fill="#ff1040" stroke="#ff1040" points="161.676,-87.2664 165.431,-83.5298 160.166,-84.1092 161.676,-87.2664"/>
</g>
<!-- DOZ4hpu -->
<g id="node11" class="node"><title>DOZ4hpu</title>
<text text-anchor="middle" x="203" y="-15.2" font-family="Segoe UI" font-size="11.00" fill="#010509">TextDecoCommand</text>
</g>
<!-- DxzKpO3&#45;&gt;DOZ4hpu -->
<g id="edge10" class="edge"><title>DxzKpO3&#45;&gt;DOZ4hpu</title>
<path fill="none" stroke="#ff1040" d="M56.1468,-242.858C62.9622,-202.264 84.6982,-103.122 141,-45 143.014,-42.9204 145.217,-40.9895 147.552,-39.198"/>
<polygon fill="#ff1040" stroke="#ff1040" points="148.822,-40.4431 151.886,-36.122 146.796,-37.5889 148.822,-40.4431"/>
</g>
</g>
</svg>
